<svg width="160" height="160" fill="none" xmlns="http://www.w3.org/2000/svg"><path d="M153.33 108.279c-16.114 37.691-58.652 53.879-91.982 51.121-9.1-.754-27.41-2.271-41.707-15.799-27.453-25.982-23.227-80.289 3.056-112.262C26.082 27.222 49.51-.365 86.018.004c26.731.27 45.492 15.38 47.773 17.262 2.882 2.377 9.238 8.028 14.967 16.992 13.46 21.063 14.642 50.467 4.572 74.021z" fill="url(#paint0_linear_295_3491)"/><path d="M153.78 37.904H63.282v75.883h90.498V37.904z" fill="url(#paint1_linear_295_3491)"/><path d="M156.92 28.058l-96.836.61c-1.314.008-2.397.97-2.397 2.148v14.457c0 1.135 1.022 2.064 2.286 2.07l96.947.61c1.438.009 2.649-.967 2.649-2.178V30.24c0-1.216-1.209-2.192-2.649-2.183z" fill="url(#paint2_linear_295_3491)"/><path d="M156.875 28.058l-96.903.61c-1.264.008-2.288.935-2.288 2.069l101.797-.5c0-1.212-1.168-2.188-2.606-2.179z" fill="url(#paint3_linear_295_3491)"/><path d="M59.972 47.342l96.903.61c1.438.01 2.606-.966 2.606-2.178l-101.797-.5c0 1.133 1.024 2.06 2.288 2.068z" fill="url(#paint4_linear_295_3491)"/><path d="M156.998 52.166l-96.91-.2c-1.356 0-2.477.978-2.491 2.191l-.186 14.924c-.014 1.173 1.031 2.134 2.339 2.145l97.243.85c1.398.013 2.578-.962 2.578-2.177V54.362c-.002-1.21-1.178-2.193-2.573-2.196z" fill="url(#paint5_linear_295_3491)"/><path d="M156.953 52.167l-96.977-.202c-1.305 0-2.373.942-2.387 2.111l101.894.287c-.002-1.21-1.135-2.193-2.53-2.196z" fill="url(#paint6_linear_295_3491)"/><path d="M59.747 71.226l97.2.85c1.399.013 2.534-.962 2.534-2.177L57.406 69.08c-.015 1.173 1.033 2.134 2.341 2.145z" fill="url(#paint7_linear_295_3491)"/><path d="M157.039 76.327h-96.82c-1.4 0-2.532 1.032-2.532 2.293v15.45c0 1.213 1.088 2.144 2.439 2.144h96.913c1.348 0 2.53-.931 2.53-2.144V78.535c0-1.213-1.182-2.208-2.53-2.208z" fill="url(#paint8_linear_295_3491)"/><path d="M157.039 76.327H60.126c-1.349 0-2.442.965-2.442 2.124h101.797c0-1.159-1.094-2.124-2.442-2.124z" fill="url(#paint9_linear_295_3491)"/><path d="M60.126 96.216h96.913c1.348 0 2.442-.966 2.442-2.124H57.684c0 1.16 1.093 2.124 2.442 2.124z" fill="url(#paint10_linear_295_3491)"/><path d="M157.141 100.88l-96.873-.379c-1.426-.006-2.581 1.011-2.581 2.27v15.453c0 1.211 1.111 2.194 2.484 2.194l96.919.038c1.325 0 2.401-.964 2.406-2.154l.043-15.256c0-1.191-1.072-2.161-2.398-2.166z" fill="url(#paint11_linear_295_3491)"/><path d="M157.141 100.88l-96.97-.38c-1.375-.005-2.487.975-2.487 2.187l101.852.359c.003-1.191-1.069-2.161-2.395-2.166z" fill="url(#paint12_linear_295_3491)"/><path d="M60.17 120.418l96.919.037c1.325 0 2.401-.963 2.406-2.153l-101.808-.079c-.003 1.212 1.11 2.195 2.483 2.195z" fill="url(#paint13_linear_295_3491)"/><path opacity=".3" d="M107.518 30.06a.655.655 0 01-.54-.688c.049-.738.131-1.483.243-2.218a.646.646 0 01.259-.428.656.656 0 01.486-.12h.012a.653.653 0 01.535.745 24.994 24.994 0 00-.232 2.108.659.659 0 01-.696.609.9.9 0 01-.067-.008zm1.011-5.61a.658.658 0 01-.516-.832c.212-.71.458-1.42.725-2.107a.656.656 0 01.848-.37.653.653 0 01.37.847 24.223 24.223 0 00-.688 2.006.655.655 0 01-.739.457zm2.221-5.246a.653.653 0 01-.458-.967c.363-.645.759-1.283 1.177-1.891a.653.653 0 011.188.501.665.665 0 01-.108.237c-.397.58-.773 1.186-1.118 1.799a.657.657 0 01-.681.32zm3.338-4.62a.65.65 0 01-.479-.366.646.646 0 01.108-.719 26.489 26.489 0 011.571-1.584.65.65 0 01.718-.113.649.649 0 01.34.367.666.666 0 01-.17.707c-.515.478-1.018.984-1.492 1.505a.648.648 0 01-.596.203zm4.284-3.758a.657.657 0 01-.497-.882.656.656 0 01.235-.299 26.61 26.61 0 011.882-1.196.65.65 0 01.725.048.656.656 0 01-.072 1.086c-.61.352-1.212.735-1.788 1.136a.651.651 0 01-.485.107zm5.008-2.715a.658.658 0 01-.539-.575.656.656 0 01.404-.677c.687-.278 1.392-.53 2.099-.75a.656.656 0 01.836.427.657.657 0 01-.218.706.65.65 0 01-.231.118c-.672.208-1.343.447-1.995.712a.643.643 0 01-.356.039zm23.874 2.549a.656.656 0 01-.257-.105c-.58-.395-1.186-.77-1.8-1.116a.652.652 0 01-.084-1.084.654.654 0 01.724-.056 26.05 26.05 0 011.897 1.175.654.654 0 01-.48 1.186zM128.86 6.573a.653.653 0 01.007-1.29 26.06 26.06 0 012.213-.263.655.655 0 11.098 1.305c-.701.053-1.408.137-2.101.249a.656.656 0 01-.217 0zm13.353 1.433a.646.646 0 01-.126-.035 26.079 26.079 0 00-2.005-.688.657.657 0 01-.337-1.047.654.654 0 01.707-.208c.711.21 1.421.453 2.11.721a.655.655 0 01-.349 1.255v.002zm-7.666-1.704a.653.653 0 01.155-1.297 26.25 26.25 0 012.216.24h.013a.652.652 0 01.541.75.66.66 0 01-.263.426.66.66 0 01-.487.115 25.782 25.782 0 00-2.175-.236v.002zm16.252 7.277a.652.652 0 01-.344-.178 24.915 24.915 0 00-.739-.7.656.656 0 01.161-1.077.657.657 0 01.718.108c.264.24.526.489.779.738a.657.657 0 01.122.766.654.654 0 01-.695.344l-.002-.002zm7.594 18.444a.654.654 0 01-.542-.653c.004-.337 0-.68-.009-1.02a.653.653 0 111.308-.038c.01.358.013.72.009 1.074a.652.652 0 01-.662.646.678.678 0 01-.104-.01zm-29.777 24.819c-.296-.05-.593-.107-.89-.17a.652.652 0 01-.499-.772.655.655 0 01.766-.509c.687.142 1.374.257 2.057.34a.653.653 0 01-.16 1.3 25.77 25.77 0 01-1.274-.19zm-4.213-1.102a.595.595 0 01-.108-.028 25.971 25.971 0 01-2.036-.819.656.656 0 01-.326-.865.654.654 0 01.865-.327c.63.286 1.28.546 1.934.778a.656.656 0 01.136 1.166.655.655 0 01-.465.095zm8.925 1.472a.656.656 0 01-.543-.696.653.653 0 01.645-.603c.691-.01 1.391-.05 2.08-.119a.654.654 0 11.13 1.302c-.726.073-1.463.115-2.19.126a.654.654 0 01-.122-.01zm-13.972-3.916a.659.659 0 01-.236-.091 25.948 25.948 0 01-1.806-1.248.655.655 0 01.558-1.155c.083.021.161.06.229.11.553.418 1.129.816 1.715 1.186a.65.65 0 01.261.787.655.655 0 01-.719.411h-.002zm19.528 3.21a.654.654 0 01-.042-1.281c.67-.162 1.344-.355 2.005-.573a.652.652 0 01.79.913.644.644 0 01-.378.328c-.693.23-1.402.434-2.109.604a.644.644 0 01-.266.009zm5.269-1.907a.653.653 0 01-.466-.95.651.651 0 01.289-.282 26.073 26.073 0 001.833-.997.653.653 0 11.673 1.122 26.56 26.56 0 01-1.926 1.05.647.647 0 01-.402.06l-.001-.003zm4.728-3.01a.65.65 0 01-.521-.482.649.649 0 01.224-.674 25.67 25.67 0 001.57-1.372.654.654 0 11.9.948 26.36 26.36 0 01-1.651 1.444.661.661 0 01-.523.137l.001-.002zm3.96-3.972a.656.656 0 01-.401-1.053c.432-.542.846-1.107 1.23-1.683a.663.663 0 01.416-.278.653.653 0 01.672 1.005c-.404.606-.84 1.204-1.295 1.773a.655.655 0 01-.624.24l.002-.004zm2.992-4.745a.656.656 0 01-.477-.93c.301-.623.58-1.266.829-1.913a.643.643 0 01.344-.363.654.654 0 01.876.833c-.261.68-.555 1.358-.873 2.013a.652.652 0 01-.7.362l.001-.002zm1.876-5.284a.66.66 0 01-.445-.301.644.644 0 01-.08-.495 28.472 28.472 0 00.395-2.048.665.665 0 01.258-.429.653.653 0 01.487-.12.645.645 0 01.549.745 25.975 25.975 0 01-.416 2.155.656.656 0 01-.749.496l.001-.003zm-42.748 12.2a.66.66 0 01-.35-.181c-.25-.25-.501-.51-.744-.773a.653.653 0 01.506-1.098.652.652 0 01.454.21c.229.25.468.497.706.734a.655.655 0 01-.573 1.108h.001z" fill="#91B3FA"/><path d="M117.122 42.462a.303.303 0 00.321.15l3.659-.67a16.192 16.192 0 004.13 3.242l.223 3.713a.307.307 0 00.223.276l4.296 1.2a.306.306 0 00.333-.12l2.111-3.062a16.18 16.18 0 005.213-.634l2.783 2.47a.303.303 0 00.353.037l3.886-2.191a.31.31 0 00.151-.322l-.67-3.66a16.21 16.21 0 003.239-4.134l3.71-.223a.303.303 0 00.277-.223l1.198-4.298a.305.305 0 00-.12-.335l-3.059-2.112a16.246 16.246 0 00-.63-5.216l2.467-2.785a.303.303 0 00.038-.353l-2.191-3.89a.306.306 0 00-.321-.15l-3.658.671a16.185 16.185 0 00-4.13-3.242l-.226-3.715a.308.308 0 00-.223-.277l-4.296-1.2a.304.304 0 00-.334.121l-2.112 3.061c-1.76-.074-3.521.14-5.212.634l-2.784-2.468a.307.307 0 00-.353-.038l-3.886 2.193a.301.301 0 00-.15.322l.67 3.66a16.212 16.212 0 00-3.24 4.132l-3.71.223a.306.306 0 00-.276.223l-1.199 4.3a.304.304 0 00.12.333l3.059 2.113a16.218 16.218 0 00.631 5.216l-2.464 2.786a.309.309 0 00-.037.353l2.19 3.889z" fill="#91B3FA"/><path d="M132.324 35.312a4.489 4.489 0 01-2.02-7.946 4.482 4.482 0 016.198.608 4.49 4.49 0 01-4.178 7.338zm1.36-7.81a3.427 3.427 0 10-1.173 6.752 3.427 3.427 0 001.173-6.752z" fill="#BDD0FB"/><path d="M131.311 41.716a11.22 11.22 0 01-3.087-1.013l-.021-.01-.061-.032-.118-.061a.262.262 0 01.244-.463 10.508 10.508 0 0013.319-3.018 10.532 10.532 0 001.937-4.513 10.518 10.518 0 00-1.482-7.394 10.507 10.507 0 00-6.049-4.499c-5.581-1.558-11.384 1.717-12.94 7.299a10.499 10.499 0 00-.016 5.599.28.28 0 01.011.104.27.27 0 01-.098.18.267.267 0 01-.297.02.266.266 0 01-.121-.166 11.062 11.062 0 01.017-5.878c1.634-5.86 7.73-9.297 13.585-7.662a11.04 11.04 0 017.655 13.594 11.036 11.036 0 01-4.721 6.354 11.023 11.023 0 01-7.759 1.556l.002.003z" fill="#BDD0FB"/><path opacity=".3" d="M82.597 43.246a.4.4 0 01-.333-.352 16.82 16.82 0 01-.087-1.032.404.404 0 01.807-.044c.017.327.045.657.083.982a.401.401 0 01-.47.445v.001zm-.068-3.108a.401.401 0 01-.334-.426 17.568 17.568 0 01.281-2.132.419.419 0 01.474-.32.404.404 0 01.32.473 17 17 0 00-.27 2.035.404.404 0 01-.43.375l-.041-.005zm.802-4.118a.404.404 0 01-.317-.523c.222-.683.485-1.351.788-2.001a.404.404 0 11.732.343c-.29.62-.54 1.258-.752 1.91a.404.404 0 01-.451.27zm1.776-3.8a.405.405 0 01-.273-.615c.382-.608.802-1.192 1.256-1.747a.403.403 0 01.7.372.403.403 0 01-.074.139c-.434.53-.834 1.087-1.198 1.666a.405.405 0 01-.412.184zm2.655-3.25a.4.4 0 01-.21-.687c.52-.495 1.07-.958 1.646-1.385a.406.406 0 01.564.084.404.404 0 01-.084.565 16.59 16.59 0 00-1.568 1.318.4.4 0 01-.349.106h.001zm3.367-2.5a.4.4 0 01-.13-.75 17.682 17.682 0 011.93-.944.405.405 0 01.558.372.405.405 0 01-.248.373c-.632.262-1.247.563-1.842.9a.4.4 0 01-.268.049zM95 24.864a.401.401 0 01-.039-.788c.691-.191 1.393-.34 2.102-.444a.404.404 0 01.45.502.405.405 0 01-.335.3c-.676.1-1.346.241-2.005.424a.4.4 0 01-.173.006zm4.145-.61a.402.402 0 01.06-.803 17.52 17.52 0 012.149.085.406.406 0 01.336.44.404.404 0 01-.418.363 16.686 16.686 0 00-2.048-.082.384.384 0 01-.079-.005v.001zm6.187 1.017a.325.325 0 01-.069-.018 16.856 16.856 0 00-1.968-.578.405.405 0 01.179-.789 17.654 17.654 0 012.064.606.4.4 0 01.244.187.401.401 0 01-.45.591v.001zM96.86 58.142a.405.405 0 01.132-.797 16.62 16.62 0 002.004.196.405.405 0 01-.03.809 17.541 17.541 0 01-2.103-.207l-.004-.001zm-2.018-.448a17.672 17.672 0 01-2.037-.711.404.404 0 01.313-.746c.62.261 1.256.485 1.903.67a.403.403 0 01-.18.787zm6.138.6a.4.4 0 11.034-.802 16.82 16.82 0 001.996-.295.402.402 0 01.42.616.401.401 0 01-.255.175c-.69.145-1.389.248-2.092.309a.409.409 0 01-.103-.003zm-9.94-2.203a.405.405 0 01-.132-.048 17.412 17.412 0 01-1.767-1.164.407.407 0 01-.15-.424.404.404 0 01.634-.223 16.49 16.49 0 001.685 1.11.401.401 0 01-.27.749zm13.977 1.354a.398.398 0 01-.344-.365.404.404 0 01.282-.416c.637-.217 1.26-.473 1.865-.765a.404.404 0 01.352.727c-.636.307-1.289.575-1.957.803a.406.406 0 01-.201.016h.003zm3.713-1.793a.403.403 0 01-.307-.556.403.403 0 01.158-.182 16.95 16.95 0 001.629-1.19.41.41 0 01.295-.092.404.404 0 01.22.714c-.543.45-1.114.867-1.707 1.248a.402.402 0 01-.29.058h.002zm3.178-2.631a.403.403 0 01-.314-.272.409.409 0 01.09-.405c.463-.489.896-1.005 1.296-1.547a.404.404 0 11.649.48c-.419.568-.873 1.11-1.359 1.623a.402.402 0 01-.365.12h.003zm-24.183.58a.405.405 0 01-.211-.107c-.249-.24-.492-.488-.722-.738a.404.404 0 01.593-.548c.22.238.451.475.687.704a.404.404 0 01-.349.688l.002.001z" fill="#91B3FA"/><path d="M88.945 48.515a.204.204 0 00.215.101l2.448-.449c.797.869 1.73 1.602 2.763 2.17l.15 2.484a.205.205 0 00.149.184l2.875.803a.204.204 0 00.223-.08l1.413-2.049a10.83 10.83 0 003.487-.424l1.862 1.652a.206.206 0 00.236.026l2.601-1.467a.202.202 0 00.084-.091.202.202 0 00.016-.124l-.448-2.45a10.84 10.84 0 002.168-2.766l2.482-.148a.205.205 0 00.185-.15l.802-2.877a.205.205 0 00-.081-.224l-2.045-1.412a10.86 10.86 0 00-.424-3.49l1.652-1.863a.202.202 0 00.05-.114.2.2 0 00-.025-.122l-1.466-2.603a.208.208 0 00-.091-.084.209.209 0 00-.124-.017l-2.448.45a10.831 10.831 0 00-2.764-2.17l-.149-2.485a.198.198 0 00-.045-.116.201.201 0 00-.104-.068l-2.875-.803a.206.206 0 00-.223.081l-1.413 2.049a10.832 10.832 0 00-3.487.423l-1.862-1.652a.206.206 0 00-.236-.025l-2.601 1.467a.206.206 0 00-.1.215l.448 2.45c-.868.797-1.6 1.731-2.168 2.765l-2.483.149a.205.205 0 00-.184.15l-.802 2.876a.205.205 0 00.08.224l2.048 1.414a10.85 10.85 0 00.423 3.489l-1.654 1.863a.206.206 0 00-.025.236l1.467 2.602z" fill="#91B3FA"/><path d="M99.104 43.786a3.064 3.064 0 01-2.514-3.433 3.067 3.067 0 013.335-2.64 3.064 3.064 0 012.761 3.237 3.063 3.063 0 01-3.582 2.836zm.91-5.227a2.246 2.246 0 00-2.63 2.16 2.25 2.25 0 002.19 2.303 2.245 2.245 0 002.292-2.027 2.246 2.246 0 00-1.852-2.436z" fill="#BDD0FB"/><path d="M98.393 48.24a7.66 7.66 0 01-2.198-.736l-.062-.032a.404.404 0 01.376-.715c.428.226.88.405 1.346.534l.077.022a6.728 6.728 0 005.036-.618l.013-.007.041-.023a6.76 6.76 0 003.207-4.098 6.817 6.817 0 00-1.462-6.34 6.796 6.796 0 00-11.777 3.292 6.81 6.81 0 00.13 3.014.405.405 0 01-.59.458.404.404 0 01-.189-.244 7.601 7.601 0 01.013-4.055 7.612 7.612 0 018.993-5.383 7.614 7.614 0 01-2.954 14.932z" fill="#BDD0FB"/><path d="M9.707 137.524a2.182 2.182 0 002.176 2.175h117.655a2.182 2.182 0 002.177-2.175l.979-67.656c0-1.197-1.408-3.532-3.99-3.356L13.717 63.535a5.48 5.48 0 00-5.232 3.439 5.49 5.49 0 00-.394 2.172l1.616 68.378z" fill="url(#paint14_linear_295_3491)"/><path d="M11.854 135.438a2.064 2.064 0 002.059 2.058h112.786a2.062 2.062 0 002.058-2.06l.924-61.418c-.109-3.697-3.347-5.025-5.31-4.946L14.168 66.114a3.85 3.85 0 00-3.952 3.946l1.638 65.378z" fill="url(#paint15_linear_295_3491)"/><path d="M127.537 106.258h-.004a.3.3 0 01-.276-.191.288.288 0 01-.021-.116l.073-4.981a.301.301 0 01.301-.297h.003a.29.29 0 01.213.091.307.307 0 01.086.215l-.073 4.981a.3.3 0 01-.09.211.299.299 0 01-.212.087zm.177-12.205a.305.305 0 01-.276-.19.307.307 0 01-.021-.117l.28-19.077c-.005-1.133-.349-2.038-1.022-2.683-1.256-1.204-3.25-1.142-3.333-1.139l-35.223-.945a.302.302 0 01-.294-.31.287.287 0 01.31-.293l35.202.945c.219-.013 2.342-.05 3.755 1.306.796.763 1.203 1.813 1.208 3.122l-.28 19.084a.304.304 0 01-.091.212.296.296 0 01-.215.085z" fill="#7D97F4"/><path d="M.485 145.315h138.061a.324.324 0 00.324-.324v-5.296a.324.324 0 00-.324-.324H.486a.324.324 0 00-.324.324v5.296c0 .179.145.324.323.324z" fill="url(#paint16_linear_295_3491)"/><path d="M21.175 87.303V89.8h36.42v-2.496h-36.42zm-.172-16.684v2.496h36.42V70.62h-36.42zM31.27 74.89v2.496h26.262V74.89H31.27zm-5.557-.2v2.496h3.78V74.69h-3.78zm5.531 4.372v2.496h26.262v-2.496H31.244zm-5.55-.199v2.496h3.78v-2.496h-3.78zm5.454 4.365v2.497h26.261v-2.496H31.148zm-5.678-.199v2.496h3.78v-2.496h-3.78zm-4.468 21.644v2.497h36.42v-2.497h-36.42zM31.099 92.26v2.497H57.36v-2.496H31.1zm-5.559-.2v2.496h3.78V92.06h-3.78zm5.532 4.373v2.496h26.262v-2.496H31.072zm-5.55-.2v2.497H29.3v-2.497h-3.78zm5.454 4.366v2.496h26.262v-2.496H30.976zm-5.679-.2v2.496h3.779v-2.496h-3.78zm-4.295 21.622v2.496h36.42v-2.496h-36.42zm10.097-12.412v2.496H57.36v-2.496H31.1zm-5.559-.201v2.496h3.78v-2.496h-3.78zm5.532 4.373v2.497h26.261v-2.497H31.072zm-5.551-.2v2.496h3.78v-2.496h-3.78zm5.454 4.366v2.496h26.262v-2.496H30.975zm-5.678-.201v2.496h3.779v-2.496h-3.78zm5.974 8.8v2.496h26.262v-2.496H31.27zm-5.558-.2v2.496h3.78v-2.496h-3.78zm5.35 4.372v2.497h26.262v-2.497H31.063zm-5.55-.199v2.496h3.779v-2.496h-3.78zm59.755-12.146v2.53h26.215v-2.53H85.268zm-10.664-4.228v2.53h42.533v-2.53H74.604zm13.602-4.224v2.531H122.3v-2.531H88.206zm.001-4.227v2.531h19.441v-2.531H88.207zm.451-4.232v2.53h34.052v-2.53H88.658zm-3.047-4.222v2.53h28.775v-2.53H85.611zm-11.006-4.236v2.53h30.722v-2.53H74.605zm13.713-4.225v2.53h35.052v-2.53H88.318zm.001-4.228v2.53h35.486v-2.53H88.319zm.339-4.228v2.53h34.959v-2.53h-34.96zm-6.328-4.227v2.53h28.638v-2.53H82.33zM64.363 88.673v2.53h7.426v-2.53h-7.426zm0 4.349v2.53h7.426v-2.53h-7.426zm0 4.17v2.53h7.426v-2.53h-7.426zm-.001 4.243v2.53h7.426v-2.53h-7.426zm.001 4.349v2.53h7.426v-2.53h-7.426zm-.001 4.171v2.53h7.426v-2.53h-7.426zm.378 4.157v2.53h7.425v-2.53H64.74zm0 4.349v2.53h7.426v-2.53H64.74zm0 4.17v2.53h7.425v-2.53H64.74zm0 4.255v2.53h7.426v-2.53H64.74zm0 4.349v2.53h7.426v-2.53H64.74zm-.378-46.685v2.53h7.426v-2.53h-7.426zm0-4.224v2.53h7.426v-2.53h-7.426zm.001-4.231v2.53h7.426v-2.53h-7.426zm-.001-4.227v2.53h7.426v-2.53h-7.426zm10.253.003v2.531h35.612c0-1.398-1.146-2.53-2.563-2.53H74.615zm13.93 59.53v2.53h35.912v-2.53H88.545zm0-4.356v2.53h35.259v-2.53H88.545zm.006-4.153v2.53h22.423c0-1.398-.722-2.531-1.614-2.531l-20.809.001zM61.002 70.137h-.04a.343.343 0 00-.343.343v64.814c0 .19.154.343.343.343h.04c.19 0 .343-.153.343-.343V70.48a.343.343 0 00-.343-.343z" fill="#7D97F4"/><path d="M112.38 104.251l44.609 47.632a4.694 4.694 0 011.258 3.547 4.69 4.69 0 01-1.748 3.331l-.351.282a4.359 4.359 0 01-6.151-.703l-40.662-51.489 3.045-2.6z" fill="url(#paint17_linear_295_3491)"/><path opacity=".5" d="M120.305 93.222c7.415-14.65 1.339-32.651-13.57-40.207-14.91-7.556-33.007-1.805-40.421 12.845-7.415 14.65-1.34 32.651 13.57 40.207 14.91 7.556 33.006 1.805 40.421-12.845z" fill="#fff"/><path d="M63.267 64.314c-8.248 16.302-1.49 36.332 15.103 44.738 16.592 8.407 36.727 2.007 44.976-14.295 8.249-16.301 1.489-36.333-15.103-44.739-16.592-8.406-36.727-2.006-44.976 14.296zm4.41 2.235c7.038-13.907 24.217-19.368 38.371-12.196 14.153 7.172 19.922 24.26 12.884 38.167-7.037 13.908-24.217 19.368-38.37 12.196-14.154-7.171-19.92-24.259-12.883-38.166h-.001z" fill="url(#paint18_linear_295_3491)"/><path d="M119.266 97.125a.084.084 0 01-.036-.055.087.087 0 01.012-.065 29.04 29.04 0 001.246-2 .083.083 0 01.052-.045.085.085 0 01.068.007.09.09 0 01.027.023c.007.01.012.02.015.032a.103.103 0 01.001.035.095.095 0 01-.013.033c-.39.685-.812 1.361-1.252 2.012a.09.09 0 01-.036.03.084.084 0 01-.084-.007zm3.994-8.347a.087.087 0 01-.051-.042.088.088 0 01-.006-.066 30.237 30.237 0 001.175-6.305c.471-6.045-.862-12.08-3.854-17.448-3.065-5.498-7.679-9.921-13.347-12.793a31.579 31.579 0 00-17.15-3.307.087.087 0 01-.015-.172 31.749 31.749 0 0117.242 3.324c5.697 2.887 10.336 7.337 13.418 12.862 3.009 5.399 4.349 11.464 3.876 17.547a30.388 30.388 0 01-1.183 6.342.084.084 0 01-.036.047.083.083 0 01-.057.014l-.012-.003zm29.161 69.643c1.92.248 3.251-.261 3.953-1.515.716-1.276.509-2.904-.516-4.049l-5.27-5.89a.087.087 0 00-.058-.024.09.09 0 00-.059.022.085.085 0 00-.011.117l5.269 5.889c.974 1.089 1.175 2.636.495 3.85-.673 1.199-1.959 1.679-3.842 1.42a.085.085 0 00-.064.017.096.096 0 00-.023.026.11.11 0 00-.011.032.093.093 0 00.018.064.067.067 0 00.025.022c.01.006.021.01.032.011l.062.008zm-3.53-13.126c.012.001.025 0 .037-.003a.087.087 0 00.038-.14l-.682-.763a.118.118 0 00-.027-.023.085.085 0 00-.1.011.085.085 0 00-.022.097.083.083 0 00.02.03l.683.762a.088.088 0 00.053.029z" fill="#BDD0FB"/><path d="M57.32 33.203a.44.44 0 01-.426-.434c-.044-2.43-.792-14.496-11.281-17.018-11.678-2.808-17.022 9.224-17.022 9.224S14.142 19.363 11.37 34.4C2.313 36.602-.041 48.589 5.852 54.446a5.03 5.03 0 003.503 1.468l56.736.516a3.737 3.737 0 003.614-2.706c1.773-6.059 4.096-20.13-12.384-20.52z" fill="#91B3FA"/><path d="M56.023 33.462a.439.439 0 01-.426-.433c-.047-2.33-.788-13.519-10.666-15.865-11.042-2.62-16.096 8.614-16.096 8.614s-13.662-5.243-16.283 8.801C4.068 36.616 1.804 47.616 7.174 53.14a5.04 5.04 0 003.566 1.53l53.41.482a3.74 3.74 0 003.617-2.717c1.666-5.757 3.64-18.602-11.744-18.973z" fill="#BDD0FB"/><path d="M2.913 135.522c-.484.717-2.41 16.966-2.711 22.964a.713.713 0 00.43.688.71.71 0 00.982-.544l3.522-22.59-2.223-.518zm15.486 0c.484.717 2.41 16.966 2.712 22.964a.713.713 0 01-.43.688.71.71 0 01-.983-.544l-3.522-22.59 2.223-.518z" fill="#7D97F4"/><path d="M0 134.254v.177c-.011 1.275 1.086 2.32 2.46 2.343l16.283.278c1.354.023 2.483-.956 2.548-2.211l.009-.162c.069-1.309-1.042-2.412-2.454-2.437l-16.29-.292C1.16 131.925.011 132.961 0 134.254z" fill="#7D97F4"/><path d="M31.678 157.896c-2.895 0-4.175-.249-4.748-.475a1.099 1.099 0 001.07.85h10.242a.495.495 0 00.48-.63c-1.168.095-3.649.255-7.044.255z" fill="url(#paint19_linear_295_3491)"/><path d="M38.72 157.642a.493.493 0 00-.084-.172c-.78-.996-2.349-2.561-4.479-2.531-3.122.044-4.21.383-6.637.019l-.573 1.899a1.096 1.096 0 00-.017.566c.573.226 1.853.475 4.748.475 3.395-.002 5.876-.162 7.042-.256z" fill="url(#paint20_linear_295_3491)"/><path d="M28.222 152.91l-.702 2.391s1.557.709 2.926.14l.268-2.072-2.492-.459z" fill="url(#paint21_linear_295_3491)"/><path d="M49.446 156.39c-2.257 1.814-3.41 2.424-3.997 2.607a1.095 1.095 0 001.364-.01l7.983-6.416a.492.492 0 00.13-.618.502.502 0 00-.148-.171c-.852.802-2.685 2.48-5.332 4.608z" fill="url(#paint22_linear_295_3491)"/><path d="M54.778 151.78a.482.482 0 00-.172-.083c-1.23-.286-3.425-.516-5.068.843-2.406 1.991-3.045 2.937-5.163 4.175l.737 1.834c.07.178.188.333.339.451.588-.183 1.74-.794 3.998-2.608 2.644-2.13 4.477-3.808 5.329-4.612z" fill="url(#paint23_linear_295_3491)"/><path d="M13.19 125.664s17.33 1.416 20.886 3.091c3.554 1.675-2.901 25.146-2.901 25.146s-.968.466-3.122-.205c0 0 2.209-17.32.565-21.076l-18.764-3.071 3.337-3.885z" fill="url(#paint24_linear_295_3491)"/><path d="M42.652 153.418c.161.146 1.722 3.297 1.722 3.297s1.738-.376 2.092-1.477l-1.563-2.843-2.25 1.023z" fill="url(#paint25_linear_295_3491)"/><path d="M2.753 125.517s-.565 1.359-.542 3.167c.032 2.499 2.04 4.528 4.534 4.651l20.487.935a.978.978 0 01.907.739c.482 1.863 2.835 7.585 14.337 19.003a.924.924 0 001.146.125l1.638-1.035a.377.377 0 00.123-.51l-11.926-20.38a4.617 4.617 0 00-2.807-2.082l-17.461-4.466-10.436-.147z" fill="url(#paint26_linear_295_3491)"/><path d="M22.942 93.679s-2.194 3.882-4.431 5.764l4.625 2.579s1.041-4.111 3.423-5.315l-3.617-3.028z" fill="url(#paint27_linear_295_3491)"/><path d="M2.384 125.664s5.53 1.349 10.81 0c0 0 7.389-9.937 10.244-12.641 0 0 4.559 7.198 14.705 8.218l.566-1.265s-8.077-3.726-10.565-9.451c-2.487-5.726-3.488-8.165-5.75-9.661-1.409-.93-2.253-1.566-2.689-1.913a.721.721 0 00-.828-.052c-2.402 1.464-13.698 9.206-16.493 26.765z" fill="url(#paint28_linear_295_3491)"/><path d="M20.402 107.679s.983 2.565 2.733 4.849l-2.733-4.849z" fill="url(#paint29_linear_295_3491)"/><path d="M37.53 119.314l1.142-.305 3.468-.802a1.609 1.609 0 011.218.206l2.982 1.877-8.234-.014-.576-.962z" fill="url(#paint30_linear_295_3491)"/><path d="M26.427 87.858s2.133 3.548 2.503 5.51c.37 1.96.964 3.185-1.266 3.884-2.23.699-4.303-.186-5.604-2.016 0 0-2.03-2.816-1.828-4.107.203-1.29 6.195-3.27 6.195-3.27z" fill="url(#paint31_linear_295_3491)"/><path d="M22.654 93.716l.287-.037s-1.51-2.284-.522-2.85c.988-.567 5.015-1.957 5.715-3.544.674-1.53-.335-3.258-1.55-3.619a.154.154 0 00-.187.098l-.071.193a.157.157 0 01-.29.008.155.155 0 00-.286-.006c-.216.476-.86 1.287-2.798 1.916-2.75.891-4.46 2.277-4.25 4.23a.158.158 0 01-.141.174.156.156 0 01-.081-.014c-.226-.1-.566-.115-.961.318-.687.752-.15 2.398 1.729 3.563a.156.156 0 01.025.25c-.28.24-.676.777.595 1.256 1.3.49 2.009.324 2.27.219a.157.157 0 00.097-.176l-.333-1.712a.156.156 0 01.133-.185l.62-.082z" fill="url(#paint32_linear_295_3491)"/><path d="M22.772 94.068s-.94-2.322-1.929-1.505c-.988.816.917 2.62 1.791 2.596l.138-1.09z" fill="url(#paint33_linear_295_3491)"/><path d="M34.35 121.906h.04l17.59-.018a.783.783 0 00.785-.786.787.787 0 00-.786-.786l-17.59.017a.786.786 0 00-.038 1.572l-.002.001z" fill="url(#paint34_linear_295_3491)"/><path d="M58.791 104.668l-.018.036-7.4 15.968a.787.787 0 101.425.662l7.402-15.968a.788.788 0 00-.361-1.043.789.789 0 00-1.047.345z" fill="url(#paint35_linear_295_3491)"/><path d="M42.181 123.229c-.076.318-7.416 27.863-9.28 34.845a1.264 1.264 0 00.652 1.462c.172.087.363.132.556.133a1.251 1.251 0 001.213-.959l8.148-33.055-1.289-2.426zm4.019 0c.078.318 7.417 27.863 9.28 34.845a1.266 1.266 0 01-.651 1.462 1.252 1.252 0 01-.557.133 1.251 1.251 0 01-1.213-.959l-8.147-33.055 1.288-2.426z" fill="#BDD0FB"/><path d="M46.506 122.328h-4.571v3.673a.945.945 0 00.274.674.955.955 0 00.67.282h.63v8.251a.716.716 0 00.44.667.72.72 0 00.274.057.722.722 0 00.715-.724v-8.251h.318a1.247 1.247 0 00.89-.375 1.255 1.255 0 00.363-.894l-.003-3.36z" fill="#BDD0FB"/><path d="M30.696 121.447h25.523a.784.784 0 01.757.595l.357 1.398a.79.79 0 01-.761.988l-26.19-.153a.793.793 0 01-.754-.986l.31-1.246a.785.785 0 01.758-.596z" fill="#BDD0FB"/><defs><linearGradient id="paint0_linear_295_3491" x1="169.674" y1="180.463" x2="52.313" y2="53.87" gradientUnits="userSpaceOnUse"><stop stop-color="#DAE3FE"/><stop offset="1" stop-color="#E9EFFD"/></linearGradient><linearGradient id="paint1_linear_295_3491" x1="108.144" y1="11.862" x2="107.758" y2="-51.856" gradientUnits="userSpaceOnUse"><stop stop-color="#E1473D"/><stop offset="1" stop-color="#E9605A"/></linearGradient><linearGradient id="paint2_linear_295_3491" x1="90.935" y1="-115.48" x2="102.141" y2="-18.553" gradientUnits="userSpaceOnUse"><stop stop-color="#FF928E"/><stop offset="1" stop-color="#FE7062"/></linearGradient><linearGradient id="paint3_linear_295_3491" x1="141.242" y1="-48.291" x2="116.903" y2="10.2" gradientUnits="userSpaceOnUse"><stop stop-color="#FEBBBA"/><stop offset="1" stop-color="#FF928E"/></linearGradient><linearGradient id="paint4_linear_295_3491" x1="290108" y1="-153.942" x2="290079" y2="2820.72" gradientUnits="userSpaceOnUse"><stop stop-color="#FEBBBA"/><stop offset="1" stop-color="#FF928E"/></linearGradient><linearGradient id="paint5_linear_295_3491" x1="203952" y1="-31175.6" x2="204735" y2="3270.36" gradientUnits="userSpaceOnUse"><stop stop-color="#FF928E"/><stop offset="1" stop-color="#FE7062"/></linearGradient><linearGradient id="paint6_linear_295_3491" x1="258549" y1="2497.58" x2="258531" y2="4039.24" gradientUnits="userSpaceOnUse"><stop stop-color="#FEBBBA"/><stop offset="1" stop-color="#FF928E"/></linearGradient><linearGradient id="paint7_linear_295_3491" x1="298911" y1="1059.19" x2="298844" y2="6402.02" gradientUnits="userSpaceOnUse"><stop stop-color="#FEBBBA"/><stop offset="1" stop-color="#FF928E"/></linearGradient><linearGradient id="paint8_linear_295_3491" x1="198661" y1="-30697.2" x2="199429" y2="3366.03" gradientUnits="userSpaceOnUse"><stop stop-color="#FF928E"/><stop offset="1" stop-color="#FE7062"/></linearGradient><linearGradient id="paint9_linear_295_3491" x1="297166" y1="1124.59" x2="297128" y2="5357.12" gradientUnits="userSpaceOnUse"><stop stop-color="#FEBBBA"/><stop offset="1" stop-color="#FF928E"/></linearGradient><linearGradient id="paint10_linear_295_3491" x1="293162" y1="2415.93" x2="293137" y2="4693.94" gradientUnits="userSpaceOnUse"><stop stop-color="#FEBBBA"/><stop offset="1" stop-color="#FF928E"/></linearGradient><linearGradient id="paint11_linear_295_3491" x1="193645" y1="-30664.6" x2="194418" y2="3513.32" gradientUnits="userSpaceOnUse"><stop stop-color="#FF928E"/><stop offset="1" stop-color="#FE7062"/></linearGradient><linearGradient id="paint12_linear_295_3491" x1="291511" y1="2747.18" x2="291478" y2="5954.84" gradientUnits="userSpaceOnUse"><stop stop-color="#FEBBBA"/><stop offset="1" stop-color="#FF928E"/></linearGradient><linearGradient id="paint13_linear_295_3491" x1="296332" y1="3292.15" x2="296300" y2="6235.28" gradientUnits="userSpaceOnUse"><stop stop-color="#FEBBBA"/><stop offset="1" stop-color="#FF928E"/></linearGradient><linearGradient id="paint14_linear_295_3491" x1="81.455" y1="134.498" x2="53.635" y2="51.093" gradientUnits="userSpaceOnUse"><stop stop-color="#09005D"/><stop offset="1" stop-color="#1A0F91"/></linearGradient><linearGradient id="paint15_linear_295_3491" x1="10.214" y1="101.805" x2="129.68" y2="101.805" gradientUnits="userSpaceOnUse"><stop stop-color="#4F52FF"/><stop offset="1" stop-color="#4042E2"/></linearGradient><linearGradient id="paint16_linear_295_3491" x1="-56075.9" y1="16282.5" x2="-46518.4" y2="70528.4" gradientUnits="userSpaceOnUse"><stop stop-color="#09005D"/><stop offset="1" stop-color="#1A0F91"/></linearGradient><linearGradient id="paint17_linear_295_3491" x1="-62610.3" y1="79645.8" x2="-112745" y2="54313.5" gradientUnits="userSpaceOnUse"><stop stop-color="#09005D"/><stop offset="1" stop-color="#1A0F91"/></linearGradient><linearGradient id="paint18_linear_295_3491" x1="21230.4" y1="112049" x2="-50583.4" y2="79714.9" gradientUnits="userSpaceOnUse"><stop stop-color="#09005D"/><stop offset="1" stop-color="#1A0F91"/></linearGradient><linearGradient id="paint19_linear_295_3491" x1="10992.7" y1="2887.92" x2="13427.1" y2="2887.92" gradientUnits="userSpaceOnUse"><stop stop-color="#4F52FF"/><stop offset="1" stop-color="#4042E2"/></linearGradient><linearGradient id="paint20_linear_295_3491" x1="12878.5" y1="8482.78" x2="12835.9" y2="9657.07" gradientUnits="userSpaceOnUse"><stop stop-color="#09005D"/><stop offset="1" stop-color="#1A0F91"/></linearGradient><linearGradient id="paint21_linear_295_3491" x1="3026.64" y1="8817.2" x2="3204.8" y2="8817.2" gradientUnits="userSpaceOnUse"><stop stop-color="#FEBBBA"/><stop offset="1" stop-color="#FF928E"/></linearGradient><linearGradient id="paint22_linear_295_3491" x1="11979.3" y1="23756.2" x2="13566" y2="23756.2" gradientUnits="userSpaceOnUse"><stop stop-color="#4F52FF"/><stop offset="1" stop-color="#4042E2"/></linearGradient><linearGradient id="paint23_linear_295_3491" x1="14257.7" y1="21616.4" x2="13948.5" y2="24571.9" gradientUnits="userSpaceOnUse"><stop stop-color="#09005D"/><stop offset="1" stop-color="#1A0F91"/></linearGradient><linearGradient id="paint24_linear_295_3491" x1="27609.9" y1="76095.9" x2="14229.6" y2="86732.8" gradientUnits="userSpaceOnUse"><stop stop-color="#09005D"/><stop offset="1" stop-color="#1A0F91"/></linearGradient><linearGradient id="paint25_linear_295_3491" x1="4631.22" y1="13770.2" x2="4885.22" y2="13770.2" gradientUnits="userSpaceOnUse"><stop stop-color="#FEBBBA"/><stop offset="1" stop-color="#FF928E"/></linearGradient><linearGradient id="paint26_linear_295_3491" x1="52831.2" y1="68731.1" x2="49848.8" y2="75257.9" gradientUnits="userSpaceOnUse"><stop stop-color="#09005D"/><stop offset="1" stop-color="#1A0F91"/></linearGradient><linearGradient id="paint27_linear_295_3491" x1="6723.52" y1="18568.5" x2="7004.63" y2="17884.8" gradientUnits="userSpaceOnUse"><stop stop-color="#FEBBBA"/><stop offset="1" stop-color="#FF928E"/></linearGradient><linearGradient id="paint28_linear_295_3491" x1="33997.8" y1="26882.7" x2="32735.1" y2="49699.9" gradientUnits="userSpaceOnUse"><stop stop-color="#FF928E"/><stop offset="1" stop-color="#FE7062"/></linearGradient><linearGradient id="paint29_linear_295_3491" x1="2246.96" y1="11633.2" x2="2377.4" y2="11633.2" gradientUnits="userSpaceOnUse"><stop stop-color="#E1473D"/><stop offset="1" stop-color="#E9605A"/></linearGradient><linearGradient id="paint30_linear_295_3491" x1="9847.97" y1="5505.67" x2="11202.9" y2="5505.67" gradientUnits="userSpaceOnUse"><stop stop-color="#FEBBBA"/><stop offset="1" stop-color="#FF928E"/></linearGradient><linearGradient id="paint31_linear_295_3491" x1="28504.5" y1="20584.8" x2="27104.2" y2="21903.3" gradientUnits="userSpaceOnUse"><stop stop-color="#FEBBBA"/><stop offset="1" stop-color="#FF928E"/></linearGradient><linearGradient id="paint32_linear_295_3491" x1="33683.8" y1="25443.4" x2="35829.5" y2="27360.1" gradientUnits="userSpaceOnUse"><stop stop-color="#09005D"/><stop offset="1" stop-color="#1A0F91"/></linearGradient><linearGradient id="paint33_linear_295_3491" x1="6949.61" y1="6060.48" x2="6566.2" y2="6369.38" gradientUnits="userSpaceOnUse"><stop stop-color="#FEBBBA"/><stop offset="1" stop-color="#FF928E"/></linearGradient><linearGradient id="paint34_linear_295_3491" x1="-547996" y1="-76488" x2="-547932" y2="-74674.2" gradientUnits="userSpaceOnUse"><stop stop-color="#09005D"/><stop offset="1" stop-color="#1A0F91"/></linearGradient><linearGradient id="paint35_linear_295_3491" x1="580584" y1="58630.8" x2="573354" y2="63845.5" gradientUnits="userSpaceOnUse"><stop stop-color="#09005D"/><stop offset="1" stop-color="#1A0F91"/></linearGradient></defs></svg>