<svg width="160" height="160" viewBox="0 0 160 160" fill="none" xmlns="http://www.w3.org/2000/svg">
<g id="Illustration">
<path id="Vector" d="M153.33 108.279C137.216 145.97 94.6776 162.158 61.3481 159.4C52.2478 158.646 33.938 157.129 19.6412 143.601C-7.81242 117.619 -3.58566 63.3122 22.6971 31.3387C26.0819 27.2215 49.5098 -0.365462 86.0184 0.00367046C112.749 0.274215 131.51 15.3834 133.791 17.2658C136.673 19.6433 143.029 25.2938 148.758 34.2585C162.218 55.3214 163.4 84.7253 153.33 108.279Z" fill="url(#paint0_linear_295_3491)"/>
<path id="Vector_2" d="M153.78 37.9036H63.2823V113.787H153.78V37.9036Z" fill="url(#paint1_linear_295_3491)"/>
<path id="Vector_3" d="M156.92 28.0584L60.0838 28.6677C58.7704 28.6763 57.6866 29.6381 57.6866 30.816V45.2735C57.6866 46.4079 58.7091 47.337 59.9733 47.3421L156.92 47.9526C158.358 47.9618 159.569 46.9862 159.569 45.7745V30.2411C159.569 29.0248 158.36 28.0492 156.92 28.0584Z" fill="url(#paint2_linear_295_3491)"/>
<path id="Vector_4" d="M156.875 28.0584L59.9721 28.6683C58.7079 28.6763 57.6843 29.6026 57.6843 30.7369L159.481 30.2371C159.481 29.0248 158.313 28.0492 156.875 28.0584Z" fill="url(#paint3_linear_295_3491)"/>
<path id="Vector_5" d="M59.9721 47.3417L156.875 47.9521C158.313 47.9613 159.481 46.9857 159.481 45.774L57.6843 45.2742C57.6843 46.4074 58.7079 47.3336 59.9721 47.3417Z" fill="url(#paint4_linear_295_3491)"/>
<path id="Vector_6" d="M156.998 52.1665L60.0874 51.9653C58.7321 51.9653 57.6112 52.9438 57.5968 54.1572L57.4112 69.0807C57.3969 70.254 58.4423 71.2147 59.75 71.2261L156.993 72.0767C158.391 72.0888 159.571 71.1138 159.571 69.8986V54.3624C159.569 53.1524 158.393 52.1694 156.998 52.1665Z" fill="url(#paint5_linear_295_3491)"/>
<path id="Vector_7" d="M156.953 52.1669L59.9763 51.9651C58.6714 51.9651 57.6031 52.9074 57.5888 54.0761L159.483 54.3627C159.481 53.1527 158.348 52.1697 156.953 52.1669Z" fill="url(#paint6_linear_295_3491)"/>
<path id="Vector_8" d="M59.7471 71.2262L156.947 72.0769C158.346 72.0889 159.481 71.1139 159.481 69.8987L57.406 69.0808C57.3911 70.2541 58.4393 71.2148 59.7471 71.2262Z" fill="url(#paint7_linear_295_3491)"/>
<path id="Vector_9" d="M157.039 76.3271H60.2196C58.8196 76.3271 57.6866 77.3589 57.6866 78.6199V94.0713C57.6866 95.2836 58.775 96.215 60.1256 96.215H157.039C158.387 96.215 159.569 95.2836 159.569 94.0713V78.5351C159.569 77.3222 158.387 76.3271 157.039 76.3271Z" fill="url(#paint8_linear_295_3491)"/>
<path id="Vector_10" d="M157.039 76.3271H60.1256C58.7772 76.3271 57.6843 77.2924 57.6843 78.4514H159.481C159.481 77.2924 158.387 76.3271 157.039 76.3271Z" fill="url(#paint9_linear_295_3491)"/>
<path id="Vector_11" d="M60.1256 96.2155H157.039C158.387 96.2155 159.481 95.2502 159.481 94.0918H57.6843C57.6843 95.2525 58.7772 96.2155 60.1256 96.2155Z" fill="url(#paint10_linear_295_3491)"/>
<path id="Vector_12" d="M157.141 100.88L60.2677 100.501C58.842 100.495 57.6866 101.512 57.6866 102.771V118.224C57.6866 119.435 58.7984 120.418 60.1709 120.418L157.09 120.456C158.415 120.456 159.491 119.492 159.496 118.302L159.539 103.046C159.539 101.855 158.467 100.885 157.141 100.88Z" fill="url(#paint11_linear_295_3491)"/>
<path id="Vector_13" d="M157.141 100.88L60.1708 100.5C58.7961 100.495 57.6843 101.475 57.6843 102.687L159.536 103.046C159.539 101.855 158.467 100.885 157.141 100.88Z" fill="url(#paint12_linear_295_3491)"/>
<path id="Vector_14" d="M60.1697 120.418L157.089 120.455C158.414 120.455 159.49 119.492 159.495 118.302L57.6866 118.223C57.6843 119.435 58.7973 120.418 60.1697 120.418Z" fill="url(#paint13_linear_295_3491)"/>
<g id="Group" opacity="0.3">
<path id="Vector_15" opacity="0.3" d="M107.518 30.0597C107.359 30.032 107.216 29.9464 107.116 29.8194C107.016 29.6924 106.967 29.533 106.978 29.3719C107.027 28.6342 107.109 27.8885 107.221 27.1543C107.234 27.0694 107.263 26.9878 107.308 26.9143C107.352 26.8408 107.411 26.7768 107.48 26.7259C107.549 26.6751 107.628 26.6383 107.711 26.6178C107.794 26.5972 107.881 26.5933 107.966 26.6063H107.978C108.147 26.6354 108.298 26.7298 108.398 26.8692C108.498 27.0086 108.539 27.1818 108.513 27.3514C108.406 28.049 108.328 28.758 108.281 29.4585C108.269 29.6316 108.189 29.793 108.059 29.9073C107.928 30.0215 107.758 30.0793 107.585 30.0678C107.563 30.066 107.54 30.0632 107.518 30.0597ZM108.529 24.4505C108.504 24.446 108.479 24.44 108.454 24.4328C108.288 24.3831 108.148 24.2696 108.065 24.117C107.983 23.9644 107.964 23.7852 108.013 23.6188C108.225 22.9075 108.471 22.1979 108.738 21.5107C108.802 21.3491 108.926 21.2194 109.085 21.1499C109.244 21.0805 109.424 21.0771 109.586 21.1404C109.747 21.2037 109.877 21.3286 109.946 21.4876C110.015 21.6465 110.019 21.8266 109.956 21.9881C109.699 22.6421 109.468 23.3156 109.268 23.9943C109.222 24.1475 109.121 24.2785 108.985 24.3626C108.849 24.4467 108.687 24.4779 108.529 24.4505ZM110.75 19.2036C110.647 19.1857 110.549 19.1433 110.466 19.0799C110.383 19.0164 110.316 18.9339 110.271 18.8392C110.226 18.7445 110.204 18.6404 110.208 18.5356C110.212 18.4309 110.24 18.3285 110.292 18.2372C110.655 17.5924 111.051 16.9544 111.469 16.3457C111.516 16.2719 111.578 16.2085 111.65 16.159C111.722 16.1095 111.804 16.075 111.889 16.0575C111.975 16.04 112.063 16.04 112.149 16.0573C112.235 16.0747 112.316 16.1091 112.389 16.1585C112.461 16.2079 112.523 16.2713 112.57 16.345C112.617 16.4186 112.649 16.5011 112.664 16.5874C112.679 16.6737 112.677 16.7621 112.657 16.8474C112.637 16.9327 112.6 17.0131 112.549 17.0839C112.152 17.6646 111.776 18.2699 111.431 18.8826C111.364 18.9997 111.263 19.0933 111.141 19.1508C111.019 19.2082 110.883 19.2267 110.75 19.2036ZM114.088 14.5843C113.966 14.5633 113.852 14.5074 113.76 14.4232C113.697 14.3654 113.645 14.2956 113.609 14.2178C113.572 14.1401 113.551 14.0559 113.547 13.9701C113.543 13.8843 113.556 13.7986 113.586 13.7178C113.615 13.637 113.659 13.5627 113.717 13.4992C114.216 12.9513 114.745 12.4188 115.288 11.9155C115.351 11.8572 115.425 11.8118 115.506 11.7821C115.586 11.7523 115.672 11.7387 115.758 11.7421C115.844 11.7454 115.928 11.7657 116.006 11.8016C116.084 11.8376 116.154 11.8885 116.212 11.9516C116.271 12.0147 116.316 12.0886 116.346 12.1692C116.375 12.2498 116.389 12.3355 116.386 12.4214C116.382 12.5072 116.362 12.5916 116.326 12.6696C116.29 12.7476 116.239 12.8178 116.176 12.8762C115.661 13.3536 115.158 13.8598 114.684 14.3808C114.61 14.4622 114.517 14.5235 114.412 14.5591C114.308 14.5947 114.197 14.6033 114.088 14.5843ZM118.372 10.8265C118.245 10.8042 118.127 10.7445 118.033 10.655C117.939 10.5655 117.874 10.4501 117.846 10.3236C117.818 10.1971 117.828 10.0651 117.875 9.94428C117.922 9.82349 118.004 9.71937 118.11 9.64511C118.717 9.22267 119.35 8.8203 119.992 8.44944C120.066 8.4065 120.148 8.37864 120.233 8.36744C120.318 8.35624 120.405 8.36192 120.488 8.38417C120.571 8.40642 120.649 8.44479 120.717 8.4971C120.785 8.54941 120.842 8.61463 120.885 8.68903C120.928 8.76344 120.956 8.84558 120.967 8.93075C120.978 9.01593 120.972 9.10248 120.95 9.18546C120.928 9.26843 120.889 9.34622 120.837 9.41437C120.785 9.48251 120.72 9.53969 120.645 9.58263C120.035 9.93457 119.433 10.3175 118.857 10.7187C118.716 10.8173 118.542 10.856 118.372 10.8265ZM123.38 8.11069C123.24 8.08646 123.112 8.01728 123.014 7.9136C122.917 7.80993 122.856 7.67739 122.841 7.53604C122.826 7.39469 122.857 7.2522 122.93 7.13013C123.003 7.00806 123.113 6.91303 123.245 6.85942C123.932 6.58085 124.637 6.32865 125.344 6.10969C125.427 6.08143 125.515 6.07007 125.602 6.07629C125.689 6.08251 125.774 6.10618 125.852 6.14589C125.93 6.18561 125.999 6.24057 126.056 6.30753C126.112 6.37448 126.154 6.45206 126.18 6.53569C126.206 6.61931 126.215 6.70728 126.206 6.79438C126.198 6.88148 126.171 6.96595 126.13 7.04279C126.088 7.11963 126.031 7.18728 125.962 7.24173C125.894 7.29618 125.815 7.33634 125.731 7.35981C125.059 7.56788 124.388 7.80748 123.736 8.07171C123.624 8.1181 123.5 8.13161 123.38 8.11069ZM147.254 10.6597C147.162 10.6436 147.074 10.608 146.997 10.5553C146.417 10.1598 145.811 9.7844 145.197 9.43934C145.122 9.3973 145.056 9.34092 145.003 9.27342C144.95 9.20592 144.911 9.12862 144.888 9.04593C144.865 8.96325 144.858 8.87679 144.868 8.79151C144.878 8.70623 144.905 8.62379 144.947 8.54889C144.989 8.47399 145.045 8.40811 145.113 8.35501C145.18 8.3019 145.258 8.26261 145.34 8.23937C145.423 8.21614 145.509 8.20942 145.595 8.2196C145.68 8.22978 145.762 8.25666 145.837 8.29869C146.484 8.6621 147.122 9.05702 147.734 9.47373C147.857 9.55793 147.948 9.68191 147.991 9.82504C148.035 9.96816 148.028 10.1218 147.972 10.2604C147.915 10.399 147.814 10.5142 147.683 10.5869C147.552 10.6595 147.401 10.6852 147.254 10.6597ZM128.86 6.5734C128.708 6.5468 128.57 6.4671 128.471 6.34842C128.372 6.22975 128.318 6.07977 128.318 5.92509C128.319 5.7704 128.375 5.62101 128.475 5.5034C128.576 5.38579 128.714 5.30756 128.867 5.28258C129.597 5.16393 130.342 5.07566 131.08 5.02006C131.167 5.01156 131.255 5.02049 131.338 5.04632C131.421 5.07216 131.498 5.11437 131.565 5.17049C131.632 5.22662 131.687 5.29551 131.726 5.37313C131.766 5.45076 131.79 5.53554 131.796 5.6225C131.803 5.70947 131.792 5.79686 131.764 5.87955C131.737 5.96224 131.693 6.03856 131.635 6.10403C131.577 6.16949 131.507 6.22278 131.429 6.26076C131.35 6.29874 131.265 6.32066 131.178 6.32521C130.477 6.37794 129.77 6.46163 129.077 6.57398C129.005 6.58583 128.932 6.58564 128.86 6.5734ZM142.213 8.00637C142.17 7.99888 142.128 7.98697 142.087 7.97083C141.432 7.71519 140.757 7.48477 140.082 7.28301C139.998 7.2604 139.919 7.22113 139.85 7.16752C139.781 7.11392 139.723 7.04706 139.681 6.97088C139.638 6.89471 139.611 6.81075 139.601 6.72397C139.592 6.63718 139.599 6.54932 139.624 6.46556C139.649 6.38179 139.69 6.30382 139.745 6.23622C139.8 6.16863 139.869 6.1128 139.946 6.072C140.023 6.0312 140.107 6.00626 140.194 5.99866C140.281 5.99106 140.369 6.00094 140.452 6.02773C141.163 6.23809 141.873 6.48055 142.562 6.74937C142.712 6.80854 142.836 6.92149 142.908 7.06638C142.98 7.21128 142.996 7.37784 142.953 7.53387C142.91 7.68991 142.81 7.82433 142.673 7.91118C142.537 7.99803 142.373 8.03112 142.213 8.00408V8.00637ZM134.547 6.30228C134.383 6.2728 134.236 6.18165 134.137 6.04747C134.037 5.9133 133.993 5.74624 134.013 5.58048C134.033 5.41472 134.115 5.26277 134.243 5.15572C134.371 5.04867 134.535 4.99461 134.702 5.00459C135.439 5.05274 136.185 5.13298 136.918 5.24418H136.931C137.016 5.25796 137.097 5.2883 137.17 5.33347C137.243 5.37865 137.307 5.43777 137.357 5.50747C137.407 5.57717 137.443 5.65608 137.463 5.73969C137.483 5.8233 137.486 5.90997 137.472 5.99477C137.458 6.07956 137.428 6.16081 137.383 6.23388C137.338 6.30695 137.278 6.3704 137.209 6.42062C137.139 6.47084 137.06 6.50684 136.977 6.52656C136.893 6.54628 136.807 6.54935 136.722 6.53557C136.026 6.4301 135.317 6.35387 134.617 6.3063C134.594 6.30687 134.57 6.304 134.547 6.29999L134.547 6.30228Z" fill="#91B3FA"/>
<path id="Vector_16" opacity="0.3" d="M150.799 13.5785C150.669 13.5556 150.549 13.4939 150.455 13.4014C150.216 13.1646 149.966 12.9285 149.716 12.7004C149.652 12.6425 149.601 12.5728 149.564 12.4951C149.527 12.4173 149.506 12.3331 149.502 12.2473C149.498 12.1615 149.511 12.0757 149.54 11.9948C149.569 11.914 149.614 11.8397 149.672 11.7761C149.73 11.7125 149.799 11.661 149.877 11.6244C149.955 11.5878 150.039 11.5668 150.125 11.5627C150.21 11.5587 150.296 11.5715 150.377 11.6006C150.458 11.6297 150.532 11.6744 150.595 11.7322C150.859 11.9724 151.121 12.2206 151.374 12.4699C151.473 12.5678 151.539 12.6951 151.561 12.833C151.583 12.9709 151.56 13.1122 151.496 13.2363C151.432 13.3605 151.33 13.4608 151.205 13.5227C151.08 13.5845 150.938 13.6047 150.801 13.5802L150.799 13.5785Z" fill="#91B3FA"/>
</g>
<g id="Group_2" opacity="0.3">
<path id="Vector_17" opacity="0.3" d="M158.393 32.0227C158.24 31.996 158.101 31.9156 158.002 31.796C157.903 31.6764 157.849 31.5253 157.851 31.3698C157.855 31.0328 157.851 30.6894 157.842 30.3507C157.837 30.1772 157.901 30.0089 158.021 29.8827C158.14 29.7565 158.304 29.6828 158.477 29.6778C158.65 29.6727 158.819 29.7368 158.945 29.8559C159.071 29.975 159.145 30.1394 159.15 30.3129C159.16 30.67 159.163 31.0311 159.159 31.3859C159.158 31.4718 159.14 31.5567 159.106 31.6358C159.072 31.7148 159.023 31.7863 158.961 31.8464C158.9 31.9064 158.827 31.9538 158.748 31.9857C158.668 32.0176 158.582 32.0335 158.497 32.0324C158.462 32.0318 158.427 32.0286 158.393 32.0227Z" fill="#91B3FA"/>
<path id="Vector_18" opacity="0.3" d="M128.616 56.8419C128.32 56.7911 128.023 56.7347 127.726 56.6728C127.558 56.6357 127.411 56.5338 127.318 56.3892C127.224 56.2446 127.192 56.0689 127.227 55.9003C127.262 55.7316 127.362 55.5836 127.505 55.4883C127.649 55.393 127.824 55.3581 127.993 55.3912C128.68 55.5333 129.367 55.6479 130.05 55.7316C130.222 55.7528 130.378 55.8414 130.485 55.9782C130.592 56.1149 130.64 56.2885 130.619 56.4607C130.598 56.633 130.509 56.7897 130.373 56.8966C130.236 57.0034 130.063 57.0516 129.89 57.0305C129.468 56.9789 129.04 56.9153 128.616 56.8419ZM124.403 55.7402C124.366 55.7342 124.33 55.7248 124.295 55.7121C123.608 55.4685 122.92 55.1928 122.259 54.893C122.181 54.8577 122.111 54.8072 122.052 54.7446C121.993 54.6819 121.947 54.6083 121.917 54.528C121.856 54.3656 121.862 54.1856 121.933 54.0275C122.004 53.8694 122.136 53.7462 122.298 53.6849C122.46 53.6237 122.64 53.6294 122.798 53.7008C123.428 53.9874 124.078 54.2471 124.732 54.4792C124.886 54.534 125.014 54.6446 125.091 54.7893C125.167 54.934 125.187 55.1022 125.146 55.2607C125.104 55.4192 125.005 55.5564 124.868 55.6452C124.73 55.7339 124.564 55.7679 124.403 55.7402ZM133.328 57.2122C133.167 57.1849 133.022 57.0984 132.921 56.9695C132.821 56.8406 132.772 56.6787 132.785 56.5158C132.798 56.3529 132.871 56.2007 132.991 56.0891C133.11 55.9776 133.267 55.9149 133.43 55.9133C134.121 55.903 134.821 55.8629 135.51 55.7941C135.597 55.7832 135.685 55.7897 135.769 55.8134C135.853 55.837 135.932 55.8772 136 55.9317C136.068 55.9862 136.125 56.0539 136.167 56.1306C136.208 56.2074 136.234 56.2918 136.243 56.3787C136.252 56.4657 136.243 56.5536 136.217 56.6371C136.191 56.7206 136.149 56.798 136.093 56.8649C136.036 56.9318 135.967 56.9868 135.89 57.0265C135.812 57.0663 135.727 57.09 135.64 57.0964C134.914 57.1686 134.177 57.211 133.45 57.2219C133.409 57.2225 133.368 57.2192 133.328 57.2122ZM119.356 53.2962C119.272 53.2813 119.192 53.2503 119.12 53.205C118.503 52.8164 117.895 52.3962 117.314 51.9572C117.245 51.9054 117.188 51.8407 117.144 51.7666C117.101 51.6926 117.072 51.6107 117.06 51.5256C117.048 51.4405 117.053 51.3539 117.075 51.2708C117.096 51.1876 117.134 51.1095 117.186 51.0409C117.238 50.9724 117.302 50.9147 117.376 50.8711C117.45 50.8276 117.532 50.799 117.617 50.7871C117.702 50.7752 117.789 50.7802 117.872 50.8018C117.955 50.8234 118.033 50.8611 118.101 50.9128C118.654 51.3301 119.23 51.7285 119.816 52.0976C119.944 52.1785 120.04 52.301 120.087 52.4445C120.135 52.5879 120.131 52.7433 120.077 52.8845C120.023 53.0256 119.922 53.1437 119.791 53.2188C119.66 53.2938 119.507 53.3211 119.358 53.2962H119.356ZM138.884 56.506C138.735 56.4802 138.601 56.4041 138.502 56.2905C138.403 56.177 138.347 56.0329 138.342 55.8825C138.337 55.7321 138.384 55.5846 138.475 55.4648C138.566 55.3451 138.696 55.2603 138.842 55.2249C139.512 55.0633 140.186 54.8701 140.847 54.6517C140.928 54.6246 141.014 54.6139 141.1 54.62C141.185 54.6262 141.269 54.6492 141.346 54.6876C141.422 54.7261 141.491 54.7794 141.547 54.8443C141.603 54.9092 141.646 54.9846 141.673 55.0662C141.7 55.1477 141.711 55.2337 141.705 55.3194C141.699 55.4051 141.676 55.4887 141.637 55.5655C141.599 55.6423 141.546 55.7108 141.481 55.767C141.416 55.8233 141.34 55.8662 141.259 55.8933C140.566 56.1225 139.857 56.3272 139.15 56.4974C139.063 56.5187 138.973 56.5217 138.884 56.506H138.884ZM144.153 54.599C144.017 54.5753 143.892 54.5093 143.796 54.4102C143.7 54.3112 143.638 54.1842 143.618 54.0476C143.598 53.9109 143.622 53.7715 143.687 53.6493C143.751 53.5271 143.852 53.4284 143.976 53.3672C144.597 53.0611 145.213 52.7258 145.809 52.3699C145.957 52.2806 146.135 52.254 146.304 52.296C146.472 52.3381 146.617 52.4452 146.706 52.594C146.795 52.7427 146.822 52.9209 146.78 53.0892C146.738 53.2576 146.63 53.4023 146.482 53.4916C145.857 53.8665 145.21 54.2196 144.556 54.5411C144.432 54.6038 144.291 54.6249 144.154 54.6013L144.153 54.599ZM148.881 51.5881C148.757 51.5666 148.642 51.5098 148.55 51.4244C148.457 51.339 148.391 51.2287 148.36 51.1067C148.328 50.9847 148.333 50.8563 148.373 50.7368C148.412 50.6173 148.486 50.5118 148.584 50.4331C149.124 49.9986 149.652 49.5372 150.154 49.0609C150.216 49.0006 150.289 48.9532 150.369 48.9215C150.45 48.8898 150.536 48.8744 150.622 48.8761C150.708 48.8778 150.794 48.8967 150.873 48.9316C150.952 48.9665 151.023 49.0167 151.083 49.0794C151.142 49.1421 151.189 49.216 151.22 49.2968C151.25 49.3776 151.265 49.4637 151.262 49.5502C151.26 49.6366 151.24 49.7217 151.204 49.8004C151.168 49.8792 151.117 49.95 151.054 50.0089C150.527 50.5105 149.971 50.9965 149.403 51.4534C149.33 51.5122 149.246 51.555 149.156 51.5786C149.066 51.6022 148.972 51.6062 148.88 51.5903L148.881 51.5881ZM152.841 47.617C152.729 47.5978 152.624 47.5496 152.536 47.4774C152.448 47.4051 152.381 47.3112 152.34 47.205C152.3 47.0987 152.287 46.9837 152.305 46.8713C152.322 46.7589 152.369 46.653 152.44 46.5641C152.872 46.0224 153.286 45.4567 153.67 44.8812C153.718 44.8097 153.779 44.7483 153.85 44.7005C153.922 44.6527 154.002 44.6194 154.086 44.6026C154.17 44.5858 154.257 44.5857 154.341 44.6024C154.426 44.6192 154.506 44.6523 154.577 44.7001C154.649 44.7478 154.71 44.8091 154.758 44.8806C154.806 44.952 154.839 45.0322 154.856 45.1165C154.873 45.2008 154.873 45.2876 154.856 45.372C154.839 45.4563 154.806 45.5365 154.758 45.608C154.354 46.2144 153.918 46.8117 153.463 47.3809C153.39 47.4735 153.294 47.5447 153.184 47.5871C153.075 47.6295 152.955 47.6414 152.839 47.6216L152.841 47.617ZM155.833 42.8716C155.733 42.8543 155.639 42.814 155.557 42.754C155.475 42.6939 155.409 42.6157 155.363 42.5255C155.316 42.4353 155.292 42.3356 155.29 42.2342C155.289 42.1328 155.312 42.0326 155.356 41.9413C155.657 41.3188 155.936 40.6757 156.185 40.0292C156.215 39.949 156.262 39.8756 156.321 39.8133C156.38 39.751 156.451 39.701 156.529 39.6661C156.608 39.6311 156.692 39.612 156.778 39.6098C156.864 39.6076 156.949 39.6223 157.03 39.6532C157.11 39.684 157.183 39.7303 157.245 39.7895C157.308 39.8486 157.358 39.9195 157.392 39.998C157.427 40.0765 157.446 40.1611 157.449 40.247C157.451 40.3329 157.436 40.4184 157.405 40.4986C157.144 41.1795 156.85 41.8571 156.532 42.5122C156.471 42.6405 156.369 42.7451 156.243 42.8104C156.116 42.8756 155.972 42.8979 155.832 42.8739L155.833 42.8716ZM157.709 37.588C157.696 37.5857 157.682 37.5828 157.669 37.5794C157.586 37.5596 157.507 37.5236 157.437 37.4733C157.368 37.4231 157.309 37.3596 157.264 37.2866C157.219 37.2135 157.188 37.1322 157.175 37.0474C157.161 36.9626 157.164 36.876 157.184 36.7924C157.298 36.296 157.404 35.7904 157.491 35.2883C157.522 35.1072 157.551 34.9255 157.579 34.7444C157.592 34.6593 157.621 34.5776 157.665 34.5039C157.71 34.4302 157.768 34.366 157.837 34.315C157.906 34.2639 157.985 34.227 158.068 34.2064C158.152 34.1857 158.239 34.1818 158.324 34.1947C158.409 34.2065 158.491 34.2353 158.565 34.2793C158.639 34.3234 158.704 34.3819 158.755 34.4514C158.806 34.5208 158.843 34.5998 158.863 34.6837C158.884 34.7676 158.887 34.8547 158.873 34.9398C158.844 35.1309 158.813 35.322 158.781 35.513C158.69 36.0409 158.581 36.5728 158.457 37.095C158.419 37.2578 158.32 37.3999 158.181 37.4921C158.042 37.5843 157.872 37.6197 157.708 37.5908L157.709 37.588Z" fill="#91B3FA"/>
<path id="Vector_19" opacity="0.3" d="M114.961 49.7882C114.829 49.7651 114.707 49.7019 114.611 49.607C114.361 49.3571 114.11 49.0969 113.867 48.8338C113.749 48.7063 113.687 48.5373 113.694 48.3639C113.701 48.1905 113.776 48.027 113.903 47.9092C114.031 47.7915 114.2 47.7292 114.373 47.7361C114.546 47.743 114.71 47.8185 114.827 47.9459C115.056 48.1958 115.295 48.4429 115.533 48.6802C115.632 48.7783 115.696 48.9053 115.718 49.0427C115.739 49.1801 115.716 49.3208 115.653 49.4443C115.589 49.5678 115.487 49.6678 115.363 49.7296C115.238 49.7914 115.097 49.812 114.96 49.7882H114.961Z" fill="#91B3FA"/>
</g>
<path id="Vector_20" d="M117.122 42.4619C117.153 42.5174 117.201 42.5618 117.259 42.5888C117.316 42.6158 117.381 42.6242 117.443 42.6127L121.102 41.942C122.293 43.2401 123.688 44.3351 125.232 45.184L125.455 48.8965C125.459 48.96 125.482 49.0208 125.522 49.0704C125.562 49.1199 125.616 49.1557 125.678 49.1728L129.974 50.373C130.035 50.39 130.1 50.3875 130.16 50.3658C130.219 50.3442 130.271 50.3044 130.307 50.2521L132.418 47.1913C134.179 47.2652 135.94 47.051 137.631 46.5573L140.414 49.0272C140.461 49.0694 140.521 49.0957 140.584 49.1024C140.647 49.1091 140.711 49.0958 140.767 49.0644L144.653 46.8726C144.708 46.8413 144.753 46.7935 144.78 46.7359C144.807 46.6783 144.815 46.6136 144.804 46.551L144.134 42.8901C145.431 41.6978 146.525 40.302 147.373 38.7574L151.083 38.5344C151.147 38.5308 151.208 38.5073 151.257 38.4673C151.307 38.4273 151.343 38.3728 151.36 38.3115L152.558 34.0126C152.576 33.9512 152.573 33.886 152.552 33.8261C152.53 33.7662 152.49 33.7145 152.438 33.6784L149.379 31.5656C149.453 29.8042 149.241 28.0425 148.749 26.3496L151.216 23.5651C151.259 23.5175 151.285 23.4579 151.292 23.3946C151.299 23.3313 151.285 23.2675 151.254 23.212L149.063 19.3229C149.032 19.2675 148.984 19.2232 148.927 19.1962C148.869 19.1692 148.805 19.1608 148.742 19.1722L145.084 19.8434C143.893 18.5452 142.498 17.4501 140.954 16.6014L140.728 12.8855C140.724 12.8219 140.7 12.7612 140.66 12.7117C140.62 12.6622 140.566 12.6263 140.505 12.6092L136.209 11.4095C136.147 11.3923 136.082 11.3948 136.023 11.4165C135.963 11.4381 135.911 11.478 135.875 11.5304L133.763 14.5913C132.003 14.5174 130.242 14.7314 128.551 15.2246L125.767 12.7571C125.719 12.7149 125.66 12.6886 125.597 12.6818C125.533 12.6751 125.47 12.6881 125.414 12.7192L121.528 14.9117C121.473 14.9429 121.428 14.9907 121.401 15.0484C121.374 15.106 121.366 15.1706 121.378 15.2332L122.048 18.8936C120.751 20.0858 119.656 21.4817 118.808 23.0263L115.098 23.2493C115.034 23.2531 114.974 23.2766 114.924 23.3166C114.875 23.3566 114.839 23.411 114.822 23.4722L113.623 27.7711C113.606 27.8323 113.608 27.8974 113.63 27.9572C113.651 28.017 113.691 28.0686 113.743 28.1047L116.802 30.2181C116.728 31.9795 116.94 33.7413 117.433 35.4341L114.969 38.2203C114.927 38.2679 114.901 38.3275 114.894 38.3908C114.887 38.4541 114.9 38.518 114.932 38.5734L117.122 42.4619Z" fill="#91B3FA"/>
<path id="Vector_21" d="M132.324 35.3124C131.18 35.1146 130.156 34.4803 129.469 33.543C128.783 32.6056 128.486 31.4382 128.641 30.2863C128.797 29.1344 129.393 28.0877 130.304 27.3664C131.214 26.6451 132.369 26.3053 133.525 26.4186C134.682 26.5319 135.749 27.0893 136.502 27.9737C137.256 28.8581 137.638 30.0005 137.567 31.1608C137.497 32.321 136.979 33.4086 136.124 34.1948C135.268 34.9811 134.141 35.4047 132.98 35.3766C132.76 35.371 132.541 35.3496 132.324 35.3124ZM133.684 27.5016C133.517 27.4728 133.347 27.4562 133.177 27.4517C132.291 27.431 131.431 27.7548 130.778 28.3551C130.126 28.9554 129.731 29.7854 129.678 30.6708C129.624 31.5561 129.915 32.4278 130.49 33.1027C131.066 33.7775 131.88 34.203 132.762 34.2897C133.644 34.3764 134.526 34.1175 135.221 33.5675C135.916 33.0175 136.372 32.2191 136.491 31.3402C136.61 30.4613 136.385 29.5704 135.861 28.8545C135.338 28.1387 134.558 27.6537 133.684 27.5016Z" fill="#BDD0FB"/>
<path id="Vector_22" d="M131.311 41.716C130.939 41.6516 130.57 41.5683 130.206 41.4666C130.091 41.4345 129.976 41.4001 129.862 41.3646C129.299 41.1879 128.752 40.9667 128.224 40.7031L128.203 40.6923L128.142 40.6613L128.024 40.6C127.976 40.5743 127.936 40.5337 127.912 40.4842C127.887 40.4347 127.879 40.3787 127.889 40.3243C127.893 40.2971 127.902 40.2708 127.915 40.2463C127.931 40.2159 127.953 40.189 127.979 40.1671C128.006 40.1451 128.036 40.1286 128.069 40.1184C128.101 40.1083 128.136 40.1047 128.17 40.1078C128.204 40.111 128.237 40.1208 128.268 40.1368C129.736 40.9096 131.367 41.3237 133.026 41.3452C134.685 41.3668 136.325 40.9951 137.813 40.2606C139.301 39.5262 140.594 38.4498 141.587 37.1194C142.579 35.7891 143.243 34.2426 143.524 32.6063C143.961 30.0429 143.433 27.4084 142.042 25.2118C140.651 23.0153 138.496 21.4125 135.993 20.7132C130.412 19.1553 124.609 22.4299 123.053 28.0116C122.957 28.3548 122.879 28.7026 122.818 29.0537C122.556 30.5703 122.631 32.126 123.037 33.6105C123.047 33.6441 123.051 33.6795 123.048 33.7146C123.044 33.7496 123.034 33.7836 123.017 33.8145C123 33.8454 122.977 33.8726 122.95 33.8945C122.922 33.9163 122.89 33.9324 122.856 33.9416C122.822 33.9509 122.787 33.9533 122.752 33.9486C122.717 33.9438 122.683 33.9321 122.653 33.9141C122.623 33.8961 122.597 33.8721 122.576 33.8437C122.555 33.8153 122.54 33.783 122.532 33.7487C122.008 31.8239 122.013 29.7929 122.549 27.8712C124.183 22.0104 130.279 18.5741 136.134 20.2088C138.761 20.9434 141.023 22.6262 142.483 24.9322C143.943 27.2382 144.497 30.0037 144.038 32.6946C143.974 33.0679 143.89 33.4377 143.789 33.8025C143.055 36.4321 141.373 38.6961 139.068 40.157C136.763 41.618 133.999 42.1722 131.309 41.7125L131.311 41.716Z" fill="#BDD0FB"/>
<g id="Group_3" opacity="0.3">
<path id="Vector_23" opacity="0.3" d="M82.5965 43.2462C82.5103 43.2317 82.4312 43.1895 82.3712 43.1258C82.3112 43.0622 82.2737 42.9807 82.2643 42.8937C82.2253 42.5533 82.1955 42.2059 82.1772 41.862C82.1714 41.755 82.2082 41.65 82.2797 41.5702C82.3512 41.4904 82.4515 41.4422 82.5584 41.4364C82.6654 41.4305 82.7703 41.4674 82.85 41.539C82.9298 41.6105 82.9779 41.7108 82.9837 41.8179C83.0015 42.1446 83.029 42.4753 83.0668 42.8003C83.0746 42.8628 83.0675 42.9263 83.0462 42.9856C83.0249 43.0449 82.9899 43.0984 82.9441 43.1416C82.8983 43.1849 82.843 43.2168 82.7826 43.2346C82.7222 43.2525 82.6584 43.2559 82.5965 43.2445V43.2462Z" fill="#91B3FA"/>
<path id="Vector_24" opacity="0.3" d="M82.5289 40.1383C82.4303 40.1217 82.3414 40.0688 82.2797 39.99C82.218 39.9112 82.188 39.8122 82.1955 39.7124C82.2367 39.1207 82.3078 38.5315 82.4086 37.947C82.4298 37.8249 82.4527 37.7022 82.4762 37.5796C82.4999 37.4761 82.562 37.3854 82.6499 37.326C82.7379 37.2666 82.8451 37.2429 82.9499 37.2597C83.055 37.2801 83.1478 37.3414 83.2077 37.4302C83.2676 37.519 83.2899 37.628 83.2696 37.7332C83.2466 37.8509 83.2251 37.9682 83.2048 38.0851C83.1085 38.6423 83.0405 39.204 83.0009 39.768C82.9973 39.821 82.9832 39.8727 82.9596 39.9202C82.936 39.9677 82.9033 40.0102 82.8633 40.045C82.8233 40.0799 82.7768 40.1065 82.7265 40.1234C82.6762 40.1403 82.6231 40.1471 82.5701 40.1434L82.5289 40.1383ZM83.3308 36.0199C83.3115 36.0165 83.2924 36.0119 83.2736 36.0062C83.1717 35.973 83.0871 35.9007 83.0385 35.8051C82.9898 35.7096 82.981 35.5986 83.0141 35.4966C83.2357 34.8141 83.499 34.1459 83.8023 33.4956C83.8478 33.3985 83.9301 33.3234 84.031 33.287C84.1319 33.2505 84.2431 33.2557 84.3401 33.3013C84.4372 33.3469 84.5122 33.4292 84.5486 33.5302C84.585 33.6311 84.5799 33.7424 84.5343 33.8395C84.2448 34.4598 83.9936 35.0972 83.7822 35.7482C83.7519 35.8401 83.6897 35.918 83.6069 35.9679C83.5241 36.0177 83.4261 36.0362 83.3308 36.0199ZM85.1066 32.2191C85.0547 32.2094 85.0051 32.1899 84.9605 32.1618C84.87 32.1045 84.8058 32.0136 84.7821 31.9091C84.7584 31.8046 84.777 31.6949 84.8339 31.6041C85.2164 30.9967 85.6359 30.4134 86.0901 29.8576C86.1236 29.8165 86.1649 29.7824 86.2116 29.7573C86.2583 29.7322 86.3095 29.7165 86.3623 29.7112C86.4151 29.7058 86.4684 29.711 86.5192 29.7263C86.5699 29.7416 86.6172 29.7667 86.6583 29.8003C86.6994 29.8338 86.7334 29.8752 86.7585 29.9219C86.7836 29.9687 86.7993 30.0199 86.8046 30.0727C86.8099 30.1255 86.8048 30.1788 86.7895 30.2296C86.7743 30.2805 86.7491 30.3278 86.7156 30.3689C86.2823 30.899 85.8823 31.4555 85.5178 32.0351C85.4752 32.1032 85.4132 32.157 85.3399 32.1898C85.2665 32.2226 85.1851 32.2328 85.106 32.2191H85.1066ZM87.7621 28.9709C87.6884 28.9587 87.6195 28.9261 87.5633 28.8768C87.5071 28.8276 87.4658 28.7636 87.444 28.6921C87.4222 28.6205 87.4208 28.5443 87.4399 28.4721C87.4591 28.3998 87.4981 28.3343 87.5524 28.283C88.072 27.788 88.6214 27.3253 89.1976 26.8976C89.2402 26.8661 89.2886 26.8432 89.34 26.8303C89.3915 26.8175 89.4449 26.8149 89.4974 26.8227C89.5498 26.8306 89.6002 26.8486 89.6457 26.876C89.6912 26.9033 89.7308 26.9393 89.7624 26.9819C89.7939 27.0245 89.8168 27.073 89.8296 27.1245C89.8424 27.176 89.845 27.2295 89.8372 27.2819C89.8294 27.3344 89.8113 27.3848 89.784 27.4303C89.7567 27.4758 89.7208 27.5155 89.6781 27.5471C89.1289 27.954 88.6051 28.3943 88.1098 28.8654C88.0642 28.9092 88.0088 28.9416 87.9483 28.9599C87.8878 28.9783 87.8238 28.982 87.7615 28.9709H87.7621ZM91.1291 26.4695C91.0459 26.4569 90.9688 26.4185 90.9087 26.3596C90.8486 26.3008 90.8085 26.2246 90.794 26.1417C90.7796 26.0588 90.7916 25.9734 90.8283 25.8977C90.8649 25.822 90.9245 25.7597 90.9985 25.7197C91.6222 25.3662 92.2669 25.0509 92.9288 24.7757C92.9777 24.7554 93.0302 24.7448 93.0831 24.7447C93.1361 24.7446 93.1885 24.755 93.2375 24.7752C93.2865 24.7954 93.331 24.825 93.3685 24.8625C93.406 24.8999 93.4358 24.9443 93.4561 24.9932C93.4765 25.0422 93.487 25.0946 93.4871 25.1476C93.4871 25.2006 93.4768 25.2531 93.4566 25.3021C93.4364 25.3511 93.4068 25.3956 93.3694 25.4332C93.332 25.4707 93.2876 25.5005 93.2387 25.5209C92.6069 25.7834 91.9917 26.0843 91.3966 26.4219C91.3157 26.4684 91.2211 26.4853 91.1291 26.4695ZM95.0001 24.8646C94.9076 24.8518 94.8224 24.807 94.7593 24.7381C94.6962 24.6691 94.6591 24.5803 94.6545 24.4869C94.6499 24.3935 94.678 24.3015 94.734 24.2266C94.79 24.1518 94.8703 24.0989 94.9612 24.077C95.652 23.8856 96.3541 23.7372 97.0634 23.6328C97.116 23.6252 97.1697 23.6282 97.2212 23.6414C97.2727 23.6546 97.3211 23.6778 97.3637 23.7098C97.4062 23.7417 97.4421 23.7817 97.4692 23.8275C97.4963 23.8733 97.5141 23.924 97.5216 23.9767C97.5292 24.0294 97.5262 24.083 97.513 24.1346C97.4998 24.1862 97.4766 24.2346 97.4447 24.2772C97.4128 24.3198 97.3728 24.3556 97.327 24.3828C97.2813 24.4099 97.2306 24.4277 97.178 24.4352C96.5016 24.5348 95.832 24.6763 95.1731 24.8588C95.1166 24.8733 95.0575 24.8753 95.0001 24.8646ZM99.1455 24.2541C99.0392 24.2461 98.9404 24.1962 98.8708 24.1153C98.8013 24.0344 98.7667 23.9292 98.7747 23.8228C98.7826 23.7164 98.8325 23.6175 98.9134 23.5479C98.9942 23.4783 99.0993 23.4437 99.2057 23.4516C99.9228 23.436 100.64 23.4646 101.354 23.5371C101.455 23.5538 101.546 23.6087 101.609 23.6904C101.671 23.7721 101.7 23.8745 101.69 23.9768C101.679 24.0791 101.63 24.1736 101.553 24.241C101.475 24.3084 101.375 24.3436 101.272 24.3395C100.591 24.2702 99.9073 24.2428 99.2235 24.2575C99.1974 24.2588 99.1713 24.2575 99.1455 24.2535V24.2541ZM105.332 25.2721C105.308 25.2684 105.285 25.2623 105.263 25.2537C104.703 25.0516 104.133 24.8794 103.556 24.7379C103.468 24.7161 103.384 24.6955 103.295 24.676C103.191 24.6521 103.1 24.5877 103.043 24.497C102.986 24.4063 102.967 24.2967 102.991 24.1922C103.002 24.1403 103.024 24.0911 103.054 24.0476C103.085 24.0041 103.124 23.9671 103.169 23.9387C103.213 23.9103 103.264 23.8912 103.316 23.8823C103.368 23.8735 103.422 23.8752 103.474 23.8873C103.566 23.9085 103.658 23.9303 103.749 23.9532C104.354 24.1015 104.951 24.2819 105.538 24.4937C105.641 24.521 105.729 24.5881 105.782 24.6804C105.836 24.7726 105.851 24.8824 105.823 24.9855C105.796 25.0886 105.729 25.1767 105.637 25.2304C105.545 25.284 105.435 25.2988 105.332 25.2715V25.2721Z" fill="#91B3FA"/>
</g>
<g id="Group_4" opacity="0.3">
<path id="Vector_25" opacity="0.3" d="M96.8593 58.142C96.807 58.1333 96.7569 58.1144 96.7119 58.0864C96.6669 58.0583 96.6278 58.0216 96.597 57.9785C96.5661 57.9353 96.5441 57.8865 96.5321 57.8348C96.5201 57.7831 96.5184 57.7295 96.5271 57.6772C96.5358 57.6248 96.5547 57.5747 96.5827 57.5297C96.6108 57.4846 96.6474 57.4455 96.6906 57.4147C96.7337 57.3838 96.7825 57.3617 96.8342 57.3497C96.8858 57.3377 96.9393 57.336 96.9916 57.3447C97.6553 57.4507 98.3248 57.5164 98.9965 57.5413C99.0495 57.5433 99.1016 57.5557 99.1499 57.5778C99.1981 57.5999 99.2416 57.6313 99.2777 57.6702C99.3138 57.7091 99.3419 57.7548 99.3604 57.8046C99.3789 57.8543 99.3874 57.9073 99.3854 57.9603C99.3835 58.0134 99.3711 58.0656 99.349 58.1138C99.3269 58.1621 99.2955 58.2056 99.2566 58.2417C99.2177 58.2778 99.1721 58.306 99.1224 58.3245C99.0726 58.343 99.0197 58.3515 98.9667 58.3495C98.2619 58.3229 97.5593 58.2538 96.8628 58.1426L96.8593 58.142ZM94.8419 57.6938C94.8276 57.6914 94.8134 57.6881 94.7995 57.6841C94.1211 57.4903 93.4549 57.256 92.8044 56.9825C92.7057 56.9409 92.6275 56.8618 92.587 56.7625C92.5466 56.6632 92.5472 56.5519 92.5887 56.4531C92.6303 56.3543 92.7094 56.2761 92.8086 56.2356C92.9078 56.1951 93.019 56.1958 93.1177 56.2373C93.7383 56.4984 94.374 56.7221 95.0212 56.9074C95.1254 56.9312 95.2159 56.9954 95.2728 57.086C95.3297 57.1765 95.3483 57.286 95.3245 57.3903C95.3007 57.4946 95.2365 57.5851 95.146 57.6421C95.0555 57.699 94.9461 57.7176 94.8419 57.6938ZM100.98 58.2939C100.873 58.2894 100.773 58.2427 100.701 58.1642C100.629 58.0858 100.591 57.9819 100.596 57.8755C100.6 57.7691 100.647 57.6688 100.725 57.5968C100.804 57.5248 100.908 57.4869 101.014 57.4915C101.684 57.4336 102.351 57.3353 103.01 57.1968C103.114 57.1749 103.224 57.1955 103.313 57.2541C103.403 57.3128 103.466 57.4046 103.488 57.5095C103.51 57.6144 103.489 57.7237 103.43 57.8134C103.372 57.9031 103.28 57.9659 103.175 57.9878C102.485 58.1328 101.786 58.236 101.083 58.2968C101.049 58.3002 101.014 58.2992 100.98 58.2939ZM91.0402 56.0906C90.9938 56.0825 90.9492 56.0664 90.9084 56.043C90.2961 55.6912 89.7058 55.3024 89.1407 54.8789C89.0983 54.847 89.0626 54.8071 89.0355 54.7615C89.0085 54.7158 88.9907 54.6653 88.9832 54.6128C88.9757 54.5602 88.9787 54.5067 88.9918 54.4553C89.005 54.4039 89.0281 54.3556 89.06 54.3131C89.0918 54.2707 89.1316 54.2349 89.1773 54.2079C89.2229 54.1809 89.2734 54.1631 89.3259 54.1556C89.3784 54.1481 89.4319 54.151 89.4832 54.1641C89.5346 54.1773 89.5829 54.2005 89.6253 54.2323C90.1639 54.6361 90.7264 55.0066 91.3099 55.342C91.3965 55.3866 91.464 55.4612 91.4996 55.5519C91.5353 55.6426 91.5367 55.7432 91.5036 55.8349C91.4706 55.9266 91.4054 56.0031 91.3201 56.0501C91.2348 56.0972 91.1353 56.1116 91.0402 56.0906ZM105.017 57.445C104.926 57.4322 104.843 57.3891 104.781 57.3226C104.718 57.2562 104.68 57.1704 104.673 57.0795C104.666 56.9886 104.69 56.8979 104.741 56.8225C104.792 56.747 104.868 56.6912 104.955 56.6644C105.592 56.4468 106.215 56.1911 106.82 55.8986C106.917 55.852 107.028 55.8456 107.129 55.881C107.23 55.9163 107.313 55.9903 107.36 56.0869C107.406 56.1834 107.413 56.2945 107.377 56.3957C107.342 56.4969 107.268 56.5799 107.172 56.6265C106.536 56.933 105.883 57.201 105.215 57.429C105.151 57.4511 105.082 57.4566 105.014 57.445H105.017ZM108.73 55.6521C108.649 55.6397 108.574 55.6026 108.514 55.5459C108.455 55.4893 108.414 55.4157 108.398 55.3352C108.382 55.2547 108.39 55.1711 108.423 55.0958C108.456 55.0204 108.511 54.9569 108.581 54.9138C109.147 54.5498 109.691 54.1522 110.21 53.7233C110.251 53.6895 110.298 53.664 110.348 53.6483C110.399 53.6327 110.452 53.6272 110.505 53.6321C110.558 53.6371 110.609 53.6524 110.656 53.6772C110.703 53.702 110.745 53.7358 110.779 53.7766C110.812 53.8175 110.838 53.8647 110.854 53.9154C110.869 53.9661 110.875 54.0194 110.87 54.0723C110.865 54.1251 110.85 54.1765 110.825 54.2234C110.8 54.2703 110.766 54.3119 110.725 54.3458C110.182 54.7957 109.611 55.2126 109.018 55.5942C108.932 55.6497 108.828 55.6704 108.728 55.6521H108.73ZM111.908 53.0206C111.836 53.0079 111.769 52.976 111.714 52.9283C111.659 52.8805 111.617 52.8187 111.594 52.7493C111.571 52.68 111.568 52.6057 111.583 52.5344C111.599 52.4631 111.634 52.3974 111.684 52.3442C112.147 51.8553 112.58 51.3385 112.98 50.7966C113.044 50.7104 113.139 50.6531 113.245 50.6373C113.351 50.6214 113.459 50.6483 113.545 50.7121C113.631 50.7759 113.688 50.8713 113.704 50.9773C113.72 51.0834 113.693 51.1914 113.629 51.2775C113.21 51.8453 112.756 52.387 112.27 52.8997C112.224 52.9486 112.167 52.9853 112.103 53.0064C112.039 53.0276 111.971 53.0324 111.905 53.0206H111.908Z" fill="#91B3FA"/>
<path id="Vector_26" opacity="0.3" d="M87.7253 53.6012C87.6457 53.5873 87.5721 53.55 87.5139 53.494C87.2653 53.2545 87.0218 53.0063 86.7916 52.7564C86.7556 52.7174 86.7276 52.6717 86.7093 52.6219C86.6909 52.572 86.6826 52.5191 86.6847 52.4661C86.6868 52.413 86.6993 52.3609 86.7215 52.3127C86.7437 52.2645 86.7752 52.2212 86.8142 52.1852C86.8532 52.1492 86.8988 52.1212 86.9486 52.1028C86.9984 52.0845 87.0513 52.0761 87.1043 52.0782C87.1573 52.0803 87.2094 52.0928 87.2575 52.1151C87.3057 52.1373 87.349 52.1688 87.385 52.2078C87.6044 52.4463 87.8364 52.683 88.0724 52.9117C88.134 52.9718 88.1748 53.05 88.1889 53.135C88.2029 53.2199 88.1895 53.3071 88.1506 53.3839C88.1116 53.4607 88.0492 53.523 87.9724 53.5618C87.8956 53.6005 87.8084 53.6138 87.7235 53.5995L87.7253 53.6012Z" fill="#91B3FA"/>
</g>
<path id="Vector_27" d="M88.945 48.5152C88.9657 48.5523 88.9976 48.5821 89.0361 48.6002C89.0747 48.6183 89.1179 48.6238 89.1598 48.616L91.608 48.1672C92.405 49.0359 93.3384 49.7687 94.3712 50.3367L94.5201 52.8209C94.5228 52.8634 94.5386 52.9041 94.5654 52.9371C94.5922 52.9702 94.6286 52.9941 94.6696 53.0055L97.5446 53.808C97.5856 53.8195 97.6292 53.818 97.6692 53.8035C97.7093 53.789 97.7438 53.7623 97.768 53.7271L99.1811 51.6791C100.359 51.7284 101.536 51.5852 102.668 51.255L104.53 52.9075C104.562 52.9358 104.602 52.9535 104.644 52.958C104.686 52.9625 104.729 52.9537 104.766 52.9327L107.367 51.4659C107.404 51.4451 107.433 51.4132 107.451 51.3746C107.469 51.3361 107.475 51.2928 107.467 51.251L107.019 48.8012C107.887 48.0035 108.619 47.0693 109.187 46.0355L111.669 45.8865C111.712 45.884 111.753 45.8683 111.786 45.8416C111.819 45.8149 111.843 45.7785 111.854 45.7375L112.656 42.8601C112.667 42.819 112.666 42.7754 112.651 42.7353C112.637 42.6952 112.61 42.6607 112.575 42.6365L110.53 41.2236C110.579 40.0451 110.436 38.8665 110.106 37.7341L111.758 35.8706C111.786 35.8388 111.804 35.799 111.808 35.7566C111.813 35.7143 111.804 35.6716 111.783 35.6345L110.317 33.0322C110.296 32.9953 110.264 32.9657 110.226 32.9476C110.187 32.9296 110.144 32.9239 110.102 32.9313L107.654 33.3807C106.857 32.5119 105.923 31.779 104.89 31.2112L104.741 28.7264C104.739 28.684 104.723 28.6434 104.696 28.6104C104.67 28.5773 104.633 28.5533 104.592 28.5419L101.717 27.7394C101.676 27.728 101.632 27.7297 101.592 27.7442C101.552 27.7586 101.518 27.7852 101.494 27.8202L100.081 29.8688C98.9033 29.8193 97.7254 29.9624 96.5937 30.2924L94.7321 28.6399C94.7001 28.6117 94.6601 28.5942 94.6178 28.5897C94.5754 28.5852 94.5327 28.5939 94.4955 28.6147L91.8949 30.082C91.8579 30.103 91.8284 30.1349 91.8103 30.1734C91.7923 30.2119 91.7866 30.2551 91.7941 30.297L92.2426 32.7468C91.3748 33.5445 90.6427 34.4785 90.0751 35.5118L87.592 35.6609C87.5495 35.6636 87.509 35.6794 87.4759 35.7062C87.4429 35.733 87.419 35.7695 87.4075 35.8105L86.6056 38.6873C86.5941 38.7283 86.5958 38.7719 86.6102 38.812C86.6247 38.8521 86.6513 38.8866 86.6864 38.9108L88.7336 40.3249C88.6842 41.5032 88.8271 42.6816 89.1569 43.8139L87.5032 45.6767C87.4751 45.7086 87.4575 45.7485 87.453 45.7908C87.4485 45.8331 87.4572 45.8758 87.478 45.9129L88.945 48.5152Z" fill="#91B3FA"/>
<path id="Vector_28" d="M99.1036 43.7856C98.322 43.6501 97.6234 43.2167 97.1547 42.5765C96.6859 41.9363 96.4834 41.1391 96.5898 40.3526C96.6963 39.5661 97.1033 38.8515 97.7254 38.3591C98.3474 37.8666 99.136 37.6347 99.9254 37.7121C100.715 37.7895 101.443 38.1701 101.958 38.774C102.473 39.3779 102.734 40.1579 102.686 40.9501C102.637 41.7424 102.284 42.4851 101.7 43.0221C101.116 43.5591 100.347 43.8486 99.5538 43.8298C99.4028 43.8258 99.2524 43.8111 99.1036 43.7856ZM100.014 38.5587C99.9056 38.5402 99.7958 38.5293 99.6855 38.5261C99.0897 38.5113 98.5124 38.734 98.0807 39.1452C97.649 39.5563 97.3981 40.1223 97.3834 40.7185C97.3687 41.3147 97.5912 41.8924 98.0021 42.3244C98.413 42.7564 98.9786 43.0074 99.5744 43.0221C100.142 43.0362 100.693 42.835 101.118 42.459C101.543 42.083 101.811 41.5599 101.866 40.9949C101.922 40.4299 101.762 39.8647 101.418 39.4128C101.075 38.9609 100.573 38.6558 100.014 38.5587Z" fill="#BDD0FB"/>
<path id="Vector_29" d="M98.3928 48.2405C97.6271 48.1081 96.886 47.8599 96.1949 47.5045L96.1331 47.4724C96.0383 47.4226 95.9671 47.3371 95.9353 47.2347C95.9036 47.1324 95.9137 47.0216 95.9635 46.9268C96.0133 46.8319 96.0988 46.7607 96.2011 46.7289C96.3033 46.6971 96.414 46.7072 96.5088 46.7571C96.9373 46.9825 97.3885 47.1616 97.8549 47.2913L97.9317 47.3125C99.0202 47.6069 100.165 47.623 101.261 47.3595C101.857 47.2156 102.431 46.9921 102.968 46.6952L102.981 46.6883L103.022 46.6654C103.8 46.2281 104.485 45.6408 105.035 44.9374C105.586 44.234 105.992 43.4284 106.229 42.5671C106.292 42.3401 106.344 42.1124 106.383 41.8839C106.554 40.88 106.497 39.8505 106.218 38.8713C105.938 37.8922 105.443 36.9883 104.767 36.2263C104.092 35.4644 103.255 34.8638 102.317 34.4689C101.379 34.074 100.364 33.8949 99.3474 33.9446C98.3309 33.9944 97.3386 34.2719 96.4435 34.7565C95.5485 35.2412 94.7736 35.9207 94.1759 36.745C93.5783 37.5692 93.1732 38.5172 92.9904 39.519C92.8077 40.5208 92.852 41.5509 93.1201 42.5333C93.1341 42.5845 93.1379 42.6379 93.1313 42.6906C93.1247 42.7432 93.1078 42.7941 93.0815 42.8402C93.0553 42.8863 93.0202 42.9268 92.9783 42.9594C92.9364 42.9919 92.8886 43.0159 92.8374 43.0299C92.7863 43.044 92.7328 43.0478 92.6802 43.0412C92.6276 43.0346 92.5768 43.0176 92.5307 42.9914C92.4846 42.9651 92.4441 42.93 92.4116 42.8881C92.3791 42.8462 92.3551 42.7983 92.3411 42.7471C92.0468 41.6719 91.9927 40.5451 92.1824 39.4467C92.2265 39.1933 92.2832 38.9411 92.3542 38.6923C92.8779 36.8125 94.1031 35.2057 95.7767 34.2039C97.4502 33.202 99.4444 32.8815 101.347 33.3086C103.25 33.7357 104.917 34.8778 106.002 36.499C107.088 38.1203 107.51 40.0967 107.181 42.0203C107.137 42.2753 107.079 42.5304 107.009 42.7838C105.952 46.576 102.189 48.8968 98.3928 48.2405Z" fill="#BDD0FB"/>
<path id="Vector_30" d="M9.70665 137.524C9.70861 138.101 9.93868 138.654 10.3466 139.061C10.7544 139.469 11.307 139.698 11.8833 139.699H129.538C130.115 139.698 130.667 139.469 131.075 139.061C131.483 138.654 131.713 138.101 131.715 137.524L132.694 69.8678C132.694 68.6715 131.286 66.3364 128.704 66.5118L13.7169 63.5346C12.9743 63.515 12.2355 63.6466 11.5453 63.9214C10.8551 64.1962 10.2279 64.6084 9.70174 65.1332C9.1756 65.6579 8.76149 66.2841 8.48456 66.9738C8.20763 67.6636 8.07365 68.4024 8.09075 69.1456L9.70665 137.524Z" fill="url(#paint14_linear_295_3491)"/>
<path id="Vector_31" d="M11.8544 135.438C11.8556 135.983 12.0728 136.506 12.4586 136.892C12.8443 137.278 13.3671 137.495 13.9125 137.496H126.699C127.244 137.495 127.767 137.278 128.153 136.892C128.539 136.506 128.756 135.982 128.757 135.436L129.681 74.0177C129.572 70.3212 126.334 68.9931 124.371 69.0716L14.1685 66.114C13.6466 66.1003 13.1273 66.193 12.6422 66.3863C12.1571 66.5797 11.7163 66.8697 11.3467 67.2387C10.977 67.6077 10.6862 68.0481 10.4918 68.5331C10.2975 69.018 10.2037 69.5375 10.2162 70.0598L11.8544 135.438Z" fill="url(#paint15_linear_295_3491)"/>
<path id="Vector_32" d="M127.537 106.258H127.533C127.493 106.257 127.454 106.249 127.418 106.233C127.381 106.217 127.348 106.195 127.321 106.166C127.293 106.138 127.271 106.104 127.257 106.067C127.242 106.03 127.235 105.991 127.236 105.951L127.309 100.97C127.31 100.891 127.342 100.815 127.399 100.759C127.455 100.704 127.531 100.673 127.61 100.673H127.613C127.653 100.673 127.692 100.681 127.729 100.697C127.765 100.713 127.798 100.735 127.826 100.764C127.854 100.792 127.876 100.826 127.89 100.863C127.905 100.9 127.912 100.939 127.912 100.979L127.839 105.96C127.838 106.04 127.806 106.115 127.749 106.171C127.693 106.227 127.617 106.258 127.537 106.258Z" fill="#7D97F4"/>
<path id="Vector_33" d="M127.714 94.053C127.675 94.0525 127.636 94.0441 127.599 94.0284C127.563 94.0127 127.53 93.9899 127.502 93.9614C127.475 93.9329 127.453 93.8993 127.438 93.8624C127.424 93.8254 127.416 93.786 127.417 93.7463L127.697 74.6689C127.692 73.5357 127.348 72.6313 126.675 71.9858C125.419 70.7821 123.425 70.8435 123.342 70.8475L88.119 69.9023C88.0794 69.9013 88.0403 69.8926 88.0041 69.8765C87.9679 69.8604 87.9352 69.8373 87.9079 69.8086C87.8806 69.7798 87.8592 69.7459 87.845 69.7089C87.8308 69.6719 87.8241 69.6324 87.8251 69.5928C87.824 69.5525 87.8314 69.5125 87.8468 69.4752C87.8622 69.438 87.8853 69.4045 87.9146 69.3768C87.9438 69.3491 87.9785 69.3279 88.0165 69.3145C88.0545 69.3012 88.0949 69.296 88.135 69.2993L123.337 70.2445C123.556 70.2313 125.679 70.1946 127.092 71.5502C127.888 72.3126 128.295 73.3632 128.3 74.6724L128.02 93.7555C128.02 93.7951 128.011 93.8343 127.996 93.8707C127.98 93.9071 127.957 93.9401 127.929 93.9677C127.901 93.9953 127.867 94.0171 127.83 94.0317C127.793 94.0464 127.754 94.0536 127.714 94.053Z" fill="#7D97F4"/>
<path id="Vector_34" d="M0.485382 145.315L138.546 145.315C138.725 145.315 138.87 145.17 138.87 144.991V139.695C138.87 139.516 138.725 139.371 138.546 139.371L0.485382 139.371C0.306641 139.371 0.161743 139.516 0.161743 139.695V144.991C0.161743 145.17 0.306641 145.315 0.485382 145.315Z" fill="url(#paint16_linear_295_3491)"/>
<path id="Vector_35" d="M21.1746 87.3032V89.7994H57.595V87.3032H21.1746Z" fill="#7D97F4"/>
<path id="Vector_36" d="M21.0027 70.619V73.1152H57.4231V70.619H21.0027Z" fill="#7D97F4"/>
<path id="Vector_37" d="M31.2704 74.8898V77.386H57.532V74.8898H31.2704Z" fill="#7D97F4"/>
<path id="Vector_38" d="M25.7129 74.6903V77.1865H29.4923V74.6903H25.7129Z" fill="#7D97F4"/>
<path id="Vector_39" d="M31.2445 79.0622V81.5585H57.5061V79.0622H31.2445Z" fill="#7D97F4"/>
<path id="Vector_40" d="M25.6942 78.8629V81.3591H29.4736V78.8629H25.6942Z" fill="#7D97F4"/>
<path id="Vector_41" d="M31.1477 83.2285V85.7247H57.4093V83.2285H31.1477Z" fill="#7D97F4"/>
<path id="Vector_42" d="M25.4697 83.0286V85.5248H29.2491V83.0286H25.4697Z" fill="#7D97F4"/>
<path id="Vector_43" d="M21.0015 104.673V107.17H57.4219V104.673H21.0015Z" fill="#7D97F4"/>
<path id="Vector_44" d="M31.0987 92.2609V94.7571H57.3603V92.2609H31.0987Z" fill="#7D97F4"/>
<path id="Vector_45" d="M25.5401 92.0598V94.556H29.3195V92.0598H25.5401Z" fill="#7D97F4"/>
<path id="Vector_46" d="M31.0722 96.4332V98.9294H57.3338V96.4332H31.0722Z" fill="#7D97F4"/>
<path id="Vector_47" d="M25.5216 96.2334V98.7296H29.301V96.2334H25.5216Z" fill="#7D97F4"/>
<path id="Vector_48" d="M30.976 100.599V103.095H57.2376V100.599H30.976Z" fill="#7D97F4"/>
<path id="Vector_49" d="M25.2966 100.399V102.895H29.076V100.399H25.2966Z" fill="#7D97F4"/>
<path id="Vector_50" d="M21.0015 122.021V124.517H57.4219V122.021H21.0015Z" fill="#7D97F4"/>
<path id="Vector_51" d="M31.0987 109.609V112.105H57.3603V109.609H31.0987Z" fill="#7D97F4"/>
<path id="Vector_52" d="M25.5401 109.408V111.904H29.3195V109.408H25.5401Z" fill="#7D97F4"/>
<path id="Vector_53" d="M31.0716 113.781V116.278H57.3332V113.781H31.0716Z" fill="#7D97F4"/>
<path id="Vector_54" d="M25.5211 113.581V116.077H29.3005V113.581H25.5211Z" fill="#7D97F4"/>
<path id="Vector_55" d="M30.9754 117.947V120.443H57.237V117.947H30.9754Z" fill="#7D97F4"/>
<path id="Vector_56" d="M25.2966 117.746V120.242H29.076V117.746H25.2966Z" fill="#7D97F4"/>
<path id="Vector_57" d="M31.271 126.546V129.042H57.5326V126.546H31.271Z" fill="#7D97F4"/>
<path id="Vector_58" d="M25.7129 126.346V128.842H29.4923V126.346H25.7129Z" fill="#7D97F4"/>
<path id="Vector_59" d="M31.063 130.718V133.215H57.3247V130.718H31.063Z" fill="#7D97F4"/>
<path id="Vector_60" d="M25.5126 130.519V133.015H29.292V130.519H25.5126Z" fill="#7D97F4"/>
<path id="Vector_61" d="M85.2681 118.373V120.903H111.483V118.373H85.2681Z" fill="#7D97F4"/>
<path id="Vector_62" d="M74.6041 114.145V116.675H117.137V114.145H74.6041Z" fill="#7D97F4"/>
<path id="Vector_63" d="M88.2061 109.921V112.452H122.3V109.921H88.2061Z" fill="#7D97F4"/>
<path id="Vector_64" d="M88.2066 105.694V108.225H107.648V105.694H88.2066Z" fill="#7D97F4"/>
<path id="Vector_65" d="M88.6579 101.462V103.992H122.71V101.462H88.6579Z" fill="#7D97F4"/>
<path id="Vector_66" d="M85.6112 97.2396V99.7697H114.386V97.2396H85.6112Z" fill="#7D97F4"/>
<path id="Vector_67" d="M74.6052 93.0043V95.5343H105.327V93.0043H74.6052Z" fill="#7D97F4"/>
<path id="Vector_68" d="M88.3182 88.7787V91.3093H123.37V88.7787H88.3182Z" fill="#7D97F4"/>
<path id="Vector_69" d="M88.3188 84.5514V87.0814H123.805V84.5514H88.3188Z" fill="#7D97F4"/>
<path id="Vector_70" d="M88.6579 80.3234V82.8534H123.617V80.3234H88.6579Z" fill="#7D97F4"/>
<path id="Vector_71" d="M82.3301 76.0959V78.626H110.968V76.0959H82.3301Z" fill="#7D97F4"/>
<path id="Vector_72" d="M64.3627 88.6733V91.2034H71.7886V88.6733H64.3627Z" fill="#7D97F4"/>
<path id="Vector_73" d="M64.3627 93.0216V95.5516H71.7886V93.0216H64.3627Z" fill="#7D97F4"/>
<path id="Vector_74" d="M64.3627 97.1921V99.7222H71.7886V97.1921H64.3627Z" fill="#7D97F4"/>
<path id="Vector_75" d="M64.3623 101.435V103.965H71.7882V101.435H64.3623Z" fill="#7D97F4"/>
<path id="Vector_76" d="M64.3627 105.784V108.314H71.7886V105.784H64.3627Z" fill="#7D97F4"/>
<path id="Vector_77" d="M64.3623 109.955V112.485H71.7882V109.955H64.3623Z" fill="#7D97F4"/>
<path id="Vector_78" d="M64.7393 114.112V116.642H72.1652V114.112H64.7393Z" fill="#7D97F4"/>
<path id="Vector_79" d="M64.7397 118.461V120.991H72.1656V118.461H64.7397Z" fill="#7D97F4"/>
<path id="Vector_80" d="M64.7393 122.631V125.161H72.1652V122.631H64.7393Z" fill="#7D97F4"/>
<path id="Vector_81" d="M64.7397 126.886V129.416H72.1656V126.886H64.7397Z" fill="#7D97F4"/>
<path id="Vector_82" d="M64.7397 131.235V133.765H72.1656V131.235H64.7397Z" fill="#7D97F4"/>
<path id="Vector_83" d="M64.3623 84.5508V87.0808H71.7882V84.5508H64.3623Z" fill="#7D97F4"/>
<path id="Vector_84" d="M64.3623 80.3257V82.8557H71.7882V80.3257H64.3623Z" fill="#7D97F4"/>
<path id="Vector_85" d="M64.3627 76.0953V78.6254H71.7886V76.0953H64.3627Z" fill="#7D97F4"/>
<path id="Vector_86" d="M64.3623 71.8679V74.3979H71.7882V71.8679H64.3623Z" fill="#7D97F4"/>
<path id="Vector_87" d="M74.615 71.8713V74.402H110.227C110.227 73.0045 109.081 71.8713 107.664 71.8713H74.615Z" fill="#7D97F4"/>
<path id="Vector_88" d="M88.545 131.401V133.931H124.457V131.401H88.545Z" fill="#7D97F4"/>
<path id="Vector_89" d="M88.545 127.045V129.575H123.804V127.045H88.545Z" fill="#7D97F4"/>
<path id="Vector_90" d="M88.5514 122.892V125.422H110.974C110.974 124.024 110.252 122.891 109.36 122.891L88.5514 122.892Z" fill="#7D97F4"/>
<path id="Vector_91" d="M61.0023 70.1373H60.9616C60.7725 70.1373 60.6191 70.2908 60.6191 70.4801V135.294C60.6191 135.484 60.7725 135.637 60.9616 135.637H61.0023C61.1915 135.637 61.3449 135.484 61.3449 135.294V70.4801C61.3449 70.2908 61.1915 70.1373 61.0023 70.1373Z" fill="#7D97F4"/>
<path id="Vector_92" d="M112.38 104.251L156.989 151.883C157.432 152.356 157.772 152.915 157.988 153.525C158.205 154.135 158.293 154.784 158.247 155.43C158.201 156.076 158.022 156.705 157.721 157.278C157.42 157.852 157.004 158.357 156.499 158.761L156.148 159.043C155.699 159.403 155.183 159.67 154.63 159.829C154.077 159.989 153.498 160.037 152.926 159.972C152.354 159.906 151.801 159.729 151.299 159.448C150.796 159.168 150.353 158.791 149.997 158.34L109.335 106.851L112.38 104.251Z" fill="url(#paint17_linear_295_3491)"/>
<path id="Vector_93" opacity="0.5" d="M120.305 93.2219C127.72 78.5719 121.644 60.5705 106.735 53.0147C91.8255 45.4589 73.7283 51.2098 66.3137 65.8598C58.8991 80.5098 64.9747 98.5112 79.884 106.067C94.7933 113.623 112.89 107.872 120.305 93.2219Z" fill="white"/>
<path id="Vector_94" d="M63.267 64.3139C55.0185 80.616 61.7777 100.646 78.3697 109.052C94.9617 117.459 115.097 111.059 123.346 94.7571C131.595 78.4556 124.835 58.4244 108.243 50.0181C91.6514 41.6117 71.516 48.0119 63.267 64.3139ZM67.6776 66.5494C74.7152 52.6421 91.8943 47.1814 106.048 54.3531C120.201 61.5248 125.97 78.6132 118.932 92.5205C111.895 106.428 94.7154 111.888 80.5618 104.716C66.4083 97.5445 60.6418 80.4572 67.6794 66.5499L67.6776 66.5494Z" fill="url(#paint18_linear_295_3491)"/>
<path id="Vector_95" d="M119.266 97.125C119.247 97.1122 119.234 97.0924 119.23 97.0699C119.225 97.0475 119.23 97.0242 119.242 97.0052C119.681 96.3581 120.102 95.6869 120.488 95.0042C120.493 94.9936 120.5 94.9841 120.509 94.9764C120.518 94.9688 120.529 94.963 120.54 94.9595C120.551 94.956 120.563 94.9549 120.575 94.9562C120.587 94.9574 120.598 94.9611 120.608 94.967C120.619 94.9728 120.627 94.9807 120.635 94.9901C120.642 94.9996 120.647 95.0104 120.65 95.0219C120.652 95.0334 120.653 95.0453 120.651 95.057C120.649 95.0686 120.644 95.0797 120.638 95.0896C120.248 95.7746 119.826 96.4515 119.386 97.1021C119.377 97.1153 119.364 97.1258 119.35 97.1324C119.335 97.1389 119.319 97.1413 119.303 97.1393C119.29 97.1376 119.277 97.1327 119.266 97.125ZM123.26 88.7783C123.238 88.7715 123.22 88.7564 123.209 88.7362C123.199 88.716 123.196 88.6924 123.203 88.6705C123.817 86.6166 124.211 84.5029 124.378 82.3654C124.849 76.3195 123.516 70.2855 120.524 64.9165C117.459 59.419 112.845 54.9957 107.177 52.1241C101.885 49.4313 95.9411 48.285 90.0275 48.8168C90.0056 48.8172 89.9844 48.8093 89.9681 48.7947C89.9519 48.78 89.9418 48.7598 89.9398 48.738C89.9378 48.7162 89.9442 48.6945 89.9576 48.6772C89.971 48.6599 89.9904 48.6484 90.012 48.6448C95.9572 48.1099 101.933 49.2621 107.254 51.9693C112.951 54.8559 117.59 59.3061 120.672 64.8311C123.681 70.2299 125.021 76.2948 124.548 82.378C124.38 84.528 123.983 86.654 123.365 88.7198C123.359 88.7394 123.347 88.7562 123.329 88.7674C123.312 88.7785 123.292 88.7832 123.272 88.7805L123.26 88.7783Z" fill="#BDD0FB"/>
<path id="Vector_96" d="M152.421 158.421C154.341 158.669 155.672 158.16 156.374 156.906C157.09 155.63 156.883 154.002 155.858 152.857L150.588 146.967C150.573 146.952 150.552 146.944 150.53 146.943C150.508 146.943 150.487 146.951 150.471 146.965C150.455 146.979 150.445 146.999 150.442 147.021C150.44 147.043 150.446 147.064 150.46 147.082L155.729 152.971C156.703 154.06 156.904 155.607 156.224 156.821C155.551 158.02 154.265 158.5 152.382 158.241C152.371 158.24 152.359 158.24 152.348 158.243C152.337 158.246 152.327 158.251 152.318 158.258C152.309 158.265 152.301 158.274 152.295 158.284C152.29 158.294 152.286 158.304 152.284 158.316C152.283 158.327 152.284 158.338 152.287 158.349C152.29 158.361 152.295 158.371 152.302 158.38C152.308 158.389 152.317 158.397 152.327 158.402C152.337 158.408 152.348 158.412 152.359 158.413L152.421 158.421Z" fill="#BDD0FB"/>
<path id="Vector_97" d="M148.891 145.295C148.903 145.296 148.916 145.295 148.928 145.292C148.94 145.288 148.95 145.282 148.959 145.274C148.976 145.258 148.987 145.237 148.988 145.214C148.989 145.191 148.982 145.169 148.966 145.152L148.284 144.389C148.276 144.38 148.267 144.372 148.257 144.366C148.246 144.36 148.235 144.356 148.223 144.355C148.211 144.354 148.199 144.355 148.188 144.359C148.176 144.363 148.166 144.369 148.157 144.377C148.148 144.385 148.141 144.394 148.136 144.405C148.131 144.416 148.128 144.428 148.128 144.44C148.128 144.452 148.13 144.463 148.135 144.474C148.139 144.485 148.146 144.495 148.155 144.504L148.838 145.266C148.852 145.282 148.871 145.292 148.891 145.295Z" fill="#BDD0FB"/>
<path id="Vector_98" d="M57.3202 33.2032C57.2069 33.2 57.0992 33.153 57.0196 33.0721C56.9401 32.9913 56.8949 32.8828 56.8935 32.7693C56.8499 30.339 56.1019 18.2728 45.6126 15.7514C33.9353 12.9428 28.5909 24.9751 28.5909 24.9751C28.5909 24.9751 14.1424 19.363 11.3717 34.3995C2.31215 36.6022 -0.041518 48.5887 5.85098 54.4455C6.78206 55.374 8.03927 55.9011 9.3537 55.914L66.0899 56.4299C66.9048 56.4345 67.6988 56.1727 68.3512 55.6842C69.0037 55.1958 69.4788 54.5074 69.7044 53.7239C71.4766 47.6653 73.7999 33.5941 57.3202 33.2032Z" fill="#91B3FA"/>
<path id="Vector_99" d="M56.0231 33.4625C55.9099 33.4591 55.8025 33.4122 55.7231 33.3314C55.6437 33.2507 55.5985 33.1424 55.5969 33.0292C55.5505 30.6986 54.8093 19.51 44.9306 17.1645C33.8886 14.5433 28.8347 25.7784 28.8347 25.7784C28.8347 25.7784 15.1726 20.5354 12.5525 34.5791C4.06808 36.6162 1.80376 47.6156 7.17385 53.14C7.63771 53.6182 8.19165 53.9996 8.80368 54.2623C9.41571 54.5249 10.0737 54.6637 10.7396 54.6704L64.1495 55.1519C64.9661 55.1561 65.7617 54.8928 66.4149 54.4023C67.068 53.9117 67.5428 53.2208 67.7668 52.435C69.4325 46.6785 71.407 33.8334 56.0231 33.4625Z" fill="#BDD0FB"/>
<path id="Vector_100" d="M2.91341 135.522C2.42881 136.239 0.503023 152.488 0.201725 158.486C0.196822 158.582 0.21156 158.678 0.245039 158.769C0.278518 158.859 0.330037 158.941 0.396451 159.011C0.462864 159.081 0.54278 159.136 0.631322 159.174C0.719864 159.212 0.815173 159.231 0.911436 159.231C1.0809 159.231 1.24479 159.17 1.37355 159.06C1.50232 158.95 1.58748 158.797 1.6137 158.63L5.13648 136.04L2.91341 135.522Z" fill="#7D97F4"/>
<path id="Vector_101" d="M18.3988 135.522C18.8834 136.239 20.8092 152.488 21.1111 158.486C21.1159 158.582 21.1011 158.678 21.0675 158.769C21.034 158.859 20.9824 158.941 20.916 159.011C20.8495 159.081 20.7696 159.136 20.681 159.174C20.5924 159.212 20.4971 159.231 20.4008 159.231C20.2313 159.231 20.0674 159.17 19.9387 159.06C19.8099 158.95 19.7247 158.797 19.6985 158.63L16.1758 136.04L18.3988 135.522Z" fill="#7D97F4"/>
<path id="Vector_102" d="M8.89229e-05 134.254V134.431C-0.0113673 135.706 1.08556 136.751 2.45973 136.774L18.743 137.052C20.0971 137.075 21.2261 136.096 21.2914 134.841L21.3 134.679C21.3688 133.37 20.2581 132.267 18.8461 132.242L2.55539 131.95C1.16003 131.925 0.0121179 132.961 8.89229e-05 134.254Z" fill="#7D97F4"/>
<path id="Vector_103" d="M31.6778 157.896C28.7834 157.896 27.5026 157.647 26.9298 157.421C26.9857 157.663 27.122 157.878 27.3163 158.033C27.5106 158.187 27.7515 158.271 27.9998 158.271H38.2416C38.3183 158.271 38.3939 158.254 38.4625 158.219C38.5312 158.185 38.5911 158.136 38.6375 158.075C38.684 158.014 38.7158 157.943 38.7305 157.868C38.7452 157.793 38.7424 157.715 38.7222 157.641C37.5543 157.736 35.0734 157.896 31.6778 157.896Z" fill="url(#paint19_linear_295_3491)"/>
<path id="Vector_104" d="M38.7199 157.642C38.7036 157.58 38.675 157.522 38.6357 157.47C37.8555 156.474 36.2871 154.909 34.1574 154.939C31.035 154.983 29.9461 155.322 27.5197 154.958L26.9469 156.857C26.8917 157.041 26.8857 157.236 26.9297 157.423C27.5025 157.649 28.7833 157.898 31.6777 157.898C35.0734 157.896 37.5542 157.736 38.7199 157.642Z" fill="url(#paint20_linear_295_3491)"/>
<path id="Vector_105" d="M28.2219 152.91L27.5197 155.301C27.5197 155.301 29.0766 156.01 30.4456 155.441L30.7142 153.369L28.2219 152.91Z" fill="url(#paint21_linear_295_3491)"/>
<path id="Vector_106" d="M49.4463 156.39C47.1894 158.204 46.0363 158.814 45.4486 158.997C45.6439 159.15 45.8849 159.232 46.1327 159.23C46.3804 159.228 46.6202 159.143 46.8131 158.987L54.7957 152.571C54.8553 152.524 54.9031 152.463 54.9353 152.393C54.9676 152.324 54.9835 152.249 54.9817 152.172C54.98 152.096 54.9608 152.021 54.9254 151.953C54.8901 151.886 54.8396 151.827 54.778 151.782C53.9262 152.584 52.0927 154.262 49.4463 156.39Z" fill="url(#paint22_linear_295_3491)"/>
<path id="Vector_107" d="M54.7779 151.78C54.7267 151.741 54.6682 151.713 54.6061 151.697C53.3768 151.411 51.1807 151.181 49.5379 152.54C47.1321 154.531 46.4934 155.477 44.3751 156.715L45.1118 158.549C45.1829 158.727 45.2999 158.882 45.4509 159C46.0386 158.817 47.1916 158.206 49.4485 156.392C52.0926 154.262 53.9262 152.584 54.7779 151.78Z" fill="url(#paint23_linear_295_3491)"/>
<path id="Vector_108" d="M13.1908 125.664C13.1908 125.664 30.5206 127.08 34.0755 128.755C37.6303 130.43 31.1748 153.901 31.1748 153.901C31.1748 153.901 30.2067 154.367 28.053 153.696C28.053 153.696 30.2617 136.376 28.6183 132.62L9.85422 129.549L13.1908 125.664Z" fill="url(#paint24_linear_295_3491)"/>
<path id="Vector_109" d="M42.6521 153.418C42.8131 153.564 44.374 156.715 44.374 156.715C44.374 156.715 46.1119 156.339 46.4664 155.238L44.9027 152.395L42.6521 153.418Z" fill="url(#paint25_linear_295_3491)"/>
<path id="Vector_110" d="M2.75298 125.517C2.75298 125.517 2.18819 126.876 2.2111 128.684C2.24317 131.183 4.25087 133.212 6.74546 133.335L27.232 134.27C27.4424 134.279 27.6442 134.356 27.8075 134.489C27.9709 134.622 28.0872 134.804 28.1393 135.009C28.6205 136.872 30.9736 142.594 42.4762 154.012C42.6251 154.159 42.8193 154.252 43.0272 154.274C43.2352 154.297 43.4448 154.249 43.6218 154.137L45.2595 153.102C45.3421 153.05 45.4012 152.967 45.4243 152.872C45.4474 152.777 45.4327 152.677 45.3832 152.592L33.4567 132.212C32.8297 131.177 31.8218 130.429 30.65 130.13L13.189 125.664L2.75298 125.517Z" fill="url(#paint26_linear_295_3491)"/>
<path id="Vector_111" d="M22.9424 93.6786C22.9424 93.6786 20.748 97.5614 18.5106 99.4426L23.1355 102.022C23.1355 102.022 24.1774 97.911 26.5586 96.7073L22.9424 93.6786Z" fill="url(#paint27_linear_295_3491)"/>
<path id="Vector_112" d="M2.38354 125.664C2.38354 125.664 7.91459 127.013 13.1936 125.664C13.1936 125.664 20.5829 115.727 23.4383 113.023C23.4383 113.023 27.9967 120.221 38.1429 121.241L38.7089 119.976C38.7089 119.976 30.6322 116.25 28.1445 110.525C25.6568 104.799 24.6561 102.36 22.3941 100.864C20.985 99.9338 20.1412 99.2981 19.7053 98.9508C19.5894 98.8579 19.4476 98.8031 19.2994 98.7938C19.1512 98.7845 19.0037 98.8211 18.877 98.8986C16.4747 100.363 5.17886 108.105 2.38354 125.664Z" fill="url(#paint28_linear_295_3491)"/>
<path id="Vector_113" d="M20.4019 107.679C20.4019 107.679 21.3854 110.244 23.1354 112.528L20.4019 107.679Z" fill="url(#paint29_linear_295_3491)"/>
<path id="Vector_114" d="M37.5302 119.314L38.6723 119.009L42.1401 118.207C42.3467 118.159 42.5607 118.153 42.7698 118.188C42.9789 118.224 43.179 118.3 43.3585 118.413L46.34 120.29L38.1064 120.276L37.5302 119.314Z" fill="url(#paint30_linear_295_3491)"/>
<path id="Vector_115" d="M26.4275 87.8582C26.4275 87.8582 28.56 91.4062 28.9301 93.3671C29.3001 95.3279 29.8941 96.5534 27.6642 97.2521C25.4342 97.9508 23.3612 97.0664 22.0604 95.2362C22.0604 95.2362 20.0292 92.4196 20.2319 91.1293C20.4347 89.8391 26.4275 87.8582 26.4275 87.8582Z" fill="url(#paint31_linear_295_3491)"/>
<path id="Vector_116" d="M22.6543 93.7164L22.9407 93.6785C22.9407 93.6785 21.4307 91.395 22.4188 90.8287C23.4069 90.2623 27.4344 88.8718 28.1338 87.2852C28.808 85.7554 27.7992 84.0266 26.5832 83.6661C26.5455 83.6559 26.5054 83.6604 26.4709 83.6786C26.4363 83.6967 26.41 83.7273 26.397 83.7641L26.326 83.9567C26.3151 83.9859 26.2958 84.0112 26.2704 84.0294C26.2451 84.0475 26.2149 84.0577 26.1838 84.0585C26.1526 84.0594 26.1219 84.0509 26.0956 84.0342C26.0693 84.0175 26.0486 83.9933 26.0361 83.9647C26.0247 83.9364 26.0052 83.9121 25.9801 83.8948C25.955 83.8775 25.9253 83.8679 25.8948 83.8673C25.8643 83.8667 25.8343 83.8751 25.8085 83.8914C25.7827 83.9077 25.7623 83.9312 25.7497 83.959C25.5344 84.4348 24.8905 85.2464 22.9516 85.8746C20.2021 86.7665 18.4922 88.1524 18.7025 90.1059C18.7056 90.1336 18.7012 90.1617 18.6899 90.1872C18.6785 90.2127 18.6605 90.2347 18.6378 90.2509C18.615 90.2671 18.5884 90.2769 18.5606 90.2794C18.5328 90.2818 18.5048 90.2767 18.4796 90.2646C18.2545 90.1655 17.9143 90.15 17.519 90.5828C16.8317 91.3354 17.3695 92.9815 19.2478 94.1463C19.2689 94.1586 19.2868 94.1758 19.3001 94.1964C19.3133 94.217 19.3215 94.2404 19.3239 94.2648C19.3264 94.2892 19.323 94.3138 19.3142 94.3366C19.3053 94.3594 19.2912 94.3798 19.273 94.3962C18.9923 94.6369 18.5971 95.1734 19.8675 95.652C21.1678 96.1415 21.877 95.9759 22.1387 95.871C22.1728 95.8576 22.2011 95.8326 22.2187 95.8005C22.2363 95.7683 22.2421 95.731 22.235 95.695L21.9016 93.9829C21.8974 93.9619 21.8976 93.9403 21.9021 93.9194C21.9066 93.8986 21.9154 93.8788 21.9278 93.8614C21.9403 93.8441 21.9562 93.8295 21.9745 93.8185C21.9929 93.8076 22.0133 93.8005 22.0345 93.7978L22.6543 93.7164Z" fill="url(#paint32_linear_295_3491)"/>
<path id="Vector_117" d="M22.7724 94.0683C22.7724 94.0683 21.8313 91.7464 20.8432 92.5626C19.8551 93.3788 21.7597 95.1826 22.6344 95.1585L22.7724 94.0683Z" fill="url(#paint33_linear_295_3491)"/>
<path id="Vector_118" d="M34.3494 121.906C34.3625 121.906 34.3763 121.906 34.3895 121.906L51.9793 121.888C52.1877 121.888 52.3876 121.806 52.535 121.658C52.6824 121.511 52.7652 121.311 52.7652 121.102C52.7652 120.894 52.6824 120.693 52.535 120.546C52.3876 120.399 52.1877 120.316 51.9793 120.316L34.3895 120.333C34.185 120.334 33.989 120.415 33.8431 120.558C33.6971 120.702 33.6127 120.896 33.6077 121.101C33.6027 121.305 33.6775 121.504 33.8163 121.654C33.9551 121.804 34.1469 121.894 34.3511 121.905L34.3494 121.906Z" fill="url(#paint34_linear_295_3491)"/>
<path id="Vector_119" d="M58.7911 104.668L58.7733 104.704L51.3726 120.672C51.3269 120.766 51.3004 120.868 51.2946 120.973C51.2887 121.077 51.3038 121.182 51.3388 121.28C51.3738 121.379 51.4281 121.469 51.4985 121.546C51.5688 121.624 51.6539 121.686 51.7487 121.73C51.8434 121.774 51.946 121.799 52.0504 121.802C52.1548 121.806 52.2589 121.789 52.3566 121.752C52.4543 121.715 52.5438 121.659 52.6196 121.587C52.6954 121.516 52.7562 121.429 52.7984 121.334L60.1996 105.366C60.2883 105.179 60.3002 104.966 60.2326 104.77C60.1651 104.575 60.0235 104.415 59.8386 104.323C59.6537 104.231 59.4402 104.216 59.2442 104.281C59.0482 104.346 58.8854 104.485 58.7911 104.668Z" fill="url(#paint35_linear_295_3491)"/>
<path id="Vector_120" d="M42.1813 123.229C42.1045 123.547 34.7651 151.092 32.9018 158.074C32.8505 158.261 32.8429 158.457 32.8794 158.647C32.9159 158.837 32.9956 159.016 33.1123 159.17C33.2291 159.324 33.3797 159.449 33.5526 159.536C33.7254 159.623 33.9159 159.668 34.1092 159.669C34.3896 159.668 34.6615 159.573 34.8814 159.399C35.1014 159.225 35.2567 158.983 35.3224 158.71L43.4701 125.655L42.1813 123.229Z" fill="#BDD0FB"/>
<path id="Vector_121" d="M46.2003 123.229C46.2776 123.547 53.617 151.092 55.4798 158.074C55.531 158.261 55.5387 158.457 55.5022 158.647C55.4656 158.837 55.3859 159.016 55.2692 159.17C55.1525 159.324 55.0018 159.449 54.829 159.536C54.6561 159.623 54.4656 159.668 54.2723 159.669C53.992 159.668 53.7201 159.573 53.5002 159.399C53.2803 159.225 53.1249 158.983 53.0591 158.71L44.912 125.655L46.2003 123.229Z" fill="#BDD0FB"/>
<path id="Vector_122" d="M46.5059 122.328H41.9349V126.001C41.9341 126.126 41.9579 126.25 42.005 126.365C42.052 126.481 42.1213 126.586 42.209 126.675C42.2966 126.764 42.4009 126.834 42.5158 126.883C42.6308 126.931 42.7541 126.956 42.8789 126.957H43.5089V135.208C43.5083 135.302 43.5263 135.396 43.5619 135.483C43.5975 135.571 43.6499 135.65 43.7163 135.718C43.7826 135.785 43.8615 135.838 43.9485 135.875C44.0355 135.912 44.1288 135.931 44.2232 135.932C44.3177 135.931 44.4111 135.912 44.4982 135.875C44.5852 135.839 44.6642 135.785 44.7306 135.718C44.797 135.651 44.8495 135.571 44.8851 135.483C44.9207 135.396 44.9387 135.302 44.9381 135.208V126.957H45.256C45.4216 126.956 45.5853 126.923 45.7378 126.858C45.8904 126.794 46.0288 126.7 46.1451 126.582C46.2615 126.464 46.3535 126.325 46.4158 126.171C46.4782 126.018 46.5098 125.854 46.5087 125.688L46.5059 122.328Z" fill="#BDD0FB"/>
<path id="Vector_123" d="M30.696 121.447H56.2193C56.3936 121.448 56.5627 121.507 56.6999 121.614C56.8371 121.722 56.9344 121.872 56.9765 122.042L57.3334 123.44C57.3634 123.556 57.3664 123.678 57.3422 123.796C57.318 123.914 57.2672 124.025 57.1937 124.12C57.1203 124.215 57.026 124.293 56.9182 124.346C56.8104 124.399 56.6918 124.427 56.5715 124.428L30.3821 124.275C30.2627 124.274 30.1453 124.245 30.0386 124.191C29.932 124.137 29.8388 124.06 29.7663 123.965C29.6937 123.87 29.6436 123.76 29.6197 123.643C29.5958 123.526 29.5987 123.405 29.6283 123.289L29.9382 122.043C29.98 121.874 30.0774 121.723 30.2147 121.615C30.3519 121.507 30.5214 121.448 30.696 121.447Z" fill="#BDD0FB"/>
</g>
<defs>
<linearGradient id="paint0_linear_295_3491" x1="169.674" y1="180.463" x2="52.3125" y2="53.8703" gradientUnits="userSpaceOnUse">
<stop stop-color="#DAE3FE"/>
<stop offset="1" stop-color="#E9EFFD"/>
</linearGradient>
<linearGradient id="paint1_linear_295_3491" x1="108.144" y1="11.862" x2="107.758" y2="-51.8564" gradientUnits="userSpaceOnUse">
<stop stop-color="#E1473D"/>
<stop offset="1" stop-color="#E9605A"/>
</linearGradient>
<linearGradient id="paint2_linear_295_3491" x1="90.9348" y1="-115.48" x2="102.141" y2="-18.5526" gradientUnits="userSpaceOnUse">
<stop stop-color="#FF928E"/>
<stop offset="1" stop-color="#FE7062"/>
</linearGradient>
<linearGradient id="paint3_linear_295_3491" x1="141.242" y1="-48.2906" x2="116.903" y2="10.2003" gradientUnits="userSpaceOnUse">
<stop stop-color="#FEBBBA"/>
<stop offset="1" stop-color="#FF928E"/>
</linearGradient>
<linearGradient id="paint4_linear_295_3491" x1="290108" y1="-153.942" x2="290079" y2="2820.72" gradientUnits="userSpaceOnUse">
<stop stop-color="#FEBBBA"/>
<stop offset="1" stop-color="#FF928E"/>
</linearGradient>
<linearGradient id="paint5_linear_295_3491" x1="203952" y1="-31175.6" x2="204735" y2="3270.36" gradientUnits="userSpaceOnUse">
<stop stop-color="#FF928E"/>
<stop offset="1" stop-color="#FE7062"/>
</linearGradient>
<linearGradient id="paint6_linear_295_3491" x1="258549" y1="2497.58" x2="258531" y2="4039.24" gradientUnits="userSpaceOnUse">
<stop stop-color="#FEBBBA"/>
<stop offset="1" stop-color="#FF928E"/>
</linearGradient>
<linearGradient id="paint7_linear_295_3491" x1="298911" y1="1059.19" x2="298844" y2="6402.02" gradientUnits="userSpaceOnUse">
<stop stop-color="#FEBBBA"/>
<stop offset="1" stop-color="#FF928E"/>
</linearGradient>
<linearGradient id="paint8_linear_295_3491" x1="198661" y1="-30697.2" x2="199429" y2="3366.03" gradientUnits="userSpaceOnUse">
<stop stop-color="#FF928E"/>
<stop offset="1" stop-color="#FE7062"/>
</linearGradient>
<linearGradient id="paint9_linear_295_3491" x1="297166" y1="1124.59" x2="297128" y2="5357.12" gradientUnits="userSpaceOnUse">
<stop stop-color="#FEBBBA"/>
<stop offset="1" stop-color="#FF928E"/>
</linearGradient>
<linearGradient id="paint10_linear_295_3491" x1="293162" y1="2415.93" x2="293137" y2="4693.94" gradientUnits="userSpaceOnUse">
<stop stop-color="#FEBBBA"/>
<stop offset="1" stop-color="#FF928E"/>
</linearGradient>
<linearGradient id="paint11_linear_295_3491" x1="193645" y1="-30664.6" x2="194418" y2="3513.32" gradientUnits="userSpaceOnUse">
<stop stop-color="#FF928E"/>
<stop offset="1" stop-color="#FE7062"/>
</linearGradient>
<linearGradient id="paint12_linear_295_3491" x1="291511" y1="2747.18" x2="291478" y2="5954.84" gradientUnits="userSpaceOnUse">
<stop stop-color="#FEBBBA"/>
<stop offset="1" stop-color="#FF928E"/>
</linearGradient>
<linearGradient id="paint13_linear_295_3491" x1="296332" y1="3292.15" x2="296300" y2="6235.28" gradientUnits="userSpaceOnUse">
<stop stop-color="#FEBBBA"/>
<stop offset="1" stop-color="#FF928E"/>
</linearGradient>
<linearGradient id="paint14_linear_295_3491" x1="81.4551" y1="134.498" x2="53.6351" y2="51.0931" gradientUnits="userSpaceOnUse">
<stop stop-color="#09005D"/>
<stop offset="1" stop-color="#1A0F91"/>
</linearGradient>
<linearGradient id="paint15_linear_295_3491" x1="10.2139" y1="101.805" x2="129.68" y2="101.805" gradientUnits="userSpaceOnUse">
<stop stop-color="#4F52FF"/>
<stop offset="1" stop-color="#4042E2"/>
</linearGradient>
<linearGradient id="paint16_linear_295_3491" x1="-56075.9" y1="16282.5" x2="-46518.4" y2="70528.4" gradientUnits="userSpaceOnUse">
<stop stop-color="#09005D"/>
<stop offset="1" stop-color="#1A0F91"/>
</linearGradient>
<linearGradient id="paint17_linear_295_3491" x1="-62610.3" y1="79645.8" x2="-112745" y2="54313.5" gradientUnits="userSpaceOnUse">
<stop stop-color="#09005D"/>
<stop offset="1" stop-color="#1A0F91"/>
</linearGradient>
<linearGradient id="paint18_linear_295_3491" x1="21230.4" y1="112049" x2="-50583.4" y2="79714.9" gradientUnits="userSpaceOnUse">
<stop stop-color="#09005D"/>
<stop offset="1" stop-color="#1A0F91"/>
</linearGradient>
<linearGradient id="paint19_linear_295_3491" x1="10992.7" y1="2887.92" x2="13427.1" y2="2887.92" gradientUnits="userSpaceOnUse">
<stop stop-color="#4F52FF"/>
<stop offset="1" stop-color="#4042E2"/>
</linearGradient>
<linearGradient id="paint20_linear_295_3491" x1="12878.5" y1="8482.78" x2="12835.9" y2="9657.07" gradientUnits="userSpaceOnUse">
<stop stop-color="#09005D"/>
<stop offset="1" stop-color="#1A0F91"/>
</linearGradient>
<linearGradient id="paint21_linear_295_3491" x1="3026.64" y1="8817.2" x2="3204.8" y2="8817.2" gradientUnits="userSpaceOnUse">
<stop stop-color="#FEBBBA"/>
<stop offset="1" stop-color="#FF928E"/>
</linearGradient>
<linearGradient id="paint22_linear_295_3491" x1="11979.3" y1="23756.2" x2="13566" y2="23756.2" gradientUnits="userSpaceOnUse">
<stop stop-color="#4F52FF"/>
<stop offset="1" stop-color="#4042E2"/>
</linearGradient>
<linearGradient id="paint23_linear_295_3491" x1="14257.7" y1="21616.4" x2="13948.5" y2="24571.9" gradientUnits="userSpaceOnUse">
<stop stop-color="#09005D"/>
<stop offset="1" stop-color="#1A0F91"/>
</linearGradient>
<linearGradient id="paint24_linear_295_3491" x1="27609.9" y1="76095.9" x2="14229.6" y2="86732.8" gradientUnits="userSpaceOnUse">
<stop stop-color="#09005D"/>
<stop offset="1" stop-color="#1A0F91"/>
</linearGradient>
<linearGradient id="paint25_linear_295_3491" x1="4631.22" y1="13770.2" x2="4885.22" y2="13770.2" gradientUnits="userSpaceOnUse">
<stop stop-color="#FEBBBA"/>
<stop offset="1" stop-color="#FF928E"/>
</linearGradient>
<linearGradient id="paint26_linear_295_3491" x1="52831.2" y1="68731.1" x2="49848.8" y2="75257.9" gradientUnits="userSpaceOnUse">
<stop stop-color="#09005D"/>
<stop offset="1" stop-color="#1A0F91"/>
</linearGradient>
<linearGradient id="paint27_linear_295_3491" x1="6723.52" y1="18568.5" x2="7004.63" y2="17884.8" gradientUnits="userSpaceOnUse">
<stop stop-color="#FEBBBA"/>
<stop offset="1" stop-color="#FF928E"/>
</linearGradient>
<linearGradient id="paint28_linear_295_3491" x1="33997.8" y1="26882.7" x2="32735.1" y2="49699.9" gradientUnits="userSpaceOnUse">
<stop stop-color="#FF928E"/>
<stop offset="1" stop-color="#FE7062"/>
</linearGradient>
<linearGradient id="paint29_linear_295_3491" x1="2246.96" y1="11633.2" x2="2377.4" y2="11633.2" gradientUnits="userSpaceOnUse">
<stop stop-color="#E1473D"/>
<stop offset="1" stop-color="#E9605A"/>
</linearGradient>
<linearGradient id="paint30_linear_295_3491" x1="9847.97" y1="5505.67" x2="11202.9" y2="5505.67" gradientUnits="userSpaceOnUse">
<stop stop-color="#FEBBBA"/>
<stop offset="1" stop-color="#FF928E"/>
</linearGradient>
<linearGradient id="paint31_linear_295_3491" x1="28504.5" y1="20584.8" x2="27104.2" y2="21903.3" gradientUnits="userSpaceOnUse">
<stop stop-color="#FEBBBA"/>
<stop offset="1" stop-color="#FF928E"/>
</linearGradient>
<linearGradient id="paint32_linear_295_3491" x1="33683.8" y1="25443.4" x2="35829.5" y2="27360.1" gradientUnits="userSpaceOnUse">
<stop stop-color="#09005D"/>
<stop offset="1" stop-color="#1A0F91"/>
</linearGradient>
<linearGradient id="paint33_linear_295_3491" x1="6949.61" y1="6060.48" x2="6566.2" y2="6369.38" gradientUnits="userSpaceOnUse">
<stop stop-color="#FEBBBA"/>
<stop offset="1" stop-color="#FF928E"/>
</linearGradient>
<linearGradient id="paint34_linear_295_3491" x1="-547996" y1="-76488" x2="-547932" y2="-74674.2" gradientUnits="userSpaceOnUse">
<stop stop-color="#09005D"/>
<stop offset="1" stop-color="#1A0F91"/>
</linearGradient>
<linearGradient id="paint35_linear_295_3491" x1="580584" y1="58630.8" x2="573354" y2="63845.5" gradientUnits="userSpaceOnUse">
<stop stop-color="#09005D"/>
<stop offset="1" stop-color="#1A0F91"/>
</linearGradient>
</defs>
</svg>
