<svg width="24" height="24" viewBox="0 0 24 24" fill="none" xmlns="http://www.w3.org/2000/svg">
<g id="share-2">
<path id="Vector" d="M20.5 5C20.5 6.38071 19.3807 7.5 18 7.5C16.6193 7.5 15.5 6.38071 15.5 5C15.5 3.61929 16.6193 2.5 18 2.5C19.3807 2.5 20.5 3.61929 20.5 5Z" stroke="#2E1AAD" stroke-linecap="round" stroke-linejoin="round"/>
<path id="Vector_2" d="M8.5 12C8.5 13.3807 7.38071 14.5 6 14.5C4.61929 14.5 3.5 13.3807 3.5 12C3.5 10.6193 4.61929 9.5 6 9.5C7.38071 9.5 8.5 10.6193 8.5 12Z" stroke="#2E1AAD" stroke-linecap="round" stroke-linejoin="round"/>
<path id="Vector_3" d="M20.5 19C20.5 20.3807 19.3807 21.5 18 21.5C16.6193 21.5 15.5 20.3807 15.5 19C15.5 17.6193 16.6193 16.5 18 16.5C19.3807 16.5 20.5 17.6193 20.5 19Z" stroke="#2E1AAD" stroke-linecap="round" stroke-linejoin="round"/>
<path id="Vector_4" d="M8.59003 13.51L15.42 17.49" stroke="#2E1AAD" stroke-linecap="round" stroke-linejoin="round"/>
<path id="Vector_5" d="M15.41 6.51001L8.59003 10.49" stroke="#2E1AAD" stroke-linecap="round" stroke-linejoin="round"/>
</g>
</svg>
