<svg width="165" height="166" fill="none" xmlns="http://www.w3.org/2000/svg"><path d="M143.336 140.031c-3.302 3.479-6.432 5.723-8.902 7.496-29.044 20.839-63.409 14.764-70.712 13.28-10.786-2.19-31.633-6.426-46.706-24.149-22.803-26.816-19.252-69.064-1.564-96.952C18.687 34.605 35.778 6.29 70.512 1.75c21.022-2.748 45.526 2.794 63.272 17.661 37.249 31.208 34.598 94.252 9.552 120.619z" fill="url(#paint0_linear_295_3732)"/><path d="M78.746 93.868s-.99-20.966-11.025-25.882c-10.035-4.915-28.62-7.118-31.444-37.123-1.65-17.57-2.634-25.228-3.164-28.562a1.987 1.987 0 012.19-2.288c9.253 1.071 39.414 6.044 47.073 25.846 9.077 23.477-3.63 68.01-3.63 68.01z" fill="#91B3FA"/><path d="M42.959 7.873c10.657 8.227 23.37 23.223 30.67 38.603.979 2.55 3.692 7.93 5.399 17.71 1.483 8.151 1.65 16.864.97 22.689a.67.67 0 01-.744.59c-.633-.075-.598-.753-.59-.732.549-9.904-.837-22.09-4.475-32.914-4.608-13.28-13.677-25.83-22.879-36.365l-.943-1.035c-7.114-7.91-8.489-7.87-7.923-8.5a.383.383 0 01.515-.046z" fill="#BDD0FB"/><path d="M96.796 88.126c1.92-3.576 5.591-6.316 8.09-9.514 7.938-10.165 15.693-24.114 25.02-25.978 7.762-1.552 24.172 11.23 29.461 15.565a1.008 1.008 0 01-.444 1.768c-4.133.807-13.262 3.053-17.952 7.814-6.184 6.275-15.855 7.088-22.88 4.867-3.41-1.078-6.919-2.024-10.457-.964-2.075.621-3.938 1.811-5.648 3.114-1.261.96-3.422 4.313-5.19 3.328z" fill="#91B3FA"/><path d="M149.356 66.75c-7.679-3.841-17.628-4.879-25.275-.721l-.725.4c-1.687.942-12.394 8.36-19.888 15.272a.231.231 0 00-.013.326.236.236 0 00.319.019c4.603-3.701 10.769-8.21 15.515-11.507 5.138-3.621 8.672-6.043 15.919-6.225 8.001-.087 14.012 2.778 13.993 2.77a.184.184 0 00.245-.089.184.184 0 00-.09-.245z" fill="#BDD0FB"/><path d="M69.75 115.878c.846.236-6.08-7.317-8.136-14.857-2.056-7.54-6.63-20.173-14.911-26.515-8.281-6.342-15.637-5.468-23.157 3.594-6.267 7.554-10.33 11.564-12.97 12.724-.655.287-.835 1.136-.367 1.677 2.49 2.877 9.15 9.28 17.454 6.906 10.592-3.03 22.077-12.866 27.322-7.911 5.245 4.955 5.45 8.325 6.177 11.058.727 2.734 2.992 11.78 8.589 13.324z" fill="#91B3FA"/><path d="M28.643 86.777c2.598-3.876 7.277-8.15 12.086-8.6 6.309-.353 11.26 2.825 14.802 8.396 1.43 2.382 2.087 3.677 3.29 6.717.096.243-.259.4-.375.167-.697-1.399-1.405-2.868-2.31-4.35-5.48-9.642-12.64-9.533-12.954-9.686-.507.165-4.165-1.498-10.74 4.149a33.862 33.862 0 00-3.456 3.458l-.006.007a.213.213 0 01-.338-.258h.001z" fill="#BDD0FB"/><path opacity=".3" d="M36.664 151.179a.534.534 0 01-.654-.285 21.458 21.458 0 01-.682-1.687.535.535 0 01.325-.681l.01-.004a.53.53 0 01.671.327c.192.543.413 1.082.649 1.603a.537.537 0 01-.266.708c-.018.004-.036.013-.053.019zm-1.44-4.421a.53.53 0 01-.69-.397 21.912 21.912 0 01-.294-1.794.538.538 0 01.269-.529.54.54 0 01.592.045.547.547 0 01.2.357c.069.568.162 1.141.279 1.705a.532.532 0 01-.355.615v-.002zm-.43-4.626a.525.525 0 01-.252.02.525.525 0 01-.395-.291.53.53 0 01-.056-.246c.012-.604.05-1.215.114-1.816a.534.534 0 011.061.113 20.69 20.69 0 00-.108 1.724.534.534 0 01-.364.498v-.002zm.614-4.608a.532.532 0 01-.686-.637c.147-.587.32-1.173.517-1.744a.534.534 0 011.01.346c-.187.543-.354 1.1-.492 1.657a.533.533 0 01-.349.381v-.003zm1.627-4.354a.527.527 0 01-.576-.154.534.534 0 01-.069-.593c.272-.538.572-1.071.89-1.586a.529.529 0 01.54-.246.527.527 0 01.347.215.536.536 0 01.02.592c-.302.489-.589.996-.845 1.507a.526.526 0 01-.307.267v-.002zm2.549-3.886a.533.533 0 01-.616-.2.53.53 0 01.036-.646c.385-.465.796-.919 1.219-1.35a.532.532 0 01.914.37.534.534 0 01-.154.379c-.402.409-.791.84-1.157 1.282a.534.534 0 01-.242.167v-.002zm18.14-7.397a.55.55 0 01-.225.025c-.57-.059-1.15-.096-1.724-.106a.528.528 0 01-.487-.338.536.536 0 01.506-.729c.605.011 1.216.048 1.816.111a.53.53 0 01.476.473.534.534 0 01-.362.564zm-14.795 4.175a.534.534 0 01-.494-.93c.48-.367.98-.718 1.49-1.043a.536.536 0 01.736.162.533.533 0 01-.163.737 20.28 20.28 0 00-1.415.991.513.513 0 01-.154.085v-.002zm10.148-4.134a.619.619 0 01-.105.024 20.06 20.06 0 00-1.705.282.54.54 0 01-.402-.076.524.524 0 01-.23-.337.533.533 0 01.413-.631 21.7 21.7 0 011.794-.298.534.534 0 01.236 1.036h-.002zm-6.167 1.74a.535.535 0 01-.39-.992c.548-.25 1.115-.481 1.684-.684l.011-.004a.53.53 0 01.679.33.532.532 0 01-.33.678 21.529 21.529 0 00-1.654.674v-.002zm14.489-1.054a.524.524 0 01-.319.006 21.48 21.48 0 00-.802-.217.537.537 0 01-.388-.647.534.534 0 01.646-.389c.283.071.567.148.845.229a.532.532 0 01.29.822.53.53 0 01-.272.196zm12.58 10.309a.53.53 0 01-.641-.258 19.17 19.17 0 00-.4-.73.533.533 0 01.925-.53c.145.252.287.511.42.766a.529.529 0 01-.304.753v-.001zM62.17 162.255c-.233.079-.469.153-.708.223a.538.538 0 01-.566-.176.532.532 0 01.262-.847 21.051 21.051 0 001.61-.551.534.534 0 01.387.994c-.32.126-.653.247-.985.357zm-3.454.838a.454.454 0 01-.088.021 21.37 21.37 0 01-1.78.199.532.532 0 01-.439-.883.537.537 0 01.366-.182 20.446 20.446 0 001.69-.188.53.53 0 01.642.391.531.531 0 01-.39.642zm6.98-2.392a.535.535 0 01-.7-.272.533.533 0 01.273-.701 20.13 20.13 0 001.448-.889.538.538 0 01.4-.081.537.537 0 01.34.225.529.529 0 01.003.592.524.524 0 01-.147.148c-.493.333-1.007.649-1.525.937a.604.604 0 01-.091.041zm-11.55 2.587a.532.532 0 01-.206.026 20.846 20.846 0 01-1.78-.198.532.532 0 01-.233-.957.53.53 0 01.397-.097 19.93 19.93 0 001.69.187.537.537 0 01.493.465.534.534 0 01-.361.574zm15.272-5.241a.532.532 0 01-.525-.903c.42-.376.83-.775 1.218-1.186a.54.54 0 01.372-.167.532.532 0 01.403.899c-.408.433-.839.853-1.281 1.249a.538.538 0 01-.187.108zm3.05-3.406a.532.532 0 01-.708-.5.53.53 0 01.104-.316c.328-.46.641-.938.93-1.424a.536.536 0 01.731-.185.532.532 0 01.186.731c-.304.51-.633 1.014-.978 1.498a.52.52 0 01-.265.197v-.001zm2.234-3.989a.539.539 0 01-.564-.141.534.534 0 01-.096-.573c.221-.522.422-1.057.598-1.592a.527.527 0 01.266-.31.537.537 0 01.747.643 21.869 21.869 0 01-.628 1.675.54.54 0 01-.323.298zm1.312-4.382a.523.523 0 01-.674-.328.528.528 0 01-.02-.273c.102-.556.181-1.121.237-1.684a.527.527 0 01.184-.377.537.537 0 01.604-.065.537.537 0 01.273.543c-.06.59-.14 1.189-.247 1.774a.535.535 0 01-.357.41zm.317-4.564a.532.532 0 01-.702-.483 20.092 20.092 0 00-.143-1.694.535.535 0 011.061-.135c.075.59.126 1.191.15 1.783a.534.534 0 01-.367.529h.001zm-.693-4.52l-.03.01a.54.54 0 01-.406-.052.543.543 0 01-.248-.325 20.903 20.903 0 00-.508-1.624.53.53 0 01.323-.682.535.535 0 01.408.018.535.535 0 01.274.304 21.477 21.477 0 01.534 1.708.532.532 0 01-.348.643h.001zm-26.006 25.282a.526.526 0 01-.321.005 20.3 20.3 0 01-.833-.268.526.526 0 01-.305-.27.537.537 0 01.245-.714.562.562 0 01.201-.053.56.56 0 01.207.028c.261.091.53.177.79.255a.535.535 0 01.387.503.532.532 0 01-.37.514z" fill="#91B3FA"/><path d="M48.355 156.371a.253.253 0 00.289-.016l2.37-1.896c1.357.472 2.782.719 4.22.732l1.591 2.58a.25.25 0 00.268.112l3.55-.799a.252.252 0 00.194-.215l.335-3.015a13.207 13.207 0 003.5-2.469l2.953.697c.05.012.103.008.151-.011a.252.252 0 00.117-.098l1.945-3.076a.249.249 0 00-.016-.289l-1.896-2.37a13.21 13.21 0 00.732-4.219l2.58-1.592a.254.254 0 00.113-.267l-.8-3.551a.25.25 0 00-.216-.194l-3.014-.335a13.195 13.195 0 00-2.469-3.499l.698-2.954a.248.248 0 00-.11-.268l-3.075-1.945a.254.254 0 00-.29.016l-2.37 1.896a13.213 13.213 0 00-4.22-.732l-1.591-2.58a.25.25 0 00-.267-.112l-3.55.795a.248.248 0 00-.193.216l-.336 3.014a13.207 13.207 0 00-3.5 2.469l-2.953-.698a.246.246 0 00-.151.012.256.256 0 00-.117.097l-1.946 3.077a.247.247 0 00.016.289l1.896 2.37a13.222 13.222 0 00-.732 4.22l-2.58 1.592a.246.246 0 00-.112.267l.799 3.551c.011.05.038.096.077.131a.256.256 0 00.139.062l3.014.335a13.2 13.2 0 002.47 3.499l-.699 2.954a.25.25 0 00.11.268l3.076 1.949z" fill="#91B3FA"/><path d="M56.518 145.363a3.663 3.663 0 01-4.585-2.188 3.66 3.66 0 114.585 2.188zm-2.04-6.135a2.79 2.79 0 00-1.654 3.822 2.793 2.793 0 101.654-3.822z" fill="url(#paint1_linear_295_3732)"/><path d="M58.263 150.351a9.158 9.158 0 01-1.177.308 9.19 9.19 0 01-1.433.158h-.184a.217.217 0 01-.125-.04.211.211 0 01-.09-.172.215.215 0 01.062-.151.214.214 0 01.15-.064 8.58 8.58 0 007.995-5.678 8.51 8.51 0 00.295-4.775 8.572 8.572 0 00-10.241-6.479c-4.613 1.038-7.517 5.632-6.48 10.242a8.566 8.566 0 002.15 4.027.199.199 0 01.049.079.211.211 0 01-.093.245.213.213 0 01-.26-.03 9.012 9.012 0 01-2.26-4.227c-1.089-4.841 1.964-9.664 6.802-10.753a8.998 8.998 0 014.842 17.31h-.002z" fill="url(#paint2_linear_295_3732)"/><path opacity=".3" d="M72.72 131.274a.414.414 0 01-.504-.22c-.191-.422-.368-.86-.525-1.297a.413.413 0 01.25-.525l.007-.003a.412.412 0 01.518.252c.148.418.316.834.499 1.235a.412.412 0 01-.245.558zm-1.109-3.404a.415.415 0 01-.533-.306 16.528 16.528 0 01-.226-1.383.41.41 0 01.354-.497.411.411 0 01.462.399c.053.438.125.88.215 1.314a.412.412 0 01-.272.473zm-.332-3.564a.424.424 0 01-.373-.06.414.414 0 01-.168-.338c.01-.465.039-.936.088-1.399a.41.41 0 01.457-.405.422.422 0 01.162.052.423.423 0 01.197.269.416.416 0 01.002.171c-.047.439-.075.884-.084 1.328a.412.412 0 01-.28.382zm.472-3.55a.407.407 0 01-.525-.272.412.412 0 01-.006-.217c.114-.452.247-.904.399-1.344a.415.415 0 01.535-.294.42.42 0 01.245.227.414.414 0 01-.003.334c-.143.418-.27.847-.379 1.276a.413.413 0 01-.264.29h-.002zm1.253-3.354a.418.418 0 01-.536-.341.414.414 0 01.04-.235c.21-.412.44-.825.685-1.221a.408.408 0 01.256-.213.406.406 0 01.33.046.413.413 0 01.113.599c-.236.377-.452.766-.648 1.161a.416.416 0 01-.237.204h-.003zm1.964-2.994a.412.412 0 01-.447-.648c.294-.359.613-.708.939-1.04a.406.406 0 01.297-.15.402.402 0 01.311.118.41.41 0 01-.022.608c-.31.316-.61.649-.892.988a.406.406 0 01-.184.124h-.002zm13.973-5.698a.421.421 0 01-.173.019c-.44-.046-.884-.074-1.329-.082a.403.403 0 01-.313-.111.415.415 0 01.16-.694.405.405 0 01.168-.016c.466.008.937.037 1.399.085a.41.41 0 01.088.799zm-11.394 3.216a.412.412 0 01-.526-.477.413.413 0 01.146-.239c.369-.283.755-.554 1.147-.804a.412.412 0 01.442.693 14.08 14.08 0 00-1.089.766.42.42 0 01-.12.061zm7.818-3.184a.445.445 0 01-.081.019c-.439.053-.88.126-1.314.217a.407.407 0 01-.332-.038.408.408 0 01-.194-.271.414.414 0 01.358-.495 16.2 16.2 0 011.382-.229.415.415 0 01.439.32.413.413 0 01-.258.477zm-4.752 1.339a.412.412 0 01-.3-.766c.422-.194.859-.371 1.296-.528h.008a.411.411 0 01.268.777 15.553 15.553 0 00-1.272.517zm11.162-.813a.403.403 0 01-.245.005 14.739 14.739 0 00-.618-.168.41.41 0 01-.263-.489.41.41 0 01.462-.308c.218.054.436.113.649.177a.411.411 0 01.014.784l.001-.001zm9.692 7.942a.414.414 0 01-.494-.2 17.12 17.12 0 00-.308-.561.421.421 0 01-.062-.324.426.426 0 01.196-.266.417.417 0 01.578.177c.112.195.221.394.324.59a.414.414 0 01-.174.555.415.415 0 01-.06.029zm-9.097 22.597c-.18.06-.361.117-.544.171a.413.413 0 11-.236-.788c.422-.125.837-.267 1.238-.424a.416.416 0 01.501.546.411.411 0 01-.202.22c-.246.097-.502.189-.758.275zm-2.662.645a.521.521 0 01-.067.017c-.454.069-.915.121-1.371.152a.417.417 0 01-.433-.213.415.415 0 01.206-.575.402.402 0 01.168-.031c.433-.03.871-.079 1.302-.146a.412.412 0 01.193.796h.002zm5.379-1.843a.412.412 0 01-.33-.749c.379-.211.754-.442 1.115-.685a.414.414 0 01.482-.03.41.41 0 01.107.6.401.401 0 01-.13.111c-.38.257-.775.5-1.174.722a.447.447 0 01-.07.031zm-8.9 1.993a.404.404 0 01-.157.02 16.15 16.15 0 01-1.371-.152.415.415 0 01-.325-.635.41.41 0 01.45-.177c.43.066.868.115 1.302.144a.412.412 0 01.102.8zm11.767-4.037a.413.413 0 01-.405-.696c.323-.29.639-.597.938-.914a.412.412 0 01.597.564c-.315.334-.648.658-.987.962a.427.427 0 01-.143.084zm2.348-2.624a.417.417 0 01-.252 0 .419.419 0 01-.286-.387.416.416 0 01.074-.242c.253-.353.494-.723.716-1.096a.421.421 0 01.253-.213.415.415 0 01.521.309.411.411 0 01-.066.324c-.236.393-.488.781-.754 1.154a.41.41 0 01-.204.151h-.002zm1.722-3.073a.413.413 0 01-.508-.551c.169-.401.325-.814.46-1.226a.41.41 0 01.53-.299.408.408 0 01.248.222.417.417 0 01.003.333c-.143.435-.306.869-.485 1.291a.414.414 0 01-.248.23zm1.01-3.376a.416.416 0 01-.517-.254.406.406 0 01-.017-.21c.078-.428.138-.865.18-1.297a.412.412 0 01.818.079c-.044.455-.108.915-.189 1.366a.414.414 0 01-.275.316zm.244-3.516a.412.412 0 01-.541-.373 15.443 15.443 0 00-.11-1.305.423.423 0 01.065-.327.42.42 0 01.286-.172.415.415 0 01.464.396c.059.455.097.917.118 1.374a.414.414 0 01-.282.407zm-.534-3.482l-.024.007a.412.412 0 01-.503-.29 16.958 16.958 0 00-.391-1.251.412.412 0 01.774-.278 18.64 18.64 0 01.41 1.316.412.412 0 01-.266.496zM82.71 139.97a.41.41 0 01-.247.005 16.95 16.95 0 01-.641-.207.404.404 0 01-.266-.203.411.411 0 01.533-.574c.202.07.407.136.61.196a.41.41 0 01.289.387.412.412 0 01-.277.396z" fill="#91B3FA"/><path d="M81.727 135.273a.189.189 0 00.222-.012l1.828-1.46c1.046.363 2.144.554 3.25.563l1.229 1.988a.189.189 0 00.089.076.187.187 0 00.117.01l2.735-.615a.193.193 0 00.146-.165l.258-2.321a10.214 10.214 0 002.696-1.903l2.275.538a.191.191 0 00.206-.085l1.5-2.37a.19.19 0 00-.013-.222l-1.46-1.827a10.17 10.17 0 00.564-3.251l1.987-1.228a.191.191 0 00.087-.206l-.613-2.736a.194.194 0 00-.06-.101.193.193 0 00-.106-.047l-2.322-.259a10.191 10.191 0 00-1.902-2.696l.537-2.275a.19.19 0 00-.084-.206l-2.37-1.499a.19.19 0 00-.223.012l-1.828 1.46a10.194 10.194 0 00-3.25-.563l-1.228-1.988a.188.188 0 00-.09-.076.188.188 0 00-.116-.01l-2.736.615a.198.198 0 00-.1.059.195.195 0 00-.048.107l-.258 2.323a10.16 10.16 0 00-2.697 1.902l-2.275-.538a.194.194 0 00-.206.084l-1.5 2.37a.19.19 0 00.012.223l1.461 1.828a10.178 10.178 0 00-.563 3.251l-1.988 1.228a.19.19 0 00-.086.206l.615 2.735a.194.194 0 00.166.149l2.323.258a10.175 10.175 0 001.902 2.696l-.538 2.275a.191.191 0 00.084.207l2.37 1.496z" fill="#91B3FA"/><path d="M88.015 126.793a2.819 2.819 0 01-3.535-1.683 2.822 2.822 0 113.535 1.683zm-1.572-4.726a2.163 2.163 0 00-.143 4.05 2.16 2.16 0 10.144-4.05z" fill="url(#paint3_linear_295_3732)"/><path d="M89.36 130.636a6.553 6.553 0 01-.908.237 6.813 6.813 0 01-1.103.122h-.142a.168.168 0 01-.157-.112.164.164 0 01.039-.167.163.163 0 01.116-.05 6.606 6.606 0 006.388-8.053 6.605 6.605 0 00-12.113-1.933 6.605 6.605 0 00-.59 5.486 6.575 6.575 0 001.475 2.456.172.172 0 01.037.059.164.164 0 01-.178.215.164.164 0 01-.097-.049 6.931 6.931 0 117.23 1.792l.002-.003z" fill="url(#paint4_linear_295_3732)"/><path opacity=".3" d="M85.09 31.497a.3.3 0 01-.354-.047 11.438 11.438 0 01-.53-.551.301.301 0 01.114-.494.298.298 0 01.329.09c.163.177.334.354.508.526a.3.3 0 01.005.424.316.316 0 01-.072.052zm-1.496-1.755a.299.299 0 01-.392-.088 12.875 12.875 0 01-.841-1.358.31.31 0 01.122-.405.3.3 0 01.406.122 12.425 12.425 0 00.8 1.293.3.3 0 01-.073.419.075.075 0 01-.022.017zm-1.47-2.74a.3.3 0 01-.427-.153 13.002 13.002 0 01-.484-1.52.3.3 0 11.581-.146c.124.492.279.976.462 1.45a.3.3 0 01-.132.369zm-.76-3.018a.295.295 0 01-.227.028.3.3 0 01-.217-.252 12.95 12.95 0 01-.096-1.592.3.3 0 01.6 0c-.002.508.029 1.015.09 1.52a.3.3 0 01-.15.294v.002zm.006-3.112a.299.299 0 01-.445-.299c.066-.528.165-1.052.295-1.568a.3.3 0 01.581.148c-.125.492-.22.991-.283 1.495a.3.3 0 01-.148.222v.002zm.766-3.016a.3.3 0 01-.426-.37c.192-.497.415-.981.666-1.45a.302.302 0 01.407-.124.301.301 0 01.124.408c-.24.447-.454.908-.638 1.381a.302.302 0 01-.135.152l.002.003zm1.474-2.74a.3.3 0 01-.391-.434c.308-.433.642-.847 1.002-1.238a.298.298 0 01.423-.019.302.302 0 01.08.323.298.298 0 01-.061.1c-.342.375-.661.77-.955 1.184a.3.3 0 01-.1.082l.002.003zm2.098-2.295a.3.3 0 01-.341-.489c.405-.345.831-.665 1.276-.958a.301.301 0 01.426.078.299.299 0 01-.096.423c-.424.279-.83.584-1.217.913a.32.32 0 01-.05.031l.002.002zm4.036-2.315a.316.316 0 01-.048.02 12.537 12.537 0 00-1.4.592.3.3 0 01-.402-.135.295.295 0 01.135-.402 13.1 13.1 0 011.47-.623.3.3 0 01.247.545l-.002.003zm10.531 22.863a.3.3 0 01-.425-.34.299.299 0 01.13-.18c.431-.25.848-.526 1.246-.826a.303.303 0 01.333-.02.3.3 0 01.029.498c-.418.315-.855.605-1.308.868h-.005zm-1.37.688l-.03.015c-.48.206-.972.383-1.473.53a.3.3 0 01-.17-.575c.48-.14.95-.31 1.41-.507a.3.3 0 01.265.536h-.002zm3.811-2.535a.3.3 0 01-.354-.477 12.47 12.47 0 001.008-1.102.299.299 0 01.531.157.287.287 0 01-.011.117.292.292 0 01-.054.103c-.33.407-.684.794-1.061 1.159a.293.293 0 01-.059.046v-.003zm-6.75 3.394a.308.308 0 01-.098.035c-.517.085-1.039.139-1.562.16a.299.299 0 11-.024-.599c.499-.02.996-.072 1.489-.153a.3.3 0 01.196.557zm8.673-5.774a.3.3 0 01-.401-.42c.264-.424.503-.863.714-1.315a.302.302 0 01.55.027.301.301 0 01-.007.227c-.222.474-.472.934-.749 1.379a.297.297 0 01-.107.105v-.003zm1.297-2.771a.3.3 0 01-.432-.354c.155-.475.282-.959.38-1.449a.299.299 0 01.353-.236.302.302 0 01.192.129c.044.066.06.147.044.225a13.24 13.24 0 01-.397 1.518.302.302 0 01-.141.168l.001-.001zm.594-3.003a.293.293 0 01-.281.006.297.297 0 01-.164-.29c.037-.498.044-.998.02-1.497a.302.302 0 01.404-.308.306.306 0 01.171.162.297.297 0 01.024.118c.025.523.018 1.047-.021 1.57a.303.303 0 01-.154.24l.001-.002zM92.893 35.044a.302.302 0 01-.171.038 13.24 13.24 0 01-.761-.086.301.301 0 01-.268-.34.3.3 0 01.352-.254c.236.035.482.06.726.082a.3.3 0 01.122.56z" fill="#91B3FA"/><path d="M91.21 31.548a.152.152 0 00.172-.043L92.58 30.1a8.051 8.051 0 002.606-.049l1.25 1.356a.151.151 0 00.172.037l2.03-.885a.152.152 0 00.091-.151l-.147-1.84a8.033 8.033 0 001.807-1.879l1.846.077a.152.152 0 00.147-.096l.809-2.064a.162.162 0 00.006-.092.155.155 0 00-.049-.079l-1.406-1.197a8.057 8.057 0 00-.049-2.607l1.356-1.25a.153.153 0 00.036-.173l-.885-2.03a.152.152 0 00-.151-.09l-1.84.147a8.033 8.033 0 00-1.88-1.807l.078-1.846a.152.152 0 00-.097-.147l-2.063-.808a.153.153 0 00-.171.042l-1.197 1.406a8.034 8.034 0 00-2.606.05l-1.25-1.356a.152.152 0 00-.173-.037l-2.03.887a.152.152 0 00-.092.152l.148 1.84a8.038 8.038 0 00-1.807 1.878l-1.846-.076a.151.151 0 00-.148.096l-.808 2.063a.15.15 0 00.043.171l1.406 1.198a8.033 8.033 0 00.05 2.606l-1.357 1.25a.15.15 0 00-.036.173l.884 2.03a.151.151 0 00.15.09l1.84-.146c.525.7 1.16 1.31 1.88 1.807l-.077 1.845a.152.152 0 00.096.147l2.064.806z" fill="#91B3FA"/><path d="M94.838 24.065a2.281 2.281 0 11-2.27-3.957 2.281 2.281 0 012.27 3.957zm-1.926-3.43c-.072.04-.14.085-.204.135a1.668 1.668 0 002.043 2.635 1.669 1.669 0 00-1.84-2.77z" fill="#BDD0FB"/><path d="M96.517 26.96a5.72 5.72 0 01-1.61.607l-.05.01a.299.299 0 01-.309-.46.301.301 0 01.191-.128c.352-.071.696-.18 1.025-.323l.053-.025a4.998 4.998 0 002.608-2.712l.005-.01.012-.032a5.045 5.045 0 10-7.63 2.263.3.3 0 11-.348.488 5.63 5.63 0 01-1.894-2.336 5.646 5.646 0 117.948 2.657h-.001z" fill="#BDD0FB"/><path d="M58.81 98.386l-22.142 14.795 1.548 2.316 22.141-14.794-1.547-2.317z" fill="url(#paint5_linear_295_3732)"/><path d="M107.795 96.904l-1.922 2.016 20.56 19.614 1.923-2.016-20.561-19.614z" fill="url(#paint6_linear_295_3732)"/><path d="M127.923 35.106L101.199 57.23l1.777 2.147L129.7 37.253l-1.777-2.147z" fill="url(#paint7_linear_295_3732)"/><path d="M46.85 40.241l-1.756 2.162 25.128 20.414 1.757-2.162-25.128-20.414z" fill="url(#paint8_linear_295_3732)"/><path d="M82.684 119.481c20.953 0 37.938-16.986 37.938-37.939s-16.985-37.938-37.938-37.938c-20.953 0-37.939 16.985-37.939 37.938 0 20.953 16.986 37.939 37.939 37.939z" fill="url(#paint9_linear_295_3732)"/><path d="M50.226 97.314a.2.2 0 01-.177-.114c-2.327-4.885-3.507-10.127-3.507-15.58 0-13.607 7.51-25.954 19.6-32.223a.198.198 0 01.281.237.199.199 0 01-.098.117C54.368 55.95 46.94 68.162 46.94 81.62c0 5.393 1.167 10.578 3.468 15.41a.2.2 0 01-.032.218.197.197 0 01-.15.065zm13.554 15.157a.195.195 0 01-.105-.03 36.693 36.693 0 01-11.122-10.811.203.203 0 01-.035-.153.206.206 0 01.085-.131.199.199 0 01.075-.029.195.195 0 01.206.093 36.274 36.274 0 0011.001 10.693.201.201 0 01.085.224.197.197 0 01-.19.144zM107.487 55.5a.198.198 0 01-.135-.054 35.783 35.783 0 00-17.306-8.974.199.199 0 01.08-.39 36.18 36.18 0 0117.498 9.073c.029.027.05.063.059.102a.203.203 0 01-.009.117.202.202 0 01-.186.125h-.001z" fill="#BDD0FB"/><path d="M82.815 115.159c18.656 0 33.78-15.124 33.78-33.78 0-18.657-15.124-33.78-33.78-33.78-18.657 0-33.78 15.123-33.78 33.78 0 18.656 15.123 33.78 33.78 33.78z" fill="url(#paint10_linear_295_3732)"/><path d="M101.227 130.329l-4.696-49.206c-11.278-4.168-25.499.49-25.499.49l-2.196 48.717 32.391-.001z" fill="#fff"/><path d="M78.878 72.785l-.212 6.986a1.586 1.586 0 001.061 1.543c1.786.63 5.483 1.587 8.987.333a1.58 1.58 0 001.023-1.72l-1.05-7.142h-9.809z" fill="url(#paint11_linear_295_3732)"/><path d="M80.867 130.329c1.243-1.243 1.934-2.133 1.934-2.133l-1.471-4.168s-12.014 6.865-15.937 3.432c-3.923-3.432 2.697-23.537 2.697-23.537l-9.562-17.407s-8.026 26.758-5.327 41.38a2.967 2.967 0 002.918 2.433h24.748z" fill="url(#paint12_linear_295_3732)"/><path d="M78.75 77.001l5.46 5.234-3.943 2.688-3.485-4.69L78.75 77z" fill="#fff"/><path d="M89.204 77.001l-5.458 5.234 3.941 2.688 3.485-4.69L89.204 77z" fill="#fff"/><path d="M75.307 60.036s1.226 12.505 3.923 15.692c0 0 8.09.735 11.033-.981 0 0 2.084-6.25 1.838-14.588 0 0 .403-7.586-7.967-8.214-9.809-.735-8.827 8.091-8.827 8.091z" fill="url(#paint13_linear_295_3732)"/><path d="M91.243 63.959s.735-2.207 1.961-2.207-.245 5.885-1.961 5.885v-3.678z" fill="url(#paint14_linear_295_3732)"/><path d="M76.421 64.538s-1.026-2.086-2.24-1.921c-1.214.165 1.037 5.797 2.737 5.566l-.497-3.645z" fill="url(#paint15_linear_295_3732)"/><path d="M76.152 66.633s.275 7.47 3.56 11.257a1.69 1.69 0 001.197.573c1.677.08 5.964.225 8.38-.257a1.717 1.717 0 001.297-1.125c.594-1.742 1.626-4.489 1.27-10.793l-1.97 4.699c-1.462 3.882-2.254-.83-2.932-.776H82.54c-.465.037-.981 2.942-2.705 2.091l-3.684-5.669z" fill="url(#paint16_linear_295_3732)"/><path d="M88.79 57.094s-6.249 6.426-13.052 6.4c0 0-3.865-10.323 3.736-12.04 7.6-1.715 7.846.491 7.846.491s8.747-2.192 4.793 10.423l-3.322-5.274z" fill="url(#paint17_linear_295_3732)"/><path d="M90.862 130.329h22.763a2.978 2.978 0 002.52-1.398c9.808-15.691-4.168-41.435-4.168-41.435l-7.355 19.369s6.374 6.375 2.942 16.427c-3.432 10.052-17.408 2.207-17.408 2.207l.49 4.657s.076.064.216.173z" fill="url(#paint18_linear_295_3732)"/><path d="M83.402 82.682l-2.036 1.386 1.435 2.791h2.34l1.565-2.595-2.666-1.823-.638.24z" fill="url(#paint19_linear_295_3732)"/><path d="M82.8 86.86l-1.588 26.451 4.04 7.306 4.067-7.043-4.178-26.715h-2.34z" fill="url(#paint20_linear_295_3732)"/><path d="M65.697 103.9a32.457 32.457 0 012.438 13.316l-.38 13.113H86.19l-.937-18.681-8.472-31.413c-7.846 1.226-18.255 6.28-18.255 6.28l7.17 17.385z" fill="url(#paint21_linear_295_3732)"/><path d="M103.079 130.329l.562-10.88c0-5.569.95-11.098 2.809-16.349l5.527-15.604c-7.11-6.374-21.111-7.765-21.111-7.765l-5.613 31.917v18.681h17.826z" fill="url(#paint22_linear_295_3732)"/><path d="M83.7 110.549a.14.14 0 01-.103-.047l-7.546-8.704a.139.139 0 01-.032-.067l-.76-4.666-2.793-.561a.136.136 0 01-.11-.128l-.6-14.77a.135.135 0 01.13-.141.134.134 0 01.14.13l.598 14.663 2.78.56a.136.136 0 01.108.111l.766 4.72 7.522 8.675a.137.137 0 01.022.145.137.137 0 01-.124.08h.002zm2.53 0a.138.138 0 01-.123-.081.135.135 0 01.021-.146l7.522-8.749.767-4.76a.137.137 0 01.107-.112l2.781-.564.597-14.788a.133.133 0 01.14-.132.137.137 0 01.13.143l-.6 14.895a.137.137 0 01-.109.129l-2.793.566-.76 4.706a.141.141 0 01-.032.068l-7.547 8.778a.139.139 0 01-.1.047z" fill="#91B3FA"/><path d="M25.59 152.704c13.185 0 23.872-10.687 23.872-23.872 0-13.184-10.687-23.872-23.872-23.872-13.184 0-23.872 10.688-23.872 23.872 0 13.185 10.688 23.872 23.872 23.872z" fill="url(#paint23_linear_295_3732)"/><path d="M5.167 138.83a.194.194 0 01-.177-.113 22.697 22.697 0 01-2.214-9.835 22.837 22.837 0 0112.373-20.34.2.2 0 01.268.085.202.202 0 01.013.152.199.199 0 01-.098.117c-7.5 3.891-12.158 11.547-12.158 19.986a22.305 22.305 0 002.172 9.665.2.2 0 01-.094.266.194.194 0 01-.085.017zm8.53 9.538a.196.196 0 01-.105-.03 23.175 23.175 0 01-7.02-6.825.192.192 0 01-.036-.152.203.203 0 01.03-.075.205.205 0 01.13-.086.196.196 0 01.153.035c.022.015.04.035.054.058A22.76 22.76 0 0013.801 148a.2.2 0 01.086.224.2.2 0 01-.192.144h.002z" fill="#BDD0FB"/><path d="M25.672 149.985c11.74 0 21.256-9.516 21.256-21.255 0-11.739-9.517-21.256-21.256-21.256S4.417 116.991 4.417 128.73s9.516 21.255 21.255 21.255z" fill="#BDD0FB"/><path d="M15.171 140.045c-.981 1.047-2.426 1.953-3.443 2.517 1.519 1.877 3.573 3.757 6.294 5.597l.511.443.626.273 2.136-1.956s-4.473-2.23-6.124-6.874z" fill="url(#paint24_linear_295_3732)"/><path d="M38.066 123.502a20.695 20.695 0 01-2.099-3.202c-.825-1.556-.066 1.006-.29-.75-6.164-4.448-15.447-2.196-19.037-1.744a4.795 4.795 0 00-3.03 1.626c-3.076 3.56-9.827 13.308-1.88 23.13 1.016-.564 2.461-1.47 3.442-2.517-.879-2.476-.95-5.645.892-9.529.063.308.141.613.235.913 2.54 8.045 2.675 14.739 2.67 16.282 0 .21-.261.916-.078 1.018 6.126 3.406 13.41.678 13.41.678-1.525-7.584 3.864-22.034 5.347-25.298.102-.225.243-.431.418-.607z" fill="url(#paint25_linear_295_3732)"/><path d="M22.417 111.34l-.643 6.581s3.702 1.115 6.395-.785l-1.893-5.981-3.86.185z" fill="url(#paint26_linear_295_3732)"/><path d="M26.712 103.84c.09.083 3.76 7.292 3.76 7.292l-4.158 2.009-4.494-6.316s3.4-4.39 4.892-2.985z" fill="url(#paint27_linear_295_3732)"/><path d="M23.66 107a.666.666 0 00.051.583l2.075 3.46c.031.052.07.1.114.141.247.23 1.093.899 1.746-.011.557-.777 1.08-1.482 1.64-1.773a.666.666 0 01.735.089.68.68 0 01.16.205c.342.678 1.002 2.06 1.42 3.369a.663.663 0 01-.384.811c-.843.341-2.508.959-3.986 1.163a.67.67 0 01-.628-.268c-.635-.87-2.427-3.305-3.039-3.914-.568-.566-1.616-.353-2.09-.217a.661.661 0 01-.53-.069c-.48-.288-1.316-1.008-.55-2.225a.666.666 0 00-.206-.903c-.535-.354-1.116-1.013-.563-2.083.56-1.083 1.56-1.179 2.24-1.098a.683.683 0 00.723-.402.444.444 0 01.343-.269.652.652 0 00.42-.269.644.644 0 00.101-.487c-.118-.614-.03-1.41.95-1.946 1.795-.987 3.367.621 3.768 1.979.4 1.358-1.608 2.317-2.87 2.476-.929.116-1.438 1.129-1.64 1.658z" fill="url(#paint28_linear_295_3732)"/><path d="M24.34 112.126s-.798-2.336-1.82-2.25c-1.021.085-1.827 1.104-.56 2.248 1.576 1.426 2.38.002 2.38.002z" fill="url(#paint29_linear_295_3732)"/><path d="M15.727 129.915c-1.347-3.687-.858-8.136-.854-8.183l.372.043c-.005.044-.484 4.41.833 8.011l-.35.129z" fill="url(#paint30_linear_295_3732)"/><path d="M50.578 125.571c-6.972 1.046-11.515-3.352-14.901-6.021-4.47-3.524-7.948-1.809-7.948-1.809l4.767 9.099c7.12 6.712 14.419 5.221 19.021 3.047a8.878 8.878 0 00-.94-4.316z" fill="url(#paint31_linear_295_3732)"/><path d="M60.377 121.412l-2.313 1.244c-2.77 1.688-5.253 2.58-7.487 2.915a8.878 8.878 0 01.938 4.316c2.93-1.385 4.766-3.047 4.766-3.047 5.238-3.123 4.096-5.428 4.096-5.428z" fill="url(#paint32_linear_295_3732)"/><path d="M67.187 124.67a1.704 1.704 0 00-.997-1.091l-4.692-1.887s-.07-.602.992-1.01c1.061-.409.814-1.599.814-1.599s-1.452.662-3.576 1.71c-1.215.6-1.897 1.66-2.258 2.458l1.207 1.588c2.89.869 5.819 1.035 8.77.691l-.26-.86z" fill="url(#paint33_linear_295_3732)"/><path d="M139.636 165.078c14.008 0 25.364-11.356 25.364-25.365 0-14.008-11.356-25.364-25.364-25.364-14.009 0-25.365 11.356-25.365 25.364 0 14.009 11.356 25.365 25.365 25.365z" fill="url(#paint34_linear_295_3732)"/><path d="M161.336 150.324a.197.197 0 01-.148-.066.217.217 0 01-.04-.067.2.2 0 01.009-.152 23.697 23.697 0 002.311-10.273c0-8.973-4.952-17.115-12.924-21.249a.199.199 0 01-.085-.268.196.196 0 01.116-.098.192.192 0 01.152.013c8.105 4.202 13.139 12.479 13.139 21.601a24.102 24.102 0 01-2.35 10.445.199.199 0 01-.18.114zm-9.061 10.134a.198.198 0 01-.186-.271.193.193 0 01.08-.098 24.175 24.175 0 007.334-7.129.206.206 0 01.127-.091.197.197 0 01.154.028.203.203 0 01.057.056.202.202 0 01-.006.227 24.59 24.59 0 01-7.455 7.248.206.206 0 01-.105.03z" fill="#BDD0FB"/><path d="M139.548 162.188c12.473 0 22.584-10.111 22.584-22.584 0-12.472-10.111-22.584-22.584-22.584-12.472 0-22.583 10.112-22.583 22.584 0 12.473 10.111 22.584 22.583 22.584z" fill="#BDD0FB"/><path d="M110.55 121.694a.395.395 0 01.731.078c.353 1.274 1.211 3.499 3.011 4.29.09.039.176.079.258.118a.908.908 0 00-.112-.825c-.559-.855.45-2.023.45-2.023s.067 1.029.849 1.676c.673.558.996 1.798.536 2.816-.973 3.782-2.432 8.785 3.248 12.44 5.68 3.655 13.678-6.898 13.678-6.898l-3.97 12.585s-6.128 4.522-13.255-1.837c-7.127-6.358-2.405-15.609-2.405-15.609s-5.434-2.193-3.019-6.811z" fill="url(#paint35_linear_295_3732)"/><path d="M134.194 114.876s-1.646-7.381 6.809-5.424c0 0 4.104-.671 4.313 3.203 0 0 2.645 1.743.707 5.095 0 0 7.863-3.037 11.288 3.854s.276 10.683-3.025 11.671c0 0 2.675 1.343 1.409 4.375-1.266 3.032-7.676 5.169-11.463 1.481 0 0-10.775 1.425-10.56-6.186 0 0-5.011-3.237.252-9.527 5.263-6.29.27-8.542.27-8.542z" fill="url(#paint36_linear_295_3732)"/><path d="M133.732 131.984c1.699-.509 6.646-1.45 11.351 2.893a2.914 2.914 0 01.84 2.903c-1.264 4.653-4.801 17.948-1.877 23.895 0 0-5.247 1.619-11.105-.576 0 0-1.988-8.862-5.291-13.687-2.281-3.332 3.636-12.51 5.133-14.727.226-.336.562-.584.949-.701z" fill="url(#paint37_linear_295_3732)"/><path d="M138.42 122.74s2.513 7.108 2.702 10.243c0 0-2.777 1.263-5.394-.869 0 0-.275-7.099-.671-8.371l3.363-1.003z" fill="url(#paint38_linear_295_3732)"/><path d="M134.93 113.05s-6.572 9.198-2.643 11.869c3.929 2.671 8.607-3.865 8.607-3.865s1.526-5.033-.069-6.741c-1.595-1.708-5.895-1.263-5.895-1.263z" fill="url(#paint39_linear_295_3732)"/><path d="M137.972 110.852s-3.019.716-3.442 2.082c-.424 1.366 4.281 2.633 5.6 2.694l1.062 5.513s3.139-5.188 1.896-8.18c-1.244-2.992-5.116-2.109-5.116-2.109z" fill="url(#paint40_linear_295_3732)"/><path d="M139.619 120.377s2.558-2.962 3.576-1.031c1.018 1.932-2.302 3.381-3.452 2.433l-.124-1.402z" fill="url(#paint41_linear_295_3732)"/><path d="M145.753 135.805s8.027 6.67 10.019 15.786c1.992 9.116-11.729 10.082-11.729 10.082s-1.863-2.08-4.074-1.338c-2.212.741-.172-3.63 2.417-3.619 2.589.011 1.389 2.057 5.049.4 3.566-1.616 5.77-6.611-3.327-14.182a4.123 4.123 0 01-1.202-1.636c-1.769-4.447-.367-7.364 2.847-5.493z" fill="url(#paint42_linear_295_3732)"/><path d="M136.314 53.411c13.243 0 23.98-10.736 23.98-23.98s-10.737-23.98-23.98-23.98c-13.244 0-23.98 10.736-23.98 23.98s10.736 23.98 23.98 23.98z" fill="url(#paint43_linear_295_3732)"/><path d="M156.829 39.473a.194.194 0 01-.147-.066.195.195 0 01-.051-.143.197.197 0 01.019-.076 22.395 22.395 0 002.185-9.707c0-8.48-4.68-16.174-12.213-20.08a.198.198 0 01-.085-.269.198.198 0 01.268-.085c7.664 3.975 12.428 11.805 12.428 20.433a22.788 22.788 0 01-2.224 9.88.196.196 0 01-.18.113zm-8.566 9.581a.198.198 0 01-.186-.27.199.199 0 01.08-.098 22.867 22.867 0 006.931-6.737.204.204 0 01.207-.093.2.2 0 01.125.313 23.269 23.269 0 01-7.052 6.855.203.203 0 01-.105.03z" fill="#BDD0FB"/><path d="M136.231 50.68c11.792 0 21.352-9.56 21.352-21.353 0-11.792-9.56-21.351-21.352-21.351s-21.352 9.56-21.352 21.351c0 11.793 9.56 21.352 21.352 21.352z" fill="#BDD0FB"/><path d="M142.312 25.45c.365.157-1.515 14.866.846 24.08 0 0-3.954 1.396-9.043 1.157 0 0-8.496-12.97-8.718-14.465-.252-1.693 1.049-10.376 1.049-10.376s6.874-4.284 15.866-.396z" fill="url(#paint44_linear_295_3732)"/><path d="M131.382 31.357c-4.199.143-4.533-3.455-4.294-5.854 1.381-.678 4.889-2.077 9.528-1.577.086 2.048-.193 7.262-5.234 7.431z" fill="url(#paint45_linear_295_3732)"/><path d="M130.136 17.648s2.086 4.407 3.305 6.265a1.274 1.274 0 01-.259 1.687c-.577.472-1.516.935-2.974.95a1.356 1.356 0 01-1.314-1.002l-1.376-5.032 2.618-2.868z" fill="url(#paint46_linear_295_3732)"/><path d="M126.446 25.847s-6.137 11.215-17.223 2.182l-1.264 2.001s8.117 12.539 18.124 3.837l.363-8.02z" fill="url(#paint47_linear_295_3732)"/><path d="M100.725 29.763a1.55 1.55 0 01.911-.997l4.289-1.724s.064-.55-.907-.924c-.971-.374-.744-1.461-.744-1.461s1.327.605 3.268 1.565c1.111.548 1.734 1.517 2.064 2.246l-1.104 1.453c-2.643.793-5.318.943-8.014.63l.237-.788z" fill="url(#paint48_linear_295_3732)"/><path d="M142.312 25.45s10.414 5.394 9.264 15.569c-1.15 10.174-16.926.834-16.926.834l.383-2.449s9.651 2.8 11.261.392c1.179-1.769-2.774-5.907-4.965-7.987a2.592 2.592 0 01-.573-2.958l1.556-3.401z" fill="url(#paint49_linear_295_3732)"/><path d="M136.07 45.301l-4.367-15.252a.445.445 0 00-.377-.32c-.791-.093-3.084-.354-5.731-.575-3.189-.27-6.892-.49-9.105-.303a.443.443 0 00-.353.225.45.45 0 00-.012.418c1.258 2.545 6.435 12.901 9.027 16.294a.45.45 0 00.36.177l10.134-.094a.446.446 0 00.424-.57z" fill="url(#paint50_linear_295_3732)"/><path d="M125.142 27.831l-3.167-.53a.224.224 0 00-.209.076.226.226 0 00-.044.218l.314.95a.23.23 0 00.07.104.23.23 0 00.115.05l3.048.407a.228.228 0 00.251-.277l-.194-.825a.225.225 0 00-.184-.173z" fill="#7D97F4"/><path d="M127.513 30.512l-.261-1.356a.314.314 0 00-.277-.254l-6.395-.648a.314.314 0 00-.337.385l.406 1.694a.317.317 0 00.29.24l6.249.314a.315.315 0 00.325-.375z" fill="#7D97F4"/><path d="M135.015 41.616s.609-2.501.363-3.39c-.246-.887-.721-2.028-2.306-1.774-1.585.253-3.454.921-3.454.921s.094 1.156 1.297.783l-.747.578s.107.926 1.124.431l-.694.767s.437.76 1.185.272 1.109 1.714 3.232 1.412z" fill="url(#paint51_linear_295_3732)"/><path d="M123.002 14.018s-.965 2.23.169 5.622c1.134 3.39 2.989 3.686 4.163 2.848 1.175-.838 2.698-2.337 2.889-5.41.192-3.072-5.889-5.882-7.221-3.06z" fill="url(#paint52_linear_295_3732)"/><path d="M127.931 16.879s-2.049-4.59-5.123-1.73l-.235 1.179s-2.928-.835-1.965-3.487c.962-2.651 4.459-4.451 7.59-2.732 3.13 1.719 4.193 3.745 4.025 6.162-.168 2.418-1.978 1.589-1.978 1.589s-.348-1.775-1.198-2.09c-.85-.316-.832 1.027-.832 1.027l-.284.082z" fill="url(#paint53_linear_295_3732)"/><path d="M128.636 16.935s-1.067-2.353.428-2.439c1.495-.085.884 2.269.589 3.128l-1.017-.69z" fill="url(#paint54_linear_295_3732)"/><path d="M129.488 11.813c-.838-.102-1.175-1.138-.605-1.76 1.839-2.009 5.309-4.238 10.254-.817 5.57 3.853 8.584 5.596 9.952 5.23.899-.24 1.68.649 1.256 1.474-.314.612-.953 1.251-2.133 1.834-9.109 4.495-13.815-5.364-18.724-5.961z" fill="url(#paint55_linear_295_3732)"/><path d="M32.773 55.635c12.72 0 23.031-10.312 23.031-23.032S45.493 9.572 32.774 9.572c-12.72 0-23.032 10.311-23.032 23.031 0 12.72 10.311 23.032 23.031 23.032z" fill="url(#paint56_linear_295_3732)"/><path d="M13.069 42.256a.197.197 0 01-.18-.114 21.895 21.895 0 01-2.137-9.492c0-8.29 4.576-15.812 11.941-19.632a.2.2 0 01.29.16.2.2 0 01-.107.193 21.647 21.647 0 00-11.726 19.28 21.505 21.505 0 002.098 9.32.198.198 0 01-.18.285z" fill="#BDD0FB"/><path d="M21.297 51.457a.195.195 0 01-.105-.03 22.344 22.344 0 01-6.776-6.586.2.2 0 11.332-.22 21.95 21.95 0 006.654 6.468.2.2 0 01-.105.368z" fill="#fff"/><path d="M32.852 53.01c11.326 0 20.507-9.18 20.507-20.506s-9.181-20.507-20.507-20.507c-11.325 0-20.507 9.181-20.507 20.507 0 11.326 9.181 20.507 20.507 20.507z" fill="#BDD0FB"/><path d="M42.092 28.379s-8.274-2.076-17.016-.826a8.496 8.496 0 00-5.965 3.884c-2.392 3.784-5.773 10.529-5.058 17.562l3.754.928s2.594-8.347 5.514-11.744c0 0 3.458 7.882 3.283 12.21a6.975 6.975 0 01-.024.359c-.396 4.234 16.599.79 16.599.79l-1.087-23.163z" fill="url(#paint57_linear_295_3732)"/><path d="M35.416 21.266l-.378 5.868c-.035.546-.388 1.009-.884 1.156-1.142.338-3.296.745-5.408-.106-.387-.156-.586-.614-.455-1.032l2.794-8.973 4.33 3.087z" fill="url(#paint58_linear_295_3732)"/><path d="M36.36 12.767s1.785 4.1 1.904 6.249c.12 2.15.584 3.548-1.904 3.981-2.488.434-4.584-.806-5.719-2.948 0 0-1.78-3.301-1.38-4.657.4-1.356 7.099-2.625 7.099-2.625z" fill="url(#paint59_linear_295_3732)"/><path d="M31.49 18.512h.315s-1.297-2.658-.157-3.125c1.14-.466 5.65-1.386 6.622-2.987.939-1.543.102-3.537-1.15-4.094a.167.167 0 00-.213.079l-.104.196a.169.169 0 01-.311-.032.168.168 0 00-.304-.046c-.294.478-1.104 1.257-3.268 1.656-3.07.567-5.099 1.809-5.149 3.93a.17.17 0 01-.262.14c-.226-.139-.59-.204-1.074.204-.842.707-.497 2.547 1.35 4.06a.168.168 0 01-.008.27c-.335.218-.834.738.46 1.43 1.324.707 2.107.63 2.402.554a.17.17 0 00.128-.177l-.117-1.88a.168.168 0 01.168-.177l.673-.001z" fill="url(#paint60_linear_295_3732)"/><path d="M31.568 18.902s-.68-2.619-1.855-1.886c-1.175.732.61 2.936 1.553 3.034l.302-1.148z" fill="url(#paint61_linear_295_3732)"/><path d="M42.04 45.253c.367-2.588-2.313-6.392-3.419-7.836a2.404 2.404 0 01-.499-1.439c-.032-3.664 1.507-6.019 3.973-7.6 0 0 8.95 10.427 6.67 18.447a6.765 6.765 0 01-1.11 2.248c-.361-3.022-3.855-3.681-5.614-3.82z" fill="url(#paint62_linear_295_3732)"/><path d="M41.874 44.252l.34-.04c-.288-2.534-2.515-5.67-3.46-6.897l-.272.209c.927 1.204 3.112 4.276 3.392 6.728z" fill="url(#paint63_linear_295_3732)"/><path d="M41.97 45.611c.031-.118.054-.237.07-.358 1.76.139 5.253.798 5.613 3.82-3.995 5.282-15.003 3.377-15.003 3.377v-2.056s8.455-1.57 9.32-4.783z" fill="url(#paint64_linear_295_3732)"/><path d="M33.709 51.881s-1.626-3.832-4.49-2.476c-2.864 1.356-2.639 2.25-2.639 2.25l7.129.226z" fill="url(#paint65_linear_295_3732)"/><path d="M34.074 52.678a.544.544 0 01-.561.5l-14.841-.517a.542.542 0 01-.5-.381l-.432-1.38a.543.543 0 01.49-.707l5.412-.288a.552.552 0 01.146.013l9.86 2.18a.543.543 0 01.425.579z" fill="url(#paint66_linear_295_3732)"/><path d="M24.125 52.136l-.408-1.903-5.56.266.367 1.579 5.601.058z" fill="url(#paint67_linear_295_3732)"/><path d="M26.975 31.654c.315 2.571 1.73 13.016 2.136 16a.685.685 0 01-.7.778L4.4 47.745a.687.687 0 01-.65-.538L.017 30.387a.686.686 0 01.71-.834l25.61 1.5a.686.686 0 01.64.601z" fill="url(#paint68_linear_295_3732)"/><path d="M17.324 42.203l3.549 10.072-8.254.176-.685-10.188a.793.793 0 01.843-.843l3.853.256a.79.79 0 01.694.527z" fill="url(#paint69_linear_295_3732)"/><path d="M24.218 52.418a.43.43 0 01-.407.562H10.889a.426.426 0 01-.429-.428v-.553a.427.427 0 01.447-.428l12.922.554a.428.428 0 01.389.293z" fill="url(#paint70_linear_295_3732)"/><defs><linearGradient id="paint0_linear_295_3732" x1="182.92" y1="210.503" x2="39.034" y2="31.805" gradientUnits="userSpaceOnUse"><stop stop-color="#DAE3FE"/><stop offset="1" stop-color="#E9EFFD"/></linearGradient><linearGradient id="paint1_linear_295_3732" x1="9806.67" y1="21086" x2="10715.2" y2="21086" gradientUnits="userSpaceOnUse"><stop stop-color="#DAE3FE"/><stop offset="1" stop-color="#E9EFFD"/></linearGradient><linearGradient id="paint2_linear_295_3732" x1="22408.7" y1="51608.5" x2="27902.2" y2="51608.5" gradientUnits="userSpaceOnUse"><stop stop-color="#DAE3FE"/><stop offset="1" stop-color="#E9EFFD"/></linearGradient><linearGradient id="paint3_linear_295_3732" x1="10723.3" y1="14566.6" x2="11262.8" y2="14566.6" gradientUnits="userSpaceOnUse"><stop stop-color="#DAE3FE"/><stop offset="1" stop-color="#E9EFFD"/></linearGradient><linearGradient id="paint4_linear_295_3732" x1="25256.9" y1="35581.9" x2="28516.7" y2="35581.9" gradientUnits="userSpaceOnUse"><stop stop-color="#DAE3FE"/><stop offset="1" stop-color="#E9EFFD"/></linearGradient><linearGradient id="paint5_linear_295_3732" x1="36.657" y1="106.948" x2="60.348" y2="106.948" gradientUnits="userSpaceOnUse"><stop stop-color="#4F52FF"/><stop offset="1" stop-color="#4042E2"/></linearGradient><linearGradient id="paint6_linear_295_3732" x1="6387.6" y1="64941.9" x2="7449.95" y2="64941.9" gradientUnits="userSpaceOnUse"><stop stop-color="#4F52FF"/><stop offset="1" stop-color="#4042E2"/></linearGradient><linearGradient id="paint7_linear_295_3732" x1="75459" y1="3546.61" x2="92231.6" y2="3546.6" gradientUnits="userSpaceOnUse"><stop stop-color="#4F52FF"/><stop offset="1" stop-color="#4042E2"/></linearGradient><linearGradient id="paint8_linear_295_3732" x1="3457.27" y1="43066.4" x2="4727.52" y2="43066.4" gradientUnits="userSpaceOnUse"><stop stop-color="#4F52FF"/><stop offset="1" stop-color="#4042E2"/></linearGradient><linearGradient id="paint9_linear_295_3732" x1="202953" y1="29077.9" x2="56482.7" y2="290316" gradientUnits="userSpaceOnUse"><stop stop-color="#4F52FF"/><stop offset="1" stop-color="#4042E2"/></linearGradient><linearGradient id="paint10_linear_295_3732" x1="87025.1" y1="124043" x2="164445" y2="124043" gradientUnits="userSpaceOnUse"><stop stop-color="#DAE3FE"/><stop offset="1" stop-color="#E9EFFD"/></linearGradient><linearGradient id="paint11_linear_295_3732" x1="82.668" y1="90.606" x2="84.325" y2="76.432" gradientUnits="userSpaceOnUse"><stop stop-color="#FEBBBA"/><stop offset="1" stop-color="#FF928E"/></linearGradient><linearGradient id="paint12_linear_295_3732" x1="98.001" y1="67.904" x2="71.736" y2="105.809" gradientUnits="userSpaceOnUse"><stop stop-color="#09005D"/><stop offset="1" stop-color="#1A0F91"/></linearGradient><linearGradient id="paint13_linear_295_3732" x1="31807.2" y1="41367.4" x2="31440.5" y2="33947.7" gradientUnits="userSpaceOnUse"><stop stop-color="#FEBBBA"/><stop offset="1" stop-color="#FF928E"/></linearGradient><linearGradient id="paint14_linear_295_3732" x1="4989.87" y1="10169.4" x2="4836.58" y2="8357.46" gradientUnits="userSpaceOnUse"><stop stop-color="#FEBBBA"/><stop offset="1" stop-color="#FF928E"/></linearGradient><linearGradient id="paint15_linear_295_3732" x1="5434.64" y1="9707.43" x2="5326.22" y2="7983.04" gradientUnits="userSpaceOnUse"><stop stop-color="#FEBBBA"/><stop offset="1" stop-color="#FF928E"/></linearGradient><linearGradient id="paint16_linear_295_3732" x1="26033.9" y1="14277.9" x2="30048.6" y2="24472.3" gradientUnits="userSpaceOnUse"><stop stop-color="#09005D"/><stop offset="1" stop-color="#1A0F91"/></linearGradient><linearGradient id="paint17_linear_295_3732" x1="31637.6" y1="14304.5" x2="35438.6" y2="25166.5" gradientUnits="userSpaceOnUse"><stop stop-color="#09005D"/><stop offset="1" stop-color="#1A0F91"/></linearGradient><linearGradient id="paint18_linear_295_3732" x1="77387.8" y1="83872.1" x2="57008" y2="104114" gradientUnits="userSpaceOnUse"><stop stop-color="#09005D"/><stop offset="1" stop-color="#1A0F91"/></linearGradient><linearGradient id="paint19_linear_295_3732" x1="209.668" y1="-59.011" x2="176.238" y2="-20.805" gradientUnits="userSpaceOnUse"><stop stop-color="#FF928E"/><stop offset="1" stop-color="#FE7062"/></linearGradient><linearGradient id="paint20_linear_295_3732" x1="33914.9" y1="-13585.1" x2="24055.8" y2="-10878.9" gradientUnits="userSpaceOnUse"><stop stop-color="#FF928E"/><stop offset="1" stop-color="#FE7062"/></linearGradient><linearGradient id="paint21_linear_295_3732" x1="59421.1" y1="81536.8" x2="36186.4" y2="100055" gradientUnits="userSpaceOnUse"><stop stop-color="#09005D"/><stop offset="1" stop-color="#1A0F91"/></linearGradient><linearGradient id="paint22_linear_295_3732" x1="64248.9" y1="91300.1" x2="41034.4" y2="108995" gradientUnits="userSpaceOnUse"><stop stop-color="#09005D"/><stop offset="1" stop-color="#1A0F91"/></linearGradient><linearGradient id="paint23_linear_295_3732" x1="66996.3" y1="82435.8" x2="9004.38" y2="185867" gradientUnits="userSpaceOnUse"><stop stop-color="#4F52FF"/><stop offset="1" stop-color="#4042E2"/></linearGradient><linearGradient id="paint24_linear_295_3732" x1="-60089.7" y1="25793.5" x2="-58537.3" y2="25793.5" gradientUnits="userSpaceOnUse"><stop stop-color="#FEBBBA"/><stop offset="1" stop-color="#FF928E"/></linearGradient><linearGradient id="paint25_linear_295_3732" x1="224032" y1="-458640" x2="204811" y2="-438987" gradientUnits="userSpaceOnUse"><stop stop-color="#FF928E"/><stop offset="1" stop-color="#FE7062"/></linearGradient><linearGradient id="paint26_linear_295_3732" x1="-38422.7" y1="16517.1" x2="-39112.4" y2="19205" gradientUnits="userSpaceOnUse"><stop stop-color="#FEBBBA"/><stop offset="1" stop-color="#FF928E"/></linearGradient><linearGradient id="paint27_linear_295_3732" x1="-67035.9" y1="5033.17" x2="-66750.8" y2="7420.47" gradientUnits="userSpaceOnUse"><stop stop-color="#FEBBBA"/><stop offset="1" stop-color="#FF928E"/></linearGradient><linearGradient id="paint28_linear_295_3732" x1="10452.5" y1="31889.9" x2="12641.5" y2="38403.7" gradientUnits="userSpaceOnUse"><stop stop-color="#09005D"/><stop offset="1" stop-color="#1A0F91"/></linearGradient><linearGradient id="paint29_linear_295_3732" x1="-21579.6" y1="4208.59" x2="-21615.6" y2="3675.6" gradientUnits="userSpaceOnUse"><stop stop-color="#FEBBBA"/><stop offset="1" stop-color="#FF928E"/></linearGradient><linearGradient id="paint30_linear_295_3732" x1="4804.66" y1="-6581.92" x2="3165.27" y2="-6285.47" gradientUnits="userSpaceOnUse"><stop stop-color="#FF928E"/><stop offset="1" stop-color="#FE7062"/></linearGradient><linearGradient id="paint31_linear_295_3732" x1="179099" y1="-195545" x2="172286" y2="-182678" gradientUnits="userSpaceOnUse"><stop stop-color="#FF928E"/><stop offset="1" stop-color="#FE7062"/></linearGradient><linearGradient id="paint32_linear_295_3732" x1="-60383.2" y1="19648.8" x2="-64765.9" y2="26202.8" gradientUnits="userSpaceOnUse"><stop stop-color="#FEBBBA"/><stop offset="1" stop-color="#FF928E"/></linearGradient><linearGradient id="paint33_linear_295_3732" x1="-60090.6" y1="15736.3" x2="-63114.8" y2="21572.2" gradientUnits="userSpaceOnUse"><stop stop-color="#FEBBBA"/><stop offset="1" stop-color="#FF928E"/></linearGradient><linearGradient id="paint34_linear_295_3732" x1="-84900.1" y1="94049.8" x2="-19431.9" y2="210816" gradientUnits="userSpaceOnUse"><stop stop-color="#4F52FF"/><stop offset="1" stop-color="#4042E2"/></linearGradient><linearGradient id="paint35_linear_295_3732" x1="-138949" y1="45639.7" x2="-129143" y2="59442.6" gradientUnits="userSpaceOnUse"><stop stop-color="#FEBBBA"/><stop offset="1" stop-color="#FF928E"/></linearGradient><linearGradient id="paint36_linear_295_3732" x1="78064.7" y1="72109.1" x2="82605.2" y2="95824.2" gradientUnits="userSpaceOnUse"><stop stop-color="#09005D"/><stop offset="1" stop-color="#1A0F91"/></linearGradient><linearGradient id="paint37_linear_295_3732" x1="95722.8" y1="11546.5" x2="79187.4" y2="23167" gradientUnits="userSpaceOnUse"><stop stop-color="#FF928E"/><stop offset="1" stop-color="#FE7062"/></linearGradient><linearGradient id="paint38_linear_295_3732" x1="-41389.1" y1="27974.4" x2="-40526.8" y2="26484.9" gradientUnits="userSpaceOnUse"><stop stop-color="#FEBBBA"/><stop offset="1" stop-color="#FF928E"/></linearGradient><linearGradient id="paint39_linear_295_3732" x1="-66152.9" y1="23509.4" x2="-64263.1" y2="26799.6" gradientUnits="userSpaceOnUse"><stop stop-color="#FEBBBA"/><stop offset="1" stop-color="#FF928E"/></linearGradient><linearGradient id="paint40_linear_295_3732" x1="24924.2" y1="23672.4" x2="26404.3" y2="31396.3" gradientUnits="userSpaceOnUse"><stop stop-color="#09005D"/><stop offset="1" stop-color="#1A0F91"/></linearGradient><linearGradient id="paint41_linear_295_3732" x1="-22038.9" y1="4964.96" x2="-21607.7" y2="6043.52" gradientUnits="userSpaceOnUse"><stop stop-color="#FEBBBA"/><stop offset="1" stop-color="#FF928E"/></linearGradient><linearGradient id="paint42_linear_295_3732" x1="-90929.3" y1="72838.1" x2="-110520" y2="54474.3" gradientUnits="userSpaceOnUse"><stop stop-color="#FEBBBA"/><stop offset="1" stop-color="#FF928E"/></linearGradient><linearGradient id="paint43_linear_295_3732" x1="-81535.8" y1="1648.08" x2="-23018" y2="106018" gradientUnits="userSpaceOnUse"><stop stop-color="#4F52FF"/><stop offset="1" stop-color="#4042E2"/></linearGradient><linearGradient id="paint44_linear_295_3732" x1="73177.1" y1="-12455.4" x2="58373.1" y2="-1262.41" gradientUnits="userSpaceOnUse"><stop stop-color="#FF928E"/><stop offset="1" stop-color="#FE7062"/></linearGradient><linearGradient id="paint45_linear_295_3732" x1="10538.4" y1="7595.11" x2="9520.82" y2="5190.25" gradientUnits="userSpaceOnUse"><stop stop-color="#FEBBBA"/><stop offset="1" stop-color="#FF928E"/></linearGradient><linearGradient id="paint46_linear_295_3732" x1="6711.98" y1="8947.59" x2="5087.91" y2="6870.17" gradientUnits="userSpaceOnUse"><stop stop-color="#FEBBBA"/><stop offset="1" stop-color="#FF928E"/></linearGradient><linearGradient id="paint47_linear_295_3732" x1="11175.2" y1="8689.45" x2="14889.2" y2="13687.6" gradientUnits="userSpaceOnUse"><stop stop-color="#FEBBBA"/><stop offset="1" stop-color="#FF928E"/></linearGradient><linearGradient id="paint48_linear_295_3732" x1="4691.32" y1="5399.51" x2="6765.13" y2="7925.02" gradientUnits="userSpaceOnUse"><stop stop-color="#FEBBBA"/><stop offset="1" stop-color="#FF928E"/></linearGradient><linearGradient id="paint49_linear_295_3732" x1="23501.6" y1="21541.6" x2="18591.2" y2="21541.6" gradientUnits="userSpaceOnUse"><stop stop-color="#FEBBBA"/><stop offset="1" stop-color="#FF928E"/></linearGradient><linearGradient id="paint50_linear_295_3732" x1="69716.1" y1="8099.42" x2="63368.6" y2="13273.2" gradientUnits="userSpaceOnUse"><stop stop-color="#09005D"/><stop offset="1" stop-color="#1A0F91"/></linearGradient><linearGradient id="paint51_linear_295_3732" x1="6380.05" y1="5877.32" x2="5805.82" y2="5877.32" gradientUnits="userSpaceOnUse"><stop stop-color="#FEBBBA"/><stop offset="1" stop-color="#FF928E"/></linearGradient><linearGradient id="paint52_linear_295_3732" x1="6441.67" y1="-23391.6" x2="8184.81" y2="-23908.7" gradientUnits="userSpaceOnUse"><stop stop-color="#FEBBBA"/><stop offset="1" stop-color="#FF928E"/></linearGradient><linearGradient id="paint53_linear_295_3732" x1="11633.3" y1="5597.81" x2="12819.1" y2="2848.73" gradientUnits="userSpaceOnUse"><stop stop-color="#09005D"/><stop offset="1" stop-color="#1A0F91"/></linearGradient><linearGradient id="paint54_linear_295_3732" x1="921.669" y1="-6122.26" x2="1329.59" y2="-6294.1" gradientUnits="userSpaceOnUse"><stop stop-color="#FEBBBA"/><stop offset="1" stop-color="#FF928E"/></linearGradient><linearGradient id="paint55_linear_295_3732" x1="24878.9" y1="8538.32" x2="26124.9" y2="4556.01" gradientUnits="userSpaceOnUse"><stop stop-color="#09005D"/><stop offset="1" stop-color="#1A0F91"/></linearGradient><linearGradient id="paint56_linear_295_3732" x1="69423.9" y1="5742.07" x2="15444.4" y2="102017" gradientUnits="userSpaceOnUse"><stop stop-color="#4F52FF"/><stop offset="1" stop-color="#4042E2"/></linearGradient><linearGradient id="paint57_linear_295_3732" x1="-489671" y1="-580257" x2="-475452" y2="-561786" gradientUnits="userSpaceOnUse"><stop stop-color="#FF928E"/><stop offset="1" stop-color="#FE7062"/></linearGradient><linearGradient id="paint58_linear_295_3732" x1="6740.56" y1="10100.1" x2="8100.42" y2="8736.91" gradientUnits="userSpaceOnUse"><stop stop-color="#FEBBBA"/><stop offset="1" stop-color="#FF928E"/></linearGradient><linearGradient id="paint59_linear_295_3732" x1="9126.02" y1="8136.29" x2="10086.3" y2="7760.58" gradientUnits="userSpaceOnUse"><stop stop-color="#FEBBBA"/><stop offset="1" stop-color="#FF928E"/></linearGradient><linearGradient id="paint60_linear_295_3732" x1="9988.69" y1="10704.4" x2="14139.7" y2="7693.21" gradientUnits="userSpaceOnUse"><stop stop-color="#09005D"/><stop offset="1" stop-color="#1A0F91"/></linearGradient><linearGradient id="paint61_linear_295_3732" x1="2231.02" y1="2438.1" x2="2477.66" y2="2361.18" gradientUnits="userSpaceOnUse"><stop stop-color="#FEBBBA"/><stop offset="1" stop-color="#FF928E"/></linearGradient><linearGradient id="paint62_linear_295_3732" x1="-183101" y1="-469775" x2="-172588" y2="-463379" gradientUnits="userSpaceOnUse"><stop stop-color="#FF928E"/><stop offset="1" stop-color="#FE7062"/></linearGradient><linearGradient id="paint63_linear_295_3732" x1="12073.8" y1="-8526.73" x2="8532.52" y2="-6349.35" gradientUnits="userSpaceOnUse"><stop stop-color="#FF928E"/><stop offset="1" stop-color="#FE7062"/></linearGradient><linearGradient id="paint64_linear_295_3732" x1="63142.3" y1="8874.08" x2="62680.3" y2="11295.7" gradientUnits="userSpaceOnUse"><stop stop-color="#FEBBBA"/><stop offset="1" stop-color="#FF928E"/></linearGradient><linearGradient id="paint65_linear_295_3732" x1="28907.8" y1="3147.94" x2="28774.9" y2="4050.25" gradientUnits="userSpaceOnUse"><stop stop-color="#FEBBBA"/><stop offset="1" stop-color="#FF928E"/></linearGradient><linearGradient id="paint66_linear_295_3732" x1="62723" y1="4062.75" x2="62781.7" y2="4440.67" gradientUnits="userSpaceOnUse"><stop stop-color="#09005D"/><stop offset="1" stop-color="#1A0F91"/></linearGradient><linearGradient id="paint67_linear_295_3732" x1="22463.7" y1="2446.3" x2="22516.2" y2="2658.28" gradientUnits="userSpaceOnUse"><stop stop-color="#09005D"/><stop offset="1" stop-color="#1A0F91"/></linearGradient><linearGradient id="paint68_linear_295_3732" x1="12721.7" y1="13998.8" x2="17297.4" y2="23687.2" gradientUnits="userSpaceOnUse"><stop stop-color="#09005D"/><stop offset="1" stop-color="#1A0F91"/></linearGradient><linearGradient id="paint69_linear_295_3732" x1="33721.5" y1="12302.4" x2="32939" y2="16201.4" gradientUnits="userSpaceOnUse"><stop stop-color="#09005D"/><stop offset="1" stop-color="#1A0F91"/></linearGradient><linearGradient id="paint70_linear_295_3732" x1="52467.1" y1="1911.54" x2="52386.7" y2="2427.17" gradientUnits="userSpaceOnUse"><stop stop-color="#09005D"/><stop offset="1" stop-color="#1A0F91"/></linearGradient></defs></svg>