<svg width="16" height="16" fill="none" xmlns="http://www.w3.org/2000/svg"><path d="M14.5 8a6.5 6.5 0 11-13 0 6.5 6.5 0 0113 0z" stroke="#2E1AAD" stroke-linecap="round" stroke-linejoin="round"/><path d="M5.989 10.527L5.593 11h5.24v-.583H6.775c.264-.572.27-1.325.03-2.625h2.493v-.584h-2.61c-.033-.157-.067-.32-.107-.493a1.562 1.562 0 01.077-.912c.288-.73 1.031-1.22 1.851-1.22h.046c.32 0 .627.07.909.21l.282-.516A2.698 2.698 0 008.556 4h-.047c-1.074 0-2.05.642-2.425 1.598-.16.409-.197.837-.105 1.24.031.128.056.25.083.37H5v.584h1.182c.322 1.712.184 2.283-.193 2.736z" fill="#2E1AAD"/></svg>