<svg width="72" height="70" viewBox="0 0 72 70" fill="none" xmlns="http://www.w3.org/2000/svg">
<g id="Illustration">
<g id="Group" opacity="0.7">
<path id="Vector" opacity="0.7" d="M33.4305 27.5571C33.3775 27.546 33.3282 27.5216 33.2869 27.486C33.2455 27.4505 33.2135 27.4049 33.1935 27.3532C33.096 27.0879 33.0022 26.8217 32.9119 26.5548C32.8834 26.4707 32.8886 26.3779 32.9265 26.2969C32.9643 26.2158 33.0317 26.1531 33.1137 26.1226C33.1958 26.0921 33.2858 26.0963 33.364 26.1342C33.4422 26.1721 33.5021 26.2407 33.5307 26.3248C33.6222 26.5858 33.7137 26.8469 33.8059 27.105C33.8272 27.1617 33.833 27.2234 33.8228 27.2837C33.8126 27.3439 33.7867 27.4004 33.748 27.4471C33.7092 27.4938 33.659 27.5289 33.6027 27.5487C33.5465 27.5686 33.4862 27.5724 33.4284 27.5597L33.4305 27.5571Z" fill="#BDD0FB"/>
</g>
<path id="Vector_2" d="M8.1088 34.6489L8.54233 53.3889C8.58264 54.9647 9.21427 56.4551 10.3046 57.5471C11.395 58.6391 12.8593 59.2479 14.3903 59.2456L57.9511 59.2794C58.9796 59.2826 59.9797 58.9035 60.7677 58.2115C61.5557 57.5195 62.0787 56.5613 62.2406 55.5127C62.9652 50.7817 63.8964 42.303 62.9824 34.3596L8.1088 34.6489Z" fill="url(#paint0_linear_295_3897)"/>
<path id="Vector_3" d="M13.399 57.7963L13.3792 57.7921C13.068 57.6696 12.7679 57.5196 12.4824 57.3436C12.4549 57.3266 12.4351 57.2989 12.4274 57.2667C12.4197 57.2344 12.4246 57.2002 12.4412 57.1713C12.4585 57.1427 12.4859 57.122 12.5175 57.1137C12.5491 57.1054 12.5825 57.1101 12.6105 57.1269C12.8846 57.2946 13.172 57.4384 13.4699 57.5566C13.5008 57.5659 13.5267 57.5875 13.5419 57.6167C13.5571 57.6459 13.5603 57.6803 13.5509 57.7123C13.5414 57.7443 13.5201 57.7712 13.4915 57.7873C13.463 57.8033 13.4296 57.8071 13.3986 57.7978L13.399 57.7963ZM15.6414 58.1746C15.6139 58.1683 15.5895 58.1525 15.5721 58.1299C15.5547 58.1073 15.5453 58.0791 15.5456 58.0501C15.5462 58.0166 15.5597 57.9846 15.5831 57.961C15.6065 57.9374 15.6378 57.9242 15.6703 57.9242L16.6535 57.924C16.6858 57.9246 16.7165 57.9382 16.739 57.9618C16.7615 57.9855 16.774 58.0174 16.774 58.0508C16.7738 58.0674 16.7705 58.0839 16.7641 58.0992C16.7577 58.1146 16.7485 58.1285 16.7369 58.1403C16.7253 58.152 16.7115 58.1612 16.6965 58.1674C16.6814 58.1737 16.6654 58.1768 16.6492 58.1766L15.6675 58.1771L15.6414 58.1746ZM18.917 58.1769C18.8896 58.1706 18.8651 58.1549 18.8477 58.1323C18.8303 58.1096 18.8209 58.0815 18.8212 58.0524C18.8218 58.0189 18.8353 57.9869 18.8587 57.9633C18.882 57.9398 18.9134 57.9266 18.9459 57.9266L19.9287 57.9278C19.9457 57.9264 19.9627 57.9287 19.9787 57.9345C19.9946 57.9402 20.0092 57.9494 20.0215 57.9613C20.0338 57.9732 20.0435 57.9877 20.0501 58.0037C20.0566 58.0198 20.0599 58.0371 20.0596 58.0546C20.0593 58.0721 20.0555 58.0894 20.0484 58.1054C20.0413 58.1214 20.0311 58.1358 20.0184 58.1476C20.0057 58.1594 19.9908 58.1684 19.9747 58.1741C19.9585 58.1797 19.9414 58.1819 19.9245 58.1804L18.9431 58.1795L18.917 58.1769ZM10.8597 55.778C10.8298 55.7719 10.8034 55.7542 10.7861 55.7285C10.5927 55.4496 10.4236 55.1535 10.2806 54.8436C10.2738 54.8149 10.277 54.7845 10.2896 54.7577C10.3022 54.7309 10.3235 54.7094 10.3498 54.6969C10.376 54.6844 10.4056 54.6817 10.4333 54.6893C10.461 54.6969 10.4851 54.7143 10.5014 54.7385C10.6377 55.0354 10.7998 55.3188 10.9856 55.5852C11.004 55.6125 11.0113 55.6463 11.0058 55.6793C11.0004 55.7124 10.9826 55.7421 10.9563 55.7621C10.9418 55.7716 10.9257 55.7779 10.9088 55.7806C10.8919 55.7833 10.8747 55.7823 10.8583 55.7777L10.8597 55.778ZM22.194 58.1796C22.1666 58.1733 22.1421 58.1575 22.1247 58.1349C22.1073 58.1123 22.0979 58.0841 22.0982 58.0551C22.0988 58.0216 22.1123 57.9896 22.1357 57.966C22.1591 57.9424 22.1904 57.9292 22.2229 57.9292L23.2058 57.9304C23.2227 57.9291 23.2397 57.9314 23.2557 57.9371C23.2716 57.9429 23.2862 57.952 23.2985 57.964C23.3108 57.9759 23.3205 57.9903 23.3271 58.0064C23.3336 58.0224 23.3369 58.0397 23.3366 58.0573C23.3363 58.0748 23.3325 58.0921 23.3254 58.1081C23.3183 58.1241 23.3081 58.1384 23.2954 58.1503C23.2827 58.1621 23.2678 58.1711 23.2517 58.1767C23.2355 58.1824 23.2184 58.1845 23.2015 58.1831L22.2201 58.1822L22.194 58.1796ZM25.4696 58.1819C25.4422 58.1756 25.4177 58.1599 25.4003 58.1373C25.3829 58.1146 25.3735 58.0865 25.3738 58.0574C25.3744 58.024 25.3879 57.9919 25.4113 57.9684C25.4347 57.9448 25.466 57.9316 25.4985 57.9316L26.4814 57.9328C26.5121 57.9355 26.5406 57.95 26.5612 57.9735C26.5817 57.997 26.5929 58.0277 26.5923 58.0595C26.5918 58.0914 26.5797 58.122 26.5583 58.1453C26.537 58.1687 26.508 58.183 26.4771 58.1854L25.4957 58.1845L25.4696 58.1819ZM28.7452 58.1843C28.7178 58.1784 28.6933 58.1629 28.6758 58.1405C28.6583 58.1181 28.6489 58.0902 28.6491 58.0612C28.6501 58.0279 28.6637 57.9961 28.687 57.9726C28.7103 57.9491 28.7414 57.9358 28.7738 57.9354L29.7566 57.9366C29.7889 57.9376 29.8193 57.9513 29.8418 57.9749C29.8642 57.9985 29.8768 58.0301 29.8771 58.0634C29.877 58.08 29.8736 58.0965 29.8673 58.1119C29.8609 58.1272 29.8516 58.1412 29.84 58.1529C29.8284 58.1646 29.8147 58.1738 29.7997 58.1801C29.7846 58.1863 29.7686 58.1894 29.7524 58.1892L28.7707 58.1898L28.7452 58.1843ZM32.0208 58.1866C31.9934 58.1807 31.9689 58.1653 31.9514 58.1429C31.9339 58.1205 31.9245 58.0925 31.9247 58.0636C31.9257 58.0302 31.9393 57.9984 31.9626 57.975C31.9859 57.9515 32.017 57.9381 32.0494 57.9378L33.0322 57.939C33.0647 57.9392 33.0956 57.9526 33.1182 57.9764C33.1408 58.0002 33.1532 58.0323 33.1527 58.0657C33.1526 58.0823 33.1494 58.0986 33.1431 58.114C33.1368 58.1293 33.1277 58.1432 33.1162 58.1549C33.1048 58.1666 33.0912 58.1759 33.0763 58.1823C33.0614 58.1886 33.0455 58.1919 33.0294 58.1919L32.0462 58.1921L32.0208 58.1866ZM35.2961 58.1905C35.2687 58.1842 35.2442 58.1684 35.2268 58.1458C35.2094 58.1231 35.2 58.095 35.2003 58.0659C35.2009 58.0325 35.2144 58.0005 35.2378 57.9769C35.2611 57.9533 35.2925 57.9401 35.325 57.9401L36.3082 57.9399C36.3404 57.9408 36.3709 57.9545 36.3933 57.9781C36.4157 58.0017 36.4284 58.0334 36.4286 58.0666C36.4281 58.0999 36.4148 58.1318 36.3917 58.1554C36.3687 58.179 36.3376 58.1924 36.3053 58.1928L35.3225 58.1916L35.2961 58.1905ZM9.83348 52.6395C9.80702 52.6334 9.78335 52.6186 9.76607 52.5972C9.74879 52.5758 9.73886 52.5491 9.73779 52.5212L9.71525 51.5083C9.71519 51.4755 9.72764 51.4438 9.74991 51.4201C9.77217 51.3963 9.80247 51.3824 9.83431 51.3812C9.86593 51.3815 9.89611 51.3941 9.91872 51.4166C9.94134 51.439 9.95469 51.4697 9.95606 51.5022L9.98033 52.5139C9.97977 52.5463 9.96733 52.5774 9.9455 52.6011C9.92368 52.6247 9.89409 52.639 9.86269 52.6412C9.85242 52.642 9.84211 52.6413 9.83206 52.6392L9.83348 52.6395ZM38.5717 58.1928C38.5442 58.1865 38.5198 58.1707 38.5024 58.1481C38.485 58.1255 38.4756 58.0973 38.4759 58.0683C38.4765 58.0348 38.49 58.0028 38.5134 57.9792C38.5367 57.9557 38.5681 57.9424 38.6006 57.9424L39.5834 57.9437C39.6146 57.9457 39.6437 57.9598 39.6648 57.9833C39.686 58.0067 39.6975 58.0377 39.6971 58.0699C39.6968 58.1021 39.6846 58.1331 39.6629 58.1566C39.6413 58.1802 39.6119 58.1944 39.5806 58.1966L38.5978 58.1954L38.5717 58.1928ZM41.8473 58.1952C41.8198 58.1889 41.7954 58.1731 41.778 58.1505C41.7606 58.1279 41.7512 58.0997 41.7515 58.0706C41.7521 58.0372 41.7656 58.0052 41.789 57.9816C41.8123 57.958 41.8437 57.9448 41.8762 57.9448L42.859 57.946C42.8914 57.9466 42.9221 57.9602 42.9446 57.9839C42.9671 58.0075 42.9796 58.0394 42.9795 58.0728C42.9794 58.0893 42.9762 58.1057 42.9699 58.121C42.9636 58.1363 42.9545 58.1502 42.943 58.162C42.9316 58.1737 42.918 58.183 42.9031 58.1893C42.8882 58.1957 42.8723 58.1989 42.8562 58.1989L41.8734 58.1977L41.8473 58.1952ZM45.1243 58.1978C45.0967 58.1918 45.0721 58.1761 45.0547 58.1534C45.0372 58.1307 45.028 58.1024 45.0285 58.0733C45.0284 58.0567 45.0315 58.0402 45.0377 58.0248C45.0439 58.0094 45.053 57.9954 45.0645 57.9837C45.076 57.9719 45.0897 57.9626 45.1047 57.9563C45.1197 57.9501 45.1357 57.9469 45.1518 57.9472L46.1346 57.9484C46.1669 57.9493 46.1973 57.963 46.2198 57.9866C46.2422 58.0102 46.2548 58.0419 46.2551 58.0751C46.2545 58.1086 46.241 58.1406 46.2176 58.1642C46.1942 58.1878 46.1629 58.201 46.1304 58.201L45.1475 58.1998L45.1243 58.1978ZM48.3999 58.2002C48.3724 58.1945 48.3477 58.1791 48.3302 58.1567C48.3127 58.1342 48.3033 58.1061 48.3037 58.0771C48.3043 58.0438 48.3176 58.012 48.3407 57.9884C48.3637 57.9648 48.3948 57.9513 48.4271 57.951L49.4099 57.9522C49.4423 57.9528 49.473 57.9664 49.4955 57.99C49.5179 58.0137 49.5305 58.0456 49.5304 58.079C49.5298 58.1124 49.5163 58.1444 49.4929 58.168C49.4695 58.1916 49.4382 58.2048 49.4057 58.2048L48.4225 58.205L48.3999 58.2002ZM9.75647 49.2675C9.72953 49.2616 9.70541 49.2465 9.68788 49.2248C9.67036 49.203 9.66042 49.1758 9.65966 49.1474L9.63681 48.136C9.63747 48.1034 9.65015 48.0721 9.67227 48.0485C9.69438 48.0249 9.72428 48.0108 9.75588 48.0089C9.78729 48.0098 9.81709 48.0227 9.83957 48.045C9.86205 48.0673 9.87561 48.0976 9.87764 48.1299L9.90016 49.1427C9.90021 49.1755 9.88778 49.2072 9.86552 49.231C9.84325 49.2547 9.81294 49.2686 9.7811 49.2698L9.75647 49.2675ZM51.6755 58.2025C51.648 58.1968 51.6233 58.1815 51.6058 58.159C51.5883 58.1366 51.5789 58.1085 51.5793 58.0795C51.5799 58.0462 51.5932 58.0143 51.6163 57.9907C51.6393 57.9671 51.6704 57.9537 51.7027 57.9533L52.6855 57.9545C52.7176 57.9559 52.7479 57.9697 52.7703 57.9932C52.7926 58.0167 52.8054 58.0482 52.806 58.0813C52.8053 58.1148 52.7919 58.1468 52.7685 58.1704C52.7451 58.1939 52.7138 58.2072 52.6813 58.2071L51.6981 58.2074L51.6755 58.2025ZM54.9508 58.2063C54.9213 58.1998 54.8953 58.1823 54.8777 58.1571C54.8602 58.132 54.8524 58.1009 54.8558 58.0699C54.8592 58.0388 54.8735 58.01 54.8961 57.9889C54.9187 57.9679 54.948 57.956 54.9782 57.9557L55.9614 57.9554C55.9937 57.9564 56.0241 57.9701 56.0466 57.9937C56.069 58.0173 56.0817 58.049 56.0819 58.0822C56.0809 58.1155 56.0673 58.1473 56.044 58.1708C56.0207 58.1943 55.9896 58.2077 55.9572 58.208L54.9744 58.2068L54.9508 58.2063ZM58.2041 57.9763C58.1777 57.9708 58.154 57.9564 58.1365 57.9355C58.119 57.9146 58.1087 57.8882 58.1073 57.8605C58.1059 57.8327 58.1134 57.8051 58.1286 57.782C58.1439 57.7588 58.166 57.7414 58.1917 57.7323C58.4937 57.6268 58.7827 57.484 59.0521 57.307C59.0657 57.2957 59.0813 57.2875 59.0981 57.2829C59.1148 57.2782 59.1322 57.2772 59.1493 57.28C59.1663 57.2828 59.1826 57.2892 59.1969 57.2989C59.2113 57.3086 59.2235 57.3213 59.2327 57.3363C59.2419 57.3512 59.2479 57.368 59.2503 57.3856C59.2528 57.4032 59.2516 57.4211 59.2469 57.4383C59.2421 57.4555 59.234 57.4715 59.2229 57.4853C59.2118 57.4991 59.198 57.5104 59.1825 57.5184C58.8964 57.7073 58.5898 57.8606 58.2694 57.9751C58.2475 57.9815 58.2245 57.9818 58.2027 57.976L58.2041 57.9763ZM9.67802 45.8952C9.65116 45.8894 9.62711 45.8745 9.60978 45.8527C9.59246 45.8309 9.5829 45.8036 9.58265 45.7753L9.55838 44.7636C9.55904 44.731 9.57171 44.6998 9.59383 44.6762C9.61594 44.6526 9.64584 44.6384 9.67744 44.6366C9.70896 44.6372 9.73896 44.6499 9.7615 44.6723C9.78405 44.6947 9.79749 44.7251 9.79919 44.7575L9.82174 45.7704C9.82195 45.7867 9.81903 45.8029 9.81316 45.8181C9.80728 45.8333 9.79857 45.8472 9.78751 45.859C9.77645 45.8708 9.76325 45.8803 9.74869 45.8869C9.73413 45.8935 9.7185 45.8971 9.70268 45.8974C9.6939 45.8978 9.68512 45.897 9.67661 45.8949L9.67802 45.8952ZM60.5966 55.7737L60.5697 55.7679C60.5408 55.754 60.5184 55.7289 60.5074 55.698C60.4964 55.6671 60.4976 55.6328 60.5108 55.6025C60.6372 55.3293 60.7332 55.0426 60.7971 54.7479L60.8153 54.6632C60.8221 54.6301 60.8412 54.6009 60.8686 54.5819C60.8959 54.5629 60.9293 54.5557 60.9614 54.5619C60.9907 54.5724 61.0158 54.5924 61.033 54.6189C61.0502 54.6454 61.0585 54.6771 61.0568 54.7092L61.0404 54.7851C60.9721 55.1003 60.8697 55.4072 60.7352 55.6998C60.7238 55.727 60.7035 55.7492 60.6779 55.7627C60.6523 55.7762 60.623 55.78 60.5951 55.7734L60.5966 55.7737ZM9.5996 42.5228C9.57274 42.5171 9.54868 42.5021 9.53136 42.4804C9.51403 42.4586 9.50447 42.4313 9.50423 42.403L9.47996 41.3913C9.4788 41.3741 9.48104 41.3569 9.48653 41.3406C9.49203 41.3243 9.50067 41.3093 9.51194 41.2965C9.5232 41.2836 9.53685 41.2733 9.55206 41.266C9.56726 41.2587 9.58371 41.2547 9.60039 41.2541C9.61707 41.2536 9.63363 41.2565 9.64908 41.2628C9.66453 41.269 9.67855 41.2785 9.69026 41.2906C9.70198 41.3026 9.71116 41.3171 9.71724 41.333C9.72332 41.3489 9.72617 41.366 9.72563 41.3832L9.7499 42.3949C9.74958 42.4276 9.73702 42.459 9.71484 42.4827C9.69265 42.5064 9.66255 42.5204 9.63084 42.5219L9.5996 42.5228ZM61.2424 52.4705C61.2127 52.4635 61.1866 52.4454 61.1693 52.4197C61.1519 52.394 61.1444 52.3624 61.1483 52.3311C61.1901 52.0072 61.2315 51.6709 61.2735 51.3257C61.2775 51.2925 61.2941 51.2622 61.3197 51.2413C61.3452 51.2205 61.3776 51.2108 61.4098 51.2145C61.4419 51.2182 61.4711 51.2349 61.491 51.261C61.5109 51.2871 61.5199 51.3203 61.5158 51.3535C61.4758 51.6992 61.4344 52.0349 61.3917 52.3607C61.3874 52.394 61.3706 52.4243 61.3447 52.4451C61.3189 52.4659 61.2863 52.4754 61.254 52.4715L61.2424 52.4705ZM9.51411 39.149C9.48737 39.143 9.46346 39.1279 9.44617 39.1062C9.42889 39.0845 9.41924 39.0574 9.41873 39.0291L9.39588 38.0177C9.39523 37.9844 9.40748 37.9519 9.42992 37.9275C9.45237 37.9032 9.48318 37.8889 9.51557 37.8877C9.54796 37.8866 9.57927 37.8988 9.60263 37.9216C9.626 37.9444 9.63949 37.9759 9.64013 38.0093L9.6644 39.021C9.66374 39.0536 9.65107 39.0849 9.62896 39.1084C9.60684 39.132 9.57694 39.1462 9.54534 39.1481L9.51411 39.149ZM61.6107 49.1105C61.5816 49.1038 61.556 49.0864 61.5385 49.0616C61.5211 49.0368 61.513 49.0062 61.5157 48.9755C61.5477 48.6444 61.5778 48.3082 61.606 47.9671C61.6064 47.9498 61.6102 47.9326 61.6173 47.9168C61.6244 47.9009 61.6347 47.8868 61.6473 47.8751C61.66 47.8635 61.6748 47.8547 61.6908 47.8492C61.7069 47.8438 61.7238 47.8418 61.7406 47.8434C61.7574 47.8438 61.7739 47.8477 61.789 47.8548C61.8042 47.862 61.8177 47.8724 61.8288 47.8852C61.8399 47.898 61.8483 47.9131 61.8535 47.9295C61.8586 47.9458 61.8605 47.9632 61.8589 47.9804C61.8309 48.3226 61.7997 48.6595 61.7694 48.992C61.7656 49.0251 61.7495 49.0556 61.7244 49.077C61.6994 49.0984 61.6674 49.109 61.6352 49.1067L61.6107 49.1105ZM9.4371 35.7769C9.41033 35.7711 9.38629 35.7563 9.36873 35.7348C9.35117 35.7134 9.34106 35.6864 9.33998 35.6582L9.31421 34.5164L10.3682 34.51C10.385 34.5089 10.4018 34.5113 10.4176 34.5171C10.4333 34.5229 10.4477 34.532 10.4599 34.5438C10.472 34.5557 10.4816 34.57 10.4881 34.5859C10.4946 34.6017 10.4979 34.6189 10.4977 34.6362C10.4975 34.6535 10.4939 34.6707 10.487 34.6866C10.4802 34.7025 10.4702 34.7168 10.4578 34.7287C10.4454 34.7406 10.4308 34.7498 10.4149 34.7557C10.399 34.7615 10.3822 34.764 10.3654 34.7629L9.56603 34.7677L9.58598 35.6487C9.58532 35.6812 9.57265 35.7125 9.55053 35.7361C9.52842 35.7597 9.49852 35.7739 9.46692 35.7757L9.4371 35.7769ZM61.8672 45.7417C61.8388 45.7353 61.8137 45.7189 61.7961 45.6953C61.7785 45.6717 61.7695 45.6424 61.7708 45.6125C61.7896 45.2785 61.8071 44.9417 61.8232 44.602C61.8227 44.5846 61.8257 44.5672 61.832 44.5509C61.8383 44.5346 61.8478 44.5198 61.8599 44.5074C61.872 44.495 61.8864 44.4853 61.9023 44.4788C61.9181 44.4724 61.935 44.4693 61.952 44.4699C61.9689 44.4705 61.9855 44.4747 62.0007 44.4822C62.0159 44.4898 62.0293 44.5005 62.0402 44.5137C62.0512 44.5269 62.0593 44.5423 62.0641 44.559C62.0689 44.5757 62.0703 44.5932 62.0682 44.6106C62.0529 44.9514 62.0357 45.2893 62.0167 45.6243C62.0162 45.6412 62.0124 45.658 62.0055 45.6735C61.9987 45.689 61.9889 45.703 61.9767 45.7146C61.9646 45.7263 61.9503 45.7353 61.9348 45.7412C61.9192 45.747 61.9027 45.7497 61.8863 45.7489L61.8672 45.7417ZM12.6335 34.7481C12.604 34.7416 12.5779 34.7241 12.5604 34.6989C12.5429 34.6737 12.5351 34.6426 12.5385 34.6116C12.5419 34.5806 12.5562 34.5518 12.5788 34.5307C12.6014 34.5096 12.6307 34.4978 12.6609 34.4974L13.6437 34.4925C13.6758 34.493 13.7064 34.5063 13.7289 34.5297C13.7514 34.5531 13.7642 34.5847 13.7645 34.6178C13.7639 34.6511 13.7506 34.6829 13.7275 34.7065C13.7045 34.7301 13.6735 34.7436 13.6412 34.7439L12.6584 34.7489L12.6335 34.7481ZM15.9089 34.7305C15.8815 34.7246 15.8571 34.7092 15.8396 34.6868C15.8221 34.6644 15.8126 34.6364 15.8128 34.6075C15.8129 34.5908 15.8163 34.5744 15.8226 34.559C15.829 34.5436 15.8383 34.5297 15.8499 34.518C15.8615 34.5063 15.8752 34.497 15.8903 34.4908C15.9053 34.4845 15.9214 34.4814 15.9375 34.4816L16.9205 34.4753C16.9517 34.4773 16.9808 34.4914 17.0019 34.5149C17.023 34.5383 17.0346 34.5693 17.0342 34.6015C17.0339 34.6337 17.0216 34.6647 17 34.6882C16.9784 34.7118 16.9489 34.726 16.9177 34.7282L15.935 34.7331C15.9282 34.7336 15.9213 34.7331 15.9146 34.7318L15.9089 34.7305ZM19.1844 34.713C19.1534 34.7083 19.1255 34.6915 19.1066 34.666C19.0876 34.6404 19.0791 34.6082 19.0828 34.576C19.0865 34.5439 19.1021 34.5143 19.1264 34.4934C19.1506 34.4725 19.1816 34.462 19.2129 34.4641L20.196 34.4577C20.2283 34.4583 20.259 34.4719 20.2815 34.4956C20.304 34.5193 20.3165 34.5511 20.3165 34.5845C20.3158 34.618 20.3023 34.65 20.2789 34.6736C20.2556 34.6971 20.2242 34.7103 20.1918 34.7103L19.209 34.7153C19.2036 34.7157 19.1982 34.7156 19.1929 34.7148L19.1844 34.713ZM22.4612 34.6958C22.4297 34.6919 22.401 34.6754 22.3814 34.6499C22.3618 34.6243 22.3528 34.5917 22.3564 34.5591C22.3599 34.5265 22.3758 34.4964 22.4004 34.4754C22.4251 34.4544 22.4567 34.444 22.4884 34.4466L23.4711 34.4416C23.4872 34.4415 23.503 34.4447 23.5178 34.4509C23.5326 34.4572 23.546 34.4664 23.5572 34.478C23.5684 34.4897 23.5773 34.5035 23.5832 34.5188C23.5892 34.5341 23.5921 34.5504 23.5919 34.567C23.5913 34.6002 23.5781 34.6321 23.555 34.6557C23.5319 34.6793 23.5009 34.6927 23.4686 34.6931L22.4859 34.698L22.4612 34.6958ZM25.7364 34.6797C25.7089 34.6734 25.6845 34.6577 25.6671 34.635C25.6497 34.6124 25.6403 34.5842 25.6405 34.5552C25.6406 34.5387 25.6439 34.5223 25.6502 34.507C25.6564 34.4917 25.6656 34.4777 25.677 34.466C25.6885 34.4543 25.7021 34.445 25.717 34.4386C25.7319 34.4323 25.7478 34.429 25.7638 34.429L26.7469 34.4226C26.7791 34.4236 26.8096 34.4373 26.832 34.4609C26.8544 34.4845 26.8671 34.5162 26.8674 34.5494C26.8675 34.566 26.8643 34.5825 26.8581 34.5979C26.8519 34.6133 26.8428 34.6273 26.8313 34.639C26.8198 34.6508 26.8062 34.6601 26.7912 34.6664C26.7762 34.6727 26.7602 34.6758 26.7441 34.6756L25.761 34.682L25.7364 34.6797ZM61.9917 42.3673C61.9641 42.3612 61.9395 42.3456 61.922 42.3229C61.9046 42.3002 61.8954 42.2719 61.8959 42.2428C61.9001 41.9077 61.9028 41.5707 61.9039 41.2319C61.9045 41.1987 61.9178 41.1668 61.9408 41.1432C61.9639 41.1196 61.9949 41.1062 62.0272 41.1058C62.0433 41.1057 62.0591 41.1088 62.0739 41.1151C62.0887 41.1213 62.1021 41.1305 62.1133 41.1422C62.1245 41.1538 62.1334 41.1677 62.1393 41.183C62.1453 41.1982 62.1483 41.2146 62.148 41.2311C62.1469 41.5699 62.144 41.9078 62.1393 42.2449C62.1387 42.2783 62.1252 42.3104 62.1018 42.3339C62.0785 42.3575 62.0471 42.3707 62.0146 42.3707L61.9917 42.3673ZM29.0159 34.6707C28.9866 34.6639 28.9608 34.6462 28.9436 34.6209C28.9263 34.5957 28.9188 34.5647 28.9223 34.5338C28.9259 34.5029 28.9403 34.4742 28.9629 34.4533C28.9855 34.4324 29.0146 34.4207 29.0448 34.4203L30.0275 34.4154C30.0435 34.4153 30.0594 34.4184 30.0742 34.4247C30.089 34.4309 30.1023 34.4401 30.1136 34.4518C30.1248 34.4634 30.1337 34.4773 30.1396 34.4926C30.1456 34.5078 30.1485 34.5242 30.1483 34.5407C30.1477 34.574 30.1345 34.6059 30.1114 34.6295C30.0883 34.6531 30.0573 34.6665 30.025 34.6669L29.0423 34.6718L29.0159 34.6707ZM32.2928 34.6535C32.2633 34.647 32.2373 34.6295 32.2197 34.6043C32.2022 34.5791 32.1944 34.548 32.1978 34.517C32.2012 34.4859 32.2155 34.4571 32.2381 34.4361C32.2607 34.415 32.29 34.4031 32.3202 34.4028L33.3029 34.3979C33.3352 34.398 33.366 34.4112 33.3886 34.4347C33.4112 34.4581 33.4238 34.4899 33.4238 34.5232C33.4227 34.5565 33.4091 34.5883 33.3858 34.6118C33.3626 34.6353 33.3314 34.6487 33.299 34.649L32.3177 34.6543L32.2928 34.6535ZM35.5682 34.6359C35.5387 34.6294 35.5127 34.6119 35.4952 34.5867C35.4776 34.5616 35.4698 34.5305 35.4732 34.4994C35.4766 34.4684 35.491 34.4396 35.5136 34.4185C35.5362 34.3975 35.5654 34.3856 35.5957 34.3853L36.5784 34.3803C36.6101 34.3814 36.64 34.3951 36.6619 34.4185C36.6838 34.4419 36.6959 34.4733 36.6957 34.506C36.6955 34.5387 36.6831 34.5702 36.661 34.594C36.6388 34.6178 36.6088 34.632 36.577 34.6335L35.5943 34.6385L35.5682 34.6359ZM38.8437 34.6184C38.8144 34.6116 38.7886 34.5939 38.7714 34.5686C38.7541 34.5434 38.7465 34.5124 38.7501 34.4815C38.7537 34.4506 38.7681 34.4219 38.7907 34.401C38.8133 34.3801 38.8424 34.3684 38.8726 34.368L39.8553 34.3631C39.8864 34.3651 39.9155 34.3793 39.9367 34.4027C39.9578 34.4262 39.9693 34.4571 39.969 34.4893C39.9686 34.5215 39.9564 34.5525 39.9347 34.5761C39.9131 34.5996 39.8837 34.6139 39.8525 34.616L38.8697 34.621C38.8611 34.6191 38.8528 34.6158 38.8453 34.6111L38.8437 34.6184ZM61.9695 38.9949C61.9429 38.989 61.9191 38.9742 61.9018 38.9528C61.8844 38.9314 61.8746 38.9045 61.8738 38.8765C61.8633 38.5413 61.8485 38.2051 61.8324 37.8687C61.8324 37.8366 61.8443 37.8055 61.8656 37.7817C61.8869 37.758 61.9161 37.7433 61.9472 37.7407C61.9786 37.7396 62.009 37.7511 62.032 37.7729C62.0549 37.7947 62.0686 37.825 62.0699 37.8573C62.0873 38.1971 62.1016 38.5351 62.1128 38.8715C62.1126 38.904 62.1003 38.9354 62.0784 38.9591C62.0565 38.9828 62.0267 38.997 61.9952 38.9989L61.9695 38.9949ZM42.1207 34.5936C42.0934 34.5879 42.0689 34.5725 42.0516 34.5501C42.0343 34.5276 42.0253 34.4996 42.026 34.4708C42.0265 34.4375 42.0398 34.4057 42.0629 34.3821C42.0859 34.3585 42.117 34.345 42.1493 34.3446L43.132 34.3397C43.1488 34.3386 43.1656 34.341 43.1813 34.3468C43.1971 34.3526 43.2115 34.3617 43.2237 34.3736C43.2358 34.3854 43.2454 34.3997 43.2519 34.4156C43.2584 34.4315 43.2617 34.4486 43.2615 34.4659C43.2613 34.4832 43.2577 34.5004 43.2508 34.5163C43.2439 34.5322 43.234 34.5465 43.2216 34.5584C43.2092 34.5703 43.1946 34.5795 43.1787 34.5854C43.1628 34.5912 43.1459 34.5937 43.1292 34.5927L42.1465 34.5976C42.1377 34.5982 42.1289 34.5974 42.1204 34.595L42.1207 34.5936ZM45.3976 34.5763C45.3701 34.5707 45.3454 34.5553 45.3279 34.5328C45.3103 34.5104 45.301 34.4823 45.3014 34.4533C45.3013 34.4367 45.3045 34.4202 45.3107 34.4048C45.3169 34.3894 45.326 34.3754 45.3375 34.3636C45.349 34.3519 45.3626 34.3426 45.3776 34.3363C45.3926 34.33 45.4086 34.3269 45.4247 34.3271L46.4077 34.3207C46.44 34.3217 46.4705 34.3354 46.4929 34.359C46.5153 34.3826 46.528 34.4143 46.5282 34.4475C46.5281 34.4641 46.5249 34.4804 46.5186 34.4957C46.5123 34.511 46.5032 34.525 46.4918 34.5367C46.4803 34.5484 46.4667 34.5577 46.4518 34.5641C46.4369 34.5704 46.421 34.5737 46.4049 34.5737L45.4222 34.5786C45.4139 34.5792 45.4056 34.5784 45.3976 34.5763ZM48.673 34.5588C48.6456 34.5529 48.6211 34.5374 48.6037 34.515C48.5862 34.4926 48.5767 34.4646 48.5769 34.4357C48.577 34.4192 48.5802 34.4028 48.5865 34.3875C48.5928 34.3722 48.6019 34.3583 48.6134 34.3465C48.6248 34.3348 48.6384 34.3255 48.6533 34.3192C48.6682 34.3128 48.6841 34.3096 48.7002 34.3096L49.6829 34.3047C49.6995 34.3038 49.716 34.3064 49.7314 34.3124C49.7469 34.3183 49.761 34.3274 49.7729 34.3391C49.7848 34.3509 49.7942 34.365 49.8006 34.3806C49.8071 34.3963 49.8103 34.4132 49.8102 34.4302C49.8101 34.4473 49.8067 34.4642 49.8001 34.48C49.7935 34.4958 49.7839 34.51 49.7719 34.522C49.7599 34.5339 49.7457 34.5432 49.7301 34.5494C49.7146 34.5556 49.6981 34.5584 49.6815 34.5579L48.6991 34.5614C48.6903 34.562 48.6815 34.5611 48.673 34.5588ZM51.9482 34.5427C51.9207 34.5364 51.8963 34.5207 51.8789 34.498C51.8614 34.4754 51.8521 34.4473 51.8523 34.4182C51.853 34.3847 51.8665 34.3527 51.8898 34.3291C51.9132 34.3056 51.9446 34.2923 51.977 34.2924L52.9601 34.286C52.9924 34.2866 53.0231 34.3002 53.0456 34.3238C53.0681 34.3475 53.0806 34.3794 53.0806 34.4127C53.0807 34.4293 53.0775 34.4458 53.0713 34.4612C53.0651 34.4766 53.056 34.4906 53.0445 34.5024C53.033 34.5141 53.0193 34.5234 53.0044 34.5297C52.9894 34.536 52.9734 34.5391 52.9573 34.5389L51.9742 34.5453L51.9482 34.5427ZM55.225 34.5255C55.1955 34.519 55.1695 34.5015 55.152 34.4763C55.1344 34.4511 55.1266 34.42 55.13 34.389C55.1334 34.358 55.1478 34.3292 55.1704 34.3081C55.193 34.287 55.2222 34.2752 55.2525 34.2748L56.2352 34.2699C56.2675 34.27 56.2983 34.2833 56.3209 34.3067C56.3435 34.3302 56.3561 34.3619 56.356 34.3952C56.355 34.4286 56.3414 34.4604 56.3181 34.4838C56.2948 34.5073 56.2637 34.5207 56.2313 34.521L55.2486 34.526L55.225 34.5255ZM61.7637 35.6302C61.7384 35.6245 61.7155 35.6108 61.6983 35.5909C61.6811 35.571 61.6705 35.546 61.6679 35.5194C61.6366 35.1843 61.6037 34.8504 61.5648 34.5167C61.561 34.4832 61.5703 34.4495 61.5906 34.4228C61.611 34.3961 61.6406 34.3786 61.6731 34.3743C61.7056 34.37 61.7383 34.3791 61.7639 34.3997C61.7896 34.4202 61.8061 34.4506 61.8098 34.484C61.847 34.8188 61.8808 35.156 61.9117 35.4926C61.9148 35.5259 61.905 35.5592 61.8844 35.5854C61.8638 35.6116 61.8341 35.6284 61.8017 35.6323C61.7891 35.6317 61.7767 35.629 61.765 35.6244L61.7637 35.6302ZM58.5005 34.508C58.471 34.5015 58.4449 34.484 58.4274 34.4588C58.4099 34.4336 58.4021 34.4025 58.4055 34.3715C58.4088 34.3404 58.4232 34.3116 58.4458 34.2906C58.4684 34.2695 58.4976 34.2576 58.5279 34.2573L59.5107 34.2523C59.5427 34.2532 59.5731 34.2667 59.5955 34.29C59.618 34.3133 59.6308 34.3447 59.6315 34.3777C59.6309 34.4109 59.6176 34.4428 59.5946 34.4664C59.5715 34.49 59.5404 34.5034 59.5082 34.5038L58.5255 34.5088L58.5005 34.508Z" fill="#BDD0FB"/>
<path id="Vector_4" d="M20.9865 20.976L21.1369 19.5315C21.2116 19.3613 21.326 19.2125 21.4699 19.0984C21.6137 18.9844 21.7825 18.9087 21.9608 18.8784C23.3201 18.6492 26.6819 18.2379 28.2986 19.4816L28.5279 21.1606L20.9865 20.976Z" fill="url(#paint1_linear_295_3897)"/>
<path id="Vector_5" d="M25.2386 19.5638C24.9293 19.6437 24.6068 19.6449 24.2991 19.5674C24.1152 19.522 23.9522 19.4142 23.8362 19.2613C23.7202 19.1084 23.6578 18.9191 23.659 18.7238L23.6947 14.1985L25.9312 14.186L25.8945 18.7095C25.8927 18.9057 25.8272 19.0965 25.7083 19.2514C25.5894 19.4063 25.424 19.5163 25.2386 19.5638Z" fill="url(#paint2_linear_295_3897)"/>
<path id="Vector_6" d="M42.6445 20.8619L42.7878 19.4159C42.8622 19.2456 42.9766 19.0966 43.1205 18.9825C43.2644 18.8684 43.4333 18.7929 43.6117 18.7628C44.9695 18.5333 48.3328 18.1223 49.9495 19.366L50.1788 21.045L42.6445 20.8619Z" fill="url(#paint3_linear_295_3897)"/>
<path id="Vector_7" d="M46.8961 19.4496C46.5868 19.5294 46.2644 19.5307 45.9566 19.4532C45.7727 19.4078 45.6098 19.3 45.4937 19.1471C45.3777 18.9942 45.3153 18.8049 45.3165 18.6095L45.3603 13.608L47.5968 13.5955L47.5534 18.5956C47.5515 18.7919 47.4857 18.9828 47.3666 19.1377C47.2474 19.2925 47.0817 19.4023 46.8961 19.4496Z" fill="url(#paint4_linear_295_3897)"/>
<path id="Vector_8" d="M23.4595 15.3085L47.5129 14.3624C47.7781 14.3536 48.0334 14.2513 48.2364 14.0727C48.4393 13.894 48.5775 13.6499 48.6278 13.381C48.8196 12.3434 48.8532 11.2834 48.7273 10.2395C48.6332 9.57491 48.314 8.96903 47.826 8.52851C47.3379 8.088 46.7123 7.8411 46.0593 7.83132C41.5746 7.74539 30.1538 7.80845 23.8395 10.4069C23.511 10.5419 23.2177 10.7557 22.9843 11.0304C22.7509 11.3051 22.5842 11.6327 22.4982 11.9855C22.2844 12.8092 22.2577 13.67 22.4199 14.5009C22.4747 14.7395 22.6081 14.9502 22.7976 15.0974C22.987 15.2446 23.2208 15.3191 23.4595 15.3085Z" fill="url(#paint5_linear_295_3897)"/>
<path id="Vector_9" d="M22.9821 14.2448C22.9146 14.23 22.8537 14.1935 22.808 14.1406C22.7623 14.0877 22.7343 14.0211 22.7277 13.9502C22.6808 13.2968 22.7369 12.6384 22.8939 12.0006C22.9975 11.6245 23.192 11.2806 23.4592 11.0012C23.7264 10.7218 24.0574 10.5163 24.421 10.404C25.7745 9.98881 28.359 9.2816 30.477 9.20842C30.5604 9.21095 30.6394 9.24611 30.6978 9.30674C30.7561 9.36738 30.7896 9.44896 30.7914 9.5349C30.7932 9.62083 30.7632 9.70469 30.7074 9.76943C30.6516 9.83417 30.5743 9.87494 30.4911 9.88346C28.3702 9.95603 25.665 10.7227 24.5982 11.0562C24.342 11.1349 24.1087 11.2792 23.9202 11.4756C23.7317 11.6719 23.5943 11.9139 23.5208 12.1786C23.3856 12.7373 23.3367 13.3133 23.376 13.8854C23.3838 13.9743 23.3571 14.0634 23.3016 14.133C23.2461 14.2026 23.1665 14.2471 23.08 14.2568C23.0469 14.2576 23.0139 14.2536 22.9821 14.2448Z" fill="#91B3FA"/>
<path id="Vector_10" d="M9.83418 20.4723C17.6044 20.3291 51.2139 19.7883 60.9677 20.9496C61.3763 20.9973 61.7588 21.1746 62.0625 21.457C62.3662 21.7394 62.5761 22.113 62.6634 22.5264C63.2185 25.2104 64.3294 31.4384 64.137 37.6297C64.1223 38.0398 63.9713 38.434 63.7093 38.7465C63.4473 39.059 63.0903 39.2706 62.698 39.3461L40.3793 43.8064L32.4639 43.8481L8.75932 39.1116C8.35412 39.0322 7.98811 38.8153 7.71937 38.4953C7.45064 38.1753 7.29458 37.7706 7.27599 37.3453C7.14718 34.234 6.96409 26.9323 7.819 22.2279C7.90699 21.742 8.15647 21.3008 8.52436 20.9803C8.89226 20.6598 9.35551 20.4802 9.83418 20.4723Z" fill="url(#paint6_linear_295_3897)"/>
<path id="Vector_11" d="M9.22943 37.3159C9.19815 37.3087 9.171 37.2892 9.15376 37.2615C9.13653 37.2339 9.13059 37.2002 9.13721 37.1677C9.14015 37.1513 9.14625 37.1356 9.15517 37.1216C9.16408 37.1077 9.17562 37.0956 9.18909 37.0863C9.20256 37.0769 9.21769 37.0704 9.23357 37.0672C9.24945 37.064 9.26576 37.0641 9.28152 37.0675L10.2439 37.2597C10.2756 37.2662 10.3034 37.2852 10.3212 37.3128C10.3391 37.3404 10.3455 37.3743 10.3392 37.4071C10.3326 37.44 10.3137 37.469 10.2867 37.488C10.2596 37.507 10.2266 37.5145 10.1946 37.5088L9.23226 37.3165L9.22943 37.3159ZM12.4384 37.956C12.4097 37.9464 12.3856 37.9261 12.3708 37.8991C12.3559 37.872 12.3514 37.8402 12.358 37.8096C12.3646 37.779 12.3818 37.7519 12.4065 37.7334C12.4312 37.7149 12.4615 37.7063 12.4916 37.7094L13.4543 37.9002C13.4856 37.9073 13.5127 37.9268 13.53 37.9545C13.5472 37.9822 13.5532 38.0159 13.5465 38.0484C13.5436 38.0648 13.5375 38.0804 13.5286 38.0944C13.5196 38.1084 13.5081 38.1204 13.4946 38.1298C13.4812 38.1391 13.466 38.1456 13.4502 38.1489C13.4343 38.1521 13.418 38.152 13.4022 38.1486L12.4399 37.9563L12.4384 37.956ZM15.6457 38.5973C15.6139 38.5904 15.5862 38.5708 15.5687 38.5427C15.5512 38.5145 15.5453 38.4803 15.5524 38.4474C15.5595 38.4145 15.579 38.3856 15.6065 38.3672C15.634 38.3488 15.6674 38.3423 15.6992 38.3492L16.6616 38.5415C16.6779 38.5437 16.6935 38.5494 16.7074 38.5584C16.7213 38.5673 16.7331 38.5792 16.7421 38.5933C16.7511 38.6073 16.757 38.6233 16.7596 38.64C16.7621 38.6567 16.7611 38.6739 16.7566 38.6903C16.7496 38.7231 16.7304 38.7519 16.7031 38.7706C16.6759 38.7892 16.6428 38.7963 16.6109 38.7902L15.6485 38.5979L15.6457 38.5973ZM18.853 39.2386C18.8212 39.2317 18.7934 39.2121 18.7759 39.1839C18.7584 39.1558 18.7526 39.1216 18.7597 39.0887C18.7668 39.0558 18.7862 39.0269 18.8138 39.0085C18.8413 38.9901 18.8747 38.9836 18.9065 38.9905L19.8689 39.1828C19.8997 39.1908 19.9264 39.2103 19.944 39.2374C19.9615 39.2646 19.9688 39.2975 19.9642 39.3301C19.9575 39.3632 19.9384 39.3924 19.911 39.4114C19.8837 39.4304 19.8503 39.4376 19.8182 39.4315L18.8558 39.2392L18.853 39.2386ZM22.0606 39.8784C22.0434 39.8767 22.0269 39.8713 22.012 39.8625C21.9971 39.8537 21.9842 39.8417 21.9741 39.8274C21.9641 39.813 21.9571 39.7966 21.9536 39.7792C21.9502 39.7618 21.9504 39.7438 21.9541 39.7264C21.9579 39.709 21.9652 39.6925 21.9755 39.6781C21.9858 39.6637 21.9989 39.6516 22.0139 39.6427C22.029 39.6337 22.0457 39.6282 22.0629 39.6263C22.0801 39.6244 22.0975 39.6263 22.1138 39.6318L23.0762 39.8241C23.1075 39.8308 23.1349 39.85 23.1525 39.8775C23.17 39.9049 23.1764 39.9385 23.1701 39.9711C23.1634 40.0042 23.1443 40.0334 23.1169 40.0524C23.0896 40.0714 23.0562 40.0786 23.0241 40.0725L22.062 39.8787L22.0606 39.8784ZM25.2679 40.5197C25.2367 40.513 25.2094 40.4938 25.1921 40.4664C25.1748 40.4389 25.1688 40.4053 25.1754 40.373C25.1785 40.3566 25.1847 40.341 25.1937 40.327C25.2027 40.3131 25.2142 40.301 25.2276 40.2916C25.241 40.2821 25.2561 40.2755 25.272 40.272C25.2878 40.2685 25.3041 40.2683 25.32 40.2713L26.2823 40.4636C26.2985 40.466 26.314 40.4719 26.3278 40.4809C26.3416 40.4899 26.3533 40.5018 26.3622 40.5158C26.3712 40.5298 26.3772 40.5457 26.3798 40.5623C26.3824 40.5789 26.3816 40.596 26.3774 40.6124C26.3707 40.6451 26.3519 40.674 26.3248 40.6928C26.2978 40.7115 26.2648 40.7187 26.2331 40.7126L25.2707 40.5203L25.2679 40.5197ZM28.4766 41.1613C28.4608 41.1581 28.4459 41.1517 28.4327 41.1425C28.4194 41.1333 28.4081 41.1215 28.3994 41.1077C28.3907 41.0938 28.3848 41.0783 28.3819 41.0621C28.3791 41.0458 28.3795 41.0291 28.383 41.0128C28.3896 40.9801 28.4085 40.9512 28.4355 40.9325C28.4626 40.9137 28.4955 40.9066 28.5273 40.9126L29.4896 41.1049C29.5501 41.1332 29.5995 41.1851 29.5847 41.2537C29.5816 41.27 29.5753 41.2855 29.5664 41.2994C29.5574 41.3133 29.5459 41.3253 29.5324 41.3346C29.519 41.3439 29.504 41.3504 29.4882 41.3537C29.4724 41.357 29.4561 41.3571 29.4404 41.3539L28.478 41.1616L28.4766 41.1613ZM31.6839 41.8026C31.6525 41.7955 31.6251 41.776 31.6077 41.7483C31.5902 41.7206 31.584 41.6868 31.5902 41.6541C31.5934 41.6377 31.5997 41.6221 31.6088 41.6081C31.6178 41.5941 31.6295 41.5821 31.6431 41.5728C31.6567 41.5635 31.6719 41.5571 31.6878 41.5539C31.7038 41.5507 31.7201 41.5508 31.736 41.5542L32.6983 41.7465C32.7143 41.7491 32.7296 41.7551 32.7431 41.764C32.7567 41.7729 32.7683 41.7847 32.7772 41.7985C32.7862 41.8123 32.7922 41.8279 32.7951 41.8443C32.7979 41.8607 32.7974 41.8775 32.7937 41.8938C32.787 41.9269 32.7678 41.9562 32.7405 41.9751C32.7132 41.9941 32.6798 42.0013 32.6477 41.9952L31.6853 41.8029L31.6839 41.8026ZM34.0479 41.9872C34.0184 41.9807 33.9924 41.9632 33.9749 41.938C33.9573 41.9128 33.9495 41.8817 33.9529 41.8507C33.9563 41.8196 33.9707 41.7908 33.9933 41.7698C34.0159 41.7487 34.0451 41.7368 34.0754 41.7365L35.0581 41.7315C35.0747 41.7307 35.0912 41.7333 35.1067 41.7393C35.1221 41.7452 35.1362 41.7543 35.1481 41.766C35.16 41.7778 35.1695 41.7919 35.1759 41.8075C35.1823 41.8232 35.1855 41.8401 35.1855 41.8571C35.1854 41.8742 35.1819 41.8911 35.1753 41.9069C35.1687 41.9227 35.1591 41.9369 35.1471 41.9489C35.1351 41.9608 35.1209 41.9701 35.1054 41.9763C35.0898 41.9824 35.0733 41.9853 35.0567 41.9848L34.074 41.9897L34.0479 41.9872ZM37.3234 41.9696C37.2939 41.9631 37.2678 41.9456 37.2503 41.9204C37.2328 41.8953 37.225 41.8642 37.2284 41.8331C37.2318 41.8021 37.2461 41.7733 37.2687 41.7522C37.2913 41.7312 37.3206 41.7193 37.3509 41.719L38.3336 41.714C38.3501 41.7132 38.3666 41.7158 38.3821 41.7217C38.3976 41.7277 38.4117 41.7368 38.4236 41.7485C38.4355 41.7602 38.4449 41.7743 38.4513 41.79C38.4577 41.8057 38.461 41.8225 38.4609 41.8396C38.4608 41.8567 38.4574 41.8736 38.4508 41.8894C38.4442 41.9051 38.4346 41.9194 38.4226 41.9313C38.4106 41.9432 38.3963 41.9526 38.3808 41.9587C38.3653 41.9649 38.3487 41.9678 38.3322 41.9672L37.3495 41.9722L37.3234 41.9696ZM40.5962 41.8751C40.5688 41.8689 40.5443 41.8532 40.527 41.8305C40.5097 41.8079 40.5005 41.7796 40.5011 41.7506C40.5016 41.7215 40.5118 41.6934 40.53 41.671C40.5482 41.6485 40.5732 41.6331 40.6009 41.6272L41.568 41.4341C41.5987 41.4307 41.6294 41.4391 41.654 41.4579C41.6786 41.4767 41.6953 41.5044 41.7008 41.5356C41.7064 41.5667 41.7003 41.5991 41.6839 41.6261C41.6675 41.6532 41.6419 41.6731 41.6122 41.6819L40.6447 41.8765C40.6276 41.879 40.6102 41.8783 40.5934 41.8745L40.5962 41.8751ZM9.09957 35.0046C9.07289 34.999 9.04893 34.9842 9.03157 34.9628C9.01421 34.9413 9.00444 34.9143 9.00387 34.8862C8.9954 34.5621 8.98868 34.2232 8.98305 33.8722C8.98249 33.8385 8.99497 33.8057 9.01774 33.7811C9.04051 33.7565 9.07171 33.7421 9.10447 33.7411C9.13724 33.74 9.16889 33.7524 9.19246 33.7756C9.21603 33.7987 9.22959 33.8306 9.23016 33.8644C9.23436 34.215 9.24109 34.554 9.24845 34.8763C9.24851 34.9091 9.23608 34.9408 9.21381 34.9646C9.19155 34.9883 9.16123 35.0023 9.12939 35.0034L9.09957 35.0046ZM43.8191 41.2308C43.7916 41.2246 43.7672 41.2088 43.7499 41.1862C43.7325 41.1635 43.7234 41.1353 43.724 41.1062C43.7245 41.0772 43.7347 41.0491 43.7529 41.0266C43.7711 41.0042 43.7961 40.9887 43.8238 40.9829L44.7909 40.7898C44.8216 40.7863 44.8523 40.7948 44.8768 40.8136C44.9014 40.8324 44.9182 40.8601 44.9237 40.8912C44.9293 40.9224 44.9232 40.9547 44.9068 40.9818C44.8904 41.0089 44.8648 41.0288 44.835 41.0375L43.8679 41.2306C43.8509 41.2346 43.8332 41.2344 43.8163 41.2302L43.8191 41.2308ZM47.0434 40.5867C47.0197 40.5819 46.9981 40.5698 46.9813 40.5521C46.9646 40.5343 46.9535 40.5116 46.9496 40.4871C46.9438 40.4542 46.951 40.4202 46.9694 40.3924C46.9879 40.3647 47.0162 40.3454 47.0481 40.3388L48.0152 40.1457C48.0459 40.1422 48.0765 40.1507 48.1011 40.1695C48.1257 40.1883 48.1425 40.216 48.148 40.2472C48.1536 40.2783 48.1475 40.3106 48.1311 40.3377C48.1147 40.3648 48.0891 40.3847 48.0593 40.3935L47.0922 40.5866C47.0752 40.5905 47.0575 40.5904 47.0406 40.5861L47.0434 40.5867ZM9.05834 31.6311C9.03099 31.6254 9.00657 31.61 8.98927 31.5876C8.97197 31.5652 8.96289 31.5372 8.96359 31.5083C8.96461 31.1746 8.9675 30.8367 8.97229 30.4946C8.97332 30.4612 8.98692 30.4294 9.01021 30.406C9.03349 30.3825 9.06463 30.3691 9.09701 30.3687C9.12913 30.3701 9.1594 30.3839 9.18175 30.4074C9.2041 30.4309 9.21688 30.4624 9.2175 30.4955C9.21198 30.8365 9.20851 31.1748 9.20629 31.5072C9.20571 31.5405 9.19244 31.5724 9.16938 31.596C9.14631 31.6196 9.11529 31.633 9.08299 31.6334L9.05834 31.6311ZM50.2597 39.9455C50.2359 39.9404 50.2143 39.9282 50.1973 39.9104C50.1804 39.8927 50.169 39.8701 50.1644 39.8456C50.1588 39.8126 50.1662 39.7784 50.1849 39.7507C50.2037 39.7229 50.2322 39.7038 50.2644 39.6976L51.2315 39.5045C51.2481 39.4993 51.2655 39.4977 51.2826 39.4999C51.2997 39.502 51.3162 39.5079 51.3308 39.5171C51.3455 39.5263 51.3581 39.5386 51.3678 39.5532C51.3775 39.5678 51.3841 39.5843 51.3871 39.6018C51.3901 39.6193 51.3895 39.6373 51.3853 39.6546C51.3812 39.672 51.3735 39.6882 51.3628 39.7024C51.3522 39.7166 51.3388 39.7283 51.3235 39.7368C51.3082 39.7454 51.2914 39.7505 51.2742 39.7519L50.3071 39.9451C50.2929 39.9471 50.2786 39.9461 50.2649 39.9421L50.2597 39.9455ZM53.4826 39.3012C53.4551 39.295 53.4306 39.2792 53.4133 39.2565C53.396 39.2339 53.3868 39.2056 53.3874 39.1766C53.3879 39.1475 53.3982 39.1194 53.4164 39.097C53.4345 39.0745 53.4596 39.0591 53.4873 39.0532L54.4544 38.8601C54.485 38.8567 54.5157 38.8652 54.5403 38.884C54.5649 38.9027 54.5816 38.9305 54.5872 38.9616C54.5927 38.9928 54.5867 39.0251 54.5703 39.0522C54.5538 39.0793 54.5282 39.0991 54.4985 39.1079L53.5314 39.301C53.5167 39.3028 53.5019 39.3017 53.4878 39.2977L53.4826 39.3012ZM56.7069 38.6571C56.6832 38.6518 56.6616 38.6395 56.6447 38.6218C56.6278 38.6041 56.6163 38.5816 56.6116 38.5571C56.606 38.5241 56.6134 38.49 56.6321 38.4623C56.6508 38.4345 56.6794 38.4154 56.7115 38.4092L57.6786 38.2161C57.7093 38.2126 57.74 38.2211 57.7646 38.2399C57.7892 38.2587 57.8059 38.2864 57.8115 38.3175C57.817 38.3487 57.811 38.381 57.7946 38.4081C57.7781 38.4352 57.7525 38.4551 57.7228 38.4638L56.7557 38.6569C56.741 38.6604 56.7258 38.6607 56.7111 38.658L56.7069 38.6571ZM9.12905 28.2528C9.10109 28.2465 9.07626 28.2303 9.05888 28.207C9.04149 28.1838 9.03264 28.1549 9.03384 28.1253C9.04804 27.7852 9.06533 27.4469 9.08571 27.1102C9.08598 27.0931 9.08963 27.0763 9.09642 27.0607C9.10321 27.045 9.11301 27.031 9.12521 27.0193C9.13741 27.0076 9.15175 26.9986 9.16738 26.9928C9.183 26.987 9.19957 26.9845 9.21606 26.9855C9.23247 26.986 9.24859 26.9898 9.26348 26.9967C9.27836 27.0037 9.29174 27.0136 9.30282 27.0259C9.31391 27.0382 9.32248 27.0527 9.32806 27.0686C9.33363 27.0844 9.33609 27.1013 9.3353 27.1182C9.31629 27.4531 9.29946 27.7916 9.28437 28.1289C9.28393 28.1458 9.28022 28.1625 9.27347 28.1779C9.26671 28.1934 9.25704 28.2073 9.24503 28.219C9.23302 28.2306 9.21891 28.2397 9.20352 28.2457C9.18813 28.2517 9.17179 28.2545 9.15543 28.2539L9.12905 28.2528ZM59.9241 38.0115C59.9007 38.0062 59.8793 37.9939 59.8627 37.9762C59.846 37.9585 59.8348 37.9362 59.8303 37.9119C59.8245 37.879 59.8317 37.845 59.8501 37.8172C59.8686 37.7894 59.8968 37.7702 59.9288 37.7636L60.8962 37.569C60.9284 37.5636 60.9613 37.571 60.988 37.5899C61.0148 37.6087 61.0334 37.6375 61.04 37.6703C61.0456 37.7033 61.0382 37.7374 61.0194 37.7651C61.0007 37.7929 60.9721 37.812 60.94 37.8183L59.9729 38.0114C59.9602 38.0129 59.9473 38.0122 59.9349 38.0093L59.9241 38.0115ZM62.2032 36.5542C62.1758 36.5483 62.1513 36.5328 62.1338 36.5105C62.1163 36.4881 62.1068 36.4601 62.107 36.4312C62.1088 36.0935 62.1065 35.757 62.1 35.4216C62.1 35.3886 62.1127 35.3568 62.1353 35.3331C62.1578 35.3094 62.1884 35.2956 62.2204 35.2949C62.2363 35.2944 62.252 35.2972 62.2667 35.3031C62.2814 35.3089 62.2948 35.3177 62.3061 35.329C62.3174 35.3402 62.3264 35.3537 62.3326 35.3686C62.3388 35.3835 62.3421 35.3995 62.3422 35.4158C62.3488 35.7553 62.3512 36.0939 62.3494 36.4315C62.3488 36.4648 62.3355 36.4966 62.3125 36.5202C62.2894 36.5438 62.2584 36.5573 62.2261 36.5576L62.2032 36.5542ZM9.36819 24.8817C9.33876 24.8755 9.31276 24.8583 9.2952 24.8334C9.27764 24.8084 9.26977 24.7775 9.27313 24.7467C9.30911 24.4016 9.34947 24.0636 9.3936 23.7356C9.39576 23.719 9.40108 23.703 9.40926 23.6884C9.41743 23.6739 9.42831 23.6611 9.44124 23.6508C9.45418 23.6406 9.46892 23.633 9.48463 23.6286C9.50033 23.6242 9.51669 23.623 9.53275 23.6251C9.54876 23.6271 9.56417 23.6324 9.5781 23.6406C9.59203 23.6488 9.6042 23.6598 9.61388 23.673C9.62356 23.6862 9.63056 23.7013 9.63449 23.7173C9.63842 23.7334 9.6392 23.7502 9.63676 23.7667C9.59326 24.0918 9.55321 24.4283 9.51787 24.7704C9.51368 24.8036 9.49724 24.834 9.47199 24.8553C9.44674 24.8766 9.41463 24.8871 9.38233 24.8847L9.36819 24.8817ZM10.7559 22.5602C10.7288 22.5539 10.7047 22.5384 10.6875 22.5161C10.6703 22.4938 10.661 22.4661 10.6611 22.4374C10.6613 22.4042 10.6742 22.3722 10.697 22.3485C10.7199 22.3248 10.7508 22.3113 10.783 22.311L11.7669 22.294C11.784 22.2919 11.8013 22.2936 11.8177 22.2988C11.8341 22.3041 11.8491 22.3129 11.862 22.3245C11.8748 22.3362 11.885 22.3506 11.892 22.3667C11.899 22.3828 11.9027 22.4003 11.9027 22.418C11.9027 22.4357 11.8991 22.4534 11.8922 22.4697C11.8852 22.486 11.875 22.5006 11.8622 22.5127C11.8494 22.5248 11.8344 22.534 11.818 22.5398C11.8016 22.5455 11.7843 22.5477 11.7672 22.5461L10.7834 22.563C10.7762 22.562 10.7692 22.5599 10.7625 22.557L10.7559 22.5602ZM62.1095 33.1771C62.0835 33.1718 62.0601 33.1578 62.0428 33.1372C62.0256 33.1166 62.0156 33.0907 62.0143 33.0634C61.9928 32.7243 61.9707 32.3881 61.9448 32.0557C61.9422 32.0385 61.9431 32.0209 61.9474 32.004C61.9517 31.987 61.9593 31.9712 61.9698 31.9574C61.9803 31.9436 61.9934 31.9321 62.0083 31.9237C62.0233 31.9152 62.0396 31.91 62.0565 31.9084C62.0734 31.9068 62.0903 31.9087 62.1063 31.9142C62.1223 31.9196 62.137 31.9284 62.1495 31.94C62.162 31.9516 62.1719 31.9658 62.1788 31.9816C62.1857 31.9975 62.1893 32.0146 62.1894 32.032C62.216 32.3656 62.2393 32.7031 62.2593 33.0444C62.2594 33.0764 62.2478 33.1074 62.2267 33.1312C62.2057 33.1549 62.1769 33.1698 62.1459 33.1727L62.1095 33.1771ZM14.0353 22.5038C14.0068 22.4965 13.982 22.4789 13.9653 22.4542C13.9485 22.4294 13.9411 22.3993 13.9442 22.3691C13.9473 22.3389 13.9608 22.3107 13.9822 22.2896C14.0037 22.2686 14.0316 22.256 14.061 22.2543L15.0445 22.2388C15.0772 22.2383 15.1085 22.2513 15.1316 22.2747C15.1546 22.2982 15.1676 22.3302 15.1676 22.3639C15.1676 22.3975 15.1546 22.4299 15.1316 22.454C15.1085 22.4781 15.0772 22.4919 15.0445 22.4923L14.0614 22.5063C14.0546 22.5058 14.0479 22.5044 14.0416 22.5021L14.0353 22.5038ZM17.3125 22.4576C17.2828 22.4515 17.2564 22.4341 17.2386 22.409C17.2208 22.3839 17.2127 22.3527 17.216 22.3216C17.2192 22.2904 17.2335 22.2614 17.2561 22.2401C17.2788 22.2189 17.3081 22.207 17.3385 22.2066L18.3038 22.1934C18.3376 22.1926 18.3703 22.2054 18.3949 22.2289C18.4196 22.2524 18.4344 22.2849 18.4363 22.3196C18.437 22.3358 18.4346 22.3519 18.4292 22.3671C18.4237 22.3823 18.4154 22.3963 18.4047 22.4083C18.394 22.4202 18.3812 22.4298 18.3668 22.4366C18.3525 22.4433 18.3371 22.4471 18.3214 22.4476L17.3385 22.4602L17.3125 22.4576ZM20.5887 22.4158C20.5592 22.4093 20.5332 22.3918 20.5157 22.3666C20.4981 22.3414 20.4903 22.3103 20.4937 22.2793C20.4971 22.2483 20.5115 22.2195 20.5341 22.1984C20.5567 22.1773 20.5859 22.1655 20.6162 22.1651L21.6002 22.1544C21.6323 22.1549 21.6629 22.1682 21.6854 22.1916C21.7079 22.215 21.7207 22.2465 21.721 22.2797C21.7204 22.313 21.7071 22.3448 21.6841 22.3684C21.661 22.392 21.63 22.4055 21.5977 22.4058L20.6151 22.4169L20.5887 22.4158ZM23.8662 22.3819C23.8367 22.3754 23.8107 22.3579 23.7932 22.3327C23.7756 22.3075 23.7678 22.2765 23.7712 22.2454C23.7746 22.2144 23.789 22.1856 23.8116 22.1645C23.8342 22.1434 23.8634 22.1316 23.8937 22.1312L24.877 22.1234C24.9094 22.1231 24.9405 22.1361 24.9633 22.1594C24.9861 22.1828 24.9988 22.2147 24.9987 22.2481C24.9986 22.2815 24.9856 22.3137 24.9625 22.3375C24.9395 22.3613 24.9084 22.3748 24.8759 22.3751L23.8923 22.3845L23.8662 22.3819ZM27.1436 22.3556C27.1141 22.3491 27.088 22.3316 27.0705 22.3064C27.053 22.2812 27.0451 22.2502 27.0485 22.2191C27.0519 22.1881 27.0663 22.1593 27.0889 22.1382C27.1115 22.1172 27.1407 22.1053 27.171 22.1049L28.154 22.0986C28.1706 22.0977 28.1871 22.1004 28.2026 22.1063C28.2181 22.1122 28.2322 22.1213 28.2441 22.133C28.256 22.1448 28.2654 22.1589 28.2718 22.1745C28.2782 22.1902 28.2815 22.2071 28.2814 22.2241C28.2813 22.2412 28.2779 22.2581 28.2713 22.2739C28.2647 22.2897 28.2551 22.3039 28.2431 22.3159C28.2311 22.3278 28.2168 22.3371 28.2013 22.3433C28.1858 22.3495 28.1692 22.3524 28.1527 22.3518L27.1792 22.3618L27.1436 22.3556ZM61.8169 29.8242C61.7921 29.8188 61.7696 29.8055 61.7526 29.7862C61.7355 29.767 61.7248 29.7427 61.7218 29.7167C61.6831 29.3754 61.6442 29.0417 61.6023 28.7149C61.6002 28.6985 61.6013 28.6817 61.6055 28.6655C61.6098 28.6494 61.617 28.6342 61.6269 28.6209C61.6368 28.6076 61.6491 28.5963 61.6631 28.5878C61.6771 28.5794 61.6926 28.5738 61.7087 28.5714C61.7247 28.5691 61.741 28.57 61.7566 28.5741C61.7722 28.5782 61.7868 28.5855 61.7996 28.5955C61.8124 28.6055 61.8232 28.618 61.8312 28.6324C61.8393 28.6467 61.8445 28.6626 61.8466 28.6791C61.8873 29.0065 61.927 29.3414 61.9655 29.6837C61.9675 29.7001 61.9664 29.7169 61.962 29.733C61.9577 29.7491 61.9504 29.7642 61.9403 29.7774C61.9303 29.7906 61.9179 29.8016 61.9038 29.8099C61.8896 29.8181 61.8741 29.8234 61.8581 29.8255C61.8463 29.8261 61.8346 29.8251 61.8232 29.8225L61.8169 29.8242ZM30.4193 22.3366C30.3921 22.3304 30.3677 22.3149 30.3503 22.2926C30.3328 22.2703 30.3233 22.2424 30.3232 22.2135C30.3239 22.1801 30.3373 22.1481 30.3607 22.1245C30.3841 22.1009 30.4154 22.0877 30.4479 22.0877L31.4303 22.0842C31.4463 22.0841 31.4622 22.0873 31.477 22.0935C31.4918 22.0998 31.5051 22.109 31.5164 22.1206C31.5276 22.1323 31.5365 22.1461 31.5424 22.1614C31.5484 22.1767 31.5513 22.193 31.5511 22.2096C31.5505 22.2428 31.5373 22.2747 31.5142 22.2983C31.4911 22.3219 31.4601 22.3353 31.4278 22.3357L30.4454 22.3392L30.4193 22.3366ZM33.6961 22.327C33.6665 22.3205 33.6405 22.303 33.623 22.2778C33.6054 22.2526 33.5976 22.2215 33.601 22.1905C33.6044 22.1595 33.6188 22.1307 33.6414 22.1096C33.664 22.0885 33.6932 22.0767 33.7235 22.0763L34.707 22.0746C34.7394 22.0752 34.77 22.0888 34.7925 22.1125C34.815 22.1362 34.8276 22.1681 34.8275 22.2014C34.8269 22.2347 34.8137 22.2665 34.7906 22.2901C34.7675 22.3137 34.7365 22.3272 34.7042 22.3275L33.721 22.3278L33.6961 22.327ZM36.9709 22.3261C36.9435 22.3202 36.919 22.3047 36.9015 22.2823C36.884 22.26 36.8745 22.232 36.8747 22.2031C36.8757 22.1697 36.8893 22.1379 36.9126 22.1144C36.9359 22.0909 36.967 22.0776 36.9994 22.0772L37.982 22.0799C38.0143 22.0805 38.045 22.0941 38.0675 22.1178C38.09 22.1414 38.1025 22.1733 38.1025 22.2067C38.1018 22.2401 38.0883 22.2721 38.0649 22.2957C38.0416 22.3193 38.0102 22.3325 37.9777 22.3325L36.9952 22.3298L36.9709 22.3261ZM40.2474 22.3378C40.2181 22.331 40.1923 22.3133 40.1751 22.2881C40.1578 22.2628 40.1502 22.2318 40.1538 22.2009C40.1574 22.17 40.1718 22.1414 40.1944 22.1205C40.217 22.0996 40.2461 22.0878 40.2763 22.0875L41.2596 22.0934C41.2923 22.0937 41.3233 22.1074 41.3458 22.1315C41.3683 22.1555 41.3806 22.188 41.3798 22.2216C41.379 22.2553 41.3653 22.2874 41.3416 22.3109C41.3179 22.3345 41.2863 22.3475 41.2537 22.3471L40.2721 22.3401C40.2658 22.3396 40.2596 22.3382 40.2537 22.3361L40.2474 22.3378ZM61.3674 26.4864C61.3433 26.4815 61.3214 26.4692 61.3044 26.4511C61.2875 26.433 61.2763 26.4099 61.2725 26.385C61.2174 26.0371 61.162 25.7044 61.1088 25.389C61.1032 25.356 61.1105 25.3219 61.1293 25.2941C61.148 25.2664 61.1766 25.2473 61.2087 25.241C61.2407 25.2352 61.2736 25.2425 61.3002 25.2614C61.3268 25.2802 61.345 25.3092 61.351 25.342C61.4049 25.6591 61.4592 25.992 61.5141 26.3409C61.5168 26.3572 61.5163 26.3739 61.5127 26.3901C61.5091 26.4064 61.5024 26.4217 61.493 26.4353C61.4836 26.4489 61.4717 26.4605 61.458 26.4694C61.4442 26.4783 61.429 26.4843 61.4131 26.4871C61.3999 26.4885 61.3866 26.4877 61.3737 26.4847L61.3674 26.4864ZM43.5222 22.3644C43.4943 22.3586 43.4694 22.3427 43.452 22.3197C43.4345 22.2966 43.4255 22.2679 43.4267 22.2385C43.4278 22.2049 43.4416 22.173 43.4652 22.1495C43.4888 22.1261 43.5202 22.1129 43.5528 22.1129L44.5349 22.1247C44.551 22.1248 44.567 22.1283 44.5818 22.1348C44.5966 22.1414 44.6099 22.1509 44.6211 22.1628C44.6322 22.1747 44.641 22.1888 44.6468 22.2042C44.6526 22.2197 44.6554 22.2362 44.6551 22.2529C44.6547 22.2696 44.6511 22.286 44.6445 22.3014C44.638 22.3167 44.6286 22.3306 44.6169 22.3422C44.6052 22.3539 44.5914 22.3631 44.5763 22.3693C44.5612 22.3755 44.5451 22.3786 44.5289 22.3784L43.5468 22.3667L43.5222 22.3644ZM46.7978 22.408C46.77 22.4016 46.7452 22.3857 46.7276 22.3627C46.71 22.3398 46.7005 22.3112 46.7008 22.2818C46.7012 22.265 46.7049 22.2484 46.7115 22.233C46.7182 22.2176 46.7277 22.2037 46.7396 22.192C46.7514 22.1804 46.7654 22.1713 46.7806 22.1652C46.7959 22.1591 46.8121 22.1561 46.8284 22.1565L47.8109 22.1729C47.8435 22.1735 47.8744 22.1874 47.8968 22.2115C47.9192 22.2357 47.9312 22.2682 47.9302 22.3018C47.9293 22.3354 47.9154 22.3674 47.8916 22.3908C47.8678 22.4141 47.8362 22.427 47.8036 22.4264L46.8213 22.4085L46.7978 22.408ZM50.0715 22.4741C50.0408 22.4684 50.0135 22.4507 49.9952 22.4248C49.977 22.3989 49.9691 22.3666 49.9731 22.3346C49.9772 22.3026 49.993 22.2732 50.0172 22.2525C50.0414 22.2317 50.0722 22.2212 50.1035 22.2229L51.0855 22.2484C51.1183 22.2496 51.1492 22.264 51.1715 22.2885C51.1939 22.313 51.2059 22.3457 51.2051 22.3795C51.2046 22.3964 51.2009 22.4131 51.1942 22.4285C51.1874 22.444 51.1778 22.458 51.1657 22.4696C51.1537 22.4812 51.1396 22.4903 51.1242 22.4963C51.1088 22.5023 51.0925 22.505 51.0761 22.5045L50.0955 22.4793L50.0715 22.4741ZM53.3448 22.5692C53.3144 22.563 53.2874 22.5451 53.2695 22.5192C53.2516 22.4932 53.244 22.4611 53.2482 22.4292C53.2525 22.3974 53.2682 22.3683 53.2924 22.3477C53.3165 22.3271 53.3472 22.3166 53.3782 22.3182C53.7139 22.3295 54.0413 22.3421 54.3606 22.356C54.3777 22.3551 54.3947 22.3579 54.4105 22.3642C54.4264 22.3705 54.4408 22.3802 54.4527 22.3926C54.4647 22.4049 54.474 22.4198 54.48 22.4361C54.4861 22.4525 54.4887 22.47 54.4878 22.4876C54.4869 22.5052 54.4825 22.5224 54.4748 22.5382C54.4671 22.554 54.4563 22.568 54.4431 22.5794C54.4299 22.5907 54.4146 22.5992 54.3982 22.6041C54.3817 22.6091 54.3645 22.6105 54.3476 22.6083L53.3666 22.5708L53.3448 22.5692ZM56.6163 22.7142C56.586 22.7076 56.5594 22.6896 56.5418 22.6635C56.5242 22.6375 56.5168 22.6055 56.5212 22.5738C56.5256 22.5422 56.5414 22.5132 56.5655 22.4928C56.5896 22.4723 56.6201 22.4619 56.6511 22.4636C56.9916 22.482 57.3184 22.5021 57.6333 22.5227C57.6644 22.5266 57.6927 22.5427 57.7124 22.5676C57.732 22.5925 57.7417 22.6243 57.7392 22.6565C57.7368 22.6888 57.7225 22.719 57.6993 22.7411C57.6761 22.7631 57.6457 22.7753 57.6143 22.7752C57.3005 22.7564 56.9737 22.7363 56.6349 22.7167L56.6163 22.7142ZM60.7691 23.173C60.7462 23.1679 60.7252 23.1561 60.7087 23.139C60.6922 23.1219 60.6809 23.1003 60.6761 23.0766L60.6673 23.035C60.4323 23.0072 60.1721 22.9801 59.8942 22.9522C59.8782 22.9507 59.8626 22.9459 59.8484 22.9381C59.8342 22.9303 59.8217 22.9197 59.8116 22.9069C59.8014 22.894 59.7939 22.8793 59.7893 22.8633C59.7848 22.8474 59.7833 22.8307 59.785 22.8142C59.7868 22.7976 59.7917 22.7815 59.7994 22.7667C59.8072 22.752 59.8176 22.739 59.8302 22.7284C59.8428 22.7178 59.8572 22.7098 59.8728 22.7049C59.8883 22.7 59.9045 22.6982 59.9206 22.6998C60.21 22.7286 60.4802 22.7579 60.7311 22.7876C60.7715 22.7882 60.8104 22.8032 60.8409 22.8301C60.8715 22.857 60.892 22.8942 60.8988 22.9352L60.9171 23.0216C60.9209 23.0423 60.9197 23.0637 60.9136 23.084C60.9074 23.1042 60.8965 23.1226 60.8819 23.1376C60.8673 23.1525 60.8493 23.1636 60.8297 23.1698C60.81 23.176 60.7892 23.1771 60.7691 23.173Z" fill="#BDD0FB"/>
<path id="Vector_12" d="M39.6102 47.2356L32.677 47.2677C32.2389 47.2706 31.817 47.1082 31.491 46.8111C31.165 46.514 30.9575 46.1028 30.9077 45.6551L30.1629 38.7851C30.1353 38.5265 30.1614 38.264 30.2393 38.0151C30.3173 37.7661 30.4455 37.5363 30.6154 37.3408C30.7852 37.1454 30.9929 36.9887 31.2247 36.8811C31.4565 36.7736 31.7072 36.7176 31.9602 36.7169L40.2898 36.6805C40.5383 36.6787 40.7836 36.7301 41.0104 36.8315C41.2371 36.9329 41.4403 37.0821 41.6069 37.2696C41.7735 37.457 41.8999 37.6787 41.9782 37.9205C42.0564 38.1622 42.0847 38.4188 42.0613 38.6739L41.4088 45.5586C41.3622 46.0157 41.152 46.4408 40.8195 46.7508C40.4869 47.0609 40.0558 47.2337 39.6102 47.2356Z" fill="url(#paint7_linear_295_3897)"/>
<path id="Vector_13" d="M38.7672 45.9756L33.4894 46.0027C33.1561 46.0053 32.8351 45.8819 32.5871 45.6559C32.3391 45.4299 32.1815 45.1169 32.144 44.7763L31.5758 39.5481C31.555 39.3508 31.5751 39.1506 31.635 38.9609C31.6948 38.7711 31.7929 38.596 31.9228 38.4473C32.0528 38.2986 32.2115 38.1796 32.3886 38.0981C32.5656 38.0167 32.757 37.9747 32.9499 37.975L39.2905 37.9419C39.4793 37.9404 39.6658 37.9793 39.8383 38.0562C40.0107 38.133 40.1653 38.2461 40.2923 38.3884C40.4192 38.5306 40.5157 38.6989 40.5757 38.8825C40.6357 39.0661 40.6578 39.261 40.6406 39.455L40.1437 44.6932C40.1095 45.0436 39.9491 45.3696 39.6942 45.6071C39.4393 45.8445 39.1085 45.976 38.7672 45.9756Z" fill="url(#paint8_linear_295_3897)"/>
</g>
<defs>
<linearGradient id="paint0_linear_295_3897" x1="97935" y1="67760.2" x2="97069.5" y2="72371.9" gradientUnits="userSpaceOnUse">
<stop stop-color="#4042E2"/>
<stop offset="1" stop-color="#4F52FF"/>
</linearGradient>
<linearGradient id="paint1_linear_295_3897" x1="29098.8" y1="3466.91" x2="29094.6" y2="3288.56" gradientUnits="userSpaceOnUse">
<stop stop-color="#09005D"/>
<stop offset="1" stop-color="#1A0F91"/>
</linearGradient>
<linearGradient id="paint2_linear_295_3897" x1="11792.5" y1="5555.2" x2="11906.4" y2="6403.66" gradientUnits="userSpaceOnUse">
<stop stop-color="#09005D"/>
<stop offset="1" stop-color="#1A0F91"/>
</linearGradient>
<linearGradient id="paint3_linear_295_3897" x1="30252.3" y1="3435.59" x2="30248.2" y2="3257.24" gradientUnits="userSpaceOnUse">
<stop stop-color="#09005D"/>
<stop offset="1" stop-color="#1A0F91"/>
</linearGradient>
<linearGradient id="paint4_linear_295_3897" x1="12654.2" y1="5945.53" x2="12783.4" y2="6863.02" gradientUnits="userSpaceOnUse">
<stop stop-color="#09005D"/>
<stop offset="1" stop-color="#1A0F91"/>
</linearGradient>
<linearGradient id="paint5_linear_295_3897" x1="102233" y1="10543.3" x2="102154" y2="11892.9" gradientUnits="userSpaceOnUse">
<stop stop-color="#4042E2"/>
<stop offset="1" stop-color="#4F52FF"/>
</linearGradient>
<linearGradient id="paint6_linear_295_3897" x1="101225" y1="53925.8" x2="100362" y2="58839.8" gradientUnits="userSpaceOnUse">
<stop stop-color="#4042E2"/>
<stop offset="1" stop-color="#4F52FF"/>
</linearGradient>
<linearGradient id="paint7_linear_295_3897" x1="49480.3" y1="12527.4" x2="49241.9" y2="14587.6" gradientUnits="userSpaceOnUse">
<stop stop-color="#09005D"/>
<stop offset="1" stop-color="#1A0F91"/>
</linearGradient>
<linearGradient id="paint8_linear_295_3897" x1="37172.3" y1="10784.2" x2="37771.2" y2="10788.9" gradientUnits="userSpaceOnUse">
<stop stop-color="#4042E2"/>
<stop offset="1" stop-color="#4F52FF"/>
</linearGradient>
</defs>
</svg>
