<svg width="25" height="24" viewBox="0 0 25 24" fill="none" xmlns="http://www.w3.org/2000/svg">
<g id="jam:check">
<path id="Vector" d="M10.6664 16.73C10.5351 16.7303 10.4051 16.7046 10.2838 16.6545C10.1625 16.6044 10.0522 16.5308 9.95941 16.438L5.71741 12.195C5.62183 12.1028 5.54558 11.9925 5.49308 11.8706C5.44059 11.7486 5.41291 11.6174 5.41167 11.4846C5.41042 11.3519 5.43563 11.2202 5.48582 11.0972C5.53602 10.9743 5.61019 10.8626 5.70401 10.7686C5.79784 10.6747 5.90944 10.6004 6.0323 10.55C6.15516 10.4996 6.28682 10.4742 6.4196 10.4753C6.55237 10.4763 6.68361 10.5038 6.80565 10.5562C6.92769 10.6085 7.03809 10.6846 7.13041 10.78L10.6654 14.315L17.0304 7.95202C17.2179 7.76438 17.4723 7.65891 17.7376 7.65881C18.0028 7.65872 18.2573 7.76401 18.4449 7.95152C18.6325 8.13902 18.738 8.39339 18.7381 8.65866C18.7382 8.92393 18.6329 9.17838 18.4454 9.36602L11.3734 16.438C11.2806 16.5308 11.1704 16.6044 11.049 16.6545C10.9277 16.7046 10.7977 16.7303 10.6664 16.73Z" fill="#05A660"/>
</g>
</svg>
