<svg width="208" height="155" viewBox="0 0 208 155" fill="none" xmlns="http://www.w3.org/2000/svg">
<g id="Asset 1 3" clip-path="url(#clip0_295_3316)">
<g id="Layer 2">
<g id="Background Complete">
<path id="Vector" d="M208 136.214H0V136.318H208V136.214Z" fill="#D1D1D1"/>
<path id="Vector_2" d="M98.592 117.661H18.2666C17.6373 117.66 17.0342 117.409 16.5896 116.964C16.1451 116.519 15.8954 115.915 15.8954 115.286V2.37527C15.8954 1.74603 16.1451 1.1425 16.5896 0.69717C17.0342 0.25184 17.6373 0.001102 18.2666 0L98.592 0C99.222 0 99.8262 0.250251 100.272 0.695701C100.717 1.14115 100.967 1.74531 100.967 2.37527V115.286C100.967 115.598 100.906 115.907 100.787 116.195C100.667 116.483 100.492 116.745 100.272 116.966C100.051 117.186 99.7892 117.361 99.501 117.48C99.2128 117.6 98.904 117.661 98.592 117.661ZM18.2666 0.103996C17.6649 0.105098 17.0882 0.344879 16.6632 0.770706C16.2381 1.19653 15.9994 1.77361 15.9994 2.37527V115.286C15.9994 115.888 16.2381 116.465 16.6632 116.891C17.0882 117.316 17.6649 117.556 18.2666 117.557H98.592C99.1941 117.556 99.7712 117.316 100.197 116.891C100.623 116.465 100.862 115.888 100.863 115.286V2.37527C100.862 1.77323 100.623 1.19616 100.197 0.770452C99.7712 0.344743 99.1941 0.105096 98.592 0.103996H18.2666Z" fill="#D1D1D1"/>
<path id="Vector_3" d="M188.577 117.661H108.247C107.618 117.66 107.014 117.41 106.569 116.964C106.124 116.519 105.873 115.916 105.872 115.286V2.37527C105.873 1.74565 106.124 1.14213 106.569 0.696916C107.014 0.251704 107.618 0.00109978 108.247 0L188.577 0C189.205 0.00220148 189.808 0.253424 190.251 0.698636C190.695 1.14385 190.944 1.74675 190.944 2.37527V115.286C190.944 115.914 190.695 116.517 190.251 116.963C189.808 117.408 189.205 117.659 188.577 117.661ZM108.247 0.103996C107.645 0.105096 107.068 0.344743 106.642 0.770452C106.217 1.19616 105.977 1.77323 105.976 2.37527V115.286C105.977 115.888 106.217 116.465 106.642 116.891C107.068 117.316 107.645 117.556 108.247 117.557H188.577C189.179 117.556 189.756 117.316 190.182 116.891C190.608 116.465 190.847 115.888 190.848 115.286V2.37527C190.847 1.77323 190.608 1.19616 190.182 0.770452C189.756 0.344743 189.179 0.105096 188.577 0.103996H108.247Z" fill="#D1D1D1"/>
<path id="Vector_4" d="M83.383 140.174H72.567V140.278H83.383V140.174Z" fill="#D1D1D1"/>
<path id="Vector_5" d="M44.329 139.047H21.8234V139.151H44.329V139.047Z" fill="#D1D1D1"/>
<path id="Vector_6" d="M72.1511 144.039H61.2019V144.143H72.1511V144.039Z" fill="#D1D1D1"/>
<path id="Vector_7" d="M123.577 143.34H107.424V143.444H123.577V143.34Z" fill="#D1D1D1"/>
<path id="Vector_8" d="M131.726 143.34H127.279V143.444H131.726V143.34Z" fill="#D1D1D1"/>
<path id="Vector_9" d="M187.163 141.58H164.466V141.684H187.163V141.58Z" fill="#D1D1D1"/>
<path id="Vector_10" d="M158.521 132.52H177.511V80.3264H158.521V132.52Z" fill="#D6D6D6"/>
<path id="Vector_11" d="M75.5997 136.214H173.863V132.524H75.5997V136.214Z" fill="#D6D6D6"/>
<path id="Vector_12" d="M158.521 80.3267H71.9555V132.52H158.521V80.3267Z" fill="#E8E8E8"/>
<path id="Vector_13" d="M158.854 83.8584H71.9555V102.965H158.854V83.8584Z" fill="#D6D6D6"/>
<path id="Vector_14" d="M158.854 106.446H71.9555V125.552H158.854V106.446Z" fill="#D6D6D6"/>
<path id="Vector_15" d="M158.521 102.965H161.807V83.8584H158.521V102.965Z" fill="#CCCCCC"/>
<path id="Vector_16" d="M158.521 125.557H161.807V106.45H158.521V125.557Z" fill="#CCCCCC"/>
<path id="Vector_17" d="M69.4262 80.3267L158.521 80.3267V77.1153L69.4262 77.1153V80.3267Z" fill="#D6D6D6"/>
<path id="Vector_18" d="M180.165 77.1152H158.521V80.3266H180.165V77.1152Z" fill="#CCCCCC"/>
<path id="Vector_19" d="M126.643 67.2979H179.487V11.1233L126.643 11.1233V67.2979Z" fill="#E8E8E8"/>
<path id="Vector_20" d="M131.069 15.5494V62.8718H175.061V15.5494H131.069Z" fill="white"/>
<path id="Vector_21" d="M157.934 44.3317L166.342 40.4339V37.9796L157.934 34.0776V36.9895L163.043 39.1901L157.934 41.3948V44.3317Z" fill="#CCCCCC"/>
<path id="Vector_22" d="M152.452 32.946H150.917L153.637 45.4713H155.168L152.452 32.946Z" fill="#CCCCCC"/>
<path id="Vector_23" d="M148.192 41.4155L143.104 39.2108L148.192 37.0227V34.1108L139.776 37.9795V40.4338L148.183 44.3316L148.192 41.4155Z" fill="#CCCCCC"/>
<path id="Vector_24" d="M48.7635 136.214H51.6922L51.6922 40.8788H48.7635L48.7635 136.214Z" fill="#D6D6D6"/>
<path id="Vector_25" d="M48.152 135.548L48.073 135.132C48.3737 135.035 48.6516 134.877 48.8897 134.669C49.1278 134.461 49.3212 134.207 49.4582 133.922C50.2195 132.57 50.6813 129.7 48.5638 123.672C45.3024 114.391 47.2493 106.9 51.1306 91.9782C51.8045 89.3783 52.5699 86.4331 53.3645 83.2425C56.3472 71.3163 53.5891 63.92 51.3718 57.9756C49.6538 53.3624 48.2934 49.7183 50.0323 45.4961L50.4192 45.6542C48.7552 49.7267 50.0739 53.3041 51.7629 57.83C54.001 63.8285 56.784 71.2913 53.768 83.3424C52.9734 86.5247 52.208 89.474 51.5341 92.0781C47.6736 106.933 45.735 114.396 48.959 123.547C51.1347 129.745 50.623 132.736 49.791 134.159C49.6277 134.491 49.3979 134.785 49.1159 135.024C48.834 135.263 48.5059 135.442 48.152 135.548Z" fill="#D6D6D6"/>
<path id="Vector_26" d="M44.9238 136.214H55.5277L52.5782 134.475H47.8733L44.9238 136.214Z" fill="#D6D6D6"/>
<path id="Vector_27" d="M29.249 53.0171H71.2026L66.585 17.7666H33.8666L29.249 53.0171Z" fill="#E8E8E8"/>
<path id="Vector_28" d="M91.4701 58.8286H113.868L110.918 77.1153H94.4195L91.4701 58.8286Z" fill="#D6D6D6"/>
</g>
<g id="Shadow">
<path id="&#60;Path&#62;" d="M104 155C148.546 155 184.658 152.892 184.658 150.291C184.658 147.691 148.546 145.582 104 145.582C59.4537 145.582 23.3418 147.691 23.3418 150.291C23.3418 152.892 59.4537 155 104 155Z" fill="#E8E8E8"/>
</g>
<g id="Desk">
<path id="Vector_29" d="M174.412 81.5869H33.0762V86.6578H174.412V81.5869Z" fill="#DB5D8B"/>
<path id="Vector_30" opacity="0.3" d="M70.903 81.5869H33.0762V86.6578H70.903V81.5869Z" fill="white"/>
<path id="Vector_31" d="M71.5062 86.658H68.2157L69.9379 150.212H71.5062H73.0746L74.801 86.658H71.5062Z" fill="#DB5D8B"/>
<path id="Vector_32" opacity="0.3" d="M69.9379 150.212H71.5062V88.0266L68.2698 88.6173L69.9379 150.212Z" fill="white"/>
<path id="Vector_33" d="M40.3187 86.658H37.0282L38.7504 150.212H40.3187H41.8871L43.6093 86.658H40.3187Z" fill="#DB5D8B"/>
<path id="Vector_34" opacity="0.3" d="M38.7504 150.212H40.3187V88.0266L37.0781 88.6173L38.7504 150.212Z" fill="white"/>
<path id="Vector_35" d="M167.17 86.658H163.879L165.601 150.212H167.17H168.738L170.464 86.658H167.17Z" fill="#DB5D8B"/>
<path id="Vector_36" opacity="0.3" d="M165.601 150.212H167.17V88.0266L163.933 88.6173L165.601 150.212Z" fill="white"/>
<path id="Vector_37" d="M135.982 86.658H132.691L134.414 150.212H135.982H137.55L139.273 86.658H135.982Z" fill="#DB5D8B"/>
<path id="Vector_38" opacity="0.3" d="M134.414 150.212H135.982V88.0266L132.746 88.6173L134.414 150.212Z" fill="white"/>
<path id="Vector_39" d="M100.164 54.4442H66.56C66.2878 54.4336 66.0169 54.4874 65.7693 54.6013C65.5218 54.7152 65.3047 54.8859 65.1357 55.0996C64.9666 55.3132 64.8504 55.5638 64.7964 55.8308C64.7425 56.0979 64.7524 56.3739 64.8253 56.6364L69.3015 77.9972C69.4454 78.6019 69.7822 79.1432 70.261 79.5395C70.7398 79.9357 71.3346 80.1654 71.9555 80.1936H105.585C105.857 80.2035 106.128 80.1491 106.376 80.0347C106.623 79.9203 106.84 79.7492 107.009 79.5352C107.178 79.3213 107.294 79.0706 107.348 78.8033C107.402 78.5361 107.392 78.26 107.32 77.9972L102.839 56.6364C102.694 56.0289 102.354 55.4857 101.871 55.0898C101.388 54.6939 100.789 54.4671 100.164 54.4442Z" fill="#263238"/>
<path id="Vector_40" d="M72.2467 78.9748C71.8275 78.9465 71.428 78.7864 71.1053 78.5175C70.7825 78.2485 70.553 77.8844 70.4496 77.4772L65.9734 56.1164C65.9351 55.9751 65.9291 55.8269 65.9557 55.6829C65.9824 55.5389 66.041 55.4027 66.1274 55.2844C66.2169 55.1832 66.3281 55.1033 66.4527 55.0507C66.5772 54.9982 66.712 54.9743 66.847 54.9808H100.476C100.896 55.0091 101.295 55.1691 101.618 55.4381C101.941 55.707 102.17 56.0711 102.274 56.4783L106.75 77.835C106.787 77.9764 106.793 78.1244 106.767 78.2683C106.74 78.4122 106.682 78.5484 106.596 78.6669C106.507 78.7689 106.396 78.8493 106.271 78.9019C106.146 78.9545 106.011 78.978 105.876 78.9706L72.2467 78.9748Z" fill="white"/>
<path id="Vector_41" opacity="0.4" d="M97.6186 77.265L93.3754 57.0274C93.3515 56.9075 93.3544 56.7838 93.3838 56.6651C93.4132 56.5465 93.4683 56.4357 93.5454 56.3408C93.6225 56.2459 93.7195 56.1691 93.8296 56.1159C93.9397 56.0628 94.0601 56.0345 94.1824 56.0332H99.6403C99.8295 56.0347 100.013 56.1006 100.159 56.2201C100.306 56.3395 100.408 56.5055 100.447 56.6905L104.691 76.9281C104.714 77.0477 104.71 77.1709 104.681 77.2891C104.651 77.4073 104.596 77.5174 104.519 77.6119C104.442 77.7063 104.345 77.7827 104.235 77.8356C104.125 77.8885 104.005 77.9167 103.884 77.9181H98.4256C98.237 77.9169 98.0543 77.8516 97.9077 77.7329C97.7611 77.6142 97.6591 77.4493 97.6186 77.265Z" fill="#DB5D8B"/>
<path id="Vector_42" d="M68.7731 57.7886L68.5901 56.9109H75.3293L75.5123 57.7886H68.7731Z" fill="#DB5D8B"/>
<path id="Vector_43" d="M71.8848 59.9683L71.7018 59.0864H83.512L83.6992 59.9683H71.8848Z" fill="#D1D1D1"/>
<path id="Vector_44" d="M72.5088 62.1438L72.3216 61.2661H85.5629L85.7459 62.1438H72.5088Z" fill="#D1D1D1"/>
<path id="Vector_45" d="M73.1287 64.3196L72.9456 63.4419H83.6035L83.7907 64.3196H73.1287Z" fill="#D1D1D1"/>
<path id="Vector_46" d="M70.824 67.8555L70.6368 66.9778H74.9008L75.0838 67.8555H70.824Z" fill="#DB5D8B"/>
<path id="Vector_47" d="M73.9315 70.031L73.7485 69.1533H78.9402L79.1274 70.031H73.9315Z" fill="#D1D1D1"/>
<path id="Vector_48" d="M80.3712 70.031L80.184 69.1533H85.3798L85.5629 70.031H80.3712Z" fill="#D1D1D1"/>
<path id="Vector_49" d="M74.5555 72.2107L74.3725 71.3289H91.9277L92.1107 72.2107H74.5555Z" fill="#D1D1D1"/>
<path id="Vector_50" d="M75.1754 74.3863L74.9923 73.5085H88.3792L88.5622 74.3863H75.1754Z" fill="#D1D1D1"/>
<path id="Vector_51" d="M115.864 80.0645H71.6186C70.4122 80.0645 69.6301 80.7508 69.8839 81.587H118.518C118.269 80.7508 117.071 80.0645 115.864 80.0645Z" fill="#263238"/>
<path id="Vector_52" opacity="0.1" d="M57.0794 49.0404L52.832 28.8027C52.8077 28.6807 52.8111 28.5548 52.8419 28.4343C52.8727 28.3138 52.9301 28.2018 53.0099 28.1064C53.0898 28.011 53.19 27.9347 53.3032 27.8832C53.4163 27.8316 53.5397 27.8061 53.664 27.8085H88.0256C88.2148 27.81 88.3979 27.8759 88.5446 27.9954C88.6913 28.1148 88.7929 28.2808 88.8326 28.4658L93.0758 48.7034C93.0997 48.8233 93.0968 48.947 93.0674 49.0657C93.038 49.1844 92.9828 49.2951 92.9058 49.39C92.8287 49.4849 92.7317 49.5617 92.6216 49.6149C92.5115 49.6681 92.391 49.6963 92.2688 49.6976H57.9072C57.7144 49.7009 57.5265 49.6372 57.3755 49.5173C57.2245 49.3975 57.1198 49.2289 57.0794 49.0404Z" fill="#DB5D8B"/>
<path id="Vector_53" d="M69.2931 28.4783H62.0797L61.9174 27.7004H69.1309L69.2931 28.4783Z" fill="#DB5D8B"/>
<path id="Vector_54" opacity="0.4" d="M68.12 29.7137H65.2246L65.0624 28.9399H67.9578L68.12 29.7137Z" fill="#DB5D8B"/>
<path id="Vector_55" opacity="0.4" d="M72.9373 29.7137H68.4778L68.3155 28.9399H72.7751L72.9373 29.7137Z" fill="#DB5D8B"/>
<path id="Vector_56" opacity="0.4" d="M74.88 30.9534H65.4826L65.3203 30.1755H74.7219L74.88 30.9534Z" fill="#DB5D8B"/>
<path id="Vector_57" opacity="0.4" d="M73.6861 32.189H65.7405L65.5782 31.4153H73.5238L73.6861 32.189Z" fill="#DB5D8B"/>
<path id="Vector_58" opacity="0.4" d="M78.9568 45.3423H73.8982L74.0605 46.116H79.119L78.9568 45.3423Z" fill="#DB5D8B"/>
<path id="Vector_59" d="M72.6502 43.6409H65.2413L65.079 42.8672H72.488L72.6502 43.6409Z" fill="#DB5D8B"/>
<path id="Vector_60" opacity="0.4" d="M75.6288 46.5779H68.7398L68.9021 47.3558H75.7911L75.6288 46.5779Z" fill="#DB5D8B"/>
<path id="Vector_61" opacity="0.4" d="M73.5405 45.3423H68.4819L68.6442 46.116H73.7027L73.5405 45.3423Z" fill="#DB5D8B"/>
<path id="Vector_62" opacity="0.4" d="M78.3411 44.1025H68.224L68.3863 44.8804H78.5034L78.3411 44.1025Z" fill="#DB5D8B"/>
<path id="Vector_63" d="M69.0394 22.7044H60.8774L60.7152 21.9265H68.8771L69.0394 22.7044Z" fill="#DB5D8B"/>
<path id="Vector_64" opacity="0.4" d="M73.0704 25.6414H64.0682L64.2304 26.4151H73.2285L73.0704 25.6414Z" fill="#DB5D8B"/>
<path id="Vector_65" opacity="0.4" d="M71.2691 24.4016H63.8102L63.9725 25.1795H71.4314L71.2691 24.4016Z" fill="#DB5D8B"/>
<path id="Vector_66" opacity="0.4" d="M71.7641 23.166H63.5523L63.7146 23.9397H71.9264L71.7641 23.166Z" fill="#DB5D8B"/>
<path id="Vector_67" d="M68.9478 34.2022H63.2736L63.1114 33.4285H68.7856L68.9478 34.2022Z" fill="#DB5D8B"/>
<path id="Vector_68" opacity="0.4" d="M77.8586 37.1392H66.7721L66.9344 37.917H78.0167L77.8586 37.1392Z" fill="#DB5D8B"/>
<path id="Vector_69" opacity="0.4" d="M71.1069 35.9036H66.5143L66.6765 36.6773H71.2691L71.1069 35.9036Z" fill="#DB5D8B"/>
<path id="Vector_70" opacity="0.4" d="M76.0906 35.9036H71.4979L71.6602 36.6773H76.2528L76.0906 35.9036Z" fill="#DB5D8B"/>
<path id="Vector_71" opacity="0.4" d="M76.3735 34.6641H66.2563L66.4186 35.442H76.5315L76.3735 34.6641Z" fill="#DB5D8B"/>
<path id="Vector_72" opacity="0.4" d="M76.3526 40.8538H67.5459L67.7082 41.6275H76.5149L76.3526 40.8538Z" fill="#DB5D8B"/>
<path id="Vector_73" opacity="0.4" d="M69.8506 39.6143H67.288L67.4503 40.3921H70.0086L69.8506 39.6143Z" fill="#DB5D8B"/>
<path id="Vector_74" opacity="0.4" d="M73.8567 39.6143H70.2L70.3623 40.3921H74.0189L73.8567 39.6143Z" fill="#DB5D8B"/>
<path id="Vector_75" opacity="0.4" d="M77.1472 38.3787H67.0301L67.1923 39.1524H77.3094L77.1472 38.3787Z" fill="#DB5D8B"/>
<path id="Vector_76" opacity="0.4" d="M85.1136 38.1707H81.4902L81.328 37.3928H84.9555L85.1136 38.1707Z" fill="#DB5D8B"/>
<path id="Vector_77" opacity="0.4" d="M91.1456 38.1707H85.5629L85.4006 37.3928H90.9834L91.1456 38.1707Z" fill="#DB5D8B"/>
<path id="Vector_78" opacity="0.4" d="M93.5168 39.4063H81.7482L81.5859 38.6326H93.3546L93.5168 39.4063Z" fill="#DB5D8B"/>
<path id="Vector_79" opacity="0.4" d="M91.9526 40.6458H82.0061L81.8438 39.8679H91.7904L91.9526 40.6458Z" fill="#DB5D8B"/>
<path id="Vector_80" opacity="0.4" d="M96.408 33.2454H85.1386L85.3008 34.0233H96.5702L96.408 33.2454Z" fill="#DB5D8B"/>
<path id="Vector_81" opacity="0.4" d="M94.2198 32.01H84.8806L85.0429 32.7837H94.3779L94.2198 32.01Z" fill="#DB5D8B"/>
<path id="Vector_82" d="M92.5309 30.7703H82.2474L82.4096 31.5481H92.6931L92.5309 30.7703Z" fill="#DB5D8B"/>
<path id="Vector_83" opacity="0.4" d="M96.9155 45.5959H83.0378L83.2 46.3697H97.0778L96.9155 45.5959Z" fill="#DB5D8B"/>
<path id="Vector_84" opacity="0.4" d="M88.529 44.3564H82.7798L82.9421 45.1343H88.6912L88.529 44.3564Z" fill="#DB5D8B"/>
<path id="Vector_85" opacity="0.4" d="M94.769 44.3564H89.0199L89.1821 45.1343H94.9312L94.769 44.3564Z" fill="#DB5D8B"/>
<path id="Vector_86" opacity="0.4" d="M95.185 43.1208H82.5219L82.6842 43.8946H95.3472L95.185 43.1208Z" fill="#DB5D8B"/>
<path id="Vector_87" opacity="0.4" d="M94.8355 49.3066H83.8115L83.9738 50.0845H94.9977L94.8355 49.3066Z" fill="#DB5D8B"/>
<path id="Vector_88" opacity="0.4" d="M86.761 48.0713H83.5536L83.7159 48.845H86.9232L86.761 48.0713Z" fill="#DB5D8B"/>
<path id="Vector_89" opacity="0.4" d="M91.7779 48.0713H87.2019L87.3642 48.845H91.9402L91.7779 48.0713Z" fill="#DB5D8B"/>
<path id="Vector_90" opacity="0.4" d="M95.9629 46.8315H83.2957L83.4579 47.6094H96.121L95.9629 46.8315Z" fill="#DB5D8B"/>
<path id="Vector_91" opacity="0.4" d="M62.2336 50.2676H53.6058L53.768 51.0413H62.3959L62.2336 50.2676Z" fill="#DB5D8B"/>
<path id="Vector_92" opacity="0.4" d="M59.6835 49.0278H53.3478L53.5101 49.8057H59.8416L59.6835 49.0278Z" fill="#DB5D8B"/>
<path id="Vector_93" opacity="0.4" d="M66.4602 49.0278H60.1286L60.2909 49.8057H66.6266L66.4602 49.0278Z" fill="#DB5D8B"/>
<path id="Vector_94" opacity="0.4" d="M65.7571 47.7925H53.0899L53.2522 48.5662H65.9152L65.7571 47.7925Z" fill="#DB5D8B"/>
<path id="Vector_95" d="M162.635 73.5085H157.294L157.918 81.587H162.011L162.635 73.5085Z" fill="#DB5D8B"/>
<path id="Vector_96" opacity="0.4" d="M162.635 73.5085H157.294L157.918 81.587H162.011L162.635 73.5085Z" fill="white"/>
<path id="Vector_97" d="M46.2301 67.897H53.9094L51.2886 81.587H43.6093L46.2301 67.897Z" fill="#263238"/>
<path id="Vector_98" d="M56.0102 64.228H45.1651L48.2019 81.5871H59.047L56.0102 64.228Z" fill="#DB5D8B"/>
<path id="Vector_99" d="M44.5245 64.228H45.1651L48.2019 81.5871H47.5613L44.5245 64.228Z" fill="#DB5D8B"/>
<path id="Vector_100" opacity="0.3" d="M44.5245 64.228H45.1651L48.2019 81.5871H47.5613L44.5245 64.228Z" fill="black"/>
<path id="Vector_101" d="M49.7619 79.7317L47.3741 66.0833H54.4544L56.8381 79.7317H49.7619Z" fill="white"/>
<path id="Vector_102" opacity="0.6" d="M56.5011 79.7317L54.1175 66.0833H54.4544L56.8381 79.7317H56.5011Z" fill="#DB5D8B"/>
</g>
<g id="Character">
<path id="Vector_103" d="M109.728 42.0146C109.882 42.3474 109.832 42.701 109.612 42.8008C109.391 42.9007 109.092 42.7135 108.938 42.3848C108.784 42.0562 108.838 41.6985 109.054 41.5986C109.271 41.4988 109.574 41.686 109.728 42.0146Z" fill="#263238"/>
<path id="Vector_104" d="M109.861 42.6885C109.861 42.6885 109.995 44.9639 109.587 46.2784C110.419 46.5571 111.317 45.8624 111.317 45.8624L109.861 42.6885Z" fill="#FF5652"/>
<path id="Vector_105" d="M109.77 39.2857C109.735 39.3153 109.691 39.3316 109.645 39.3314C109.374 39.3391 109.109 39.4109 108.871 39.5411C108.633 39.6712 108.429 39.856 108.276 40.0802C108.247 40.1291 108.2 40.1644 108.144 40.1785C108.089 40.1925 108.03 40.1841 107.981 40.1551C107.957 40.1413 107.935 40.1227 107.918 40.1006C107.901 40.0784 107.888 40.0531 107.881 40.026C107.873 39.9989 107.872 39.9706 107.875 39.9428C107.879 39.915 107.888 39.8882 107.902 39.8639C108.091 39.5778 108.345 39.3412 108.644 39.174C108.943 39.0067 109.278 38.9138 109.62 38.903C109.649 38.9013 109.677 38.9052 109.704 38.9146C109.731 38.9239 109.756 38.9385 109.777 38.9574C109.798 38.9763 109.815 38.9993 109.828 39.0249C109.84 39.0506 109.847 39.0784 109.849 39.1068C109.85 39.1407 109.844 39.1745 109.83 39.2055C109.817 39.2365 109.796 39.2639 109.77 39.2857Z" fill="#263238"/>
<path id="Vector_106" d="M121.98 41.5154C123.265 45.9706 124.7 49.4191 126.452 51.395C126.452 51.395 126.485 54.8934 120.524 56.5574C113.967 58.3877 116.48 54.1779 116.48 54.1779C119.808 52.3227 119.492 49.5272 116.988 48.4623L121.98 41.5154Z" fill="#FF8B7B"/>
<path id="Vector_107" d="M127.841 50.5421C127.724 48.9115 127.571 47.0562 126.568 47.0104C125.461 46.9605 119.055 49.8225 117.686 51.84C116.318 53.8575 118.993 55.8334 118.993 55.8334L127.841 50.5421Z" fill="#263238"/>
<path id="Vector_108" d="M114.729 75.7299L109.196 75.551L109.296 80.1851C109.296 80.1851 114.121 79.6859 114.333 78.4172L114.729 75.7299Z" fill="#FF8B7B"/>
<path id="Vector_109" d="M106.271 77.8223L105.689 80.1934L109.296 80.1851L109.196 75.551L106.271 77.8223Z" fill="#FF8B7B"/>
<path id="Vector_110" d="M136.935 56.4742L136.818 57.6597C136.781 58.0424 136.731 58.421 136.681 58.7995C136.585 59.5525 136.465 60.3054 136.336 61.0542C136.086 62.5559 135.762 64.0451 135.387 65.551C135.006 67.0813 134.545 68.5906 134.006 70.0727C133.719 70.834 133.42 71.5952 133.062 72.3689C132.701 73.1805 132.284 73.9659 131.814 74.7192C131.701 74.9148 131.56 75.1352 131.423 75.3183C131.285 75.5013 131.152 75.7343 131.007 75.9256C130.861 76.117 130.707 76.3416 130.516 76.5371L130.245 76.8449C130.158 76.9448 130.067 77.0446 129.938 77.1694C129.104 77.986 128.126 78.6417 127.055 79.1037C125.411 79.809 123.666 80.2512 121.884 80.4141C121.073 80.5098 120.27 80.5472 119.484 80.5638C118.697 80.5805 117.911 80.5638 117.137 80.5264C116.364 80.489 115.598 80.4141 114.837 80.3267C114.076 80.2394 113.335 80.1146 112.528 79.9523L112.661 75.6053C115.317 75.1375 117.943 74.511 120.524 73.7292C121.098 73.5444 121.662 73.3278 122.212 73.0803C122.682 72.8851 123.131 72.6426 123.552 72.3565C123.796 72.2075 124.004 72.0057 124.159 71.7658L124.28 71.5744C124.337 71.4918 124.388 71.4057 124.434 71.3165C124.493 71.221 124.547 71.1224 124.596 71.0211C124.65 70.9172 124.708 70.8173 124.763 70.6925C125.252 69.6273 125.654 68.5241 125.965 67.3938C126.306 66.1708 126.626 64.8979 126.884 63.5792C127.142 62.2605 127.392 60.9294 127.62 59.5857L127.937 57.5641L128.224 55.5923L136.935 56.4742Z" fill="#DB5D8B"/>
<path id="Vector_111" opacity="0.2" d="M136.935 56.4742L136.818 57.6597C136.781 58.0424 136.731 58.421 136.681 58.7995C136.585 59.5525 136.465 60.3054 136.336 61.0542C136.086 62.5559 135.762 64.0451 135.387 65.551C135.006 67.0813 134.545 68.5906 134.006 70.0727C133.719 70.834 133.42 71.5952 133.062 72.3689C132.701 73.1805 132.284 73.9659 131.814 74.7192C131.701 74.9148 131.56 75.1352 131.423 75.3183C131.285 75.5013 131.152 75.7343 131.007 75.9256C130.861 76.117 130.707 76.3416 130.516 76.5371L130.245 76.8449C130.158 76.9448 130.067 77.0446 129.938 77.1694C129.104 77.986 128.126 78.6417 127.055 79.1037C125.411 79.809 123.666 80.2512 121.884 80.4141C121.073 80.5098 120.27 80.5472 119.484 80.5638C118.697 80.5805 117.911 80.5638 117.137 80.5264C116.364 80.489 115.598 80.4141 114.837 80.3267C114.076 80.2394 113.335 80.1146 112.528 79.9523L112.661 75.6053C115.317 75.1375 117.943 74.511 120.524 73.7292C121.098 73.5444 121.662 73.3278 122.212 73.0803C122.682 72.8851 123.131 72.6426 123.552 72.3565C123.796 72.2075 124.004 72.0057 124.159 71.7658L124.28 71.5744C124.337 71.4918 124.388 71.4057 124.434 71.3165C124.493 71.221 124.547 71.1224 124.596 71.0211C124.65 70.9172 124.708 70.8173 124.763 70.6925C125.252 69.6273 125.654 68.5241 125.965 67.3938C126.306 66.1708 126.626 64.8979 126.884 63.5792C127.142 62.2605 127.392 60.9294 127.62 59.5857L127.937 57.5641L128.224 55.5923L136.935 56.4742Z" fill="#0177FF"/>
<path id="Vector_112" d="M112.37 61.9817C114.432 70.8762 115.593 79.9558 115.835 89.0831H140.192C140.325 86.0714 139.818 69.1158 137.367 56.8609C137.15 55.751 136.714 54.6957 136.083 53.7571C135.452 52.8185 134.64 52.0155 133.694 51.3953C132.748 50.7752 131.688 50.3504 130.576 50.146C129.463 49.9416 128.321 49.9617 127.217 50.2052L127.1 50.2301C124.059 50.9248 119.696 52.0397 117.116 53.0172L117.012 53.0547C115.287 53.7261 113.865 55.0019 113.011 56.6444C112.157 58.2868 111.929 60.1837 112.37 61.9817Z" fill="#0177FF"/>
<path id="Vector_113" opacity="0.2" d="M113.955 69.7815C114.146 70.9505 114.342 72.1859 114.521 73.488C116.513 71.408 117.146 65.031 117.146 65.031L113.955 69.7815Z" fill="#0177FF"/>
<path id="Vector_114" d="M93.7206 76.0295L88.192 75.5137L88.0089 80.1477C88.9226 80.4 89.888 80.3972 90.8002 80.1398C91.7125 79.8824 92.5369 79.3802 93.184 78.6876L93.7206 76.0295Z" fill="#FF8B7B"/>
<path id="Vector_115" d="M85.5629 76.8823L83.7907 80.0645L88.0256 80.1477L88.2086 75.5137L85.5629 76.8823Z" fill="#FF8B7B"/>
<path id="Vector_116" d="M121.509 59.8644C121.127 60.5966 120.786 61.2372 120.403 61.9069C120.02 62.5767 119.654 63.2214 119.259 63.8662C118.477 65.1599 117.666 66.437 116.809 67.6974C115.087 70.2778 113.181 72.7302 111.105 75.0354C109.993 76.2746 108.784 77.4235 107.49 78.4714C107.328 78.6129 107.137 78.746 106.958 78.8874C106.779 79.0288 106.621 79.1495 106.355 79.3034C106.088 79.4573 105.864 79.6112 105.622 79.7402C105.381 79.8691 105.132 79.9939 104.886 80.1062C103.968 80.5026 103.008 80.7943 102.024 80.9756C100.303 81.2658 98.5483 81.305 96.8157 81.0921C96.0048 80.995 95.1995 80.8562 94.4029 80.6761C93.9869 80.5846 93.6166 80.4806 93.2298 80.36C92.8429 80.2393 92.4768 80.1146 92.0317 79.944L92.7181 75.651C95.3306 75.2975 98.1552 74.8399 100.102 73.9622C100.535 73.7849 100.942 73.5498 101.313 73.2633C101.462 73.1618 101.601 73.0462 101.729 72.918C101.758 72.8806 101.887 72.7683 101.982 72.6768C102.078 72.5852 102.19 72.4979 102.294 72.3897C103.183 71.5055 104.016 70.5677 104.79 69.5818C106.465 67.4213 108.03 65.1777 109.479 62.8595C110.228 61.6823 110.956 60.4843 111.684 59.2821L112.757 57.4725L113.793 55.7004L121.509 59.8644Z" fill="#0177FF"/>
<path id="Vector_117" d="M114.824 146.697H110.273L107.981 136.152H112.536L114.824 146.697Z" fill="#FF8B7B"/>
<path id="Vector_118" d="M110.02 145.719H115.136C115.226 145.723 115.312 145.755 115.381 145.811C115.451 145.868 115.501 145.945 115.523 146.031L116.422 150.079C116.447 150.179 116.448 150.283 116.426 150.384C116.404 150.485 116.359 150.579 116.295 150.66C116.231 150.74 116.148 150.805 116.055 150.848C115.961 150.892 115.859 150.913 115.756 150.911C113.972 150.882 113.102 150.774 110.852 150.774C109.466 150.774 107.69 150.919 105.78 150.919C103.871 150.919 103.617 149.031 104.399 148.839C107.91 148.074 108.143 147.013 109.279 146.007C109.482 145.822 109.746 145.72 110.02 145.719Z" fill="#263238"/>
<g id="Group" opacity="0.2">
<path id="Vector_119" opacity="0.2" d="M112.54 136.156H107.981L109.254 141.992L113.722 141.589L112.54 136.156Z" fill="black"/>
</g>
<path id="Vector_120" d="M120.519 36.1907C122.183 40.4005 123.34 42.7799 122.242 45.8374C120.578 50.4382 114.675 50.9 111.804 47.2684C109.225 43.9946 106.97 37.6592 110.227 34.1774C110.941 33.4055 111.84 32.8289 112.839 32.5025C113.838 32.176 114.904 32.1106 115.935 32.3124C116.967 32.5142 117.929 32.9765 118.732 33.6553C119.534 34.3341 120.15 35.207 120.519 36.1907Z" fill="#FF8B7B"/>
<path id="Vector_121" d="M112.524 42.4762C111.842 43.3914 111.317 44.0861 111.317 44.0861C111.317 44.0861 109.916 40.6043 110.452 39.0069C109.77 37.655 108.393 39.6476 107.873 37.0144C107.353 34.3812 109.604 31.5525 110.452 30.9659C110.54 31.2728 110.579 31.5913 110.569 31.9102C112.861 30.0479 115.776 29.126 118.722 29.3311C118.476 29.6988 118.319 30.1191 118.265 30.5583C118.265 30.5583 123.203 31.3903 124.326 34.1857C123.929 33.9889 123.51 33.8409 123.078 33.7447C123.984 35.0438 124.342 36.647 124.076 38.2082C123.718 40.483 123.531 42.7816 123.519 45.0845C123.564 46.2659 120.324 48.5247 118.348 46.1078C116.372 43.6909 112.524 42.4762 112.524 42.4762Z" fill="#263238"/>
<path id="Vector_122" d="M114.583 41.5694C114.84 42.55 114.767 43.5879 114.375 44.5229C113.847 45.7458 112.761 45.4671 112.224 44.3814C111.738 43.4039 111.426 41.586 112.287 40.7166C113.148 39.8472 114.259 40.3921 114.583 41.5694Z" fill="#FF8B7B"/>
<path id="Vector_123" d="M123.136 89.0833C123.136 89.0833 101.987 96.7498 101.367 106.908C100.219 125.598 107.86 140.395 107.86 140.395L114.866 139.646C114.866 139.646 113.618 133.631 112.69 116.696C111.521 95.4229 147.634 117.195 140.196 89.0916L123.136 89.0833Z" fill="#0177FF"/>
<path id="Vector_124" opacity="0.5" d="M123.136 89.0833C123.136 89.0833 101.987 96.7498 101.367 106.908C100.219 125.598 107.86 140.395 107.86 140.395L114.866 139.646C114.866 139.646 113.618 133.631 112.69 116.696C111.521 95.4229 147.634 117.195 140.196 89.0916L123.136 89.0833Z" fill="white"/>
<path id="Vector_125" d="M105.922 137.807C105.889 137.807 107.037 140.915 107.037 140.915L115.773 140.062L115.336 137.233L105.922 137.807Z" fill="#0177FF"/>
<path id="Vector_126" d="M95.1517 147.213H90.5965L89.2653 136.668H93.8205L95.1517 147.213Z" fill="#FF8B7B"/>
<path id="Vector_127" d="M90.5632 145.72H95.5552C95.6458 145.719 95.734 145.749 95.8046 145.806C95.8751 145.863 95.9237 145.943 95.9421 146.031L96.8489 150.079C96.8717 150.177 96.8719 150.278 96.8495 150.376C96.8271 150.474 96.7828 150.565 96.7199 150.644C96.657 150.722 96.5771 150.785 96.4863 150.827C96.3955 150.87 96.2961 150.892 96.1958 150.89C94.4029 150.861 91.807 150.761 89.5398 150.761C86.9024 150.761 86.399 150.911 83.2998 150.915C81.4278 150.915 80.9078 149.027 81.6899 148.856C85.2509 148.074 86.3907 147.987 89.4649 146.086C89.789 145.862 90.1698 145.735 90.5632 145.72Z" fill="#263238"/>
<path id="Vector_128" opacity="0.2" d="M89.2694 136.672L89.9933 142.417L94.511 142.109L93.8246 136.672H89.2694Z" fill="black"/>
<path id="Vector_129" d="M115.835 89.083C115.835 89.083 81.1824 92.1572 81.5568 109.562C81.9437 127.666 88.7078 139.875 88.7078 139.875H95.472C95.472 139.875 94.1907 130.482 94.4195 112.661C94.4861 107.32 105.277 105.556 115.81 104.936C124.912 104.395 133.432 99.2081 136.968 90.7927L137.692 89.0706L115.835 89.083Z" fill="#0177FF"/>
<path id="Vector_130" opacity="0.5" d="M115.835 89.0833C115.835 89.0833 81.1824 92.1574 81.5568 109.562C81.9437 127.666 88.7078 139.875 88.7078 139.875H95.472C95.472 139.875 94.1907 130.482 94.4195 112.661C94.4861 107.32 105.277 105.556 115.81 104.936C124.912 104.396 133.432 99.2083 136.968 90.793L137.692 89.0708L115.835 89.0833Z" fill="white"/>
<path id="Vector_131" d="M87.1229 138.053C87.0938 138.053 88.2835 141.181 88.2835 141.181L96.4537 140.599L95.9753 137.766L87.1229 138.053Z" fill="#0177FF"/>
<path id="Vector_132" d="M124.933 69.5235L120.536 86.4666C119.412 90.8059 118.844 95.2706 118.847 99.7531V107.632C118.847 109.62 120.311 111.23 122.121 111.23H144.66C146.469 111.23 147.934 109.62 147.934 107.632V99.7531C147.933 95.2704 148.501 90.8057 149.627 86.4666L153.508 71.4911C154.107 69.1907 152.535 66.9153 150.359 66.9153H128.078C127.338 66.9386 126.628 67.2076 126.058 67.68C125.489 68.1523 125.093 68.801 124.933 69.5235Z" fill="#263238"/>
<path id="Vector_133" d="M96.8988 103.027L97.6352 107.228C98.0262 109.441 99.9689 111.23 101.978 111.23H127.034C129.043 111.23 130.362 109.441 129.971 107.228L129.235 103.027C128.789 100.531 126.58 98.4761 124.292 98.4761H100.256C97.9513 98.4761 96.4579 100.514 96.8988 103.027Z" fill="#263238"/>
<path id="Vector_134" d="M129.447 115.452H116.322L115.041 111.23H130.728L129.447 115.452Z" fill="#0177FF"/>
<path id="Vector_135" d="M125.228 115.452H120.54V146.822H125.228V115.452Z" fill="#DB5D8B"/>
<path id="Vector_136" opacity="0.7" d="M125.228 146.822H120.54V116.205L125.228 116.684V146.822Z" fill="#0177FF"/>
<path id="Vector_137" opacity="0.7" d="M124.084 146.822H122.965V116.451L124.084 116.567V146.822Z" fill="white"/>
<path id="Vector_138" d="M133.665 151.668H112.099C111.974 151.668 111.851 151.629 111.749 151.555C111.647 151.481 111.571 151.377 111.532 151.257C111.493 151.137 111.493 151.008 111.533 150.888C111.572 150.769 111.648 150.664 111.75 150.591L115.17 148.095C116.812 146.889 118.797 146.239 120.835 146.24H124.933C126.969 146.238 128.953 146.887 130.595 148.091L134.019 150.587C134.123 150.66 134.201 150.765 134.241 150.886C134.281 151.006 134.282 151.137 134.242 151.258C134.203 151.379 134.125 151.485 134.021 151.558C133.917 151.632 133.792 151.671 133.665 151.668Z" fill="#0177FF"/>
</g>
</g>
</g>
<defs>
<clipPath id="clip0_295_3316">
<rect width="208" height="155" fill="white"/>
</clipPath>
</defs>
</svg>
