<svg width="208" height="155" fill="none" xmlns="http://www.w3.org/2000/svg"><g clip-path="url(#clip0_295_3316)"><path d="M208 136.214H0v.104h208v-.104zM98.592 117.661H18.267a2.376 2.376 0 01-2.372-2.375V2.376A2.375 2.375 0 0118.267 0h80.325a2.377 2.377 0 012.375 2.375v112.911a2.38 2.38 0 01-.695 1.68 2.382 2.382 0 01-1.68.695zM18.267.104a2.271 2.271 0 00-2.268 2.271v112.911a2.272 2.272 0 002.268 2.271h80.325a2.278 2.278 0 002.271-2.271V2.376A2.273 2.273 0 0098.592.103H18.267zm170.31 117.557h-80.33a2.376 2.376 0 01-2.375-2.375V2.376A2.38 2.38 0 01108.247 0h80.33a2.375 2.375 0 012.367 2.375v112.911a2.377 2.377 0 01-2.367 2.375zM108.247.104a2.276 2.276 0 00-2.271 2.271v112.911c.001.602.241 1.179.666 1.605a2.279 2.279 0 001.605.666h80.33a2.274 2.274 0 002.271-2.271V2.376a2.273 2.273 0 00-2.271-2.272h-80.33zm-24.864 140.07H72.567v.104h10.816v-.104zm-39.054-1.127H21.823v.104H44.33v-.104zm27.822 4.992h-10.95v.104h10.95v-.104zm51.426-.699h-16.153v.104h16.153v-.104zm8.149 0h-4.447v.104h4.447v-.104zm55.437-1.76h-22.697v.104h22.697v-.104z" fill="#D1D1D1"/><path d="M158.521 132.52h18.99V80.326h-18.99v52.194zM75.6 136.214h98.263v-3.69H75.6v3.69z" fill="#D6D6D6"/><path d="M158.521 80.327H71.956v52.193h86.565V80.327z" fill="#E8E8E8"/><path d="M158.854 83.858H71.955v19.107h86.899V83.858zm0 22.588H71.955v19.106h86.899v-19.106z" fill="#D6D6D6"/><path d="M158.521 102.965h3.286V83.858h-3.286v19.107zm0 22.592h3.286V106.45h-3.286v19.107z" fill="#CCC"/><path d="M69.426 80.327h89.095v-3.212H69.426v3.212z" fill="#D6D6D6"/><path d="M180.165 77.115h-21.644v3.212h21.644v-3.212z" fill="#CCC"/><path d="M126.643 67.298h52.844V11.123h-52.844v56.175z" fill="#E8E8E8"/><path d="M131.069 15.55v47.322h43.992V15.549h-43.992z" fill="#fff"/><path d="M157.934 44.332l8.408-3.898V37.98l-8.408-3.902v2.911l5.109 2.201-5.109 2.205v2.937zm-5.482-11.386h-1.535l2.72 12.525h1.531l-2.716-12.525zm-4.26 8.47l-5.088-2.205 5.088-2.188V34.11l-8.416 3.869v2.454l8.407 3.898.009-2.916z" fill="#CCC"/><path d="M48.764 136.214h2.928V40.879h-2.928v95.335z" fill="#D6D6D6"/><path d="M48.152 135.548l-.079-.416a2.33 2.33 0 001.385-1.21c.761-1.352 1.223-4.222-.894-10.25-3.262-9.281-1.315-16.772 2.567-31.694.673-2.6 1.439-5.545 2.233-8.735 2.983-11.927.225-19.323-1.992-25.267-1.718-4.614-3.079-8.258-1.34-12.48l.387.158c-1.664 4.073-.345 7.65 1.344 12.176 2.238 5.998 5.021 13.461 2.005 25.512-.795 3.183-1.56 6.132-2.234 8.736-3.86 14.855-5.799 22.318-2.575 31.469 2.176 6.198 1.664 9.189.832 10.612a2.69 2.69 0 01-1.639 1.389z" fill="#D6D6D6"/><path d="M44.924 136.214h10.604l-2.95-1.739h-4.705l-2.95 1.739z" fill="#D6D6D6"/><path d="M29.249 53.017h41.954l-4.618-35.25H33.867l-4.618 35.25z" fill="#E8E8E8"/><path d="M91.47 58.829h22.398l-2.95 18.286H94.419L91.47 58.83z" fill="#D6D6D6"/><path d="M104 155c44.546 0 80.658-2.108 80.658-4.709 0-2.6-36.112-4.709-80.658-4.709s-80.658 2.109-80.658 4.709c0 2.601 36.112 4.709 80.658 4.709z" fill="#E8E8E8"/><path d="M174.412 81.587H33.076v5.07h141.336v-5.07z" fill="#DB5D8B"/><path opacity=".3" d="M70.903 81.587H33.076v5.07h37.827v-5.07z" fill="#fff"/><path d="M71.506 86.658h-3.29l1.722 63.554h3.137L74.8 86.658h-3.295z" fill="#DB5D8B"/><path opacity=".3" d="M69.938 150.212h1.568V88.027l-3.236.59 1.668 61.595z" fill="#fff"/><path d="M40.319 86.658h-3.29l1.721 63.554h3.137l1.722-63.554h-3.29z" fill="#DB5D8B"/><path opacity=".3" d="M38.75 150.212h1.569V88.027l-3.24.59 1.671 61.595z" fill="#fff"/><path d="M167.17 86.658h-3.291l1.722 63.554h3.137l1.726-63.554h-3.294z" fill="#DB5D8B"/><path opacity=".3" d="M165.601 150.212h1.569V88.027l-3.237.59 1.668 61.595z" fill="#fff"/><path d="M135.982 86.658h-3.291l1.723 63.554h3.136l1.723-63.554h-3.291z" fill="#DB5D8B"/><path opacity=".3" d="M134.414 150.212h1.568V88.027l-3.236.59 1.668 61.595z" fill="#fff"/><path d="M100.164 54.444H66.56a1.73 1.73 0 00-1.735 2.192l4.477 21.361a2.862 2.862 0 002.653 2.197h33.63a1.738 1.738 0 001.763-1.39 1.744 1.744 0 00-.028-.807l-4.481-21.36a2.857 2.857 0 00-2.675-2.193z" fill="#263238"/><path d="M72.247 78.975a1.993 1.993 0 01-1.797-1.498l-4.477-21.36a.978.978 0 01.154-.833.903.903 0 01.72-.303h33.629a1.992 1.992 0 011.798 1.497l4.476 21.357a.988.988 0 01-.154.832.889.889 0 01-.72.304l-33.63.004z" fill="#fff"/><path opacity=".4" d="M97.619 77.265l-4.244-20.238a.831.831 0 01.807-.994h5.458a.83.83 0 01.807.657l4.244 20.238a.845.845 0 01-.172.684.832.832 0 01-.635.306h-5.458a.832.832 0 01-.807-.653z" fill="#DB5D8B"/><path d="M68.773 57.789l-.183-.878h6.74l.182.878h-6.739z" fill="#DB5D8B"/><path d="M71.885 59.968l-.183-.882h11.81l.187.882H71.885zm.624 2.176l-.187-.878h13.24l.184.878H72.509zm.62 2.176l-.183-.878h10.657l.188.878H73.129z" fill="#D1D1D1"/><path d="M70.824 67.856l-.187-.878H74.9l.183.878h-4.26z" fill="#DB5D8B"/><path d="M73.931 70.031l-.182-.878h5.191l.187.878h-5.195zm6.44 0l-.187-.878h5.196l.183.878H80.37zm-5.816 2.179l-.183-.881h17.556l.183.882H74.555zm.62 2.176l-.183-.877H88.38l.183.877H75.175z" fill="#D1D1D1"/><path d="M115.864 80.064H71.619c-1.207 0-1.989.687-1.735 1.523h48.634c-.249-.836-1.447-1.523-2.654-1.523z" fill="#263238"/><path opacity=".1" d="M57.08 49.04l-4.248-20.237a.832.832 0 01.832-.995h34.362a.832.832 0 01.807.658l4.243 20.237a.831.831 0 01-.807.995H57.907a.832.832 0 01-.828-.658z" fill="#DB5D8B"/><path d="M69.293 28.478H62.08l-.163-.778h7.214l.162.778z" fill="#DB5D8B"/><path opacity=".4" d="M68.12 29.714h-2.895l-.163-.774h2.896l.162.774zm4.817 0h-4.46l-.162-.774h4.46l.162.774zm1.943 1.239h-9.397l-.163-.777h9.402l.158.777zm-1.194 1.236H65.74l-.162-.774h7.946l.162.774zm5.271 13.153h-5.059l.163.774h5.058l-.162-.774z" fill="#DB5D8B"/><path d="M72.65 43.64h-7.409l-.162-.773h7.409l.162.774z" fill="#DB5D8B"/><path opacity=".4" d="M75.629 46.578h-6.89l.163.778h6.89l-.163-.778zm-2.089-1.236h-5.058l.162.774h5.059l-.163-.774zm4.801-1.24H68.224l.162.778h10.117l-.162-.778z" fill="#DB5D8B"/><path d="M69.04 22.704h-8.163l-.162-.777h8.162l.162.777z" fill="#DB5D8B"/><path opacity=".4" d="M73.07 25.641h-9.002l.162.774h8.998l-.158-.774zm-1.8-1.239h-7.46l.162.777h7.46l-.163-.777zm.494-1.236h-8.212l.163.774h8.211l-.162-.774z" fill="#DB5D8B"/><path d="M68.948 34.202h-5.674l-.163-.773h5.675l.162.773z" fill="#DB5D8B"/><path opacity=".4" d="M77.859 37.14H66.772l.162.777h11.083l-.158-.778zm-6.752-1.236h-4.593l.163.773h4.592l-.162-.773zm4.983 0h-4.592l.162.773h4.593l-.162-.773zm.284-1.24H66.256l.163.778H76.53l-.157-.778zm-.021 6.19h-8.807l.162.773h8.807l-.162-.773zm-6.503-1.24h-2.562l.162.778h2.559l-.158-.778zm4.007 0H70.2l.162.778h3.657l-.162-.778zm3.29-1.235H67.03l.162.773H77.31l-.162-.773zm7.967-.209H81.49l-.162-.777h3.627l.159.778zm6.032 0h-5.583l-.162-.777h5.582l.163.778zm2.371 1.236H81.748l-.162-.773h11.769l.162.773zm-1.564 1.24h-9.947l-.162-.778h9.946l.163.778zm4.455-7.401h-11.27l.163.778h11.27l-.163-.778zM94.22 32.01h-9.34l.163.774h9.335l-.158-.774z" fill="#DB5D8B"/><path d="M92.53 30.77H82.248l.163.778h10.283l-.162-.778z" fill="#DB5D8B"/><path opacity=".4" d="M96.915 45.596H83.038l.162.774h13.878l-.163-.774zm-8.386-1.24h-5.75l.163.778h5.75l-.163-.778zm6.24 0h-5.75l.163.778h5.75l-.163-.778zm.416-1.236H82.522l.162.775h12.663l-.162-.774zm-.35 6.187H83.813l.162.777h11.024l-.163-.777zm-8.074-1.236h-3.207l.162.774h3.207l-.162-.774zm5.017 0h-4.576l.162.774h4.576l-.162-.774zm4.185-1.24H83.296l.162.778H96.12l-.158-.778zm-33.729 3.437h-8.628l.162.773h8.628l-.162-.773zm-2.55-1.24h-6.336l.162.778h6.332l-.158-.778zm6.776 0h-6.33l.162.778h6.336l-.167-.778zm-.703-1.236H53.09l.162.774h12.663l-.158-.774z" fill="#DB5D8B"/><path d="M162.635 73.508h-5.341l.624 8.079h4.093l.624-8.079z" fill="#DB5D8B"/><path opacity=".4" d="M162.635 73.508h-5.341l.624 8.079h4.093l.624-8.079z" fill="#fff"/><path d="M46.23 67.897h7.68l-2.621 13.69h-7.68l2.621-13.69z" fill="#263238"/><path d="M56.01 64.228H45.165l3.037 17.36h10.845l-3.037-17.36z" fill="#DB5D8B"/><path d="M44.525 64.228h.64l3.037 17.36h-.64l-3.037-17.36z" fill="#DB5D8B"/><path opacity=".3" d="M44.525 64.228h.64l3.037 17.36h-.64l-3.037-17.36z" fill="#000"/><path d="M49.762 79.732l-2.388-13.649h7.08l2.384 13.649h-7.076z" fill="#fff"/><path opacity=".6" d="M56.501 79.732l-2.383-13.649h.336l2.384 13.649h-.337z" fill="#DB5D8B"/><path d="M109.728 42.015c.154.332.104.686-.116.786-.221.1-.52-.087-.674-.416-.154-.329-.1-.686.116-.786.217-.1.52.087.674.416z" fill="#263238"/><path d="M109.861 42.688s.134 2.276-.274 3.59c.832.28 1.73-.416 1.73-.416l-1.456-3.174z" fill="#FF5652"/><path d="M109.77 39.286a.192.192 0 01-.125.045 1.713 1.713 0 00-1.369.75.216.216 0 01-.295.075.215.215 0 01-.106-.213.22.22 0 01.027-.08 2.143 2.143 0 011.718-.96.215.215 0 01.208.122.232.232 0 01.021.082.223.223 0 01-.079.179z" fill="#263238"/><path d="M121.98 41.515c1.285 4.456 2.72 7.904 4.472 9.88 0 0 .033 3.498-5.928 5.162-6.557 1.83-4.044-2.38-4.044-2.38 3.328-1.854 3.012-4.65.508-5.715l4.992-6.947z" fill="#FF8B7B"/><path d="M127.841 50.542c-.117-1.63-.27-3.486-1.273-3.532-1.107-.05-7.513 2.813-8.882 4.83-1.368 2.017 1.307 3.993 1.307 3.993l8.848-5.29z" fill="#263238"/><path d="M114.729 75.73l-5.533-.179.1 4.634s4.825-.5 5.037-1.768l.396-2.687z" fill="#FF8B7B"/><path d="M106.271 77.822l-.582 2.371 3.607-.008-.1-4.634-2.925 2.271z" fill="#FF8B7B"/><path d="M136.935 56.474l-.117 1.186c-.037.382-.087.761-.137 1.14a52.155 52.155 0 01-.345 2.254 57.998 57.998 0 01-.949 4.497 45.137 45.137 0 01-1.381 4.522 33.715 33.715 0 01-.944 2.296 19.12 19.12 0 01-1.248 2.35 6.34 6.34 0 01-.391.6c-.138.182-.271.415-.416.607-.146.191-.3.416-.491.611l-.271.308c-.087.1-.178.2-.307.324a9.5 9.5 0 01-2.883 1.935 17.053 17.053 0 01-5.171 1.31c-.811.096-1.614.133-2.4.15-.787.017-1.573 0-2.347-.038a34.947 34.947 0 01-2.3-.2 27.36 27.36 0 01-2.309-.374l.133-4.347a67.533 67.533 0 007.863-1.876 16.25 16.25 0 001.688-.649c.47-.195.919-.437 1.34-.724a1.89 1.89 0 00.607-.59l.121-.192c.057-.082.108-.168.154-.257a3.4 3.4 0 00.162-.296c.054-.104.112-.204.167-.329a21.714 21.714 0 001.202-3.298c.341-1.223.661-2.496.919-3.815s.508-2.65.736-3.993l.317-2.022.287-1.972 8.711.882z" fill="#DB5D8B"/><path opacity=".2" d="M136.935 56.474l-.117 1.186c-.037.382-.087.761-.137 1.14a52.155 52.155 0 01-.345 2.254 57.998 57.998 0 01-.949 4.497 45.137 45.137 0 01-1.381 4.522 33.715 33.715 0 01-.944 2.296 19.12 19.12 0 01-1.248 2.35 6.34 6.34 0 01-.391.6c-.138.182-.271.415-.416.607-.146.191-.3.416-.491.611l-.271.308c-.087.1-.178.2-.307.324a9.5 9.5 0 01-2.883 1.935 17.053 17.053 0 01-5.171 1.31c-.811.096-1.614.133-2.4.15-.787.017-1.573 0-2.347-.038a34.947 34.947 0 01-2.3-.2 27.36 27.36 0 01-2.309-.374l.133-4.347a67.533 67.533 0 007.863-1.876 16.25 16.25 0 001.688-.649c.47-.195.919-.437 1.34-.724a1.89 1.89 0 00.607-.59l.121-.192c.057-.082.108-.168.154-.257a3.4 3.4 0 00.162-.296c.054-.104.112-.204.167-.329a21.714 21.714 0 001.202-3.298c.341-1.223.661-2.496.919-3.815s.508-2.65.736-3.993l.317-2.022.287-1.972 8.711.882z" fill="#0177FF"/><path d="M112.37 61.982a135.96 135.96 0 013.465 27.101h24.357c.133-3.012-.374-19.967-2.825-32.222a8.478 8.478 0 00-10.15-6.656l-.117.025c-3.041.695-7.404 1.81-9.984 2.787l-.104.038a7.628 7.628 0 00-4.642 8.927z" fill="#0177FF"/><path opacity=".2" d="M113.955 69.781c.191 1.17.387 2.405.566 3.707 1.992-2.08 2.625-8.457 2.625-8.457l-3.191 4.75z" fill="#0177FF"/><path d="M93.72 76.03l-5.528-.516-.183 4.634a5.191 5.191 0 005.175-1.46l.537-2.659z" fill="#FF8B7B"/><path d="M85.563 76.882l-1.772 3.182 4.235.084.183-4.634-2.646 1.368z" fill="#FF8B7B"/><path d="M121.509 59.864a58.681 58.681 0 01-1.106 2.043c-.383.67-.749 1.314-1.144 1.96a84.989 84.989 0 01-2.45 3.83 64.3 64.3 0 01-5.704 7.338 31.451 31.451 0 01-3.615 3.436c-.162.142-.353.275-.532.416a4.551 4.551 0 01-.603.416c-.267.154-.491.308-.733.437-.241.13-.49.254-.736.366-.918.397-1.878.688-2.862.87-1.721.29-3.476.329-5.208.116a23.741 23.741 0 01-2.413-.416 13.789 13.789 0 01-1.173-.316c-.387-.12-.753-.245-1.198-.416l.686-4.293c2.613-.353 5.437-.811 7.384-1.689.433-.177.84-.412 1.211-.699.149-.101.288-.217.416-.345.029-.037.158-.15.253-.241.096-.092.208-.18.312-.287a30.675 30.675 0 002.496-2.808 81.305 81.305 0 004.689-6.722 189.929 189.929 0 002.205-3.578l1.073-1.81 1.036-1.772 7.716 4.164z" fill="#0177FF"/><path d="M114.824 146.697h-4.551l-2.292-10.545h4.555l2.288 10.545z" fill="#FF8B7B"/><path d="M110.02 145.719h5.116a.418.418 0 01.387.312l.899 4.048a.669.669 0 01-.367.769.673.673 0 01-.299.063c-1.784-.029-2.654-.137-4.904-.137-1.386 0-3.162.145-5.072.145-1.909 0-2.163-1.888-1.381-2.08 3.511-.765 3.744-1.826 4.88-2.832.203-.185.467-.287.741-.288z" fill="#263238"/><path opacity=".2" d="M112.54 136.156h-4.559l1.273 5.836 4.468-.403-1.182-5.433z" fill="#000"/><path d="M120.519 36.19c1.664 4.21 2.821 6.59 1.723 9.647-1.664 4.601-7.567 5.063-10.438 1.431-2.579-3.273-4.834-9.609-1.577-13.09a6.167 6.167 0 015.708-1.866 6.164 6.164 0 014.584 3.879z" fill="#FF8B7B"/><path d="M112.524 42.476c-.682.915-1.207 1.61-1.207 1.61s-1.401-3.482-.865-5.08c-.682-1.351-2.059.642-2.579-1.992-.52-2.633 1.731-5.462 2.579-6.048.088.307.127.625.117.944a11.647 11.647 0 018.153-2.579 2.828 2.828 0 00-.457 1.227s4.938.832 6.061 3.628a5.503 5.503 0 00-1.248-.441 6.031 6.031 0 01.998 4.463 45.766 45.766 0 00-.557 6.877c.045 1.18-3.195 3.44-5.171 1.023-1.976-2.417-5.824-3.632-5.824-3.632z" fill="#263238"/><path d="M114.583 41.57c.257.98.184 2.018-.208 2.953-.528 1.223-1.614.944-2.151-.142-.486-.977-.798-2.795.063-3.664.861-.87 1.972-.325 2.296.852z" fill="#FF8B7B"/><path d="M123.136 89.083s-21.149 7.667-21.769 17.825c-1.148 18.69 6.493 33.487 6.493 33.487l7.006-.749s-1.248-6.015-2.176-22.95c-1.169-21.273 34.944.499 27.506-27.604l-17.06-.009z" fill="#0177FF"/><path opacity=".5" d="M123.136 89.083s-21.149 7.667-21.769 17.825c-1.148 18.69 6.493 33.487 6.493 33.487l7.006-.749s-1.248-6.015-2.176-22.95c-1.169-21.273 34.944.499 27.506-27.604l-17.06-.009z" fill="#fff"/><path d="M105.922 137.807c-.033 0 1.115 3.108 1.115 3.108l8.736-.853-.437-2.829-9.414.574z" fill="#0177FF"/><path d="M95.152 147.213h-4.555l-1.332-10.545h4.555l1.332 10.545z" fill="#FF8B7B"/><path d="M90.563 145.72h4.992a.39.39 0 01.387.311l.907 4.048a.659.659 0 01-.653.811c-1.793-.029-4.389-.129-6.656-.129-2.638 0-3.141.15-6.24.154-1.872 0-2.392-1.888-1.61-2.059 3.56-.782 4.7-.869 7.775-2.77a2.07 2.07 0 011.098-.366z" fill="#263238"/><path opacity=".2" d="M89.27 136.672l.723 5.745 4.518-.308-.686-5.437h-4.556z" fill="#000"/><path d="M115.835 89.083s-34.653 3.074-34.278 20.479c.387 18.104 7.15 30.313 7.15 30.313h6.765s-1.281-9.393-1.052-27.214c.066-5.341 10.857-7.105 21.39-7.725 9.102-.541 17.622-5.728 21.158-14.143l.724-1.722-21.857.012z" fill="#0177FF"/><path opacity=".5" d="M115.835 89.083s-34.653 3.074-34.278 20.479c.387 18.104 7.15 30.313 7.15 30.313h6.765s-1.281-9.393-1.052-27.214c.066-5.341 10.857-7.105 21.39-7.725 9.102-.54 17.622-5.728 21.158-14.143l.724-1.722-21.857.012z" fill="#fff"/><path d="M87.123 138.053c-.03 0 1.16 3.128 1.16 3.128l8.17-.582-.478-2.833-8.852.287z" fill="#0177FF"/><path d="M124.933 69.523l-4.397 16.944a52.846 52.846 0 00-1.689 13.286v7.879c0 1.988 1.464 3.598 3.274 3.598h22.539c1.809 0 3.274-1.61 3.274-3.598v-7.879a52.848 52.848 0 011.693-13.286l3.881-14.976c.599-2.3-.973-4.576-3.149-4.576h-22.281a3.328 3.328 0 00-3.145 2.608z" fill="#263238"/><path d="M96.899 103.027l.736 4.201c.391 2.213 2.334 4.002 4.343 4.002h25.056c2.009 0 3.328-1.789 2.937-4.002l-.736-4.201c-.446-2.496-2.655-4.55-4.943-4.55h-24.036c-2.305 0-3.798 2.037-3.357 4.55z" fill="#263238"/><path d="M129.447 115.452h-13.125l-1.281-4.222h15.687l-1.281 4.222z" fill="#0177FF"/><path d="M125.228 115.452h-4.688v31.37h4.688v-31.37z" fill="#DB5D8B"/><path opacity=".7" d="M125.228 146.822h-4.688v-30.617l4.688.479v30.138z" fill="#0177FF"/><path opacity=".7" d="M124.084 146.822h-1.119v-30.371l1.119.116v30.255z" fill="#fff"/><path d="M133.665 151.668h-21.566a.596.596 0 01-.566-.78.593.593 0 01.217-.297l3.42-2.496a9.562 9.562 0 015.665-1.855h4.098a9.56 9.56 0 015.662 1.851l3.424 2.496a.593.593 0 01.002.971.591.591 0 01-.356.11z" fill="#0177FF"/></g><defs><clipPath id="clip0_295_3316"><path fill="#fff" d="M0 0h208v155H0z"/></clipPath></defs></svg>