<svg width="123" height="31" fill="none" xmlns="http://www.w3.org/2000/svg"><path fill="#E5E5E5" d="M0 0h123v31H0z"/><g clip-path="url(#clip0_295_3293)"><path fill="#fff" d="M-18-17h320v6046H-18z"/><path d="M24.14 7.95h3.986v17.028H24.14V7.949zm2.008-2.807c-.722 0-1.328-.223-1.817-.67a2.29 2.29 0 01-.734-1.722c0-.68.245-1.243.734-1.69C24.82.594 25.426.36 26.148.36c.723 0 1.33.223 1.818.67.49.425.734.967.734 1.626a2.43 2.43 0 01-.734 1.786c-.468.467-1.073.701-1.818.701zm6.348 9.311h8.77v3.317h-8.77v-3.317zm16.921-8.29h-7.398V2.656H60.96v3.508h-7.398v18.814h-4.145V6.164z" fill="#60B51C"/><path d="M70.194 6.642c2.508 0 4.422.606 5.74 1.817 1.34 1.191 2.009 2.998 2.009 5.421v9.982H74.18v-2.073c-.49.744-1.19 1.318-2.105 1.722-.893.383-1.977.574-3.252.574-1.276 0-2.392-.213-3.349-.638-.956-.446-1.7-1.052-2.232-1.818-.51-.786-.765-1.668-.765-2.646 0-1.531.563-2.753 1.69-3.668 1.148-.935 2.944-1.403 5.39-1.403h4.4v-.255c0-1.19-.362-2.104-1.084-2.742-.702-.638-1.754-.957-3.157-.957a9.31 9.31 0 00-2.839.447c-.914.297-1.69.712-2.327 1.243l-1.563-2.902c.893-.68 1.967-1.2 3.22-1.562a14.33 14.33 0 013.987-.542zm-.542 14.541c.999 0 1.881-.223 2.647-.67a3.787 3.787 0 001.658-1.977V16.56h-4.114c-2.296 0-3.444.755-3.444 2.264 0 .723.287 1.297.861 1.722.574.425 1.371.638 2.392.638zM92.497 6.642c1.659 0 3.136.361 4.433 1.084a7.79 7.79 0 013.093 3.061c.744 1.318 1.116 2.838 1.116 4.56 0 1.722-.372 3.253-1.116 4.592a7.79 7.79 0 01-3.093 3.062c-1.297.722-2.775 1.084-4.433 1.084-2.296 0-4.113-.765-5.453-2.296v8.259h-3.986V6.833h3.795v2.232a6.191 6.191 0 012.424-1.817c.977-.404 2.051-.606 3.22-.606zm-.446 14.03c1.467 0 2.668-.488 3.603-1.466.957-.978 1.435-2.264 1.435-3.859 0-1.594-.478-2.88-1.435-3.858-.935-.978-2.136-1.467-3.603-1.467-.957 0-1.818.223-2.583.67-.766.425-1.371 1.041-1.818 1.85-.446.807-.67 1.742-.67 2.805 0 1.063.224 1.999.67 2.807a4.838 4.838 0 001.818 1.881c.765.425 1.626.638 2.583.638zm22.307-14.03c1.658 0 3.136.361 4.433 1.084a7.79 7.79 0 013.093 3.061c.744 1.318 1.116 2.838 1.116 4.56 0 1.722-.372 3.253-1.116 4.592a7.79 7.79 0 01-3.093 3.062c-1.297.722-2.775 1.084-4.433 1.084-2.296 0-4.113-.765-5.453-2.296v8.259h-3.986V6.833h3.795v2.232a6.19 6.19 0 012.424-1.817c.977-.404 2.051-.606 3.22-.606zm-.446 14.03c1.467 0 2.668-.488 3.603-1.466.957-.978 1.435-2.264 1.435-3.859 0-1.594-.478-2.88-1.435-3.858-.935-.978-2.136-1.467-3.603-1.467-.957 0-1.818.223-2.583.67-.765.425-1.371 1.041-1.818 1.85-.446.807-.669 1.742-.669 2.805 0 1.063.223 1.999.669 2.807a4.845 4.845 0 001.818 1.881c.765.425 1.626.638 2.583.638zm-97.199-.79c-.025-.164-.066-.328-.106-.49-.412-1.669-1.345-3.117-2.296-4.55-.533-.803-1.058-.834-1.822-.19-.965-.652-1.093-.649-1.972-.031-.438-.126-.813-.338-1.162-.305-.349.033-.67.31-1.037.498-.037-.054-.12-.162-.19-.277-.374-.61-.743-1.222-1.118-1.832a1.075 1.075 0 00-.525-.446.992.992 0 00-.666-.018c-.486.157-.763.565-.655 1.022.045.19.153.374.26.546.865 1.402 1.738 2.8 2.606 4.201.237.382.464.77.696 1.154l-.078.061c-.333-.118-.66-.252-1-.35-.588-.17-1.17-.148-1.703.16-.422.244-.427.578-.034.863 1.031.749 2.041 1.526 3.108 2.228.447.294 1.016.43 1.534.63.248.096.53.138.754.267.306.175.558.176.87.01 1.307-.689 2.625-1.359 3.938-2.036.571-.295.69-.513.599-1.115z" fill="#2E1AAD"/><path d="M4.948 14.103c-.132-.213-.265-.443-.329-.711-.175-.74.248-1.432 1.028-1.684a1.541 1.541 0 011.04.029c.323.124.594.35.786.652a2.019 2.019 0 10-2.185 2.265l-.34-.551z" fill="#60B51C"/><path d="M7.252 17.817l-.733-1.179-.052-.085a4.034 4.034 0 112.882-2.798c.346-.02.66.094.963.205.038.014.077.029.116.042.14-.093.27-.174.398-.238a5.47 5.47 0 10-3.574 4.053z" fill="#2E1AAD"/></g><defs><clipPath id="clip0_295_3293"><path fill="#fff" transform="translate(-18 -17)" d="M0 0h320v6046H0z"/></clipPath></defs></svg>