<svg width="16" height="16" fill="none" xmlns="http://www.w3.org/2000/svg"><path fill-rule="evenodd" clip-rule="evenodd" d="M14 10.667c.342 0 .624.257.662.588l.005.078v1.334a2 2 0 01-1.883 1.996l-.117.004H3.333a2 2 0 01-1.996-1.883l-.004-.117v-1.334a.667.667 0 011.33-.078l.004.078v1.334c0 .341.257.623.589.662l.078.004h9.333a.667.667 0 00.662-.589l.005-.077v-1.334c0-.368.298-.666.666-.666zM7.901 1.34l.04-.005.06-.003.05.002.083.012.074.02.074.029.065.035.07.049.055.049 2 2a.667.667 0 01-.943.942l-.862-.862V10a.667.667 0 01-1.333 0V3.61l-.862.862a.667.667 0 11-.943-.942l2-2a.672.672 0 01.074-.065l.074-.048.076-.035.07-.024.078-.016z" fill="#2E1AAD"/></svg>