<svg width="54" height="54" fill="none" xmlns="http://www.w3.org/2000/svg"><path d="M54 27c0 14.912-12.088 27-27 27S0 41.912 0 27 12.088 0 27 0s27 12.088 27 27zM3.5 27c0 12.979 10.521 23.5 23.5 23.5S50.5 39.979 50.5 27 39.979 3.5 27 3.5 3.5 14.021 3.5 27z" fill="#DDD"/><path d="M27 1.75c0-.967.784-1.756 1.749-1.693a27 27 0 010 53.886c-.965.063-1.749-.726-1.749-1.693 0-.967.785-1.743 1.748-1.815a23.501 23.501 0 000-46.87C27.785 3.493 27 2.716 27 1.75z" fill="#2E1AAD"/><path d="M14 32.98h10.08v-2.56h-5.86l3.22-2.82a29.64 29.64 0 001.45-1.34c.393-.4.69-.833.89-1.3.2-.473.3-1.067.3-1.78 0-.967-.213-1.817-.64-2.55a4.476 4.476 0 00-1.76-1.71c-.74-.413-1.58-.62-2.52-.62-1.027 0-1.927.197-2.7.59a4.383 4.383 0 00-1.81 1.67c-.433.72-.65 1.573-.65 2.56h2.8c-.013-.4.077-.77.27-1.11.193-.347.463-.623.81-.83.353-.213.76-.32 1.22-.32.66 0 1.187.217 1.58.65.4.427.6.97.6 1.63 0 .307-.093.637-.28.99-.187.353-.507.73-.96 1.13L14 30.62v2.36zm16.032-10.5h1.208L28.168 34H26.96l3.072-11.52zm6.387 11.752c.71 0 1.339-.157 1.888-.472.555-.32.99-.76 1.304-1.32.32-.565.48-1.216.48-1.952 0-.72-.147-1.355-.44-1.904a3.165 3.165 0 00-1.232-1.28c-.528-.31-1.141-.461-1.84-.456l3.376-3.224V22.48H33.3v1.128h5.16l-3.96 3.656.592.936a3.37 3.37 0 01.64-.232c.23-.059.448-.088.656-.088.747 0 1.347.24 1.8.72.459.475.688 1.104.688 1.888 0 .773-.221 1.397-.664 1.872-.437.475-1.04.72-1.808.736a2.54 2.54 0 01-1.488-.424c-.443-.293-.76-.725-.952-1.296l-1.12.336c.245.779.688 1.395 1.328 1.848.645.448 1.395.672 2.248.672z" fill="#231F20"/></svg>