<svg width="54" height="54" fill="none" xmlns="http://www.w3.org/2000/svg"><path d="M54 27c0 14.912-12.088 27-27 27S0 41.912 0 27 12.088 0 27 0s27 12.088 27 27zM3.5 27c0 12.979 10.521 23.5 23.5 23.5S50.5 39.979 50.5 27 39.979 3.5 27 3.5 3.5 14.021 3.5 27z" fill="#DDD"/><path d="M27 1.75c0-.967.785-1.756 1.749-1.693a27 27 0 11-5.23.168c.959-.124 1.792.613 1.855 1.577.062.965-.671 1.79-1.628 1.924a23.5 23.5 0 105.002-.16C27.785 3.492 27 2.715 27 1.75z" fill="#2E1AAD"/><path d="M18.6 33.26c.907 0 1.74-.21 2.5-.63.76-.427 1.37-1 1.83-1.72.46-.727.69-1.543.69-2.45 0-.673-.123-1.31-.37-1.91a4.344 4.344 0 00-1.07-1.58 4.144 4.144 0 00-1.74-.98l2.92-2.83V18.6h-9v2.56h5.78l-3.88 3.22 1.22 2.14a2.17 2.17 0 011.12-.32c.66 0 1.2.223 1.62.67.427.44.64.97.64 1.59 0 .413-.103.79-.31 1.13-.2.34-.473.61-.82.81-.34.2-.717.3-1.13.3-.48 0-.927-.143-1.34-.43-.407-.293-.68-.703-.82-1.23l-2.64.7c.207.713.55 1.333 1.03 1.86a5.211 5.211 0 001.71 1.23c.653.287 1.34.43 2.06.43zm11.432-10.78h1.208L28.168 34H26.96l3.072-11.52zm6.387 11.752c.71 0 1.339-.157 1.888-.472.555-.32.99-.76 1.304-1.32.32-.565.48-1.216.48-1.952 0-.72-.147-1.355-.44-1.904a3.165 3.165 0 00-1.232-1.28c-.528-.31-1.141-.461-1.84-.456l3.376-3.224V22.48H33.3v1.128h5.16l-3.96 3.656.592.936a3.37 3.37 0 01.64-.232c.23-.059.448-.088.656-.088.747 0 1.347.24 1.8.72.459.475.688 1.104.688 1.888 0 .773-.221 1.397-.664 1.872-.437.475-1.04.72-1.808.736a2.54 2.54 0 01-1.488-.424c-.443-.293-.76-.725-.952-1.296l-1.12.336c.245.779.688 1.395 1.328 1.848.645.448 1.395.672 2.248.672z" fill="#231F20"/></svg>