<svg width="67" height="76" fill="none" xmlns="http://www.w3.org/2000/svg"><path d="M33.596 64.013h-3.672l-5.77-16.98L40.2 46.06l-6.603 17.953z" fill="url(#paint0_linear_295_3917)"/><path d="M14.393 15.488c-.019 1.433-.022 29.49 14.22 34.049 14.243 4.559 20.68-19.18 20.171-36.088l-34.391 2.039z" fill="url(#paint1_linear_295_3917)"/><path d="M43.148 66.586l-22.771-.002v2.764l22.77.002v-2.764z" fill="url(#paint2_linear_295_3917)"/><path d="M43.145 66.59l-22.771-.004 5.763-3.09 11.245.002 5.763 3.092z" fill="url(#paint3_linear_295_3917)"/><path d="M12.892 10.352c-1.253.002-2.328.866-2.392 1.914l-.128 2.154c-.063 1.053.912 1.92 2.163 1.928l39.093.22c1.251.006 2.327-.85 2.39-1.903l.147-2.461c.062-1.053-.91-1.914-2.164-1.912l-39.11.06z" fill="url(#paint4_linear_295_3917)"/><path d="M38.698 51.768c-.908 0-1.693-.574-1.8-1.355-.113-.837.597-1.593 1.597-1.69.189-.02 13.289-1.4 14.531-8.57.21-1.209.18-2.787-1.113-3.446-1.073-.546-2.83-.373-4.085.399-.715.443-1.495 1.21-1.164 2.382.233.82-.37 1.645-1.346 1.835-.976.19-1.952-.311-2.184-1.131-.602-2.125.35-4.204 2.55-5.557 2.444-1.505 5.775-1.731 8.1-.553 1.36.69 3.535 2.451 2.832 6.506-.695 4.008-4.043 7.219-9.682 9.285a35.96 35.96 0 01-8.03 1.872 2.073 2.073 0 01-.206.023zm-13.585-.002c.91 0 1.695-.575 1.8-1.354.114-.837-.6-1.595-1.595-1.69-.189-.02-13.289-1.404-14.529-8.574-.21-1.21-.187-2.79 1.114-3.448 1.073-.544 2.83-.37 4.085.403.714.44 1.495 1.21 1.163 2.382-.232.82.369 1.644 1.343 1.84.974.196 1.954-.31 2.187-1.13.603-2.125-.351-4.207-2.55-5.557-2.443-1.505-5.775-1.734-8.1-.554-1.36.688-3.535 2.45-2.833 6.504.694 4.008 4.034 7.22 9.68 9.287a35.917 35.917 0 008.027 1.88c.07.008.14.01.208.011zm19.5-37.941a.245.245 0 01-.053.01l-3.491-.02a.305.305 0 01.003-.61l3.491.02a.305.305 0 01.05.605v-.005zm-9.339-.047a.228.228 0 01-.052.01l-20.855-.115a.303.303 0 01-.304-.306.303.303 0 01.189-.28.304.304 0 01.116-.024l20.857.114a.305.305 0 01.05.605l-.001-.004zm-4.692 32.578a.311.311 0 01-.105.006c-3.773-.435-6.79-3.508-8.965-9.133-1.796-4.645-2.642-10.08-3.035-13.816a.304.304 0 01.39-.324.303.303 0 01.216.26c.677 6.42 3.148 21.455 11.466 22.413a.304.304 0 01.035.599l-.002-.005z" fill="#91B3FA"/><path d="M18.596 20.738l-.048.012a.304.304 0 01-.324-.284 27.873 27.873 0 01-.07-1.367.305.305 0 11.61-.018s.014.503.069 1.348a.303.303 0 01-.237.31z" fill="#fff"/><path d="M26.72 55.578s3.006-2.265 3.156.325c.15 2.59 1.474 4.2-.394 4.837-1.868.638-3.01-3.294-2.762-5.162z" fill="#91B3FA"/><defs><linearGradient id="paint0_linear_295_3917" x1="33831.6" y1="13077.5" x2="34850.3" y2="16140.7" gradientUnits="userSpaceOnUse"><stop stop-color="#4042E2"/><stop offset="1" stop-color="#4F52FF"/></linearGradient><linearGradient id="paint1_linear_295_3917" x1="75420.5" y1="24956.4" x2="77435.8" y2="31208.7" gradientUnits="userSpaceOnUse"><stop stop-color="#4042E2"/><stop offset="1" stop-color="#4F52FF"/></linearGradient><linearGradient id="paint2_linear_295_3917" x1="43081.5" y1="3085" x2="43086" y2="3564.64" gradientUnits="userSpaceOnUse"><stop stop-color="#4042E2"/><stop offset="1" stop-color="#4F52FF"/></linearGradient><linearGradient id="paint3_linear_295_3917" x1="42562.2" y1="-2156.71" x2="42861.1" y2="-1002" gradientUnits="userSpaceOnUse"><stop stop-color="#4042E2"/><stop offset="1" stop-color="#4F52FF"/></linearGradient><linearGradient id="paint4_linear_295_3917" x1="167936" y1="-40749.2" x2="168312" y2="-39371.2" gradientUnits="userSpaceOnUse"><stop stop-color="#4042E2"/><stop offset="1" stop-color="#4F52FF"/></linearGradient></defs></svg>