<svg width="44" height="59" fill="none" xmlns="http://www.w3.org/2000/svg"><path d="M11.715 32.89c.011.581-6.088 13.401-8.945 19.376a1.32 1.32 0 001.671 1.798l6.698-2.612a1.327 1.327 0 011.524.421l4.949 6.388a1.32 1.32 0 002.347-.585l3.765-21.788-12.01-2.998z" fill="url(#paint0_linear_295_3912)"/><path d="M32.223 32.503c.011.58 6.589 13.163 9.67 19.024a1.32 1.32 0 01-1.603 1.86L33.5 51.03a1.32 1.32 0 00-1.508.479l-4.704 6.57a1.32 1.32 0 01-2.365-.5l-4.585-21.633 11.885-3.443z" fill="url(#paint1_linear_295_3912)"/><path d="M22.316 40.842c10.579 0 19.155-8.575 19.155-19.154 0-10.58-8.576-19.156-19.155-19.156-10.58 0-19.155 8.576-19.155 19.155 0 10.58 8.576 19.155 19.155 19.155z" fill="url(#paint2_linear_295_3912)"/><path d="M33.204 32.387c5.963-5.963 5.963-15.63 0-21.591-5.962-5.963-15.629-5.963-21.59 0-5.963 5.962-5.963 15.628 0 21.59 5.961 5.963 15.628 5.963 21.59 0z" fill="url(#paint3_linear_295_3912)"/><defs><linearGradient id="paint0_linear_295_3912" x1="14.656" y1="46.01" x2="26.306" y2="14.251" gradientUnits="userSpaceOnUse"><stop stop-color="#FE7062"/><stop offset="1" stop-color="#FF928E"/></linearGradient><linearGradient id="paint1_linear_295_3912" x1="20781.6" y1="24820.8" x2="18761.5" y2="31380.9" gradientUnits="userSpaceOnUse"><stop stop-color="#FE7062"/><stop offset="1" stop-color="#FF928E"/></linearGradient><linearGradient id="paint2_linear_295_3912" x1="1.853" y1="44.063" x2="49.66" y2="-8.206" gradientUnits="userSpaceOnUse"><stop stop-color="#E1473D"/><stop offset="1" stop-color="#E9605A"/></linearGradient><linearGradient id="paint3_linear_295_3912" x1="20174" y1="38096.3" x2="31514.3" y2="25637.1" gradientUnits="userSpaceOnUse"><stop stop-color="#FE7062"/><stop offset="1" stop-color="#FF928E"/></linearGradient></defs></svg>