<svg width="65" height="60" fill="none" xmlns="http://www.w3.org/2000/svg"><path d="M9.353 14.848L6.227 26.112a5.465 5.465 0 00.711 4.489c2.204 3.32 7.596 9.314 19.018 12.371 11.604 3.106 18.177-.09 21.001-2.194a5.822 5.822 0 002.12-3.066l3.42-11.929L9.354 14.848z" fill="url(#paint0_linear_295_3890)"/><path d="M34.095.35L1.59 9.456a2.17 2.17 0 00-.826 3.743c6.442 5.51 21.083 18.345 26.629 25.798a2.17 2.17 0 002.572.707l32.888-13.612a2.17 2.17 0 00.603-3.64C57.075 16.848 40.84 2.826 35.561.455A2.157 2.157 0 0034.095.35z" fill="url(#paint1_linear_295_3890)"/><path d="M33.428 17.418s17.572 8.7 18.91 10.689c1.34 1.988-1.356 11.023-1.356 11.023 2.766 7.648 3.176 15.952-1.497 20.297 0 0-5.76-10.057-3.187-14.295 2.573-4.239 3.565-5.975 3.565-5.975s2.252-9.633 1.54-11.01c0-.002-19.466-10.177-17.975-10.729z" fill="url(#paint2_linear_295_3890)"/><path opacity=".44" d="M5.963 12.47l16.633 16.407 4.16 4.102 1.039 1.025.52.51a3.115 3.115 0 003.171.7l11.076-3.706a.167.167 0 01.108.316l-11.05 3.798a3.55 3.55 0 01-3.613-.775l-.527-.51-1.047-1.017-4.19-4.07L5.487 12.973a.344.344 0 01.48-.494l-.004-.01zm43.694 31.027l-.032.028-.039.037-.077.073-.148.162c-.097.11-.179.23-.277.344l-.244.365c-.077.124-.143.254-.215.381a3.614 3.614 0 00-.191.391c-.058.133-.121.264-.174.398l-.14.408c-.046.137-.1.27-.129.412l-.102.417c-.033.139-.075.278-.09.42-.041.282-.09.565-.124.848l-.051.856c0 .073-.01.145-.011.214l.006.214.013.43c-.007.574.09 1.145.147 1.717.011.146.04.285.069.427l.082.427c.056.283.106.569.169.852.156.562.297 1.128.466 1.687l.577 1.667v.005a.08.08 0 01-.01.074.117.117 0 01-.07.046.144.144 0 01-.09-.008.103.103 0 01-.058-.057l-.635-1.665c-.187-.56-.348-1.128-.524-1.692-.072-.285-.132-.572-.198-.859l-.098-.43c-.033-.146-.066-.287-.083-.432-.076-.583-.192-1.158-.205-1.745l-.027-.437-.013-.219v-.218l.023-.881c.029-.292.067-.584.101-.875.017-.147.043-.293.08-.438l.089-.437c.025-.146.077-.292.12-.433l.134-.432c.051-.146.114-.282.17-.424.055-.142.118-.282.19-.42.073-.137.14-.277.217-.413l.253-.402c.099-.13.188-.262.296-.39l.164-.189.09-.094.047-.046.057-.052a.343.343 0 01.107-.065.404.404 0 01.375.044c.033.025.06.054.079.087a.229.229 0 01.014.212.27.27 0 01-.068.093l-.012.017z" fill="#fff"/><path opacity=".44" d="M50.113 47.322v.52l.008.586.03 1.176.078 2.352.184 4.704c-.002.037-.03.072-.08.098a.439.439 0 01-.19.043.466.466 0 01-.194-.035c-.054-.025-.087-.058-.094-.095l-.419-4.702-.196-2.352-.087-1.177-.038-.59-.015-.297v-.15c0-.064.01-.139.021-.208.01-.067.07-.13.167-.174a.83.83 0 01.354-.065.78.78 0 01.342.08c.09.05.138.114.136.181l-.007.105z" fill="#fff"/><defs><linearGradient id="paint0_linear_295_3890" x1="62224.8" y1="19052.6" x2="62821.9" y2="3016.66" gradientUnits="userSpaceOnUse"><stop stop-color="#FE7062"/><stop offset="1" stop-color="#FF928E"/></linearGradient><linearGradient id="paint1_linear_295_3890" x1="94871.8" y1="2302.2" x2="91769.6" y2="18395.5" gradientUnits="userSpaceOnUse"><stop stop-color="#FE7062"/><stop offset="1" stop-color="#FF928E"/></linearGradient><linearGradient id="paint2_linear_295_3890" x1="34067.5" y1="4207.37" x2="24166.7" y2="14769.9" gradientUnits="userSpaceOnUse"><stop stop-color="#E1473D"/><stop offset="1" stop-color="#E9605A"/></linearGradient></defs></svg>