<svg width="72" height="70" fill="none" xmlns="http://www.w3.org/2000/svg"><path opacity=".7" d="M33.43 27.557a.333.333 0 01-.237-.204 32.63 32.63 0 01-.281-.798.347.347 0 01.202-.432.318.318 0 01.25.011.328.328 0 01.167.19c.091.262.183.523.275.781a.345.345 0 01-.203.444.318.318 0 01-.175.01l.003-.002z" fill="#BDD0FB"/><path d="M8.109 34.649l.433 18.74a6.1 6.1 0 001.763 4.158 5.754 5.754 0 004.085 1.699l43.561.033a4.251 4.251 0 002.817-1.068 4.509 4.509 0 001.473-2.698c.724-4.731 1.655-13.21.741-21.153l-54.873.289z" fill="url(#paint0_linear_295_3897)"/><path d="M13.399 57.796l-.02-.004a5.658 5.658 0 01-.897-.448.124.124 0 01-.055-.077.13.13 0 01.014-.096.127.127 0 01.076-.057.12.12 0 01.094.013c.274.168.561.311.859.43.03.009.057.03.072.06a.129.129 0 01-.05.17.12.12 0 01-.093.01zm2.242.379a.122.122 0 01-.069-.045.129.129 0 01.011-.169.123.123 0 01.087-.037h.984c.032 0 .063.014.085.038a.13.13 0 01-.002.178.123.123 0 01-.088.037h-.982l-.026-.002zm3.276.002a.122.122 0 01-.07-.045.13.13 0 01.012-.169.123.123 0 01.087-.036h.983a.118.118 0 01.093.034.126.126 0 01.038.094.13.13 0 01-.042.093.121.121 0 01-.094.033l-.98-.002-.027-.002zm-8.057-2.399a.117.117 0 01-.074-.05 5.865 5.865 0 01-.505-.884.131.131 0 01.009-.086.127.127 0 01.06-.061.12.12 0 01.151.041c.137.297.299.58.485.847a.13.13 0 01-.03.177.122.122 0 01-.098.016h.002zm11.334 2.402a.122.122 0 01-.07-.045.129.129 0 01.012-.169.123.123 0 01.087-.037l.983.001a.121.121 0 01.121.076.13.13 0 01-.075.17.121.121 0 01-.05.007h-.982l-.026-.003zm3.276.002a.122.122 0 01-.07-.045.13.13 0 01.011-.169.123.123 0 01.087-.036h.983a.12.12 0 01.08.041.13.13 0 01-.003.172.123.123 0 01-.08.04h-.982l-.026-.003zm3.275.002a.12.12 0 01-.07-.043.127.127 0 01.099-.206l.983.002a.123.123 0 01.085.038.13.13 0 01.025.137.13.13 0 01-.067.068.12.12 0 01-.048.01h-.981l-.026-.006zm3.276.003a.12.12 0 01-.07-.044.127.127 0 01.098-.205l.983.001a.12.12 0 01.086.037.13.13 0 01-.002.178.124.124 0 01-.087.038h-.983l-.025-.005zm3.275.004a.122.122 0 01-.07-.045.13.13 0 01.012-.17.123.123 0 01.087-.036h.983a.12.12 0 01.085.038.13.13 0 01.036.089.13.13 0 01-.037.088.123.123 0 01-.087.038l-.983-.001-.026-.002zM9.833 52.639a.122.122 0 01-.067-.042.129.129 0 01-.028-.076l-.023-1.013a.13.13 0 01.035-.088.122.122 0 01.084-.039.12.12 0 01.085.036.128.128 0 01.037.085l.024 1.012a.132.132 0 01-.035.087.125.125 0 01-.113.038h.001zm28.739 5.554a.122.122 0 01-.07-.045.129.129 0 01.011-.169.123.123 0 01.088-.037l.982.002a.12.12 0 01.082.04.13.13 0 01-.002.173.123.123 0 01-.082.04l-.983-.002-.026-.002zm3.275.002a.122.122 0 01-.069-.044.129.129 0 01.011-.17.123.123 0 01.087-.036l.983.001a.12.12 0 01.086.038.128.128 0 01-.042.205.119.119 0 01-.047.01l-.983-.001-.026-.003zm3.277.003a.12.12 0 01-.07-.045.128.128 0 01-.026-.08.128.128 0 01.037-.09.122.122 0 01.087-.036l.983.001a.123.123 0 01.085.039.13.13 0 01.035.088.13.13 0 01-.037.09.123.123 0 01-.088.036l-.983-.001-.023-.002zm3.276.002a.12.12 0 01-.07-.043.127.127 0 01-.026-.08.13.13 0 01.037-.089.123.123 0 01.086-.037l.983.001a.12.12 0 01.086.038.129.129 0 01.034.089.13.13 0 01-.037.089.123.123 0 01-.087.037h-.983L48.4 58.2zM9.756 49.267a.122.122 0 01-.068-.042.129.129 0 01-.028-.078l-.023-1.011a.13.13 0 01.035-.088.125.125 0 01.084-.04.134.134 0 01.084.037.131.131 0 01.038.085l.022 1.013a.13.13 0 01-.034.088.122.122 0 01-.085.039l-.025-.003zm41.92 8.935a.119.119 0 01-.07-.043.126.126 0 01-.027-.08.13.13 0 01.037-.088.123.123 0 01.087-.038l.982.002a.125.125 0 01.085.038.131.131 0 01.036.088.13.13 0 01-.037.09.123.123 0 01-.088.036h-.983l-.023-.005zm3.275.004a.121.121 0 01-.073-.049.13.13 0 01.018-.168.123.123 0 01.082-.033h.983a.123.123 0 01.086.038.13.13 0 01.035.088.132.132 0 01-.038.089.124.124 0 01-.087.037l-.983-.001h-.023zm3.253-.23a.12.12 0 01-.068-.04.127.127 0 01-.029-.075.131.131 0 01.022-.079.126.126 0 01.063-.05c.302-.105.59-.248.86-.425a.123.123 0 01.097-.027.12.12 0 01.084.056.126.126 0 01.014.102.131.131 0 01-.065.08 4.258 4.258 0 01-.913.457.124.124 0 01-.066.001h.001zM9.678 45.896a.12.12 0 01-.068-.043.126.126 0 01-.027-.078l-.025-1.011a.136.136 0 01.036-.088.125.125 0 01.083-.04.129.129 0 01.085.036.13.13 0 01.037.086l.023 1.012a.128.128 0 01-.073.117.117.117 0 01-.072.008h.001zm50.919 9.878l-.027-.006a.123.123 0 01-.063-.07.13.13 0 01.004-.096 4.11 4.11 0 00.286-.854l.018-.085a.13.13 0 01.054-.081.122.122 0 01.092-.02c.03.01.055.03.072.057a.151.151 0 01.024.09l-.017.076a4.41 4.41 0 01-.305.915.126.126 0 01-.057.063.119.119 0 01-.083.01h.002zM9.6 42.523a.119.119 0 01-.069-.043.126.126 0 01-.027-.077l-.024-1.012a.131.131 0 01.032-.094.125.125 0 01.088-.043.12.12 0 01.09.037.124.124 0 01.036.092l.024 1.012a.13.13 0 01-.035.088.123.123 0 01-.084.039H9.6zm51.642 9.947a.122.122 0 01-.073-.05.13.13 0 01-.02-.089c.041-.324.082-.66.124-1.005a.129.129 0 01.047-.085.12.12 0 01.171.02c.02.026.029.06.025.092-.04.346-.082.682-.124 1.008a.13.13 0 01-.047.084.121.121 0 01-.091.026h-.012zM9.514 39.15a.12.12 0 01-.068-.043.127.127 0 01-.027-.077l-.023-1.011a.13.13 0 01.034-.09.123.123 0 01.086-.04.119.119 0 01.087.034.126.126 0 01.037.087l.024 1.012a.132.132 0 01-.035.087.125.125 0 01-.084.04l-.03.001zm52.097 9.962a.122.122 0 01-.072-.05.13.13 0 01-.023-.086c.032-.33.062-.667.09-1.008a.13.13 0 01.041-.092.12.12 0 01.093-.032.12.12 0 01.113.087.13.13 0 01.006.05c-.028.343-.06.68-.09 1.012a.131.131 0 01-.045.085.124.124 0 01-.089.03l-.024.004zM9.437 35.776a.121.121 0 01-.068-.042.129.129 0 01-.029-.077l-.026-1.142 1.054-.006a.12.12 0 01.12.076.129.129 0 01-.03.143.125.125 0 01-.093.034l-.799.005.02.88a.132.132 0 01-.035.088.125.125 0 01-.084.04h-.03zm52.43 9.965a.122.122 0 01-.07-.047.13.13 0 01-.026-.083c.019-.334.036-.67.052-1.01a.131.131 0 01.037-.095.126.126 0 01.092-.037.12.12 0 01.088.044.124.124 0 01.028.097c-.015.34-.032.678-.051 1.013a.13.13 0 01-.082.117.122.122 0 01-.049.008l-.019-.007zM12.634 34.748a.12.12 0 01-.074-.05.13.13 0 01.018-.168.123.123 0 01.083-.033l.983-.005a.12.12 0 01.085.038.129.129 0 01.036.088.13.13 0 01-.038.088.122.122 0 01-.086.038l-.983.005h-.024zm3.275-.017a.12.12 0 01-.07-.044.127.127 0 01.098-.205l.984-.007a.12.12 0 01.08.04.13.13 0 01-.002.173.123.123 0 01-.081.04l-.983.005-.02-.001-.006-.002zm3.275-.018a.119.119 0 01-.077-.047.128.128 0 01.02-.173.12.12 0 01.086-.029l.983-.006a.12.12 0 01.085.038.129.129 0 01.036.088.13.13 0 01-.038.09.123.123 0 01-.087.036l-.983.005h-.016l-.009-.002zm3.277-.017a.12.12 0 01-.08-.046.128.128 0 01.019-.175.12.12 0 01.088-.028l.983-.005a.119.119 0 01.112.077.127.127 0 01-.028.137.123.123 0 01-.086.037l-.983.005-.025-.002zm3.275-.016a.121.121 0 01-.069-.045.13.13 0 01.05-.196.12.12 0 01.047-.01l.983-.006a.122.122 0 01.085.038.13.13 0 01.026.137.125.125 0 01-.067.068.118.118 0 01-.047.01l-.983.006-.025-.002zm36.256 7.687a.12.12 0 01-.07-.044.128.128 0 01-.026-.08c.004-.335.007-.672.008-1.011a.13.13 0 01.037-.089.123.123 0 01.086-.037.117.117 0 01.086.036.125.125 0 01.035.089c-.001.339-.004.677-.009 1.014a.13.13 0 01-.037.089.123.123 0 01-.087.037l-.023-.004zm-32.976-7.696a.12.12 0 01-.072-.05.13.13 0 01.02-.168.123.123 0 01.08-.033l.983-.005a.117.117 0 01.087.037c.01.011.02.025.026.04a.13.13 0 01-.028.137.123.123 0 01-.087.038l-.983.005-.026-.001zm3.277-.017a.121.121 0 01-.073-.05.13.13 0 01.018-.168.122.122 0 01.082-.033l.983-.005a.12.12 0 01.086.037.127.127 0 01.035.088.132.132 0 01-.038.089.124.124 0 01-.087.037l-.981.005h-.025zm3.275-.018a.12.12 0 01-.073-.05.13.13 0 01.018-.168.123.123 0 01.083-.033l.982-.005a.12.12 0 01.084.038.13.13 0 010 .175.123.123 0 01-.085.04l-.983.005-.026-.002zm3.276-.018a.12.12 0 01-.073-.05.13.13 0 01.02-.168.123.123 0 01.082-.032l.982-.005a.12.12 0 01.082.04.13.13 0 01-.002.173.123.123 0 01-.083.04l-.982.005a.077.077 0 01-.025-.01l-.001.007zm23.125 4.377a.12.12 0 01-.067-.042.127.127 0 01-.028-.077c-.01-.335-.026-.67-.042-1.007a.13.13 0 01.034-.087.124.124 0 01.081-.041.117.117 0 01.085.032.123.123 0 01.038.084c.017.34.032.678.043 1.014a.13.13 0 01-.035.088.124.124 0 01-.083.04l-.026-.004zm-19.848-4.401a.118.118 0 01-.07-.044.13.13 0 01.011-.168.123.123 0 01.087-.037l.983-.005a.12.12 0 01.12.076.129.129 0 01-.073.17.123.123 0 01-.05.007l-.982.005c-.01 0-.018 0-.027-.003v-.001zm3.277-.018a.118.118 0 01-.07-.043.126.126 0 01-.027-.08.128.128 0 01.077-.117.118.118 0 01.047-.009l.983-.006a.123.123 0 01.085.038.13.13 0 01.026.137.13.13 0 01-.067.068.12.12 0 01-.047.01l-.983.005c-.008 0-.016 0-.024-.003zm3.275-.017a.12.12 0 01-.07-.044.127.127 0 01-.017-.127.13.13 0 01.067-.069.119.119 0 01.047-.01l.983-.004a.11.11 0 01.048.007.12.12 0 01.07.069.128.128 0 010 .099.13.13 0 01-.07.07.12.12 0 01-.05.008l-.982.003a.08.08 0 01-.026-.002zm3.275-.016a.121.121 0 01-.07-.045.129.129 0 01.012-.169.123.123 0 01.087-.037l.983-.006a.12.12 0 01.086.038.129.129 0 01-.042.206.118.118 0 01-.047.009l-.983.006-.026-.002zm3.277-.017a.12.12 0 01-.073-.05.13.13 0 01.018-.168.123.123 0 01.082-.033l.983-.005a.12.12 0 01.086.037.127.127 0 01.035.088.131.131 0 01-.038.089.124.124 0 01-.087.037l-.982.005h-.024zm6.539 1.104a.122.122 0 01-.066-.04.128.128 0 01-.03-.07 43.967 43.967 0 00-.103-1.003.13.13 0 01.026-.094.125.125 0 01.082-.049.12.12 0 01.09.026.12.12 0 01.047.084c.037.335.07.672.102 1.009a.13.13 0 01-.028.092.124.124 0 01-.082.047.115.115 0 01-.037-.008l-.001.006zM58.5 34.508a.12.12 0 01-.073-.05.13.13 0 01.018-.168.122.122 0 01.083-.033l.983-.005a.122.122 0 01.084.038.13.13 0 01.037.088.13.13 0 01-.037.088.123.123 0 01-.087.038l-.983.005-.024-.001z" fill="#BDD0FB"/><path d="M20.986 20.976l.15-1.444c.076-.17.19-.32.334-.434.144-.114.313-.19.49-.22 1.36-.229 4.722-.64 6.339.604l.229 1.679-7.541-.185z" fill="url(#paint1_linear_295_3897)"/><path d="M25.239 19.564c-.31.08-.632.08-.94.003a.831.831 0 01-.463-.306.88.88 0 01-.177-.537l.036-4.526 2.236-.012-.037 4.523a.905.905 0 01-.186.542.864.864 0 01-.47.313z" fill="url(#paint2_linear_295_3897)"/><path d="M42.645 20.862l.143-1.446c.074-.17.189-.32.333-.433a1.08 1.08 0 01.49-.22c1.358-.23 4.722-.64 6.339.603l.229 1.679-7.535-.183z" fill="url(#paint3_linear_295_3897)"/><path d="M46.896 19.45a1.9 1.9 0 01-.94.003.832.832 0 01-.462-.306.88.88 0 01-.178-.537l.044-5.002 2.237-.013-.044 5a.905.905 0 01-.186.543.865.865 0 01-.47.312z" fill="url(#paint4_linear_295_3897)"/><path d="M23.46 15.309l24.053-.947c.265-.008.52-.11.723-.29.203-.178.342-.422.392-.691a10.45 10.45 0 00.1-3.142 2.837 2.837 0 00-.902-1.71 2.694 2.694 0 00-1.767-.698c-4.484-.086-15.905-.023-22.22 2.576a2.242 2.242 0 00-.855.623c-.233.275-.4.603-.486.956a5.685 5.685 0 00-.078 2.515c.055.239.188.45.378.596.189.148.423.222.662.212z" fill="url(#paint5_linear_295_3897)"/><path d="M22.982 14.245a.32.32 0 01-.174-.104.339.339 0 01-.08-.19 6.28 6.28 0 01.166-1.95c.104-.377.298-.72.565-1a2.24 2.24 0 01.962-.597c1.354-.415 3.938-1.122 6.056-1.196a.32.32 0 01.22.099.349.349 0 01.01.463.33.33 0 01-.216.113c-2.12.073-4.826.84-5.893 1.173-.256.079-.49.223-.678.42a1.654 1.654 0 00-.4.703 5.621 5.621 0 00-.144 1.706.35.35 0 01-.074.248.331.331 0 01-.222.124.337.337 0 01-.098-.012z" fill="#91B3FA"/><path d="M9.834 20.472c7.77-.143 41.38-.684 51.134.478.408.047.79.225 1.094.507.304.282.514.656.601 1.07.556 2.683 1.666 8.911 1.474 15.103-.015.41-.166.804-.428 1.116a1.755 1.755 0 01-1.011.6l-22.319 4.46-7.915.042-23.705-4.736a1.813 1.813 0 01-1.04-.617 1.917 1.917 0 01-.443-1.15c-.129-3.111-.312-10.413.543-15.117.088-.486.337-.927.705-1.248.368-.32.832-.5 1.31-.508z" fill="url(#paint6_linear_295_3897)"/><path d="M9.23 37.316a.121.121 0 01-.076-.055.129.129 0 01-.017-.093.128.128 0 01.052-.082.119.119 0 01.093-.018l.962.192a.12.12 0 01.077.053.129.129 0 01-.034.175.123.123 0 01-.092.02l-.963-.192H9.23zm3.208.64a.121.121 0 01-.067-.057.13.13 0 01.035-.166.121.121 0 01.086-.024l.962.191a.12.12 0 01.076.055.129.129 0 01.017.093.127.127 0 01-.052.082.118.118 0 01-.092.019l-.963-.193h-.002zm3.208.641a.121.121 0 01-.077-.054.13.13 0 01.037-.176.12.12 0 01.093-.018l.963.193a.112.112 0 01.08.051.12.12 0 01.015.097.13.13 0 01-.054.08.123.123 0 01-.092.02l-.963-.192h-.002zm3.207.642a.121.121 0 01-.077-.055.129.129 0 01.038-.175.12.12 0 01.093-.019l.962.193a.131.131 0 01.095.147.13.13 0 01-.053.081.122.122 0 01-.093.02l-.962-.192h-.003zm3.208.64a.118.118 0 01-.087-.052.13.13 0 01.089-.2.119.119 0 01.05.005l.963.192a.12.12 0 01.076.053.129.129 0 01-.035.175.122.122 0 01-.093.02l-.962-.193h-.001zm3.207.64a.12.12 0 01-.076-.053.128.128 0 01-.017-.093.13.13 0 01.053-.081.122.122 0 01.092-.02l.962.192a.114.114 0 01.08.052.12.12 0 01.015.096.13.13 0 01-.052.08.121.121 0 01-.092.02l-.962-.192h-.003zm3.209.642a.117.117 0 01-.078-.053.129.129 0 01-.016-.095.129.129 0 01.053-.08.121.121 0 01.091-.02l.963.192c.06.028.11.08.095.149a.13.13 0 01-.053.08.12.12 0 01-.092.02l-.962-.192h-.001zm3.207.642a.122.122 0 01-.076-.055.13.13 0 01.035-.175.122.122 0 01.093-.019l.962.192a.115.115 0 01.08.052.123.123 0 01.016.096.13.13 0 01-.053.081.122.122 0 01-.093.02l-.963-.192h-.001zm2.364.184a.12.12 0 01-.073-.049.13.13 0 01.018-.168.122.122 0 01.082-.033l.983-.006a.119.119 0 01.09.035.126.126 0 01.037.091.131.131 0 01-.08.12.123.123 0 01-.048.008l-.983.005-.026-.003zm3.275-.017a.12.12 0 01-.073-.05.13.13 0 01.018-.168.123.123 0 01.083-.033l.983-.005a.12.12 0 01.117.076.13.13 0 01-.07.169.12.12 0 01-.049.008l-.983.005-.026-.002zm3.273-.095a.12.12 0 01-.069-.044.13.13 0 01.003-.16.125.125 0 01.07-.044l.968-.193a.12.12 0 01.086.024.125.125 0 01.047.078.13.13 0 01-.017.09.126.126 0 01-.072.056l-.967.194a.14.14 0 01-.052-.002l.003.001zM9.1 35.005a.12.12 0 01-.068-.042.126.126 0 01-.028-.077 75.63 75.63 0 01-.02-1.014.121.121 0 01.034-.09.124.124 0 01.086-.04.12.12 0 01.088.034.127.127 0 01.038.088c.004.351.011.69.018 1.012a.13.13 0 01-.034.089.122.122 0 01-.085.038l-.03.002zm34.72 6.226a.12.12 0 01-.07-.045.13.13 0 01.003-.16.125.125 0 01.07-.043l.968-.193a.119.119 0 01.086.024.125.125 0 01.047.077.13.13 0 01-.017.09.125.125 0 01-.072.056l-.967.194a.11.11 0 01-.052 0h.003zm3.223-.644a.118.118 0 01-.062-.035.13.13 0 01-.012-.16.126.126 0 01.08-.053l.966-.193a.119.119 0 01.086.023.125.125 0 01.047.078.13.13 0 01-.017.09.126.126 0 01-.072.056l-.967.194a.11.11 0 01-.051 0h.002zM9.058 31.63a.118.118 0 01-.069-.043.125.125 0 01-.025-.08c0-.333.003-.671.008-1.013a.131.131 0 01.038-.089.125.125 0 01.087-.037.124.124 0 01.085.038.131.131 0 01.035.088c-.005.341-.008.68-.01 1.012a.13.13 0 01-.038.089.123.123 0 01-.086.037l-.025-.002zm41.202 8.315a.121.121 0 01-.063-.036.128.128 0 01.067-.212l.967-.194a.12.12 0 01.137.05.126.126 0 01.017.1.128.128 0 01-.061.083.12.12 0 01-.05.015l-.967.193a.1.1 0 01-.042-.003l-.005.004zm3.223-.645a.12.12 0 01-.07-.044.13.13 0 01.003-.16.124.124 0 01.071-.044l.967-.193a.12.12 0 01.086.024.125.125 0 01.047.078.131.131 0 01-.017.09.126.126 0 01-.072.056l-.967.193a.11.11 0 01-.043-.003l-.005.003zm3.224-.644a.123.123 0 01-.062-.035.129.129 0 01-.033-.065.13.13 0 01.02-.095.124.124 0 01.08-.053l.967-.193a.12.12 0 01.086.024.125.125 0 01.047.078.131.131 0 01-.017.09.126.126 0 01-.072.056l-.967.193a.108.108 0 01-.045.001h-.004zM9.129 28.253a.12.12 0 01-.07-.046.128.128 0 01-.025-.082c.014-.34.031-.678.052-1.015a.13.13 0 01.081-.117.12.12 0 01.05-.008.122.122 0 01.111.084.131.131 0 01.007.05c-.019.334-.036.673-.05 1.01a.13.13 0 01-.081.117.12.12 0 01-.049.008l-.026-.001zm50.795 9.758a.12.12 0 01-.061-.035.127.127 0 01-.013-.159.125.125 0 01.079-.053l.967-.195a.123.123 0 01.092.02.129.129 0 01.052.081.13.13 0 01-.02.095.125.125 0 01-.08.053l-.967.193a.11.11 0 01-.038-.002l-.01.002zm2.28-1.457a.12.12 0 01-.07-.044.127.127 0 01-.027-.079c.002-.337 0-.674-.007-1.01 0-.032.013-.064.035-.088a.121.121 0 01.132-.03.121.121 0 01.075.113c.007.34.01.678.007 1.015a.13.13 0 01-.036.09.123.123 0 01-.087.037l-.023-.004zM9.367 24.882a.12.12 0 01-.073-.049.127.127 0 01-.022-.086c.036-.345.076-.683.12-1.011a.131.131 0 01.048-.085.124.124 0 01.092-.026.118.118 0 01.08.048.126.126 0 01.024.094c-.044.325-.084.661-.12 1.003a.133.133 0 01-.045.085.125.125 0 01-.09.03l-.014-.003zm1.388-2.322a.12.12 0 01-.069-.044.128.128 0 01.01-.167.121.121 0 01.086-.038l.984-.017a.12.12 0 01.125.073.129.129 0 01-.03.146.125.125 0 01-.095.033l-.984.017a.08.08 0 01-.02-.006l-.007.003zm51.353 10.617a.118.118 0 01-.066-.04.124.124 0 01-.029-.074 52.488 52.488 0 00-.07-1.007.13.13 0 01.064-.132.12.12 0 01.17.058.108.108 0 01.011.05c.027.334.05.671.07 1.012a.13.13 0 01-.032.087.124.124 0 01-.081.042l-.037.004zM14.035 22.504a.12.12 0 01-.07-.05.13.13 0 01.017-.165.123.123 0 01.079-.035l.983-.015a.12.12 0 01.088.036.13.13 0 010 .18.123.123 0 01-.088.037l-.983.014a.074.074 0 01-.02-.004l-.006.002zm3.277-.046a.12.12 0 01-.073-.049.13.13 0 01.017-.169.123.123 0 01.082-.033l.966-.014c.034 0 .066.012.09.036a.13.13 0 01.042.09.126.126 0 01-.031.09.12.12 0 01-.084.039l-.983.012-.026-.002zm3.277-.042a.12.12 0 01-.073-.05.13.13 0 01.018-.168.123.123 0 01.082-.033l.984-.01a.12.12 0 01.085.037.129.129 0 01.036.088.13.13 0 01-.037.088.123.123 0 01-.086.038l-.983.01h-.026zm3.277-.034a.12.12 0 01-.073-.05.13.13 0 01.018-.168.123.123 0 01.083-.033l.983-.008a.12.12 0 01.086.036.13.13 0 010 .178.122.122 0 01-.087.038l-.984.01-.026-.003zm3.278-.026a.12.12 0 01-.073-.05.129.129 0 01.018-.168.123.123 0 01.082-.033l.983-.006a.118.118 0 01.09.034.125.125 0 01.037.091.131.131 0 01-.038.092.126.126 0 01-.09.036l-.974.01-.035-.006zm34.673 7.468a.12.12 0 01-.064-.038.126.126 0 01-.031-.07 69.309 69.309 0 00-.12-1.001.13.13 0 01.061-.127.124.124 0 01.094-.014.119.119 0 01.074.058c.008.015.013.03.016.047.04.328.08.662.118 1.005a.128.128 0 01-.061.126.124.124 0 01-.046.016c-.012 0-.023 0-.035-.003l-.006.001zm-31.398-7.487a.122.122 0 01-.069-.044.129.129 0 01-.027-.08.13.13 0 01.038-.088.123.123 0 01.087-.037l.982-.004a.12.12 0 01.112.077.127.127 0 01-.028.137.123.123 0 01-.086.038l-.983.003-.026-.002zm3.277-.01a.12.12 0 01-.073-.05.13.13 0 01.018-.168.123.123 0 01.083-.033l.983-.001a.12.12 0 01.085.038.129.129 0 01-.001.177.123.123 0 01-.087.038h-.983l-.025-.001zm3.275 0a.12.12 0 01-.07-.045.127.127 0 01.098-.205l.983.003a.12.12 0 01.086.038.129.129 0 01.035.089.13.13 0 01-.038.089.123.123 0 01-.087.037l-.983-.003-.024-.004zm3.276.01a.12.12 0 01-.072-.049.13.13 0 01.02-.168.123.123 0 01.081-.033l.984.006a.12.12 0 01.086.038.13.13 0 01-.004.18.123.123 0 01-.088.036l-.982-.007a.072.072 0 01-.018-.004l-.007.002zm21.12 4.15a.119.119 0 01-.063-.036.124.124 0 01-.032-.066c-.055-.348-.11-.68-.163-.996a.13.13 0 01.02-.095.12.12 0 01.17-.033.126.126 0 01.052.081c.054.317.108.65.163.999a.13.13 0 01-.056.128.122.122 0 01-.045.018.119.119 0 01-.04-.002l-.006.001zm-17.845-4.123a.118.118 0 01-.07-.044.132.132 0 01.013-.17.125.125 0 01.088-.037l.982.012a.119.119 0 01.086.038.126.126 0 01.034.09.13.13 0 01-.079.116.12.12 0 01-.047.01l-.982-.012-.025-.003zm3.276.044a.123.123 0 01-.07-.045.13.13 0 01-.017-.13.13.13 0 01.07-.068.12.12 0 01.047-.008l.983.016a.12.12 0 01.086.039.13.13 0 01-.005.18.123.123 0 01-.088.034l-.983-.017-.023-.001zm3.273.066a.12.12 0 01-.076-.05.13.13 0 01.022-.171.122.122 0 01.086-.03l.983.025a.122.122 0 01.086.04.13.13 0 01-.048.208.122.122 0 01-.048.009l-.98-.026-.024-.005zm3.274.095a.121.121 0 01-.075-.05.129.129 0 01.022-.171.122.122 0 01.086-.03c.336.011.663.024.983.038a.118.118 0 01.092.037.129.129 0 01.022.146.13.13 0 01-.077.065.12.12 0 01-.05.004l-.981-.037-.022-.002zm3.271.145a.12.12 0 01-.074-.05.129.129 0 01.023-.171.122.122 0 01.086-.03c.34.019.667.04.982.06a.12.12 0 01.08.045.13.13 0 01-.013.174.123.123 0 01-.086.033c-.313-.019-.64-.039-.98-.058l-.018-.003zm4.153.459a.12.12 0 01-.06-.034.126.126 0 01-.033-.062l-.009-.042a45.015 45.015 0 00-.773-.083.118.118 0 01-.082-.045.126.126 0 01-.027-.093.134.134 0 01.045-.086.124.124 0 01.09-.028c.29.029.56.058.811.088.04 0 .08.015.11.042.03.027.051.064.058.105l.018.087a.133.133 0 01-.035.116.121.121 0 01-.113.035z" fill="#BDD0FB"/><path d="M39.61 47.236l-6.933.032c-.438.003-.86-.16-1.186-.457a1.836 1.836 0 01-.583-1.156l-.745-6.87a1.904 1.904 0 01.452-1.444c.17-.196.378-.352.61-.46a1.76 1.76 0 01.735-.164l8.33-.036a1.733 1.733 0 011.317.589c.166.187.293.409.371.65.078.242.107.499.083.754l-.652 6.885a1.894 1.894 0 01-.59 1.192c-.332.31-.763.483-1.209.485z" fill="url(#paint7_linear_295_3897)"/><path d="M38.767 45.976l-5.278.027a1.322 1.322 0 01-.902-.347 1.395 1.395 0 01-.443-.88l-.568-5.228a1.448 1.448 0 01.347-1.1c.13-.15.289-.268.466-.35.177-.081.368-.123.56-.123l6.342-.033a1.319 1.319 0 011.001.446c.127.143.224.31.284.495.06.183.082.378.065.572l-.497 5.238c-.035.35-.195.677-.45.914a1.359 1.359 0 01-.927.369z" fill="url(#paint8_linear_295_3897)"/><defs><linearGradient id="paint0_linear_295_3897" x1="97935" y1="67760.2" x2="97069.5" y2="72371.9" gradientUnits="userSpaceOnUse"><stop stop-color="#4042E2"/><stop offset="1" stop-color="#4F52FF"/></linearGradient><linearGradient id="paint1_linear_295_3897" x1="29098.8" y1="3466.91" x2="29094.6" y2="3288.56" gradientUnits="userSpaceOnUse"><stop stop-color="#09005D"/><stop offset="1" stop-color="#1A0F91"/></linearGradient><linearGradient id="paint2_linear_295_3897" x1="11792.5" y1="5555.2" x2="11906.4" y2="6403.66" gradientUnits="userSpaceOnUse"><stop stop-color="#09005D"/><stop offset="1" stop-color="#1A0F91"/></linearGradient><linearGradient id="paint3_linear_295_3897" x1="30252.3" y1="3435.59" x2="30248.2" y2="3257.24" gradientUnits="userSpaceOnUse"><stop stop-color="#09005D"/><stop offset="1" stop-color="#1A0F91"/></linearGradient><linearGradient id="paint4_linear_295_3897" x1="12654.2" y1="5945.53" x2="12783.4" y2="6863.02" gradientUnits="userSpaceOnUse"><stop stop-color="#09005D"/><stop offset="1" stop-color="#1A0F91"/></linearGradient><linearGradient id="paint5_linear_295_3897" x1="102233" y1="10543.3" x2="102154" y2="11892.9" gradientUnits="userSpaceOnUse"><stop stop-color="#4042E2"/><stop offset="1" stop-color="#4F52FF"/></linearGradient><linearGradient id="paint6_linear_295_3897" x1="101225" y1="53925.8" x2="100362" y2="58839.8" gradientUnits="userSpaceOnUse"><stop stop-color="#4042E2"/><stop offset="1" stop-color="#4F52FF"/></linearGradient><linearGradient id="paint7_linear_295_3897" x1="49480.3" y1="12527.4" x2="49241.9" y2="14587.6" gradientUnits="userSpaceOnUse"><stop stop-color="#09005D"/><stop offset="1" stop-color="#1A0F91"/></linearGradient><linearGradient id="paint8_linear_295_3897" x1="37172.3" y1="10784.2" x2="37771.2" y2="10788.9" gradientUnits="userSpaceOnUse"><stop stop-color="#4042E2"/><stop offset="1" stop-color="#4F52FF"/></linearGradient></defs></svg>