<svg width="17" height="21" viewBox="0 0 17 21" fill="none" xmlns="http://www.w3.org/2000/svg">
<path id="Vector" d="M16.5042 0H6.11528C6.09167 0 6.04444 0 6.02083 0C5.99722 0 5.97361 -2.26252e-08 5.95 0.0233593H5.92639C5.90278 0.0233593 5.87917 0.0467185 5.85556 0.0467185H5.83194C5.80833 0.0700778 5.78472 0.0934372 5.76111 0.0934372L0.0944443 5.69967C0.0708332 5.72303 0.0472222 5.74639 0.0472222 5.76974V5.7931C0.0236111 5.81646 0.023611 5.83982 0.023611 5.86318V5.88654C0.023611 5.9099 0 5.93326 0 5.95662C0 5.97998 0 6.0267 0 6.05006V20.5328C0 20.7898 0.2125 21 0.472222 21H16.5278C16.7875 21 17 20.7898 17 20.5328V0.467186C16.9764 0.210234 16.7639 0 16.5042 0ZM5.64306 1.58843V5.60623H1.58194L5.64306 1.58843ZM16.0319 20.089H0.920833V6.5406H6.11528C6.375 6.5406 6.5875 6.33037 6.5875 6.07341V0.934372H16.0319V20.089Z" fill="black"/>
</svg>
