<svg width="163" height="162" fill="none" xmlns="http://www.w3.org/2000/svg"><path d="M143.389 139.29c-4.243 4.372-8.039 6.944-10.946 8.885-28.347 18.927-60.75 13.472-70.769 11.607-16.164-3.008-29.808-5.129-41.53-15.721-26.638-24.067-25.343-74.27-4.989-105.37C17.57 35.003 37.893 4.877 70.367.63c.794-.103 1.387-.162 1.906-.217 5.023-.532 36.154-3.34 61.538 17.927 3.633 3.045 9.481 8.535 14.904 16.91 19.825 30.622 19.889 78.048-5.326 104.039z" fill="url(#paint0_linear_295_3619)"/><path d="M5.463 8.125A2.744 2.744 0 018.56 5.37C19.541 6.8 57.3 11.208 88.484 8.65a2.538 2.538 0 012.745 2.379l6.828 116.983a2.923 2.923 0 01-2.728 3.086c-13.114.844-67.137 4.127-86.422 2.209a2.315 2.315 0 01-2.082-2.277L5.463 8.125z" fill="#91B3FA"/><path d="M6.77 11.05A2.641 2.641 0 019.752 8.4c10.568 1.377 46.903 5.617 76.913 3.156a2.443 2.443 0 012.643 2.29l6.57 112.58a2.809 2.809 0 01-2.623 2.969c-12.622.816-64.61 3.972-83.167 2.126a2.23 2.23 0 01-2.004-2.193L6.77 11.05z" fill="#BDD0FB"/><path opacity=".78" d="M16.59 19.681l1.248 24.137a1.535 1.535 0 001.497 1.458c4.472.102 18.406.37 26.27-.082a1.714 1.714 0 001.615-1.665c.127-4.528.387-17.708-.674-23.211a1.933 1.933 0 00-1.844-1.564l-26.433-.788a1.634 1.634 0 00-1.678 1.715z" fill="#fff"/><path d="M37.031 28.275a5.19 5.19 0 10-10.38-.086 5.19 5.19 0 0010.38.086z" fill="url(#paint1_linear_295_3619)"/><path d="M24.039 43.512l16.534-.086a1.283 1.283 0 001.065-1.982c-1.416-2.19-4.371-5.404-9.46-5.231-4.903.166-7.795 3.097-9.245 5.196a1.34 1.34 0 001.106 2.103z" fill="url(#paint2_linear_295_3619)"/><path opacity=".6" d="M82.72 21.439c.518 0 .93-.37.914-.816-.016-.447-.451-.816-.97-.822l-28.982-.365c-.518-.007-.799.387-.624.874l.14.393c.175.488.741.884 1.26.881l28.263-.145zm-29.015 2.499c-.518-.007-.799.387-.624.874l.14.393c.176.488.742.885 1.26.882l28.263-.149c.517 0 .929-.37.913-.816-.016-.447-.451-.816-.969-.822l-28.983-.362zm.024 4.565c-.518-.007-.799.387-.624.874l.14.393c.175.488.741.885 1.26.882l28.263-.147c.517 0 .929-.37.913-.816-.016-.447-.451-.816-.97-.822l-28.982-.364zm31.968 24.008c.518 0 .915-.369.884-.816-.032-.447-.482-.81-1-.812l-67.895-.18c-.518 0-.676.327-.35.73l.559.695c.324.403 1.014.73 1.532.728l66.27-.345zM17.71 55.204c-.519 0-.677.327-.35.73l.558.694c.325.404 1.014.732 1.532.729l66.273-.345c.517 0 .916-.37.883-.816-.031-.446-.48-.81-.998-.812l-67.899-.18zm-.268 7.514c1.632-.134 4.688-.208 6.37-.24a1.525 1.525 0 011.515 1.16c.332 1.345.793 3.68.749 6.158a1.354 1.354 0 01-1.36 1.333l-6.21-.034a1.492 1.492 0 01-1.476-1.345l-.576-5.84a1.085 1.085 0 01.988-1.192zm11.496 2.341c-.518-.02-.874.384-.796.896l.155 1a1.131 1.131 0 001.086.926l15.082-.079a.933.933 0 00.924-.946l-.004-.255a1.008 1.008 0 00-.957-.976l-15.49-.566zm22.334-2.516c1.632-.134 4.688-.208 6.37-.24a1.524 1.524 0 011.512 1.158c.332 1.345.792 3.68.749 6.158a1.354 1.354 0 01-1.36 1.333l-6.21-.035a1.491 1.491 0 01-1.475-1.344l-.577-5.84a1.086 1.086 0 01.99-1.19zm11.495 2.34c-.517-.02-.874.384-.796.896l.156 1a1.131 1.131 0 001.086.926l15.082-.079a.933.933 0 00.925-.946l-.005-.255a1.009 1.009 0 00-.958-.976l-15.49-.566z" fill="#fff"/><path d="M26.324 85.852h-.016l-5.73-.025c-.816-.004-1.497-.564-1.579-1.302l-.528-4.806a1.05 1.05 0 01.242-.786 1.257 1.257 0 01.874-.438 128.85 128.85 0 001.882-.162c1.515-.137 3.4-.307 4.461-.326.77-.008 1.425.445 1.61 1.114.304 1.103.291 3.192.244 5.418-.014.722-.668 1.309-1.46 1.313zm-6.703-6.918a.817.817 0 00-.568.28.61.61 0 00-.144.457l.529 4.805c.058.517.548.908 1.143.91l5.73.026h.012c.555 0 1.013-.397 1.023-.882.044-2.192.058-4.246-.228-5.291-.13-.467-.619-.793-1.178-.791-1.046.018-2.922.187-4.43.324-.722.065-1.403.127-1.89.162h.001z" fill="#fff"/><path opacity=".6" d="M20.24 79.427c1.203-.088 3.818-.367 5.058-.39.524-.009.99.306 1.114.762.245.884.222 2.65.189 4.279-.01.487-.456.88-1.004.874l-4.579-.02c-.563-.003-1.033-.384-1.087-.884l-.423-3.84c-.044-.394.285-.748.731-.78zm11.1 3.206a1.422 1.422 0 001.393 1.053l53.015-.728a1.076 1.076 0 00-.015-2.152l-53.02.034a1.423 1.423 0 00-1.373 1.793z" fill="#fff"/><path d="M26.388 98.133h-.016l-5.73-.026c-.816-.003-1.498-.563-1.579-1.301L18.535 92a1.043 1.043 0 01.242-.787 1.258 1.258 0 01.874-.437c.483-.036 1.163-.097 1.882-.162 1.515-.137 3.4-.308 4.461-.327h.024c.753-.004 1.404.452 1.587 1.115.304 1.101.291 3.19.243 5.417-.014.723-.668 1.309-1.46 1.313zm-6.703-6.917a.815.815 0 00-.57.28.606.606 0 00-.118.213c-.025.079-.033.161-.025.243l.527 4.805c.058.517.548.908 1.143.91l5.73.026h.012c.555-.003 1.013-.397 1.023-.882.044-2.193.058-4.246-.228-5.292-.13-.466-.626-.803-1.178-.79-1.046.018-2.922.188-4.43.324-.721.065-1.402.126-1.889.163h.003z" fill="#fff"/><path opacity=".6" d="M20.303 91.709c1.203-.089 3.818-.368 5.059-.39.525-.01.99.306 1.114.76.244.885.222 2.65.189 4.28-.01.488-.456.88-1.003.877l-4.58-.02c-.563 0-1.032-.384-1.087-.884l-.423-3.84c-.043-.398.285-.75.731-.783zm11.101 3.205a1.424 1.424 0 001.394 1.053l53.015-.725a1.076 1.076 0 00-.016-2.151l-53.02.033a1.423 1.423 0 00-1.373 1.79z" fill="#fff"/><path d="M26.452 110.414h-.017l-5.73-.025c-.82-.004-1.498-.563-1.58-1.302l-.528-4.805a1.047 1.047 0 01.243-.787 1.249 1.249 0 01.874-.438c.483-.035 1.163-.097 1.882-.161 1.515-.137 3.4-.308 4.461-.327h.024c.753-.004 1.404.452 1.587 1.114.304 1.102.291 3.191.243 5.417-.013.724-.667 1.31-1.46 1.314zm-6.703-6.917a.809.809 0 00-.569.279.597.597 0 00-.143.457l.529 4.806c.058.516.548.907 1.143.91l5.73.025h.012c.555 0 1.013-.397 1.023-.882.044-2.192.058-4.246-.228-5.292-.13-.466-.626-.804-1.179-.791-1.045.019-2.921.189-4.43.325-.721.065-1.403.127-1.889.163z" fill="#fff"/><path opacity=".6" d="M20.367 103.989c1.203-.088 3.818-.368 5.059-.389.525-.01.99.306 1.114.761.244.884.221 2.649.189 4.278-.01.489-.457.881-1.003.878l-4.58-.02c-.563 0-1.032-.384-1.088-.884l-.422-3.84c-.044-.397.285-.751.73-.784zm11.101 3.206a1.423 1.423 0 001.394 1.053l53.015-.728a1.076 1.076 0 10-.016-2.152l-53.02.035a1.418 1.418 0 00-1.129.557 1.422 1.422 0 00-.244 1.235z" fill="#fff"/><path d="M26.516 122.695H26.5l-5.73-.025c-.816-.003-1.497-.563-1.579-1.301l-.529-4.805a1.052 1.052 0 01.243-.788 1.266 1.266 0 01.874-.437c.482-.036 1.162-.097 1.882-.162 1.515-.137 3.4-.307 4.461-.326h.022c.753-.003 1.404.452 1.587 1.115.304 1.102.291 3.191.243 5.417-.012.721-.665 1.308-1.458 1.312zm-6.703-6.917a.809.809 0 00-.568.28.602.602 0 00-.144.457l.528 4.805c.059.516.549.908 1.144.91l5.73.025h.012c.555-.003 1.013-.396 1.023-.882.044-2.192.058-4.246-.228-5.291-.13-.466-.626-.806-1.179-.791-1.045.018-2.922.188-4.43.324-.721.066-1.402.127-1.889.163z" fill="#fff"/><path opacity=".6" d="M20.431 116.27c1.203-.088 3.819-.367 5.06-.389.524-.009.99.305 1.114.761.244.885.221 2.649.188 4.279-.01.487-.456.879-1.003.874l-4.58-.02c-.562-.003-1.032-.384-1.087-.884l-.422-3.84c-.045-.394.284-.748.73-.781zm11.101 3.206a1.423 1.423 0 001.393 1.053l53.015-.728a1.073 1.073 0 001.045-1.083 1.075 1.075 0 00-1.06-1.068l-53.02.033a1.418 1.418 0 00-1.395 1.147c-.042.214-.035.435.022.646z" fill="#fff"/><path d="M20.678 117.023a.876.876 0 01.988.061c.093.072.17.161.228.263l1.14 2.02a.277.277 0 00.11.108.272.272 0 00.15.035.274.274 0 00.146-.049.277.277 0 00.099-.118l2.77-6.256a.314.314 0 01.532-.067.313.313 0 01.067.199c-.018 1.909-.506 5.537-3.54 8.594 0 0-1.685-.645-3.054-3.61a.923.923 0 01.364-1.18z" fill="url(#paint3_linear_295_3619)"/><path d="M12.388 15.411a2.743 2.743 0 013.098-2.753c10.981 1.43 48.738 5.837 79.923 3.28a2.537 2.537 0 012.745 2.379l6.829 116.983a2.922 2.922 0 01-2.728 3.086c-13.115.844-67.138 4.127-86.422 2.209a2.312 2.312 0 01-2.083-2.279L12.388 15.411z" fill="#91B3FA"/><path d="M13.693 18.337a2.642 2.642 0 012.982-2.65c10.567 1.377 46.902 5.617 76.913 3.156a2.441 2.441 0 012.642 2.29l6.571 112.579a2.813 2.813 0 01-2.623 2.97c-12.623.812-64.61 3.972-83.168 2.125a2.226 2.226 0 01-2.004-2.193L13.693 18.337z" fill="#BDD0FB"/><path opacity=".78" d="M23.513 26.968l1.247 24.137a1.534 1.534 0 001.497 1.457c4.472.103 18.406.37 26.271-.08a1.714 1.714 0 001.615-1.666c.126-4.528.386-17.708-.674-23.212a1.933 1.933 0 00-1.845-1.563l-26.432-.787a1.63 1.63 0 00-1.679 1.714z" fill="#fff"/><path d="M43.773 36.896a5.19 5.19 0 10-10.01-2.743 5.19 5.19 0 0010.01 2.743z" fill="url(#paint4_linear_295_3619)"/><path d="M30.962 50.799l16.533-.086a1.282 1.282 0 001.065-1.982c-1.416-2.19-4.371-5.403-9.459-5.232-4.903.167-7.796 3.098-9.246 5.197a1.34 1.34 0 001.107 2.103z" fill="url(#paint5_linear_295_3619)"/><path opacity=".6" d="M89.643 28.726c.518-.003.929-.37.914-.816-.015-.447-.452-.816-.97-.822l-28.983-.366c-.518-.006-.798.387-.624.875l.141.393c.175.488.741.885 1.259.882l28.263-.146zm-29.015 2.498c-.518-.006-.799.387-.625.874l.142.393c.174.488.74.885 1.258.882l28.263-.147c.518 0 .93-.37.914-.816-.015-.447-.452-.816-.97-.822l-28.982-.364zm.022 4.565c-.518-.007-.799.387-.624.874l.14.393c.175.487.742.884 1.26.881l28.262-.147c.518-.003.93-.37.914-.816-.015-.446-.452-.816-.97-.821l-28.982-.364zm31.97 24.009c.518-.002.915-.37.883-.816-.032-.446-.48-.81-.999-.812l-67.896-.181c-.517 0-.676.327-.35.73l.559.694c.325.404 1.014.732 1.532.729l66.27-.344zM24.631 62.49c-.517 0-.675.328-.35.731l.56.694c.324.404 1.013.731 1.531.729l66.273-.345c.518 0 .916-.37.884-.816-.031-.447-.481-.811-1-.813l-67.897-.18zm-.266 7.516c1.632-.133 4.688-.207 6.37-.24a1.525 1.525 0 011.512 1.159c.331 1.345.792 3.68.748 6.157a1.354 1.354 0 01-1.359 1.334l-6.21-.035a1.49 1.49 0 01-1.476-1.345l-.576-5.838a1.086 1.086 0 01.99-1.192zm11.495 2.34c-.517-.02-.874.384-.796.895l.155 1.001a1.133 1.133 0 001.087.926l15.081-.079a.933.933 0 00.928-.947l-.005-.255a1.01 1.01 0 00-.958-.976l-15.492-.566zm22.334-2.517c1.632-.134 4.689-.208 6.371-.24a1.525 1.525 0 011.512 1.158c.332 1.345.791 3.68.748 6.158a1.354 1.354 0 01-1.36 1.333l-6.21-.035a1.492 1.492 0 01-1.475-1.344l-.577-5.839a1.086 1.086 0 01.991-1.191zM69.69 72.17c-.517-.02-.874.384-.796.895l.156 1.001a1.13 1.13 0 001.086.926l15.08-.079a.93.93 0 00.926-.946l-.005-.255a1.008 1.008 0 00-.957-.976l-15.49-.567z" fill="#fff"/><path d="M33.246 93.138h-.015l-5.73-.025c-.817-.003-1.498-.563-1.58-1.301l-.528-4.805a1.043 1.043 0 01.243-.787 1.26 1.26 0 01.874-.438c.483-.035 1.162-.097 1.882-.161 1.515-.137 3.4-.308 4.461-.327.77-.007 1.426.445 1.61 1.114.305 1.102.292 3.192.244 5.417-.014.724-.668 1.31-1.46 1.313zm-6.703-6.917a.816.816 0 00-.569.28.608.608 0 00-.143.457l.529 4.805c.058.516.548.908 1.143.91l5.73.026h.012c.555 0 1.013-.397 1.023-.882.044-2.192.058-4.246-.228-5.291-.13-.467-.62-.792-1.178-.791-1.046.018-2.922.188-4.43.324-.721.066-1.402.127-1.889.163z" fill="#fff"/><path opacity=".6" d="M27.162 86.714c1.203-.089 3.818-.368 5.059-.39.524-.009.99.306 1.113.762.245.884.222 2.649.19 4.278-.01.489-.457.88-1.004.878l-4.58-.02c-.563 0-1.032-.385-1.087-.884l-.423-3.84c-.043-.398.285-.75.732-.784zm11.101 3.206a1.422 1.422 0 001.393 1.052l53.015-.727a1.076 1.076 0 10-.015-2.152l-53.02.034a1.422 1.422 0 00-1.373 1.793z" fill="#fff"/><path d="M33.313 105.42h-.016l-5.73-.026c-.816-.003-1.497-.563-1.58-1.302l-.528-4.805a1.047 1.047 0 01.243-.787 1.26 1.26 0 01.874-.437c.483-.035 1.162-.097 1.882-.162 1.515-.137 3.4-.307 4.46-.326h.024c.753-.003 1.404.452 1.587 1.115.305 1.102.292 3.191.244 5.417-.016.722-.67 1.308-1.46 1.313zm-6.703-6.918a.815.815 0 00-.568.28.608.608 0 00-.144.457l.528 4.805c.059.516.549.908 1.144.91l5.73.025h.012c.555 0 1.013-.396 1.023-.881.044-2.193.058-4.247-.228-5.292-.13-.466-.626-.802-1.179-.79-1.045.017-2.922.187-4.43.323-.721.066-1.403.127-1.889.163z" fill="#fff"/><path opacity=".6" d="M27.225 98.995c1.204-.088 3.819-.368 5.06-.39.524-.008.99.306 1.114.762.244.884.221 2.649.188 4.278-.01.488-.456.88-1.003.875l-4.58-.02c-.562-.003-1.032-.384-1.087-.884l-.424-3.837c-.042-.399.286-.748.732-.784zm11.101 3.206a1.42 1.42 0 001.393 1.053l53.016-.726a1.073 1.073 0 001.044-1.083 1.075 1.075 0 00-1.06-1.069l-53.02.034a1.429 1.429 0 00-1.128.557 1.42 1.42 0 00-.245 1.234z" fill="#fff"/><path d="M33.374 117.701h-.015l-5.73-.025c-.817-.004-1.498-.563-1.58-1.302l-.528-4.805a1.045 1.045 0 01.243-.787 1.25 1.25 0 01.874-.438c.482-.035 1.162-.096 1.881-.162 1.516-.137 3.4-.307 4.462-.326h.023c.754-.004 1.404.452 1.587 1.115.304 1.102.292 3.191.244 5.417-.015.722-.668 1.309-1.46 1.313zm-6.706-6.918a.83.83 0 00-.569.28.607.607 0 00-.143.458l.529 4.805c.058.516.548.907 1.143.91l5.73.025h.012c.555-.003 1.013-.397 1.023-.883.044-2.191.058-4.245-.228-5.291-.13-.466-.626-.804-1.178-.791-1.046.019-2.922.188-4.43.325-.721.065-1.403.126-1.889.162z" fill="#fff"/><path opacity=".6" d="M27.29 111.276c1.203-.088 3.817-.368 5.058-.39.525-.009.991.306 1.115.762.244.884.221 2.649.188 4.278-.01.488-.456.88-1.003.878l-4.58-.021c-.562 0-1.032-.383-1.087-.883l-.423-3.84c-.043-.397.285-.751.731-.784zm11.101 3.206a1.42 1.42 0 001.393 1.053l53.015-.728a1.073 1.073 0 001.044-1.084 1.077 1.077 0 00-1.06-1.068l-53.02.034a1.431 1.431 0 00-1.128.558 1.42 1.42 0 00-.244 1.235z" fill="#fff"/><path d="M33.438 129.981h-.015l-5.73-.025c-.82-.003-1.498-.563-1.58-1.301l-.528-4.806a1.044 1.044 0 01.243-.786 1.25 1.25 0 01.874-.438c.483-.035 1.162-.097 1.882-.162 1.515-.137 3.4-.307 4.46-.326h.024c.753-.004 1.404.451 1.587 1.114.305 1.102.292 3.192.244 5.417-.012.723-.669 1.309-1.46 1.313zm-6.703-6.917a.828.828 0 00-.568.28.6.6 0 00-.143.457l.528 4.805c.059.517.549.908 1.143.91l5.731.026h.011c.556 0 1.013-.396 1.023-.882.045-2.192.059-4.246-.228-5.291-.13-.467-.626-.807-1.178-.791-1.045.018-2.922.188-4.43.324-.722.066-1.403.127-1.89.163l.001-.001z" fill="#fff"/><path opacity=".6" d="M27.353 123.557c1.204-.088 3.818-.367 5.06-.389.524-.01.99.306 1.113.761.244.884.222 2.649.19 4.279-.01.488-.457.879-1.004.874l-4.58-.02c-.563 0-1.032-.384-1.087-.884l-.423-3.84c-.044-.394.285-.748.731-.781zm11.102 3.206a1.423 1.423 0 001.394 1.053l53.014-.728a1.077 1.077 0 00-.016-2.152l-53.02.034a1.431 1.431 0 00-1.128.558 1.422 1.422 0 00-.244 1.235z" fill="#fff"/><path d="M27.6 124.31a.874.874 0 01.676-.094.889.889 0 01.54.418l1.14 2.02a.284.284 0 00.406.094.286.286 0 00.098-.119l2.771-6.255a.316.316 0 01.353-.178.32.32 0 01.178.111.317.317 0 01.068.199c-.019 1.909-.506 5.54-3.54 8.594 0 0-1.685-.645-3.054-3.611a.921.921 0 01.365-1.179z" fill="url(#paint6_linear_295_3619)"/><path d="M27.297 111.54a.876.876 0 01.988.061.87.87 0 01.227.263l1.141 2.02a.283.283 0 00.504-.025l2.77-6.255a.319.319 0 01.146-.153.313.313 0 01.454.285c-.019 1.909-.507 5.54-3.54 8.593 0 0-1.685-.644-3.054-3.609a.923.923 0 01.364-1.18z" fill="url(#paint7_linear_295_3619)"/><path d="M27.297 99.285a.88.88 0 011.215.323l1.141 2.021a.28.28 0 00.26.142.274.274 0 00.146-.049.277.277 0 00.098-.118l2.77-6.255a.313.313 0 01.6.132c-.019 1.909-.507 5.54-3.54 8.593 0 0-1.685-.644-3.054-3.609a.924.924 0 01.364-1.18z" fill="url(#paint8_linear_295_3619)"/><path d="M27.6 87.132a.88.88 0 011.215.325l1.141 2.02a.282.282 0 00.504-.025l2.771-6.255a.312.312 0 01.599.132c-.019 1.909-.506 5.54-3.54 8.594 0 0-1.685-.645-3.054-3.61a.923.923 0 01.365-1.18z" fill="url(#paint9_linear_295_3619)"/><path d="M72.87 122.588l.913 28.399c.16 4.954 4.224 8.893 9.201 8.923l68.012.4c3.327.02 6.161-2.397 6.644-5.674 1.064-7.169 2.419-20.004.893-32.048H72.87z" fill="url(#paint10_linear_295_3619)"/><path d="M149.585 158.686a.202.202 0 01-.145-.058.202.202 0 01-.005-.288.204.204 0 01.143-.062 6.192 6.192 0 001.166-.156.191.191 0 01.079-.002.194.194 0 01.132.082.206.206 0 01.033.072.21.21 0 01-.026.153.212.212 0 01-.054.058.212.212 0 01-.072.032 6.517 6.517 0 01-1.244.166l-.007.003zm-2.841-.011l-1.217-.007a.203.203 0 01-.204-.204.204.204 0 01.204-.204l1.217.008a.2.2 0 01.144.06.2.2 0 01.06.144.204.204 0 01-.204.204v-.001zm-4.058-.024l-1.218-.007a.204.204 0 110-.408l1.218.008a.204.204 0 01.144.348.204.204 0 01-.144.06v-.001zm-4.059-.024l-1.218-.007a.204.204 0 010-.408l1.218.007a.2.2 0 01.144.06.2.2 0 01.06.144.204.204 0 01-.204.204zm-4.059-.023l-1.218-.007a.207.207 0 01-.143-.061.198.198 0 01-.058-.144.211.211 0 01.063-.14.22.22 0 01.141-.062l1.217.007a.204.204 0 01.204.204.208.208 0 01-.059.145.208.208 0 01-.145.059l-.002-.001zm-4.059-.024l-1.217-.007a.204.204 0 01-.204-.204c0-.054.021-.106.059-.145a.208.208 0 01.145-.059l1.217.007a.204.204 0 01.145.348.204.204 0 01-.145.06zm-4.058-.025l-1.218-.007a.204.204 0 01-.144-.348.204.204 0 01.144-.06l1.218.007a.204.204 0 010 .408zm-4.059-.023l-1.218-.008a.204.204 0 110-.408l1.218.007a.204.204 0 010 .408v.001zm-4.059-.024l-1.218-.007a.204.204 0 010-.408l1.218.008a.204.204 0 110 .408v-.001zm-4.058-.024l-1.218-.007a.2.2 0 01-.144-.06.2.2 0 01-.06-.144.204.204 0 01.204-.204l1.218.007a.204.204 0 010 .408zm-4.06-.023l-1.217-.008a.204.204 0 110-.408l1.217.007a.204.204 0 01.145.348.204.204 0 01-.145.06v.001zm-4.058-.024l-1.218-.007a.204.204 0 010-.408l1.218.007a.204.204 0 01.144.348.204.204 0 01-.144.06zm-4.059-.025l-1.217-.007a.208.208 0 01-.145-.059.208.208 0 010-.289.209.209 0 01.145-.06l1.217.007a.204.204 0 010 .408zm-4.059-.023l-1.218-.008a.205.205 0 01-.144-.059.206.206 0 010-.289.206.206 0 01.144-.06l1.218.007a.205.205 0 01.144.349.204.204 0 01-.144.059v.001zm-4.058-.024l-1.218-.007a.202.202 0 01-.202-.204c0-.112.106-.188.204-.202l1.218.007a.203.203 0 01.144.348.205.205 0 01-.144.06l-.002-.002zm-4.059-.024l-1.218-.007a.205.205 0 01-.144-.349.204.204 0 01.144-.059l1.218.007a.204.204 0 110 .408zm-4.06-.024l-1.217-.007a.206.206 0 01-.204-.204.203.203 0 01.204-.204l1.218.007a.203.203 0 110 .408zm-4.01-.453a.197.197 0 01-.063-.011 9.018 9.018 0 01-1.152-.471.207.207 0 01-.102-.117.204.204 0 01.127-.258.209.209 0 01.155.011c.355.175.723.325 1.1.45a.204.204 0 01.137.225.205.205 0 01-.07.123.206.206 0 01-.131.048zm71.475-.568a.197.197 0 01-.117-.038.197.197 0 01-.078-.221.196.196 0 01.068-.103c.307-.246.59-.52.845-.819a.204.204 0 01.062-.051.207.207 0 01.226.025.214.214 0 01.071.14.21.21 0 01-.05.149 6.638 6.638 0 01-.9.874.208.208 0 01-.127.044zm-74.9-1.534a.205.205 0 01-.142-.058 9.002 9.002 0 01-.823-.933.2.2 0 01-.04-.15.206.206 0 01.078-.134.209.209 0 01.15-.04.2.2 0 01.134.078c.242.315.504.613.786.892a.204.204 0 01-.028.316.21.21 0 01-.114.034v-.005zm77.073-1.812a.181.181 0 01-.052-.007.194.194 0 01-.071-.034.214.214 0 01-.053-.059.223.223 0 01-.026-.075.21.21 0 01.005-.079c.054-.21.097-.423.129-.638l.079-.539a.204.204 0 01.23-.171.208.208 0 01.134.079.204.204 0 01.038.151l-.079.54a6.55 6.55 0 01-.138.68.202.202 0 01-.2.152h.004zm-79.213-1.596a.2.2 0 01-.192-.138 8.81 8.81 0 01-.318-1.203.202.202 0 01.162-.237.202.202 0 01.237.161c.074.389.175.773.303 1.148a.203.203 0 01-.193.269zm79.801-2.419a.104.104 0 01-.025 0 .203.203 0 01-.175-.226c.048-.393.096-.796.144-1.208a.202.202 0 01.025-.075.2.2 0 01.276-.079.2.2 0 01.06.052.195.195 0 01.036.07c.008.026.01.053.007.079-.048.413-.096.816-.145 1.21a.201.201 0 01-.069.127.2.2 0 01-.135.05h.001zm-80.31-1.587a.206.206 0 01-.14-.057.205.205 0 01-.062-.14l-.04-1.217a.204.204 0 01.12-.191.206.206 0 01.076-.018.208.208 0 01.21.197l.04 1.217a.202.202 0 01-.197.209h-.007zm80.752-2.448h-.019a.204.204 0 01-.183-.222c.039-.398.076-.801.111-1.211a.206.206 0 01.219-.185.206.206 0 01.138.072.208.208 0 01.047.148c-.036.411-.073.816-.111 1.215a.204.204 0 01-.199.183h-.003zm-80.882-1.609a.201.201 0 01-.203-.196l-.039-1.217a.202.202 0 01.055-.145.202.202 0 01.141-.065.208.208 0 01.21.197l.039 1.217a.204.204 0 01-.197.209h-.006zm81.21-2.438h-.014a.2.2 0 01-.139-.069.206.206 0 01-.05-.147c.027-.4.052-.805.074-1.213a.236.236 0 01.02-.078.211.211 0 01.117-.104.21.21 0 01.156.009.203.203 0 01.115.195c-.022.41-.047.816-.074 1.218a.2.2 0 01-.205.189zm-81.34-1.619a.2.2 0 01-.142-.057.205.205 0 01-.062-.139l-.039-1.217a.206.206 0 01.12-.193.19.19 0 01.078-.017.202.202 0 01.21.197l.04 1.217a.199.199 0 01-.055.145.206.206 0 01-.142.064h-.009zm81.544-2.434h-.004a.203.203 0 01-.077-.019.192.192 0 01-.106-.113.191.191 0 01-.013-.078c.013-.403.025-.808.035-1.216a.222.222 0 01.066-.138.227.227 0 01.141-.06.232.232 0 01.078.017.226.226 0 01.065.046.211.211 0 01.042.067c.01.025.014.052.013.078-.009.409-.021.815-.035 1.219a.2.2 0 01-.062.14.207.207 0 01-.143.057zm-81.675-1.622a.203.203 0 01-.202-.196l-.04-1.218a.201.201 0 01.196-.209.21.21 0 01.21.197l.039 1.217a.205.205 0 01-.055.145.208.208 0 01-.141.064h-.007zm81.743-2.438a.192.192 0 01-.143-.059.192.192 0 01-.044-.065.191.191 0 01-.016-.078c0-.403-.003-.809-.009-1.216a.21.21 0 01.058-.144.207.207 0 01.143-.061.212.212 0 01.205.201c.005.408.008.814.009 1.22a.204.204 0 01-.203.202zm-81.874-1.619a.2.2 0 01-.202-.196l-.04-1.218a.202.202 0 01.197-.209.215.215 0 01.209.197l.04 1.217a.2.2 0 01-.12.191.206.206 0 01-.077.018h-.007zm81.788-2.437a.207.207 0 01-.203-.195 82.819 82.819 0 00-.058-1.214.203.203 0 01.192-.213.202.202 0 01.213.191c.023.407.043.813.058 1.219a.204.204 0 01-.194.212h-.008zm-81.918-1.62a.201.201 0 01-.203-.196l-.039-1.217a.2.2 0 01.055-.146.211.211 0 01.065-.046.203.203 0 01.221.039.206.206 0 01.065.14l.04 1.216a.204.204 0 01-.197.21h-.007zm81.657-2.431a.204.204 0 01-.137-.053.21.21 0 01-.065-.132 95.144 95.144 0 00-.116-1.209.204.204 0 01.404-.042c.042.404.081.81.116 1.215a.203.203 0 01-.184.22l-.018.001zm-81.787-1.625a.206.206 0 01-.203-.197l-.04-1.217a.2.2 0 01.12-.191.206.206 0 01.077-.018.215.215 0 01.21.196l.038 1.217a.212.212 0 01-.055.146.211.211 0 01-.14.064h-.007zm80.283-1.218h-1.218a.204.204 0 110-.408h1.218a.204.204 0 010 .408zm-4.059 0h-1.215a.204.204 0 110-.408h1.217a.204.204 0 01.204.204.206.206 0 01-.059.145.206.206 0 01-.145.059h-.002zm-4.059 0h-1.218a.204.204 0 110-.408h1.218a.204.204 0 010 .408zm-4.059 0h-1.217a.204.204 0 110-.408h1.217a.204.204 0 01.204.204.206.206 0 01-.059.145.206.206 0 01-.145.059zm-4.058 0h-1.218a.208.208 0 01-.145-.059.206.206 0 010-.289.209.209 0 01.145-.06h1.221a.204.204 0 010 .408h-.003zm-4.059 0h-1.218a.204.204 0 110-.408h1.218a.204.204 0 010 .408zm-4.059 0h-1.217a.206.206 0 01-.145-.059.204.204 0 01.145-.349h1.217a.204.204 0 010 .408zm-4.059 0h-1.218a.204.204 0 110-.408h1.216a.204.204 0 010 .408h.002zm-4.059 0h-1.217a.204.204 0 110-.408h1.217a.204.204 0 01.204.204.206.206 0 01-.059.145.206.206 0 01-.145.059zm-4.059 0h-1.217a.208.208 0 01-.145-.059.206.206 0 010-.289.209.209 0 01.145-.06h1.217a.204.204 0 01.204.204.206.206 0 01-.059.145.208.208 0 01-.145.059zm-4.058 0h-1.218a.204.204 0 110-.408h1.218a.204.204 0 010 .408zm-4.059 0h-1.218a.204.204 0 110-.408h1.218a.204.204 0 010 .408zm-4.059 0h-1.216a.206.206 0 01-.145-.059.206.206 0 010-.289.207.207 0 01.145-.06h1.217a.204.204 0 010 .408h-.001zm-4.059 0h-1.218a.204.204 0 110-.408h1.218a.204.204 0 010 .408zm-4.059 0h-1.217a.204.204 0 110-.408h1.217a.205.205 0 01.145.349.204.204 0 01-.145.059zm-4.059 0h-1.218a.205.205 0 01-.144-.059.206.206 0 010-.289.206.206 0 01.144-.06h1.22a.205.205 0 01.205.204.204.204 0 01-.204.204h-.003zm-4.058 0H89.12a.204.204 0 110-.408h1.218a.205.205 0 01.204.204.204.204 0 01-.204.204zm-4.059 0h-1.218a.204.204 0 01-.204-.204.203.203 0 01.204-.204h1.218a.205.205 0 01.144.349.204.204 0 01-.144.059zm-4.06 0h-1.217a.205.205 0 01-.144-.059.206.206 0 010-.289.206.206 0 01.144-.06h1.218a.206.206 0 01.204.204.206.206 0 01-.06.145.205.205 0 01-.144.059zm-4.058 0h-1.217a.204.204 0 110-.408h1.217a.205.205 0 01.144.349.204.204 0 01-.144.059z" fill="#fff"/><path d="M92.8 101.971l.206-2.19a1.683 1.683 0 011.276-.984c2.119-.336 7.373-.932 9.903.961l.378 2.545-11.762-.332z" fill="url(#paint11_linear_295_3619)"/><path d="M99.42 99.863c-.482.12-.985.12-1.467 0a1.324 1.324 0 01-1.01-1.282v-6.86h3.491v6.853a1.332 1.332 0 01-1.015 1.289z" fill="url(#paint12_linear_295_3619)"/><path d="M126.607 101.971l.205-2.19a1.677 1.677 0 011.277-.984c2.118-.336 7.373-.932 9.903.961l.378 2.545-11.763-.332z" fill="url(#paint13_linear_295_3619)"/><path d="M133.225 99.863a3.03 3.03 0 01-1.466 0 1.325 1.325 0 01-1.01-1.282v-7.584h3.49v7.578a1.331 1.331 0 01-1.014 1.288z" fill="url(#paint14_linear_295_3619)"/><path d="M96.589 93.401l37.537-1.242a1.807 1.807 0 001.729-1.486c.206-1.175.387-2.934.116-4.757-.307-2.074-2.091-3.614-4.196-3.665-7.002-.166-24.831-.161-34.654 3.725a3.433 3.433 0 00-2.072 2.381c-.251 1.032-.418 2.41-.09 3.811a1.614 1.614 0 001.63 1.233z" fill="url(#paint15_linear_295_3619)"/><path d="M95.938 91.691a.408.408 0 01-.403-.365c-.006-.058-.147-1.515.233-2.914a3.373 3.373 0 012.296-2.332c2.103-.616 6.12-1.665 9.413-1.758a.41.41 0 01.023.812c-3.201.09-7.143 1.12-9.21 1.726a2.556 2.556 0 00-1.74 1.767c-.34 1.257-.21 2.608-.208 2.623a.408.408 0 01-.363.445c-.013-.004-.027-.004-.04-.004z" fill="#fff"/><path d="M75.386 101.117c12.124-.155 64.583-.706 79.823 1.133a3.103 3.103 0 012.667 2.402c.901 4.071 2.712 13.527 2.497 22.901-.029 1.275-.965 2.351-2.224 2.59l-34.782 6.581H111.01l-37.062-7.368a2.9 2.9 0 01-2.337-2.69c-.24-4.716-.617-15.781.658-22.903a3.205 3.205 0 013.117-2.646z" fill="url(#paint16_linear_295_3619)"/><path d="M111.305 133.929a.181.181 0 01-.04-.004l-1.194-.238a.205.205 0 01-.135-.084.186.186 0 01-.032-.075.2.2 0 01.246-.238l1.184.233a.122.122 0 01.027 0h1.218a.204.204 0 01.144.348.204.204 0 01-.144.06h-1.219a.245.245 0 01-.055-.002zm9.392 0h-1.218a.2.2 0 01-.144-.06.2.2 0 01-.06-.144.204.204 0 01.204-.204h1.218a.204.204 0 010 .408zm-4.06 0h-1.217a.2.2 0 01-.144-.06.2.2 0 01-.06-.144.204.204 0 01.204-.204h1.217a.204.204 0 01.145.348.203.203 0 01-.145.06zm6.892-.084a.202.202 0 01-.201-.184.197.197 0 01.04-.141.195.195 0 01.124-.077l1.196-.227a.21.21 0 01.152.032.213.213 0 01.056.056.21.21 0 01.029.153.215.215 0 01-.031.073.187.187 0 01-.057.055.195.195 0 01-.073.03l-1.197.226a.233.233 0 01-.038.004zm-16.204-.707a.271.271 0 01-.04-.004l-1.194-.238a.202.202 0 01-.129-.086c-.03-.045-.04-.1-.03-.152a.204.204 0 01.239-.16l1.193.238a.203.203 0 01-.039.402zm20.194-.048a.204.204 0 01-.161-.324.201.201 0 01.123-.078l1.196-.226a.199.199 0 01.152.031.201.201 0 01.054.282.2.2 0 01-.13.085l-1.197.226a.123.123 0 01-.039.004h.002zm-24.175-.744a.172.172 0 01-.039-.004l-1.195-.237a.207.207 0 01-.129-.087c-.03-.044-.04-.099-.03-.152a.207.207 0 01.086-.129c.045-.03.1-.041.153-.03l1.194.238a.201.201 0 01.096.348.2.2 0 01-.136.053zm28.163-.01a.204.204 0 01-.2-.184.21.21 0 01.04-.141.2.2 0 01.122-.078l1.197-.226a.204.204 0 01.237.162.204.204 0 01-.162.237l-1.196.226a.175.175 0 01-.04.004h.002zm3.988-.758a.204.204 0 01-.038-.402l1.197-.226a.203.203 0 01.152.031.204.204 0 01-.077.367l-1.196.227a.152.152 0 01-.042.006l.004-.003zm-36.132-.026a.176.176 0 01-.04-.004l-1.194-.237a.204.204 0 01-.073-.369.197.197 0 01.153-.029l1.194.237a.2.2 0 01.125.078.2.2 0 01-.027.272.2.2 0 01-.138.052zm40.12-.728a.203.203 0 01-.038-.403l1.197-.226a.21.21 0 01.152.032.187.187 0 01.055.057.195.195 0 01.029.152.197.197 0 01-.087.128.206.206 0 01-.074.03l-1.196.227a.263.263 0 01-.039.006l.001-.003zm-44.1-.063a.262.262 0 01-.04-.004l-1.195-.238a.207.207 0 01-.076-.028.203.203 0 01.074-.372.185.185 0 01.082.003l1.194.237a.203.203 0 01.164.219.204.204 0 01-.204.183zm48.087-.692a.203.203 0 01-.038-.402l1.197-.227a.21.21 0 01.146.037.202.202 0 01.052.275.205.205 0 01-.123.088l-1.197.226a.238.238 0 01-.037.006v-.003zm-52.07-.099a.27.27 0 01-.04-.004l-1.194-.238a.192.192 0 01-.076-.029.19.19 0 01-.059-.056.196.196 0 01-.032-.155.203.203 0 01.246-.158l1.195.238a.203.203 0 01.098.35.204.204 0 01-.137.052zm56.058-.655a.203.203 0 01-.038-.402l1.197-.227a.21.21 0 01.152.032.187.187 0 01.055.057.195.195 0 01.029.152.197.197 0 01-.087.128.206.206 0 01-.074.03l-1.196.227a.271.271 0 01-.038.006v-.003zm-60.037-.137a.181.181 0 01-.04-.004l-1.194-.237a.208.208 0 01-.13-.086.205.205 0 01.057-.282.2.2 0 01.152-.03l1.194.238a.202.202 0 01-.039.401zm64.026-.618a.202.202 0 01-.201-.184.2.2 0 01.04-.141.2.2 0 01.124-.077l1.197-.226a.191.191 0 01.079.001.197.197 0 01.128.087.206.206 0 01.029.153.215.215 0 01-.031.073.187.187 0 01-.057.055.195.195 0 01-.073.03l-1.197.226a.263.263 0 01-.039.006l.001-.003zm-68.007-.175a.136.136 0 01-.04-.004l-1.194-.237a.196.196 0 01-.129-.086.2.2 0 01-.03-.153.202.202 0 01.239-.159l1.193.238a.204.204 0 01.162.218.2.2 0 01-.065.13.2.2 0 01-.136.053zm71.996-.582a.201.201 0 01-.202-.184.197.197 0 01.04-.141.2.2 0 01.124-.078l1.197-.226a.189.189 0 01.082-.003.19.19 0 01.076.029.21.21 0 01.09.134.206.206 0 01-.173.239l-1.196.226a.18.18 0 01-.04.01l.002-.006zm-75.977-.211a.176.176 0 01-.04-.004l-1.195-.23a.196.196 0 01-.13-.086.202.202 0 01.056-.281.216.216 0 01.074-.031.211.211 0 01.079 0l1.194.238a.203.203 0 01-.04.402l.002-.008zm-3.98-.791a.176.176 0 01-.04-.004l-1.033-.196-.024-.482a.205.205 0 01.052-.147.226.226 0 01.064-.047.204.204 0 01.077-.018c.109-.023.207.08.212.192l.008.166.722.143a.205.205 0 01.164.22.204.204 0 01-.204.183l.001-.01zm81.911-1.444a.202.202 0 01-.203-.201c-.005-.405-.014-.81-.026-1.213a.207.207 0 01.197-.209c.054 0 .105.021.143.057a.208.208 0 01.066.14c.012.406.021.813.026 1.221a.203.203 0 01-.015.077.197.197 0 01-.108.112.204.204 0 01-.077.016h-.003zm-82.921-1.893a.202.202 0 01-.141-.058.201.201 0 01-.062-.139c-.013-.39-.026-.798-.037-1.218a.202.202 0 01.055-.145.206.206 0 01.142-.064.216.216 0 01.209.198c.01.42.024.826.036 1.216a.201.201 0 01-.054.145.201.201 0 01-.141.065h-.007zm82.761-2.162a.206.206 0 01-.139-.054.204.204 0 01-.063-.135c-.027-.408-.056-.812-.087-1.213a.212.212 0 01.009-.079.21.21 0 01.101-.118.205.205 0 01.274.089c.012.024.019.05.021.076.031.403.058.81.087 1.219a.206.206 0 01-.051.147.2.2 0 01-.139.068h-.013zm-82.854-1.897a.205.205 0 01-.143-.058.203.203 0 01-.06-.142c-.005-.401-.008-.807-.01-1.22a.206.206 0 01.06-.144.206.206 0 01.287 0 .204.204 0 01.058.142c0 .412.004.817.01 1.217a.204.204 0 01-.123.189.206.206 0 01-.077.016h-.002zm82.502-2.148a.204.204 0 01-.135-.053.201.201 0 01-.067-.129c-.043-.407-.089-.81-.138-1.207a.205.205 0 01.254-.221.205.205 0 01.123.095.2.2 0 01.024.075c.048.399.094.804.139 1.213a.202.202 0 01-.18.223.147.147 0 01-.022.01l.002-.006zm-82.498-1.906h-.004a.203.203 0 01-.2-.206c.007-.405.015-.811.025-1.22a.21.21 0 01.208-.198.207.207 0 01.184.13.21.21 0 01.014.078c-.01.406-.019.812-.025 1.216a.204.204 0 01-.203.2zm81.982-2.116a.205.205 0 01-.201-.175c-.06-.41-.122-.811-.183-1.202a.176.176 0 01.003-.079.196.196 0 01.033-.072.2.2 0 01.211-.078.199.199 0 01.154.165c.061.393.123.795.184 1.208a.206.206 0 01-.201.234v-.001zm-81.85-1.941h-.01a.204.204 0 01-.141-.066.207.207 0 01-.052-.147c.022-.408.046-.815.072-1.219a.203.203 0 01.068-.14.202.202 0 01.148-.049.207.207 0 01.14.069.207.207 0 01.05.148c-.027.401-.052.806-.073 1.213a.2.2 0 01-.202.191zm81.188-2.063a.207.207 0 01-.13-.047.204.204 0 01-.069-.12c-.078-.419-.153-.817-.226-1.194a.207.207 0 01.025-.159.213.213 0 01.057-.059.21.21 0 01.158-.031.212.212 0 01.131.094c.014.023.023.05.027.077.074.379.149.779.226 1.199a.203.203 0 01-.162.234.238.238 0 01-.037.006zm-80.87-1.982h-.023a.201.201 0 01-.136-.075.2.2 0 01-.043-.149c.045-.413.095-.817.148-1.214a.201.201 0 01.304-.149.199.199 0 01.095.124.2.2 0 01.005.079c-.053.392-.103.793-.148 1.204a.2.2 0 01-.202.18zm79.896-1.836h-.023a57.392 57.392 0 00-1.207-.13.2.2 0 01-.175-.143c-.008-.026-.01-.052-.008-.079a.205.205 0 01.222-.182c.432.042.836.085 1.214.13a.2.2 0 01.177.213.203.203 0 01-.2.192v-.001zm-4.042-.366h-.015c-.388-.028-.793-.055-1.213-.082a.207.207 0 01-.141-.069.206.206 0 01.019-.289.206.206 0 01.148-.05c.419.027.825.054 1.216.082a.207.207 0 01.143.065.206.206 0 01.054.146.207.207 0 01-.065.143.188.188 0 01-.068.041.189.189 0 01-.078.013zm-4.052-.242h-.01c-.397-.021-.802-.04-1.216-.059a.2.2 0 01-.141-.066.2.2 0 01-.053-.147.203.203 0 01.213-.195c.415.019.821.039 1.217.059a.199.199 0 01.136.066.198.198 0 01.052.141.203.203 0 01-.198.198v.003zm-4.055-.175h-.008l-1.216-.045a.202.202 0 01-.196-.209.211.211 0 01.21-.196l1.217.044a.202.202 0 01.2.207.202.202 0 01-.062.143.202.202 0 01-.145.058v-.002zm-4.057-.135h-.006l-1.217-.035a.205.205 0 01-.142-.063.209.209 0 01-.04-.224.213.213 0 01.046-.065.193.193 0 01.068-.042.177.177 0 01.079-.012l1.218.034a.204.204 0 01-.006.408v-.001zm-4.058-.105h-.004l-1.218-.028a.197.197 0 01-.143-.061.208.208 0 01-.059-.145.206.206 0 01.207-.202h.004l1.217.027a.205.205 0 01.188.128.19.19 0 01.014.078.199.199 0 01-.127.187.213.213 0 01-.079.015v.001zm-4.058-.082h-.004l-1.217-.022a.204.204 0 11.003-.408h.004l1.217.021a.21.21 0 01.144.061.208.208 0 01.059.145.202.202 0 01-.206.202v.001zm-53.993 0a.203.203 0 01-.144-.348.205.205 0 01.144-.06l1.22-.015a.206.206 0 01.203.204.206.206 0 01-.06.145.205.205 0 01-.144.059l-1.218.015zm4.061-.047a.204.204 0 110-.408l1.219-.012a.206.206 0 01.203.204.203.203 0 01-.204.204l-1.218.012zm45.873-.017l-1.218-.015a.21.21 0 01-.144-.061.202.202 0 01-.058-.145.202.202 0 01.205-.202l1.218.016a.204.204 0 010 .408l-.003-.001zm-41.815-.026a.204.204 0 110-.408l1.219-.011a.206.206 0 01.204.204.203.203 0 01-.204.204l-1.219.011zm37.753-.025l-1.217-.012a.204.204 0 01-.145-.348.203.203 0 01.145-.06l1.218.011a.204.204 0 010 .408l-.001.001zm-33.693-.008a.203.203 0 01-.144-.348.205.205 0 01.144-.06l1.218-.009a.205.205 0 01.144.349.204.204 0 01-.144.059l-1.219.008.001.001zm29.635-.027l-1.217-.008a.203.203 0 01-.204-.204.204.204 0 01.204-.204l1.217.008a.204.204 0 110 .408zm-25.575.002a.206.206 0 01-.204-.204.203.203 0 01.204-.204l1.218-.006a.204.204 0 110 .408l-1.218.007v-.001zm4.06-.02a.206.206 0 01-.204-.204.205.205 0 01.204-.204l1.218-.006a.206.206 0 01.204.204.207.207 0 01-.06.145.205.205 0 01-.144.059l-1.218.005v.001zm17.455-.004l-1.218-.005a.204.204 0 110-.408l1.218.005a.204.204 0 010 .408zm-13.395-.01a.204.204 0 010-.408l1.218-.003a.204.204 0 110 .408l-1.218.003zm9.336 0h-1.218a.204.204 0 010-.408h1.218c.054 0 .106.021.145.059a.206.206 0 010 .289.209.209 0 01-.145.06zm-5.277-.004a.204.204 0 010-.408h1.214a.2.2 0 01.144.059c.038.038.06.089.061.143a.206.206 0 01-.124.188.207.207 0 01-.077.015h-1.215l-.003.003z" fill="#fff"/><path d="M122.202 141.911h-10.824a2.801 2.801 0 01-2.782-2.457l-1.25-10.417a2.79 2.79 0 011.635-2.876 2.795 2.795 0 011.146-.243h13.004c.387-.001.771.079 1.127.234a2.804 2.804 0 011.524 1.659c.125.367.173.756.139 1.142l-.929 10.416a2.797 2.797 0 01-2.79 2.542z" fill="url(#paint17_linear_295_3619)"/><path d="M102.221 30.516a.654.654 0 01-.647-.583 25.97 25.97 0 01-.137-2.215.64.64 0 01.392-.61.647.647 0 01.249-.054h.013a.65.65 0 01.651.641c.013.703.058 1.412.13 2.107a.643.643 0 01-.338.64.647.647 0 01-.242.076.539.539 0 01-.071-.002zm.041-5.675a.653.653 0 01-.647-.729 26.35 26.35 0 01.354-2.191.665.665 0 01.28-.413.647.647 0 01.724.005.66.66 0 01.274.416.659.659 0 01-.002.254c-.14.685-.253 1.386-.336 2.083a.654.654 0 01-.647.575zm1.292-5.525a.647.647 0 01-.533-.276.652.652 0 01-.081-.594c.247-.695.528-1.388.834-2.059a.654.654 0 011.07-.173.656.656 0 01.115.714 24.555 24.555 0 00-.792 1.955.65.65 0 01-.613.433zm2.494-5.099a.651.651 0 01-.549-1.002c.397-.622.826-1.235 1.274-1.82a.65.65 0 111.034.792 24.556 24.556 0 00-1.21 1.73.65.65 0 01-.549.3zm3.568-4.414a.654.654 0 01-.603-.404.65.65 0 01.145-.711 26.668 26.668 0 011.645-1.493.65.65 0 011.062.56.653.653 0 01-.228.441c-.54.45-1.066.927-1.563 1.419a.653.653 0 01-.458.188zm4.456-3.515a.653.653 0 01-.345-1.205 25.92 25.92 0 011.934-1.091.653.653 0 01.592 1.16c-.625.319-1.243.667-1.838 1.038a.65.65 0 01-.343.098zm23.872-1.55a.647.647 0 01-.269-.06 24.115 24.115 0 00-1.957-.788.654.654 0 01-.45-.582.656.656 0 01.378-.63.653.653 0 01.507-.017c.699.247 1.39.525 2.061.832a.655.655 0 01.367.731.649.649 0 01-.637.514zm-18.752-.891a.653.653 0 01-.559-.984.656.656 0 01.347-.283c.699-.24 1.413-.454 2.128-.634a.651.651 0 11.318 1.264c-.679.17-1.36.373-2.022.601a.655.655 0 01-.212.036zm13.353-.863a.622.622 0 01-.13-.013 25.074 25.074 0 00-2.085-.332.65.65 0 01.148-1.292 26.08 26.08 0 012.194.35.654.654 0 01.517.703.652.652 0 01-.646.586l.002-.002zm-7.816-.37a.652.652 0 01-.068-1.3 26.018 26.018 0 012.215-.14h.014a.65.65 0 01.013 1.302 24.24 24.24 0 00-2.174.14v-.002zm17.191 4.385a.65.65 0 01-.371-.117c-.276-.192-.56-.381-.845-.563a.65.65 0 01-.18-.887.65.65 0 01.879-.212c.3.191.599.39.889.592a.653.653 0 01-.372 1.187zm10.584 16.807a.651.651 0 01-.641-.549 31.441 31.441 0 00-.181-.999.657.657 0 01.089-.497.645.645 0 01.417-.284.655.655 0 01.676.283.667.667 0 01.095.24c.07.35.134.702.19 1.049a.65.65 0 01-.539.746.718.718 0 01-.106.01zm-25.025 29.406c-.3 0-.6-.005-.902-.016a.654.654 0 01-.587-.925.665.665 0 01.374-.34.653.653 0 01.256-.037c.7.023 1.393.019 2.078-.015a.655.655 0 01.631.37.647.647 0 01-.109.723.663.663 0 01-.459.209c-.423.02-.854.03-1.282.03zm-4.324-.366a.67.67 0 01-.111-.01 26.476 26.476 0 01-2.138-.458.66.66 0 01-.41-.297.658.658 0 01.04-.733.66.66 0 01.439-.251.653.653 0 01.258.02c.667.175 1.35.319 2.031.436a.65.65 0 01-.109 1.293zm9.011-.07a.65.65 0 01-.646-.592.652.652 0 01.526-.7 24.83 24.83 0 002.022-.47.65.65 0 01.742.947.641.641 0 01-.393.308c-.699.195-1.416.36-2.128.495a.677.677 0 01-.12.011h-.003zm-14.38-1.472a.658.658 0 01-.249-.05 24.297 24.297 0 01-1.981-.917.65.65 0 01-.123-1.076.653.653 0 01.719-.082c.612.315 1.247.608 1.884.87a.654.654 0 01.392.73.654.654 0 01-.64.525h-.002zm19.717-.162a.653.653 0 01-.259-1.25 24.89 24.89 0 001.869-.903.653.653 0 01.945.763.656.656 0 01-.329.385 26.36 26.36 0 01-1.968.95.657.657 0 01-.258.055zm4.849-2.766a.654.654 0 01-.62-.45.656.656 0 01.237-.728c.558-.408 1.108-.84 1.628-1.29a.65.65 0 01.851.987c-.549.474-1.126.932-1.713 1.357a.65.65 0 01-.383.127v-.003zm4.132-3.757a.65.65 0 01-.644-.748.654.654 0 01.156-.334c.457-.518.897-1.06 1.308-1.614a.645.645 0 01.429-.266.653.653 0 01.731.814.663.663 0 01-.115.23 26.369 26.369 0 01-1.376 1.698.663.663 0 01-.489.22zm3.213-4.568a.656.656 0 01-.56-.32.65.65 0 01-.01-.645c.332-.605.641-1.23.923-1.86a.638.638 0 01.361-.344.651.651 0 01.829.873 26.27 26.27 0 01-.971 1.959.655.655 0 01-.572.337zm2.133-5.164a.65.65 0 01-.626-.832c.19-.661.355-1.34.489-2.017a.652.652 0 011.279.254 26.437 26.437 0 01-.516 2.123.65.65 0 01-.626.472zm.946-5.503h-.04a.65.65 0 01-.611-.69 25.135 25.135 0 00.04-2.076.652.652 0 01.638-.667.642.642 0 01.665.637 26.957 26.957 0 01-.042 2.185.654.654 0 01-.65.61zm-39.9 19.224a.654.654 0 01-.375-.116 22.873 22.873 0 01-.86-.633.654.654 0 01-.234-.685.652.652 0 011.026-.349c.268.206.544.408.816.6a.65.65 0 01-.376 1.185l.003-.002z" fill="#BDD0FB"/><path d="M113.754 41.052a.303.303 0 00.341.093l3.478-1.279a16.136 16.136 0 004.605 2.48l.848 3.605a.304.304 0 00.266.233l4.422.448a.303.303 0 00.307-.174l1.554-3.362a16.16 16.16 0 005.009-1.506l3.151 1.95a.305.305 0 00.353-.022l3.444-2.81a.307.307 0 00.093-.341l-1.279-3.48a16.13 16.13 0 002.48-4.604l3.605-.848a.305.305 0 00.233-.266l.448-4.422a.305.305 0 00-.175-.307l-3.362-1.554a16.11 16.11 0 00-1.506-5.01l1.951-3.147a.308.308 0 00-.023-.353l-2.811-3.444a.303.303 0 00-.341-.094l-3.478 1.28a16.153 16.153 0 00-4.604-2.48l-.849-3.605a.304.304 0 00-.265-.234l-4.423-.448a.305.305 0 00-.307.175l-1.554 3.362a16.16 16.16 0 00-5.009 1.506l-3.151-1.95a.304.304 0 00-.353.022l-3.443 2.81a.301.301 0 00-.093.34l1.278 3.48a16.158 16.158 0 00-2.48 4.605l-3.605.848a.31.31 0 00-.159.095.314.314 0 00-.074.17l-.448 4.423a.303.303 0 00.175.307l3.362 1.554c.226 1.74.735 3.432 1.506 5.008l-1.95 3.151a.302.302 0 00.023.354l2.81 3.441z" fill="url(#paint18_linear_295_3619)"/><path opacity=".56" d="M127.467 31.459a4.474 4.474 0 01-3.334-7.454 4.474 4.474 0 016.19-.457 4.468 4.468 0 01-2.856 7.911zm.011-7.895a3.432 3.432 0 00-3.397 3.925 3.418 3.418 0 002.431 2.79 3.423 3.423 0 004.348-2.802 3.42 3.42 0 00-1.534-3.366 3.423 3.423 0 00-1.848-.547z" fill="#fff"/><path opacity=".56" d="M127.559 37.913a11.154 11.154 0 01-3.204-.472l-.022-.006-.065-.02-.126-.04a.258.258 0 01-.18-.227.256.256 0 01.062-.19.26.26 0 01.278-.08 10.479 10.479 0 0011.457-3.48 10.398 10.398 0 002.191-5.42 10.464 10.464 0 00-9.357-11.465c-5.744-.583-10.885 3.614-11.467 9.357a10.474 10.474 0 00.933 5.496.25.25 0 01.025.111.261.261 0 01-.496.11 10.983 10.983 0 01-.981-5.77c.61-6.028 6.012-10.434 12.038-9.824a10.992 10.992 0 019.88 10.908 10.989 10.989 0 01-10.969 11.01l.003.002z" fill="#fff"/><path d="M79.99 47.684a.403.403 0 01-.387-.291 17.137 17.137 0 01-.26-.997.404.404 0 01.301-.488.403.403 0 01.483.309c.073.317.157.636.249.95a.4.4 0 01-.387.515v.002zm-.596-3.036a.401.401 0 01-.4-.361 17.395 17.395 0 01-.086-2.14.417.417 0 01.408-.394.403.403 0 01.394.408c0 .12-.004.237-.004.356 0 .563.028 1.126.086 1.686a.402.402 0 01-.36.441l-.038.004zm.088-4.177a.403.403 0 01-.4-.46c.103-.707.248-1.407.435-2.097a.402.402 0 11.776.21 16.77 16.77 0 00-.413 2.001.403.403 0 01-.398.345v.001zm1.099-4.03a.403.403 0 01-.372-.556c.272-.66.585-1.305.937-1.927a.403.403 0 11.7.396 16.442 16.442 0 00-.894 1.838.403.403 0 01-.371.247v.002zm2.056-3.638a.402.402 0 01-.323-.641c.426-.574.887-1.122 1.38-1.64a.402.402 0 11.583.556c-.47.494-.91 1.016-1.316 1.563a.402.402 0 01-.324.16v.002zm2.882-3.024a.403.403 0 01-.255-.714A17.476 17.476 0 0187 27.811a.402.402 0 11.43.68c-.577.364-1.13.763-1.658 1.195a.402.402 0 01-.253.09v.003zm3.528-2.234a.403.403 0 01-.175-.766c.646-.305 1.31-.57 1.989-.793a.402.402 0 11.251.765c-.647.213-1.28.466-1.896.758a.4.4 0 01-.169.034v.002zm3.964-1.303a.402.402 0 01-.077-.797c.701-.137 1.41-.23 2.123-.28a.403.403 0 01.058.803 16.46 16.46 0 00-2.025.267.443.443 0 01-.076.006l-.003.001zm6.247-.05a.407.407 0 01-.07-.007 16.698 16.698 0 00-2.025-.234.402.402 0 11.042-.804 17.347 17.347 0 012.129.244.402.402 0 01-.07.799l-.006.002zM96.52 59.878a.403.403 0 01-.006-.805c.67-.008 1.34-.058 2.004-.147a.404.404 0 01.443.502.402.402 0 01-.336.296c-.695.093-1.396.145-2.098.154h-.008zm-2.057-.097h-.044a17.607 17.607 0 01-2.077-.35.403.403 0 01.181-.784c.654.15 1.315.262 1.982.334a.403.403 0 01-.042.802v-.002zm6.128-.453a.402.402 0 01-.102-.791c.648-.171 1.286-.38 1.909-.628a.401.401 0 01.513.229.404.404 0 01-.216.52 17.41 17.41 0 01-2.002.657.387.387 0 01-.102.013zm-10.132-.475a.397.397 0 01-.138-.024 17.337 17.337 0 01-1.933-.842.403.403 0 01.366-.717c.597.305 1.212.573 1.842.803a.402.402 0 01-.137.78zm13.949-1.043a.404.404 0 01-.373-.565c.037-.082.1-.15.18-.192a16.59 16.59 0 001.702-1.069.397.397 0 01.308-.088.401.401 0 01.277.63.406.406 0 01-.119.113c-.572.41-1.168.785-1.784 1.124a.409.409 0 01-.191.047zm3.342-2.39a.402.402 0 01-.272-.699c.495-.453.962-.935 1.399-1.444a.398.398 0 01.568-.043.405.405 0 01.12.43.401.401 0 01-.077.137c-.458.534-.947 1.04-1.465 1.516a.404.404 0 01-.273.104zm2.674-3.121a.398.398 0 01-.394-.324.395.395 0 01.059-.302c.372-.558.709-1.138 1.011-1.737a.39.39 0 01.233-.202.399.399 0 01.43.12.403.403 0 01.055.443 17.343 17.343 0 01-1.059 1.823.4.4 0 01-.335.18v-.001zm-23.643 4.675a.396.396 0 01-.225-.069 17.335 17.335 0 01-.834-.6.403.403 0 11.49-.642c.255.196.524.39.796.574a.402.402 0 01-.227.735v.002z" fill="#BDD0FB"/><path d="M87.116 51.776a.203.203 0 00.228.063l2.327-.856c.93.717 1.971 1.277 3.082 1.66l.568 2.411a.202.202 0 00.174.157l2.96.3a.203.203 0 00.205-.117l1.04-2.25a10.792 10.792 0 003.351-1.008l2.109 1.305a.204.204 0 00.236-.015l2.304-1.88a.202.202 0 00.063-.228l-.856-2.328a10.77 10.77 0 001.659-3.081l2.413-.568a.203.203 0 00.156-.178l.3-2.959a.206.206 0 00-.117-.206l-2.25-1.04a10.785 10.785 0 00-1.008-3.35l1.306-2.11a.2.2 0 00-.016-.233l-1.877-2.307a.204.204 0 00-.229-.063l-2.328.853a10.8 10.8 0 00-3.08-1.659l-.568-2.412a.203.203 0 00-.178-.156l-2.96-.3a.204.204 0 00-.205.117l-1.04 2.254a10.806 10.806 0 00-3.352 1.008l-2.108-1.305a.203.203 0 00-.233.015l-2.305 1.88a.204.204 0 00-.062.229l.856 2.327c-.717.93-1.278 1.97-1.66 3.082l-2.412.567a.204.204 0 00-.156.178l-.3 2.959a.205.205 0 00.117.206l2.25 1.04a10.812 10.812 0 001.007 3.351l-1.305 2.108a.204.204 0 00.015.233l1.879 2.306z" fill="url(#paint19_linear_295_3619)"/><path opacity=".56" d="M96.287 45.411a3.056 3.056 0 11.002-6.11 3.056 3.056 0 01-.002 6.11zm.009-5.283a2.24 2.24 0 10-.003 4.479 2.24 2.24 0 00.003-4.479z" fill="#fff"/><path opacity=".56" d="M96.346 49.903a7.636 7.636 0 01-2.285-.349l-.066-.021a.402.402 0 11.247-.766 6.81 6.81 0 001.412.297l.079.007a6.708 6.708 0 004.84-1.46l.012-.01.035-.029a6.735 6.735 0 002.492-5.262 6.767 6.767 0 00-2.544-5.279 6.779 6.779 0 00-8.424-.03 6.775 6.775 0 00-1.942 8.197.398.398 0 01-.05.423.402.402 0 01-.678-.08 7.564 7.564 0 01-.678-3.981 7.58 7.58 0 0115.083 1.527c-.394 3.9-3.695 6.816-7.533 6.816z" fill="#fff"/><path d="M64.332 104.641L7.626 151.373a5.29 5.29 0 00-1.595 5.917 5.293 5.293 0 001.151 1.832l.35.364a4.91 4.91 0 005.358 1.155 4.928 4.928 0 001.615-1.049l52.854-51.608-3.027-3.343z" fill="url(#paint20_linear_295_3619)"/><path opacity=".5" d="M100.373 111.359c17.746-6.281 27.132-25.499 20.965-42.925-6.168-17.426-25.554-26.461-43.3-20.18-17.746 6.28-27.132 25.499-20.965 42.925 6.167 17.426 25.553 26.461 43.3 20.18z" fill="#fff"/><path d="M76.78 44.692c-19.746 6.99-30.192 28.374-23.327 47.764 6.865 19.391 28.434 29.444 48.181 22.455 19.746-6.989 30.193-28.374 23.327-47.764-6.865-19.39-28.433-29.444-48.18-22.455zm23.028 65.064c-16.845 5.962-35.248-2.614-41.103-19.156-5.855-16.542 3.055-34.786 19.9-40.748 16.847-5.963 35.25 2.614 41.105 19.156 5.855 16.542-3.056 34.783-19.902 40.748z" fill="url(#paint21_linear_295_3619)"/><path d="M57.626 95.7a.097.097 0 01-.087-.053 34.115 34.115 0 01-1.107-2.428.097.097 0 01.053-.127.097.097 0 01.127.053 34.58 34.58 0 001.102 2.415.098.098 0 01-.004.094.098.098 0 01-.083.047h-.001zm-3.23-9.9a.097.097 0 01-.095-.082 34.11 34.11 0 01-.409-7.25c.35-6.857 2.723-13.437 6.863-19.03 4.24-5.725 10.065-10.02 16.845-12.42 6.378-2.258 13.204-2.682 19.743-1.225a.097.097 0 01-.043.19c-6.502-1.45-13.29-1.03-19.635 1.215-6.744 2.39-12.538 6.66-16.754 12.357-4.118 5.562-6.477 12.105-6.824 18.923a33.93 33.93 0 00.403 7.21.097.097 0 01-.08.111h-.014zm-42.61 73.53c-2.182 0-3.594-.76-4.197-2.262-.617-1.528-.15-3.315 1.161-4.447l6.737-5.813a.091.091 0 01.072-.028c.014 0 .027.003.039.009a.095.095 0 01.05.059.096.096 0 01-.034.107l-6.74 5.817c-1.248 1.076-1.693 2.775-1.107 4.226.578 1.436 1.946 2.157 4.086 2.141a.093.093 0 01.064.031.098.098 0 01-.064.163l-.067-.003zm5.838-14.143a.092.092 0 01-.056-.018.094.094 0 01-.035-.046.094.094 0 01-.003-.057.095.095 0 01.03-.05l.875-.754a.1.1 0 01.07-.022.097.097 0 01.066.034.096.096 0 01.023.07.098.098 0 01-.032.066l-.875.754a.098.098 0 01-.063.023z" fill="#fff"/><defs><linearGradient id="paint0_linear_295_3619" x1="179.832" y1="186.5" x2="35.242" y2="38.202" gradientUnits="userSpaceOnUse"><stop stop-color="#DAE3FE"/><stop offset="1" stop-color="#E9EFFD"/></linearGradient><linearGradient id="paint1_linear_295_3619" x1="24.487" y1="16.25" x2="67.079" y2="90.322" gradientUnits="userSpaceOnUse"><stop stop-color="#CE1567"/><stop offset="1" stop-color="#7A1DBC"/></linearGradient><linearGradient id="paint2_linear_295_3619" x1="14838.8" y1="9167.54" x2="16577.6" y2="22603.4" gradientUnits="userSpaceOnUse"><stop stop-color="#CE1567"/><stop offset="1" stop-color="#7A1DBC"/></linearGradient><linearGradient id="paint3_linear_295_3619" x1="53.31" y1="65.661" x2="24.312" y2="115.753" gradientUnits="userSpaceOnUse"><stop stop-color="#A737D5"/><stop offset="1" stop-color="#EF497A"/></linearGradient><linearGradient id="paint4_linear_295_3619" x1="28.714" y1="3.988" x2="73.203" y2="143.48" gradientUnits="userSpaceOnUse"><stop stop-color="#4F52FF"/><stop offset="1" stop-color="#4042E2"/></linearGradient><linearGradient id="paint5_linear_295_3619" x1="16949.1" y1="4013.2" x2="19258.6" y2="22995.2" gradientUnits="userSpaceOnUse"><stop stop-color="#4F52FF"/><stop offset="1" stop-color="#4042E2"/></linearGradient><linearGradient id="paint6_linear_295_3619" x1="-4.082" y1="14.445" x2="40.407" y2="153.938" gradientUnits="userSpaceOnUse"><stop stop-color="#FF928E"/><stop offset="1" stop-color="#FE7062"/></linearGradient><linearGradient id="paint7_linear_295_3619" x1="2980.04" y1="6204.23" x2="11446.1" y2="26099.1" gradientUnits="userSpaceOnUse"><stop stop-color="#FF928E"/><stop offset="1" stop-color="#FE7062"/></linearGradient><linearGradient id="paint8_linear_295_3619" x1="3386.55" y1="6018.99" x2="11852.6" y2="25913.9" gradientUnits="userSpaceOnUse"><stop stop-color="#FF928E"/><stop offset="1" stop-color="#FE7062"/></linearGradient><linearGradient id="paint9_linear_295_3619" x1="3821.47" y1="5822.49" x2="12289.2" y2="25718.5" gradientUnits="userSpaceOnUse"><stop stop-color="#FF928E"/><stop offset="1" stop-color="#FE7062"/></linearGradient><linearGradient id="paint10_linear_295_3619" x1="116.859" y1="203.502" x2="115.736" y2="99.726" gradientUnits="userSpaceOnUse"><stop stop-color="#FF928E"/><stop offset=".71" stop-color="#FE7062"/></linearGradient><linearGradient id="paint11_linear_295_3619" x1="98.91" y1="107.65" x2="98.41" y2="95.536" gradientUnits="userSpaceOnUse"><stop stop-color="#E1473D"/><stop offset="1" stop-color="#E9605A"/></linearGradient><linearGradient id="paint12_linear_295_3619" x1="7564.55" y1="16473.5" x2="8377.53" y2="21264.3" gradientUnits="userSpaceOnUse"><stop stop-color="#E1473D"/><stop offset="1" stop-color="#E9605A"/></linearGradient><linearGradient id="paint13_linear_295_3619" x1="32232.6" y1="8909.26" x2="32221.7" y2="8104.23" gradientUnits="userSpaceOnUse"><stop stop-color="#E1473D"/><stop offset="1" stop-color="#E9605A"/></linearGradient><linearGradient id="paint14_linear_295_3619" x1="9613.78" y1="17538.9" x2="10570.9" y2="22723.8" gradientUnits="userSpaceOnUse"><stop stop-color="#E1473D"/><stop offset="1" stop-color="#E9605A"/></linearGradient><linearGradient id="paint15_linear_295_3619" x1="102561" y1="18659.6" x2="102382" y2="23493.8" gradientUnits="userSpaceOnUse"><stop stop-color="#FF928E"/><stop offset="1" stop-color="#FE7062"/></linearGradient><linearGradient id="paint16_linear_295_3619" x1="222329" y1="71303.8" x2="219245" y2="142867" gradientUnits="userSpaceOnUse"><stop stop-color="#FF928E"/><stop offset="1" stop-color="#FE7062"/></linearGradient><linearGradient id="paint17_linear_295_3619" x1="46843.5" y1="35836.3" x2="45690.1" y2="46467.4" gradientUnits="userSpaceOnUse"><stop stop-color="#E1473D"/><stop offset="1" stop-color="#E9605A"/></linearGradient><linearGradient id="paint18_linear_295_3619" x1="90599.9" y1="36072.7" x2="117080" y2="36072.7" gradientUnits="userSpaceOnUse"><stop stop-color="#4F52FF"/><stop offset="1" stop-color="#4042E2"/></linearGradient><linearGradient id="paint19_linear_295_3619" x1="49496.2" y1="31101.6" x2="61350.8" y2="31101.6" gradientUnits="userSpaceOnUse"><stop stop-color="#4F52FF"/><stop offset="1" stop-color="#4042E2"/></linearGradient><linearGradient id="paint20_linear_295_3619" x1="1.895" y1="145.642" x2="71.907" y2="120.864" gradientUnits="userSpaceOnUse"><stop stop-color="#2B3582"/><stop offset="1" stop-color="#150E42"/></linearGradient><linearGradient id="paint21_linear_295_3619" x1="83281.5" y1="134263" x2="177890" y2="105683" gradientUnits="userSpaceOnUse"><stop stop-color="#2B3582"/><stop offset="1" stop-color="#150E42"/></linearGradient></defs></svg>