<svg width="65" height="43" fill="none" xmlns="http://www.w3.org/2000/svg"><path d="M28.058 40.363l-8.083-3.492a2.088 2.088 0 00-1.93.149l-7.457 4.679a2.088 2.088 0 01-3.191-1.956l.835-8.765a2.087 2.087 0 00-.737-1.79L.739 23.541a2.087 2.087 0 01.879-3.627l8.586-1.934a2.086 2.086 0 001.475-1.253l3.283-8.168a2.088 2.088 0 013.721-.284l4.485 7.574a2.088 2.088 0 001.649 1.016l8.783.599a2.086 2.086 0 011.422 3.45l-5.819 6.607a2.087 2.087 0 00-.457 1.878l2.146 8.538a2.087 2.087 0 01-2.834 2.425z" fill="#FE786C"/><path d="M9.665 28.684a4.046 4.046 0 00-.887-1.043l-4.412-3.688a1.576 1.576 0 01.666-2.746l5.612-1.252a4.099 4.099 0 002.9-2.467l2.146-5.336a1.575 1.575 0 012.818-.21l1.496 2.528-.384.23-1.496-2.53a1.13 1.13 0 00-2.02.155L13.96 17.66a4.543 4.543 0 01-3.224 2.726l-5.612 1.252a1.126 1.126 0 00-.476 1.966L9.066 27.3c.392.325.725.716.985 1.154l-.386.23zm1.595 9.93a1.58 1.58 0 01-1.57-1.724l.418-4.382.444.041-.417 4.383a1.127 1.127 0 001.724 1.06l4.87-3.055a4.59 4.59 0 014.212-.322l5.28 2.282a1.128 1.128 0 001.542-1.313l-1.4-5.577a4.533 4.533 0 01.995-4.096l3.799-4.316a1.126 1.126 0 00-.77-1.878l-5.738-.393a4.512 4.512 0 01-1.698-.457l.209-.4c.478.238.998.38 1.531.417l5.737.39a1.576 1.576 0 011.075 2.613l-3.8 4.316a4.096 4.096 0 00-.898 3.694l1.403 5.578a1.579 1.579 0 01-2.154 1.83l-5.278-2.278a4.124 4.124 0 00-3.798.29l-4.871 3.055a1.57 1.57 0 01-.847.242z" fill="#fff"/><path d="M44.492 24.181l5.908-2.55a1.517 1.517 0 011.41.109l5.45 3.418a1.522 1.522 0 002.323-1.43l-.601-6.406a1.519 1.519 0 01.538-1.309l4.936-4.12a1.52 1.52 0 00-.643-2.65l-6.278-1.407a1.525 1.525 0 01-1.079-.918L54.056.95a1.52 1.52 0 00-2.713-.208l-3.28 5.536a1.517 1.517 0 01-1.205.741l-6.419.439a1.52 1.52 0 00-1.044 2.52L43.65 14.8a1.515 1.515 0 01.334 1.376l-1.568 6.24a1.52 1.52 0 002.077 1.765z" fill="#2E1AAD"/><path d="M57.928 15.65c.172-.288.391-.545.649-.76l3.224-2.696a1.152 1.152 0 00-.488-2.008l-4.099-.918a2.986 2.986 0 01-2.12-1.803l-1.568-3.899a1.152 1.152 0 00-2.06-.158l-1.095 1.849.282.165 1.093-1.847a.818.818 0 01.774-.403.808.808 0 01.702.516l1.567 3.9a3.327 3.327 0 002.352 2l4.1.918a.835.835 0 01.35 1.438l-3.223 2.696c-.286.235-.53.517-.722.835l.282.175zm-1.165 7.254a1.155 1.155 0 001.146-1.252l-.298-3.21-.326.032.3 3.201a.835.835 0 01-1.252.774l-3.56-2.233a3.339 3.339 0 00-3.093-.234l-3.857 1.67a.835.835 0 01-1.127-.958l1.019-4.08a3.319 3.319 0 00-.726-3L42.21 10.46a.835.835 0 01.563-1.37l4.193-.283c.435-.03.86-.143 1.252-.336l-.146-.292c-.35.173-.73.275-1.118.3l-4.193.284a1.15 1.15 0 00-.785 1.91l2.776 3.155a2.987 2.987 0 01.655 2.713l-1.023 4.076a1.152 1.152 0 001.574 1.338l3.857-1.67a3.019 3.019 0 012.775.209l3.559 2.233c.184.115.396.177.613.177z" fill="#fff"/><path d="M50.372 5.265l.282.167-.649 1.096-.282-.167.65-1.096z" fill="#fff"/></svg>