<svg width="56" height="56" fill="none" xmlns="http://www.w3.org/2000/svg"><path fill-rule="evenodd" clip-rule="evenodd" d="M48.993 25.606H49a2.333 2.333 0 012.333 2.326 23.175 23.175 0 01-6.787 16.52 23.18 23.18 0 01-16.478 6.881H28a23.175 23.175 0 01-16.452-6.787 23.18 23.18 0 01-6.881-16.478 23.17 23.17 0 016.787-16.52 23.18 23.18 0 0116.478-6.881c1.855.028 3.745.214 5.556.648a2.335 2.335 0 01-1.094 4.539c-1.45-.35-2.987-.497-4.448-.52a18.542 18.542 0 00-13.183 5.504 18.543 18.543 0 00-5.43 13.216 18.546 18.546 0 005.505 13.183A18.548 18.548 0 0028 46.667h.054a18.542 18.542 0 0013.183-5.505 18.547 18.547 0 005.43-13.216 2.334 2.334 0 012.326-2.34zm-29.643.744a2.33 2.33 0 013.3 0l5.236 5.236 14.693-16.79a2.333 2.333 0 013.51 3.075L29.754 36.538a2.34 2.34 0 01-1.678.796H28a2.331 2.331 0 01-1.65-.684l-7-7a2.33 2.33 0 010-3.3z" fill="#2E1AAD"/></svg>